<?xml version="1.0" standalone="no"?>
<!DOCTYPE svg PUBLIC "-//W3C//DTD SVG 20010904//EN"
 "http://www.w3.org/TR/2001/REC-SVG-20010904/DTD/svg10.dtd">
<svg version="1.0" xmlns="http://www.w3.org/2000/svg"
 width="200.000000pt" height="200.000000pt" viewBox="0 0 200.000000 200.000000"
 preserveAspectRatio="xMidYMid meet">
<metadata>
Created by potrace 1.14, written by Peter Selinger 2001-2017
</metadata>
<g transform="translate(0.000000,200.000000) scale(0.100000,-0.100000)"
fill="#000000" stroke="none">
<path d="M1160 1779 c-220 -20 -392 -85 -560 -210 -261 -193 -394 -427 -404
-705 -2 -72 13 -212 29 -261 7 -20 4 -21 -68 -21 -79 -1 -133 -19 -144 -49
-16 -42 64 -54 177 -27 44 10 66 11 68 4 12 -36 93 -138 136 -172 50 -40 132
-83 178 -95 141 -34 284 -35 369 -4 55 21 99 53 99 72 0 12 2 13 -66 -23 -105
-55 -255 -58 -411 -7 -107 35 -206 118 -255 212 l-19 39 48 -7 c50 -6 101 -14
143 -20 14 -2 48 -7 75 -10 28 -4 77 -11 110 -16 104 -17 440 -20 539 -4 101
16 204 45 282 81 l54 25 0 54 0 54 -62 -43 c-146 -101 -328 -151 -548 -149
-87 0 -259 10 -295 17 -11 2 -42 7 -70 10 -100 14 -118 18 -139 26 -17 7 -13
9 20 9 56 1 203 44 291 86 128 60 239 142 385 284 75 74 84 86 70 97 -13 9 -8
11 29 9 24 -2 89 -6 143 -10 55 -3 102 -7 105 -9 15 -9 51 15 51 33 0 38 -35
45 -250 48 -251 3 -389 -17 -541 -79 -200 -81 -298 -259 -183 -334 36 -24 38
-13 9 43 -25 47 -26 52 -12 84 49 115 250 199 507 212 41 3 62 2 45 0 -21 -3
-62 -36 -140 -111 -60 -59 -142 -131 -180 -159 -132 -100 -284 -160 -447 -177
l-54 -6 -12 42 c-19 69 -25 117 -24 209 2 263 159 519 442 720 190 136 377
200 590 202 147 2 208 -5 287 -35 57 -21 123 -58 123 -68 0 -3 -23 -24 -52
-45 -73 -56 -443 -427 -472 -473 -5 -9 11 -12 61 -12 l68 0 55 71 c30 39 60
76 65 83 6 6 44 52 84 101 97 116 222 246 235 242 5 -2 20 -18 34 -35 14 -18
19 -30 11 -27 -16 6 -21 -3 -80 -168 -39 -107 -93 -299 -104 -367 -9 -56 -17
-103 -22 -125 -2 -11 -7 -90 -9 -175 -6 -165 3 -222 39 -244 32 -19 45 14 43
109 -1 59 2 85 10 85 21 0 151 146 192 216 84 142 119 319 91 457 -17 79 -73
189 -129 250 l-51 55 33 25 c56 41 61 41 34 -2 -31 -49 -32 -53 -6 -76 19 -17
20 -17 30 9 46 123 73 153 136 158 24 2 31 12 16 22 -19 11 -142 -24 -199 -58
-34 -20 -65 -41 -68 -46 -3 -5 -34 6 -68 25 -131 71 -312 102 -497 84z m656
-306 c77 -184 33 -417 -115 -613 -27 -36 -51 -76 -54 -90 -12 -56 5 132 19
220 19 111 72 323 108 429 14 40 23 77 20 82 -3 5 -2 9 1 9 3 0 13 -16 21 -37z
m-649 -449 c-3 -3 -12 -4 -19 -1 -8 3 -5 6 6 6 11 1 17 -2 13 -5z"/>
</g>
</svg>
