<?xml version="1.0" standalone="no"?>
<!DOCTYPE svg PUBLIC "-//W3C//DTD SVG 1.1//EN" "http://www.w3.org/Graphics/SVG/1.1/DTD/svg11.dtd" >
<svg xmlns="http://www.w3.org/2000/svg">
<metadata></metadata>
<defs>
<font id="als_mezzoregular" horiz-adv-x="1171" >
<font-face units-per-em="2048" ascent="1536" descent="-512" />
<missing-glyph horiz-adv-x="614" />
<glyph unicode=" "  horiz-adv-x="614" />
<glyph unicode="&#x09;" horiz-adv-x="614" />
<glyph unicode="&#xa0;" horiz-adv-x="614" />
<glyph unicode="!" horiz-adv-x="649" d="M246 82q0 117 106 117q103 0 103 -113q0 -52 -29 -80.5t-74 -28.5q-106 0 -106 105zM250 1415l172 29l-19 -1084h-114l-21 740q-5 227 -18 315z" />
<glyph unicode="&#x22;" horiz-adv-x="638" d="M86 1454h172l-20 -397h-115l-10 157q-6 84 -27 240zM393 1454h172l-20 -397h-115l-10 157q-8 115 -27 240z" />
<glyph unicode="#" horiz-adv-x="1513" d="M102 479l19 92h362l54 306h-363l19 92h362l35 192q32 179 37 285h116l-84 -477h340l35 192q29 153 39 285h117l-86 -477h366l-20 -92h-363l-55 -306h367l-19 -92h-364l-88 -502h-105l88 502h-340l-88 -502h-104l88 502h-365zM588 571h340l55 306h-342z" />
<glyph unicode="$" horiz-adv-x="989" d="M113 1014q0 64 17.5 121t54 105.5t98 83.5t143.5 50v137l133 7v-140q144 -8 272 -43l-40 -129q-66 32 -150 51t-149 19q-108 0 -171 -47t-63 -142q0 -36 6.5 -63.5t27 -54.5t44 -47.5t70.5 -49t93 -52t126 -62.5q143 -70 197.5 -139t54.5 -166q0 -40 -7 -81.5t-28 -92.5 t-54.5 -92.5t-92.5 -77.5t-136 -52v-135l-133 -6v139q-181 14 -311 66l57 143q148 -80 358 -80q107 0 161 48.5t54 134.5q0 40 -11 70.5t-30.5 55.5t-62.5 53t-89.5 52.5t-129.5 63.5q-309 148 -309 352z" />
<glyph unicode="%" horiz-adv-x="1591" d="M102 1085q0 164 94 267.5t218 103.5q130 0 203 -82t73 -241q0 -89 -35.5 -175.5t-108.5 -147t-165 -60.5q-136 0 -207.5 85t-71.5 250zM221 -10l1010 1456l74 -51l-1010 -1458zM246 1122q0 -39 8 -83.5t26.5 -92.5t55 -79t86.5 -31q131 0 131 245q0 126 -50 207.5 t-126 81.5q-66 0 -98.5 -56t-32.5 -192zM891 311q0 164 93 268.5t218 104.5q132 0 204.5 -86t72.5 -238q0 -92 -37 -178.5t-109.5 -145.5t-163.5 -59q-127 0 -202.5 87t-75.5 247zM1032 348q0 -43 9.5 -89t28.5 -92t55.5 -75t84.5 -29q39 0 66.5 23.5t40 63t17.5 77t5 80.5 q0 128 -50 209.5t-124 81.5q-68 0 -100.5 -58.5t-32.5 -191.5z" />
<glyph unicode="&#x26;" horiz-adv-x="1351" d="M133 317q0 160 96.5 272t251.5 171q-87 104 -126.5 159t-62 112.5t-22.5 123.5q0 55 21.5 107t62.5 95.5t108.5 70t151.5 26.5q149 0 226.5 -71.5t77.5 -184.5q0 -126 -71 -231.5t-206 -182.5q190 -241 393 -458q60 63 120 154.5t99 181.5l31 -13q-69 -217 -199 -377 q31 -31 70 -71.5t59 -59.5t39 -35l-143 -120q-70 79 -133 157q-105 -86 -208.5 -126t-231.5 -40q-178 0 -291 91.5t-113 248.5zM289 424q0 -142 91 -221.5t234 -79.5q83 0 162.5 27.5t136.5 70.5q-234 284 -407 506q-94 -48 -155.5 -127.5t-61.5 -175.5zM426 1180 q0 -74 40.5 -158.5t143.5 -208.5q176 159 176 324q0 102 -51.5 158.5t-136.5 56.5q-79 0 -125.5 -44t-46.5 -128z" />
<glyph unicode="'" horiz-adv-x="348" d="M92 1454h174l-22 -397h-115l-10 157q-9 136 -27 240z" />
<glyph unicode="(" horiz-adv-x="643" d="M102 410q0 752 365 1052l31 -32q-64 -89 -110.5 -197t-72.5 -207t-41 -214t-19.5 -202t-4.5 -188q0 -291 61 -546.5t174 -377.5l-24 -35q-105 69 -179.5 184.5t-111.5 251.5t-52.5 260t-15.5 251z" />
<glyph unicode=")" horiz-adv-x="643" d="M147 1432l27 32q367 -289 367 -1034q0 -83 -10.5 -179.5t-37 -212.5t-65.5 -220t-103.5 -200t-144.5 -155l-24 35q118 143 176.5 389.5t58.5 534.5q0 110 -2.5 189t-16.5 198.5t-38.5 214.5t-72 205.5t-114.5 202.5z" />
<glyph unicode="*" horiz-adv-x="716" d="M61 1100q0 63 47.5 99t118.5 36q45 0 86 -10l4 10q-63 88 -141 88q-33 0 -57 -6l12 139q16 8 35 8q134 0 170 -221l10 -2q41 52 41 109q0 66 -41 110l129 56q25 -29 25 -80q0 -116 -138 -205l5 -10q24 -9 59 -9q82 0 141 82l88 -106q-29 -72 -108 -72q-39 0 -90 21.5 t-99 64.5l-8 -6q3 -61 33 -106q33 -51 88 -74l-80 -115q-46 14 -69 43q-29 32 -29 92q0 56 35 160l-11 6q-55 -21 -79 -55q-40 -51 -45 -119l-130 51q0 1 -1 8t-1 13z" />
<glyph unicode="+" horiz-adv-x="1085" d="M133 559v123h344v354h129v-354h346v-123h-346v-354h-129v354h-344z" />
<glyph unicode="," horiz-adv-x="618" d="M184 -266q68 84 68 190q0 112 -55 174l190 92q37 -51 37 -118q0 -69 -56.5 -170t-172.5 -178z" />
<glyph unicode="-" horiz-adv-x="720" d="M117 549v141h485v-141h-485z" />
<glyph unicode="." horiz-adv-x="651" d="M246 72q0 110 106 110q54 0 79.5 -25t25.5 -81q0 -53 -32 -81t-73 -28q-47 0 -76.5 26t-29.5 79z" />
<glyph unicode="/" horiz-adv-x="1185" d="M-4 -242l1132 1688l74 -51l-1132 -1690z" />
<glyph unicode="0" horiz-adv-x="1126" d="M76 664q0 131 18.5 245.5t59.5 215t102 172t152 112.5t204 41q216 0 326.5 -176.5t110.5 -487.5q0 -119 -15.5 -229t-54.5 -218t-97.5 -186.5t-152 -127t-211.5 -48.5q-95 0 -171 37.5t-126 101t-83 152.5t-47.5 187t-14.5 209zM254 770q0 -112 7.5 -204t28.5 -185 t56 -156.5t94 -103t138 -39.5q95 0 162 77t98.5 204.5t31.5 291.5q0 691 -319 691q-91 0 -159.5 -78t-103 -207.5t-34.5 -290.5z" />
<glyph unicode="1" horiz-adv-x="1126" d="M199 1186q196 112 342 262l149 8v-1313h195v-143h-592v143h242v1104q-209 -72 -318 -98z" />
<glyph unicode="2" horiz-adv-x="1126" d="M168 0v80q79 75 150 152t152 183.5t139 208t97 220.5t39 227q0 135 -61 195.5t-195 60.5q-143 0 -280 -92l-25 35q193 182 422 182q164 0 242 -83.5t78 -229.5q0 -124 -53 -262t-144.5 -269t-193 -244.5t-218.5 -220.5h650v-143h-799z" />
<glyph unicode="3" horiz-adv-x="1126" d="M143 1266q7 8 20 20.5t55.5 44.5t87.5 56.5t112.5 44.5t134.5 20q65 0 119.5 -14t99 -44.5t69.5 -85t25 -128.5q0 -101 -62.5 -199t-187.5 -168q151 -33 232.5 -108.5t81.5 -210.5q0 -76 -27.5 -149.5t-86 -140.5t-141 -117t-201 -80t-257.5 -30l-4 39q149 8 272 59.5 t200 147.5t77 221q0 139 -99.5 203t-316.5 64h-94l24 104h271q69 49 113.5 128.5t44.5 172.5q0 106 -61 158.5t-175 52.5q-158 0 -301 -96z" />
<glyph unicode="4" horiz-adv-x="1126" d="M94 395v103l563 956h177l-637 -915h514v444l155 45v-489h176v-144h-176v-395h-155v395h-617z" />
<glyph unicode="5" horiz-adv-x="1126" d="M240 18q265 29 401.5 147.5t136.5 309.5q0 277 -348 277q-65 0 -164 -13l-24 23l57 670h608v-146h-516l-39 -407q84 8 156 8q212 0 325 -96t113 -271q0 -126 -60 -231t-158.5 -173t-224 -104.5t-259.5 -34.5z" />
<glyph unicode="6" horiz-adv-x="1126" d="M113 520q0 161 36 304.5t96 246t128 175t141 112.5q83 45 150 69.5t161 45.5l13 -41q-177 -55 -310 -166q-201 -174 -243 -496q70 70 167.5 114t215.5 44q175 0 265.5 -104t90.5 -277q0 -138 -41.5 -249.5t-109.5 -180t-151 -104.5t-171 -36q-115 0 -201.5 45t-137 122.5 t-75 172t-24.5 203.5zM283 721q0 -321 78.5 -469t242.5 -148q117 0 179.5 90t62.5 250q0 102 -21 173t-61.5 110.5t-90.5 56.5t-116 17q-65 0 -144.5 -23t-129.5 -57z" />
<glyph unicode="7" horiz-adv-x="1126" d="M182 1290v144h826v-64q-10 -14 -26.5 -40.5t-65.5 -111t-94.5 -173.5t-104 -220.5t-104 -260t-84 -284.5t-54.5 -300l-176 14q107 684 582 1296h-699z" />
<glyph unicode="8" horiz-adv-x="1126" d="M96 299q0 145 79 248.5t228 159.5q-158 88 -219 173t-61 201q0 167 120 270t330 103q51 0 98 -8.5t93 -29.5t79.5 -52.5t54 -81t20.5 -111.5q0 -243 -269 -378q50 -20 76.5 -31.5t69.5 -33t66.5 -39t53.5 -45.5t45 -57.5t26 -69t11 -85.5q0 -52 -17 -110.5t-57 -120.5 t-97 -111.5t-145 -81t-192 -31.5q-175 0 -284 83t-109 239zM225 381q0 -126 94.5 -197t245.5 -71q126 0 205.5 58t79.5 165q0 54 -22.5 100t-68.5 83.5t-98.5 66.5t-128.5 61l-94 41q-213 -106 -213 -307zM307 1130q0 -52 12 -91t44.5 -79t93 -77.5t153.5 -75.5 q99 59 147 138.5t48 166.5q0 115 -77.5 177.5t-188.5 62.5q-117 0 -174.5 -59.5t-57.5 -162.5z" />
<glyph unicode="9" horiz-adv-x="1126" d="M92 885q0 131 38.5 239.5t103.5 180t150.5 110.5t180.5 39q439 0 439 -645q0 -126 -27 -245.5t-81 -226.5t-143 -190t-204 -124q-119 -43 -221 -46l-9 41q150 31 269 117q66 47 116 115.5t77 141.5t40 141t13 131q-95 -77 -185 -112.5t-200 -35.5q-148 0 -252.5 98 t-104.5 271zM268 967q0 -332 299 -332q65 0 143 20.5t124 51.5q-3 308 -85.5 464t-236.5 156q-122 0 -183 -94.5t-61 -265.5z" />
<glyph unicode=":" horiz-adv-x="651" d="M246 74q0 112 106 112q105 0 105 -108q0 -52 -32 -79.5t-73 -27.5q-106 0 -106 103zM246 899q0 113 106 113q54 0 79.5 -24.5t25.5 -84.5q0 -56 -31 -81t-74 -25q-106 0 -106 102z" />
<glyph unicode=";" horiz-adv-x="618" d="M184 -264q72 83 72 194q0 96 -59 170l190 93q37 -51 37 -136q0 -46 -19.5 -97.5t-73.5 -115.5t-136 -118zM209 909q0 113 106 113q105 0 105 -109q0 -51 -32 -78.5t-73 -27.5q-106 0 -106 102z" />
<glyph unicode="&#x3c;" horiz-adv-x="1085" d="M246 553v135l602 457v-158l-479 -354v-12l479 -361v-164z" />
<glyph unicode="=" horiz-adv-x="1085" d="M129 682v123h840v-123h-840zM131 436v123h840v-123h-840z" />
<glyph unicode="&#x3e;" horiz-adv-x="1085" d="M248 96v164l477 361v12l-477 354v158l602 -457v-135z" />
<glyph unicode="?" horiz-adv-x="854" d="M61 1292q8 7 21.5 17.5t57 38.5t88 49.5t108 39t123.5 17.5q74 0 132 -19t93.5 -49t58.5 -72t32 -84.5t9 -88.5q0 -164 -85.5 -310t-284.5 -280v-201h-133v187q178 131 259 249t81 242q0 145 -69.5 218t-223.5 73q-137 0 -252 -53zM238 78q0 112 106 112q105 0 105 -108 q0 -52 -32 -79.5t-73 -27.5q-106 0 -106 103z" />
<glyph unicode="@" horiz-adv-x="1998" d="M113 203q0 128 22 255.5t68.5 251t113.5 234.5t162 205t209 162t259 106.5t308 38.5q170 0 298 -49.5t204 -137.5t113 -200.5t37 -247.5q0 -120 -23 -240t-70 -228.5t-111.5 -192.5t-153.5 -133.5t-191 -49.5q-68 0 -120 36.5t-62 115.5q-143 -152 -310 -152 q-136 0 -216.5 90t-80.5 273q0 107 23 210t69 193t110.5 157.5t153.5 107t191 39.5q25 0 99.5 -9.5t115.5 -9.5q63 0 103 6q-113 -475 -113 -848q0 -139 104 -139q51 0 105 47t100.5 131t76.5 218t30 290q0 313 -140 459.5t-454 146.5q-136 0 -266 -53t-236.5 -150.5 t-187.5 -226.5t-125.5 -290t-44.5 -332q0 -137 33.5 -246t91 -179.5t137.5 -117t168 -66.5t188 -20q190 0 369 76l16 -27q-8 -8 -23 -20.5t-66 -44.5t-107.5 -56.5t-146 -44.5t-183.5 -20q-144 0 -260 39.5t-203.5 120t-135.5 213t-48 309.5zM735 416q0 -69 14 -125 t44.5 -100.5t82.5 -69.5t123 -25q88 0 172 64v30q0 246 89 697q-61 45 -175 45q-350 0 -350 -516z" />
<glyph unicode="A" horiz-adv-x="1290" d="M82 0l508 1436h117l501 -1436h-174l-131 406h-538l-134 -406h-149zM399 518h469l-112 342l-115 352h-10q-82 -248 -117 -354z" />
<glyph unicode="B" horiz-adv-x="1208" d="M174 1425h467q365 0 365 -276q0 -117 -63 -215t-167 -150q162 -31 241 -119.5t79 -218.5q0 -205 -134.5 -325.5t-340.5 -120.5h-428v1137q0 64 -4.5 136t-9.5 112zM346 113h266q157 0 240.5 79t83.5 207q0 283 -420 283h-170v-569zM346 795h367q60 47 95.5 124.5 t35.5 159.5q0 124 -72.5 179t-232.5 55h-193v-518z" />
<glyph unicode="C" horiz-adv-x="1300" d="M115 655q0 148 40 277t108.5 221.5t158.5 159.5t191 100t204 33q180 0 340 -57l-53 -172q-150 92 -365 92q-92 0 -170.5 -32.5t-142.5 -99.5t-100.5 -182t-36.5 -268q0 -152 46 -273t126.5 -197.5t186.5 -116.5t229 -40q160 0 303 86l18 -32q-70 -68 -186.5 -122.5 t-259.5 -54.5q-195 0 -340.5 86.5t-221 239.5t-75.5 352z" />
<glyph unicode="D" horiz-adv-x="1478" d="M174 1425h563q293 0 461 -164.5t168 -453.5q0 -126 -26 -243t-81.5 -220t-135 -179.5t-193 -120.5t-248.5 -44h-487v1106q0 92 -5.5 172t-10.5 114zM348 113h326q127 0 227.5 49t163 134t95 195.5t32.5 237.5q0 289 -139.5 436.5t-413.5 147.5h-291v-1200z" />
<glyph unicode="E" horiz-adv-x="1118" d="M174 1425h750l-17 -125q-421 17 -538 17h-21v-543l522 17l-14 -115l-508 6v-576q193 0 349.5 7t216.5 15l61 7l-19 -135h-761v1061q0 79 -5.5 170t-10.5 143z" />
<glyph unicode="F" horiz-adv-x="1046" d="M174 1425h750l-17 -129q-421 17 -538 17h-21v-539l526 17l-18 -115l-508 6v-682h-153v1059q0 98 -5.5 189.5t-10.5 133.5z" />
<glyph unicode="G" horiz-adv-x="1359" d="M113 672q0 180 58 329t156.5 245t225.5 148t268 52q217 0 381 -60l-53 -169q-158 92 -379 92q-224 0 -351.5 -143.5t-127.5 -442.5q0 -301 165.5 -471t442.5 -170q87 0 205 27v401q-56 0 -134 -2.5t-128 -5.5l-49 -2l16 118h448v-561q-14 2 -43 2q-31 0 -106 -20.5 t-172.5 -41t-181.5 -20.5q-133 0 -248 45t-203.5 130t-139 219t-50.5 301z" />
<glyph unicode="H" horiz-adv-x="1470" d="M174 1425h166v-626h803v254q0 86 -2.5 179t-4.5 143l-3 50h163v-1425h-153v686h-803v-686h-154v1055q0 82 -3 174.5t-6 144.5z" />
<glyph unicode="I" horiz-adv-x="538" d="M184 1425h170v-1425h-153v1122q0 88 -17 303z" />
<glyph unicode="J" horiz-adv-x="567" d="M20 -504q91 86 142 215t51 283v1122q0 47 -3.5 124.5t-7.5 131.5l-3 53h168v-1284q0 -178 -36.5 -305.5t-119.5 -222.5q-34 -39 -77.5 -75.5t-69.5 -53.5l-27 -16z" />
<glyph unicode="K" horiz-adv-x="1275" d="M174 1425h170v-669h37q25 0 47 26l301 385q47 60 88.5 127.5t59.5 104.5l18 37l186 -15l-532 -671l641 -746l-203 -14l-592 708q-14 17 -37 17h-14v-715h-154v1124q0 76 -4 151t-8 113z" />
<glyph unicode="L" horiz-adv-x="1054" d="M174 1425h168v-1312q139 0 297 6t246 12l88 6l-19 -137h-766v1174q0 62 -3.5 124.5t-6.5 94.5z" />
<glyph unicode="M" horiz-adv-x="1744" d="M164 0l86 1425h151l263 -606q88 -207 202 -512h11q29 72 204 481l273 637h157l70 -1425h-158l-12 313q-6 141 -17 460.5t-14 400.5h-10q-105 -280 -258 -617l-178 -399h-148l-180 403q-100 221 -248 613h-10q-4 -107 -11 -285t-14.5 -358.5t-9.5 -225.5l-14 -305h-135z " />
<glyph unicode="N" horiz-adv-x="1437" d="M182 0v1425h125l438 -624q216 -305 379 -565h11q-5 269 -5 757v432h125v-1425h-125l-464 651q-45 64 -167 243t-190 277h-10q1 -109 4.5 -308t3.5 -296v-567h-125z" />
<glyph unicode="O" horiz-adv-x="1556" d="M113 659q0 145 36 271t99.5 219t149.5 159.5t188 100t213 33.5q158 0 282.5 -55.5t203 -153t119 -226t40.5 -280.5q0 -141 -51.5 -277.5t-140.5 -242t-218.5 -170t-275.5 -64.5q-294 0 -469.5 186t-175.5 500zM289 723q0 -132 33.5 -248t96.5 -205t162.5 -140.5 t223.5 -51.5q94 0 172 34t131 92t90 136t53.5 164t16.5 178q0 301 -141 478t-369 177q-99 0 -184 -40t-148.5 -115.5t-100 -193.5t-36.5 -265z" />
<glyph unicode="P" horiz-adv-x="1132" d="M174 1423h391q214 0 339.5 -101t125.5 -273q0 -102 -39 -196t-109 -167t-177.5 -116.5t-235.5 -43.5h-123v-526h-153v1167q0 52 -4.5 116t-9.5 102zM346 639h209q143 0 227 99.5t84 256.5q0 74 -19.5 130t-52.5 91t-82 56.5t-101 30t-117 8.5h-148v-672z" />
<glyph unicode="Q" horiz-adv-x="1552" d="M113 662q0 168 51.5 313.5t142.5 249t220.5 162.5t279.5 59q160 0 284 -57t200 -157.5t114.5 -230t38.5 -282.5q0 -255 -121 -446.5t-358 -278.5q130 -209 413 -209q132 0 240 39l16 -39q-53 -44 -150 -78.5t-206 -34.5q-179 0 -319.5 84t-219.5 219 q-307 39 -466.5 221.5t-159.5 465.5zM289 723q0 -93 19.5 -183t62 -174t103 -147.5t150 -102t195.5 -38.5q88 0 162.5 33.5t126.5 91t88.5 135t54 164.5t17.5 180q0 312 -141 485.5t-371 173.5q-220 0 -343.5 -162t-123.5 -456z" />
<glyph unicode="R" horiz-adv-x="1183" d="M154 1425h438q204 0 312 -82t108 -243q0 -134 -71 -239.5t-206 -176.5l398 -684h-189l-334 594h-282v-594h-154v1055q0 75 -5 167.5t-10 147.5zM328 707h331q80 51 135.5 138t55.5 193q0 275 -332 275h-190v-606z" />
<glyph unicode="S" horiz-adv-x="1052" d="M113 53l57 148q186 -92 393 -92q112 0 176 65.5t64 169.5q0 96 -69 159t-261 156q-195 95 -268.5 180t-73.5 224q0 78 26.5 146t79 121.5t138 84.5t194.5 31q167 0 320 -47l-51 -142q-170 76 -316 76q-117 0 -178 -61.5t-61 -159.5q0 -57 12.5 -95t54 -81t118.5 -86.5 t206 -99.5q152 -66 209 -147t57 -191q0 -58 -13 -115.5t-45.5 -116t-81 -103t-126.5 -72.5t-176 -28q-210 0 -385 76z" />
<glyph unicode="T" horiz-adv-x="1325" d="M82 1280l6 145h1149l6 -145q-164 27 -268 27h-236v-1307h-153v1307h-236q-61 0 -128 -6.5t-104 -13.5z" />
<glyph unicode="U" horiz-adv-x="1429" d="M174 1425h172v-915q0 -215 107.5 -323.5t314.5 -108.5q167 0 260.5 106t93.5 293v582q0 96 -4.5 187.5t-9.5 135.5l-4 43h143v-909q0 -247 -136.5 -393t-397.5 -146q-111 0 -204.5 29t-164.5 86.5t-111 150t-40 212.5v704q0 44 -4.5 110.5t-9.5 110.5z" />
<glyph unicode="V" horiz-adv-x="1343" d="M82 1425h182l246 -712q34 -98 60.5 -181.5t59 -194.5t50.5 -169h14q25 79 57.5 176t72 212.5t59.5 174.5l110 326q24 73 49.5 165t38.5 148l13 55h161l-505 -1448h-132z" />
<glyph unicode="W" horiz-adv-x="1984" d="M78 1425h172l211 -788q84 -318 117 -457h10q112 433 119 457l219 790h157l183 -684q104 -388 141 -563h10q9 34 51 191t68 252l121 434q19 70 39.5 162t31.5 149l11 57h162l-431 -1448h-157l-178 660q-19 73 -71 281.5t-75 293.5h-10q-56 -252 -145 -581l-179 -654h-159z " />
<glyph unicode="X" horiz-adv-x="1296" d="M82 0l473 745l-428 680h188l205 -340l142 -229h10q88 139 139 229l199 340h157l-424 -675l471 -750h-186l-203 324l-190 311h-10q-127 -209 -199 -328l-186 -307h-158z" />
<glyph unicode="Y" horiz-adv-x="1218" d="M82 1423h176l358 -725h11l184 359q31 61 68.5 153t59.5 154l22 61h176l-447 -860v-565h-153v563z" />
<glyph unicode="Z" horiz-adv-x="1181" d="M92 0v63l787 1250h-295q-128 0 -236 -6.5t-152 -13.5l-44 -7l20 139h918v-65l-785 -1247h320q152 0 265 7t150 14l37 7l-20 -141h-965z" />
<glyph unicode="[" horiz-adv-x="630" d="M184 -543v2009h303v-104h-178v-1800h178v-105h-303z" />
<glyph unicode="\" horiz-adv-x="1705" d="M94 1395l72 51l1132 -1688l-71 -53z" />
<glyph unicode="]" horiz-adv-x="663" d="M143 -438h211v1800h-211v104h336v-2009h-336v105z" />
<glyph unicode="^" horiz-adv-x="1085" d="M53 707l445 747h92l444 -747h-153l-332 585h-10l-332 -585h-154z" />
<glyph unicode="_" horiz-adv-x="946" d="M-8 -188h958v-123h-958v123z" />
<glyph unicode="`" horiz-adv-x="307" d="M0 1454h223l84 -262h-76z" />
<glyph unicode="a" horiz-adv-x="1052" d="M113 291q0 68 23 125t71.5 103.5t132.5 72.5t197 26h170v80q0 121 -59 174.5t-177 53.5q-120 0 -244 -80l-22 35q180 166 387 166q140 0 204 -76t64 -248v-492q0 -125 25 -231h-154q-13 67 -16 147l-6 3q-47 -75 -120.5 -124t-168.5 -49q-134 0 -220.5 85t-86.5 229z M274 328q0 -99 59 -157t154 -58q56 0 111 20t82 40l27 20v307q-131 16 -195 16q-110 0 -174 -49t-64 -139z" />
<glyph unicode="b" horiz-adv-x="1155" d="M174 1409l176 35v-549q139 152 332 152q89 0 160 -39t113.5 -104t64.5 -144t22 -164q0 -151 -41.5 -272t-112.5 -195t-159.5 -113t-187.5 -39q-126 0 -252 70l-78 -70h-14v1182q0 132 -23 250zM350 207q120 -98 271 -98q117 0 187.5 99.5t70.5 270.5q0 214 -79 324 t-231 110q-62 0 -122 -16.5t-97 -42.5v-647z" />
<glyph unicode="c" horiz-adv-x="964" d="M113 444q0 128 43.5 242t115.5 192t167 123.5t196 45.5q95 0 194 -29l-30 -172q-108 61 -248 61q-130 0 -203.5 -83.5t-73.5 -264.5q0 -211 105.5 -335t271.5 -124q116 0 201 39l16 -39q-49 -36 -89.5 -59t-111 -43.5t-147.5 -20.5q-62 0 -120 17t-110.5 54.5t-91.5 91 t-62 132t-23 172.5z" />
<glyph unicode="d" horiz-adv-x="1130" d="M113 442q0 172 67 310.5t186.5 216.5t268.5 78q73 0 168 -21v139q0 137 -23 252l176 33v-1450h-55l-90 94q-75 -64 -143 -90.5t-158 -26.5q-54 0 -108 16t-106.5 53t-93 89.5t-65 132t-24.5 174.5zM274 524q0 -189 99 -302t266 -113q81 0 164 26v731q-94 62 -221 62 q-149 0 -228.5 -103.5t-79.5 -300.5z" />
<glyph unicode="e" horiz-adv-x="1042" d="M113 467q0 250 129.5 415t339.5 165q87 0 153.5 -32t104.5 -80.5t61.5 -115.5t31 -125.5t7.5 -122.5t-2 -84h-664q0 -190 106.5 -290.5t283.5 -100.5q109 0 215 49l16 -39q-67 -51 -164.5 -91t-202.5 -40q-82 0 -154 28t-132 84.5t-94.5 154t-34.5 225.5zM283 600h497 q0 147 -67 242.5t-187 95.5q-62 0 -110 -29.5t-75 -80t-41.5 -107.5t-16.5 -121z" />
<glyph unicode="f" horiz-adv-x="600" d="M102 905v119h105v35q0 110 41.5 202t121 148.5t181.5 56.5q33 0 57 -4l-28 -162q-43 25 -107 25q-60 0 -86.5 -28.5t-26.5 -98.5v-174h238v-119h-238v-905h-153v905h-105z" />
<glyph unicode="g" horiz-adv-x="1126" d="M113 -281q0 81 60.5 145t162.5 95q-82 7 -117 48.5t-35 86.5q0 39 18.5 74.5t43 60.5t67.5 52.5t73.5 42.5t80.5 38q-127 13 -222 95.5t-95 206.5q0 96 37.5 172.5t98 121t128 67t135.5 22.5q122 0 215 -41l352 16v-133l-223 10q21 -26 36 -74t15 -90q0 -155 -118 -265.5 t-294 -117.5q-7 -4 -18 -11t-39.5 -27t-50 -38t-39.5 -40t-18 -37q0 -45 47.5 -65t154.5 -30l273 -24q106 -10 159.5 -59.5t53.5 -159.5q0 -66 -36 -133.5t-101 -125.5t-172 -95t-234 -37q-96 0 -169.5 15.5t-116 40t-69 58.5t-35.5 66t-9 69zM240 -209q0 -84 98.5 -142.5 t284.5 -58.5q135 0 226 62t91 155q0 58 -39.5 80.5t-136.5 30.5l-371 33q-71 -22 -112 -64t-41 -96zM301 733q0 -119 75.5 -193.5t194.5 -74.5q100 0 161 61.5t61 161.5q0 106 -71 185t-198 79q-99 0 -161 -58t-62 -161z" />
<glyph unicode="h" horiz-adv-x="1159" d="M174 1409l176 35v-256q0 -205 -4 -293q183 152 369 152q138 0 204 -81.5t66 -283.5v-682h-154v618q0 156 -55.5 228t-193.5 72q-67 0 -125 -16t-83 -32l-24 -16v-145v-709h-153v1159q0 132 -23 250z" />
<glyph unicode="i" horiz-adv-x="557" d="M174 1298q0 56 28.5 86.5t78.5 30.5q102 0 102 -112q0 -50 -31 -81.5t-71 -31.5q-46 0 -76.5 27t-30.5 81zM199 997l174 35v-1032h-154v748q0 146 -20 249z" />
<glyph unicode="j" horiz-adv-x="575" d="M23 -498q87 74 139.5 191t52.5 246v837q0 116 -20 221l174 35v-885q0 -192 -39 -321t-127 -227q-35 -38 -74 -70.5t-61 -45.5l-21 -13zM188 1298q0 56 28.5 86.5t78.5 30.5q102 0 102 -112q0 -50 -31 -81.5t-71 -31.5q-46 0 -76.5 27t-30.5 81z" />
<glyph unicode="k" horiz-adv-x="989" d="M174 1409l168 33v-869h29q26 0 53 35l158 213q28 38 60 91t50 86l19 34l186 -14l-360 -447l407 -567l-199 -14l-346 516q-20 33 -49 33h-8v-539h-154v1157q0 154 -14 252z" />
<glyph unicode="l" horiz-adv-x="565" d="M174 1409l176 35v-1247q0 -58 19.5 -83.5t62.5 -25.5q46 0 64 4l8 -31q-64 -84 -164 -84q-70 0 -106.5 41.5t-36.5 122.5v1018q0 132 -23 250z" />
<glyph unicode="m" horiz-adv-x="1728" d="M174 1004l148 38q18 -57 24 -149q87 81 171 117.5t179 36.5q185 0 242 -160q167 160 348 160q48 0 85 -8.5t72.5 -33.5t59 -66.5t37.5 -110t14 -160.5v-668h-153v594q0 176 -48.5 251t-170.5 75q-66 0 -119 -19.5t-115 -56.5q6 -129 6 -250v-594h-153v594q0 178 -49 252 t-181 74q-68 0 -123 -17.5t-76 -34.5l-22 -18q4 -107 4 -234v-616h-153v752q0 134 -27 252z" />
<glyph unicode="n" horiz-adv-x="1157" d="M174 1004l150 34q15 -58 20 -135q103 76 187 110t178 34q274 0 274 -365v-682h-154v616q0 165 -49.5 232t-179.5 67q-62 0 -125.5 -13.5t-96.5 -27.5l-32 -14q2 -86 2 -143v-717h-153v752q0 144 -21 252z" />
<glyph unicode="o" d="M113 449q0 135 42.5 249t113.5 189.5t163 117.5t193 42q212 0 323 -137.5t111 -364.5q0 -106 -36.5 -208t-101.5 -183t-163 -131t-211 -50q-202 0 -318 133t-116 343zM279 547q0 -85 21 -164t62 -145t110 -106t157 -40q135 0 199.5 100.5t64.5 272.5q0 212 -90.5 338.5 t-239.5 126.5q-137 0 -210.5 -97.5t-73.5 -285.5z" />
<glyph unicode="p" horiz-adv-x="1153" d="M174 1008l156 34q12 -76 16 -147q132 152 344 152q108 0 189.5 -64.5t121 -164.5t39.5 -216q0 -176 -65 -320t-175 -224.5t-241 -80.5q-96 0 -211 33v-532h-153v1288q0 134 -21 242zM348 203q52 -42 124 -68t146 -26q119 0 187.5 109t68.5 282q0 211 -78.5 312 t-222.5 101q-58 0 -121.5 -17t-103.5 -42v-651z" />
<glyph unicode="q" horiz-adv-x="1122" d="M113 451q0 154 59.5 290t171 221t250.5 85q34 0 101 -5.5t110 -5.5q73 0 143 6v-1538h-153v566q-77 -49 -137 -71t-142 -22q-81 0 -151.5 27t-128 82t-90.5 148.5t-33 216.5zM274 526q0 -206 91.5 -325t277.5 -119q81 0 152 31v761q-92 58 -209 58q-142 0 -227 -107 t-85 -299z" />
<glyph unicode="r" horiz-adv-x="741" d="M174 1014l150 26q16 -122 16 -227l-2 -92h10q44 179 115 252.5t194 73.5q31 0 64 -13l-31 -194q-36 4 -53 4q-136 0 -210.5 -80t-74.5 -178v-586h-153v709q0 174 -25 305z" />
<glyph unicode="s" horiz-adv-x="862" d="M113 41l63 145q153 -90 299 -90q74 0 112 42t38 106q0 60 -44.5 97t-191.5 110q-145 72 -197.5 138.5t-52.5 149.5q0 125 90.5 210t249.5 85q136 0 269 -43l-64 -145q-144 72 -266 72q-61 0 -99 -34.5t-38 -90.5q0 -31 6.5 -53.5t29 -51t72.5 -59t129 -66.5 q126 -56 181 -116.5t55 -157.5q0 -42 -12 -84.5t-39.5 -84t-66 -73.5t-96 -52t-126.5 -20q-161 0 -301 66z" />
<glyph unicode="t" horiz-adv-x="645" d="M61 911v45q107 46 164 105q83 87 109 192h35v-229h213v-113h-213v-604q0 -49 1.5 -75.5t8 -57t20 -44.5t38 -24t61.5 -10q33 0 71 10l17 -38q-113 -91 -213 -91q-78 0 -118 45t-40 154v735h-154z" />
<glyph unicode="u" horiz-adv-x="1150" d="M174 1024h156q4 -43 4 -84v-537q0 -173 49.5 -233.5t198.5 -60.5q52 0 109 15.5t87 30.5l31 15v854h154v-805q0 -130 14 -219h-156q-7 41 -10 129q-171 -152 -346 -152q-42 0 -81 8.5t-76.5 30t-65.5 53.5t-45 83.5t-17 115.5v631q0 95 -6 125z" />
<glyph unicode="v" horiz-adv-x="991" d="M72 1024h182l135 -459q22 -76 49 -180t44 -169l16 -66h12q74 257 121 417l49 160q18 59 36 133.5t27 119.5l9 44h163l-350 -1047h-125z" />
<glyph unicode="w" horiz-adv-x="1564" d="M76 1024h164l108 -479q16 -74 34.5 -166t29.5 -147l10 -56h12q66 218 117 363l168 485h149l158 -469q22 -64 51 -159t47 -158l19 -62h12q51 228 86 373l43 176q14 56 28.5 131t22.5 122l8 46h150l-281 -1042h-153l-156 452q-42 122 -121 397h-10q-59 -204 -129 -399 l-160 -450h-149z" />
<glyph unicode="x" horiz-adv-x="980" d="M72 0l344 524l-305 500h172l75 -131l148 -262h8q98 176 139 258l70 135h160l-303 -494l319 -530h-172l-106 184l-129 240h-11q-100 -172 -145 -252l-98 -172h-166z" />
<glyph unicode="y" horiz-adv-x="1050" d="M72 1024h176l282 -907h11l141 463q31 104 56 215t34 170l10 59h191l-379 -1106q-58 -171 -137 -289q-72 -106 -187 -153l-67 174q59 14 90.5 31.5t66.5 48.5q39 36 66.5 86t38.5 98z" />
<glyph unicode="z" horiz-adv-x="917" d="M102 0v61l508 850h-245q-50 0 -109.5 -5t-93.5 -10l-35 -5l14 133h674v-63l-506 -848h221q64 0 132.5 5t105.5 10l37 5l-17 -133h-686z" />
<glyph unicode="{" horiz-adv-x="788" d="M92 455v34q85 30 110 111.5t25 253.5q0 36 -3 166t-3 197q0 125 60.5 191.5t201.5 66.5q65 0 183 -25l-45 -98q-73 28 -152 28q-56 0 -85.5 -31.5t-29.5 -80.5q0 -72 3 -231.5t3 -256.5q0 -106 -32.5 -188.5t-102.5 -118.5q39 -21 65.5 -51.5t40.5 -59.5t21 -73 t8.5 -75.5t1.5 -84.5q0 -66 -3 -212.5t-3 -235.5q0 -74 34 -104t102 -30q74 0 157 39l-24 -106q-78 -25 -191 -25q-119 0 -166 46.5t-45 154.5l6 420q1 47 0 91t-4 82.5t-12 72t-23.5 59.5t-39 45t-58.5 29z" />
<glyph unicode="|" horiz-adv-x="573" d="M227 -336v1772h125v-1772h-125z" />
<glyph unicode="}" horiz-adv-x="794" d="M123 -508l53 102q67 -38 141 -38q67 0 94 28t27 105q0 87 -3 231t-3 209q0 53 1.5 84.5t8.5 75.5t21 73t40.5 59.5t65.5 51.5q-131 67 -131 307q0 39 1 195t1 227q0 99 -35.5 143t-113.5 44q-59 0 -150 -31l21 100q116 17 192 17q123 0 171 -60.5t48 -177.5 q0 -77 -3 -202.5t-3 -180.5q0 -53 1 -86.5t5 -77t13 -72t23.5 -56.5t38 -46t54.5 -27v-34q-23 -8 -41 -19.5t-31.5 -23t-24 -31.5t-17 -35t-11.5 -43.5t-7 -47t-3.5 -55t-1.5 -58v-66.5q6 -285 6 -359q0 -127 -48.5 -194.5t-170.5 -67.5q-119 0 -229 37z" />
<glyph unicode="~" horiz-adv-x="1085" d="M100 582q70 91 144.5 137.5t142.5 46.5q46 0 86 -11.5t109 -52.5q49 -30 79 -42.5t64 -12.5q94 0 178 115l82 -84q-68 -80 -140.5 -127t-135.5 -47q-80 0 -179 61q-49 29 -87 43.5t-83 14.5q-86 0 -172 -121z" />
<glyph unicode="&#xa1;" horiz-adv-x="649" d="M195 831q0 105 106 105q45 0 73.5 -28.5t28.5 -80.5q0 -112 -102 -112q-106 0 -106 116zM199 -502q13 88 18 316l21 739h114l19 -1083z" />
<glyph unicode="&#xa2;" horiz-adv-x="985" d="M113 444q0 215 113 375t282 209v180h90v-164q6 0 18.5 1.5t18.5 1.5q116 0 215 -29l-31 -172q-112 61 -268 61q-130 0 -203.5 -83.5t-73.5 -264.5q0 -212 107 -335.5t281 -123.5q125 0 210 39l17 -39q-44 -31 -77 -50t-92 -40t-122 -28v-166h-90v161q-78 4 -147.5 34 t-125.5 85t-89 145t-33 203z" />
<glyph unicode="&#xa3;" horiz-adv-x="1089" d="M115 0v119h47q54 0 87.5 67t33.5 152v391h-148l10 113h138v104q0 143 35.5 245t99 158t139.5 80.5t170 24.5q177 0 320 -49l-52 -162q-148 74 -309 74q-121 0 -185.5 -67t-64.5 -222v-186h393l-12 -113h-381v-354q0 -86 -26.5 -152.5t-69.5 -103.5h709v-119h-934z" />
<glyph unicode="&#xa5;" horiz-adv-x="1218" d="M82 1423h176l358 -663h9l157 282q33 60 77.5 155.5t72.5 161.5l29 66h176l-447 -800h279v-107h-279v-90h279v-106h-279v-322h-153v322h-285v106h285v90h-285v107h285z" />
<glyph unicode="&#xa7;" horiz-adv-x="995" d="M102 506q0 49 16.5 99t50.5 101t96 95.5t143 72.5q-104 58 -173 139.5t-69 170.5q0 124 90.5 197t241.5 73q131 0 295 -37l-48 -141q-52 27 -126.5 44t-129.5 17q-153 0 -153 -110q0 -35 13 -65t49 -67.5t106 -82.5t178 -101q120 -62 163.5 -125t43.5 -180 q0 -107 -65.5 -213t-192.5 -174q116 -58 170.5 -111.5t54.5 -136.5q0 -145 -100.5 -234t-288.5 -89q-72 0 -159.5 12.5t-139.5 36.5l43 145q154 -67 350 -67q64 0 99.5 31.5t35.5 87.5q0 61 -50 104.5t-224 136.5q-61 33 -105.5 61t-87 63.5t-69 71.5t-42.5 80.5t-16 94.5z M254 575q0 -58 26.5 -108t78.5 -90.5t105 -70t130 -64.5q59 46 106.5 124t47.5 162q0 48 -8 81t-25.5 60.5t-51.5 52.5t-80.5 52.5t-117.5 66.5q-14 7 -21 11q-92 -41 -141 -112t-49 -165z" />
<glyph unicode="&#xa8;" horiz-adv-x="512" d="M0 1268q0 110 90 110q86 0 86 -106q0 -51 -25 -77t-61 -26q-90 0 -90 99zM334 1268q0 110 90 110q88 0 88 -106q0 -51 -25.5 -77t-62.5 -26q-90 0 -90 99z" />
<glyph unicode="&#xa9;" horiz-adv-x="1378" d="M133 887q0 155 70 283.5t198 205t287 76.5q248 0 402.5 -157.5t154.5 -407.5q0 -120 -44.5 -226t-119.5 -180.5t-177.5 -118t-215.5 -43.5q-248 0 -401.5 160.5t-153.5 407.5zM207 887q0 -222 135.5 -362t347.5 -140q144 0 254.5 68t168.5 181.5t58 252.5 q0 214 -135.5 356.5t-345.5 142.5q-213 0 -348 -140.5t-135 -358.5zM424 887q0 145 81.5 243.5t219.5 98.5q70 0 141 -21l-18 -100q-59 33 -141 33q-179 0 -179 -234q0 -125 59 -194.5t165 -69.5q74 0 127 27l10 -25q-99 -76 -209 -76q-111 0 -183.5 82t-72.5 236z" />
<glyph unicode="&#xaa;" horiz-adv-x="1052" d="M113 291q0 68 23 125t71.5 103.5t132.5 72.5t197 26h170v80q0 121 -59 174.5t-177 53.5q-120 0 -244 -80l-22 35q180 166 387 166q140 0 204 -76t64 -248v-492q0 -125 25 -231h-154q-13 67 -16 147l-6 3q-47 -75 -120.5 -124t-168.5 -49q-134 0 -220.5 85t-86.5 229z M274 328q0 -99 59 -157t154 -58q56 0 111 20t82 40l27 20v307q-131 16 -195 16q-110 0 -174 -49t-64 -139z" />
<glyph unicode="&#xab;" horiz-adv-x="987" d="M102 543v18l293 434l62 -32l-191 -408v-8l185 -400l-58 -41zM457 543v18l293 434l63 -32l-190 -408v-8l184 -400l-59 -41z" />
<glyph unicode="&#xac;" horiz-adv-x="1085" d="M123 561v121h840v-465h-129v344h-711z" />
<glyph unicode="&#xad;" horiz-adv-x="720" d="M117 549v141h485v-141h-485z" />
<glyph unicode="&#xae;" horiz-adv-x="1378" d="M133 887q0 155 70 283.5t198 205t287 76.5q248 0 402.5 -157.5t154.5 -407.5q0 -120 -44.5 -226t-119.5 -180.5t-177.5 -118t-215.5 -43.5q-248 0 -401.5 160.5t-153.5 407.5zM207 887q0 -222 135.5 -362t347.5 -140q144 0 254.5 68t168.5 181.5t58 252.5 q0 214 -135.5 356.5t-345.5 142.5q-213 0 -348 -140.5t-135 -358.5zM502 1237h207q194 0 194 -154q0 -119 -125 -182l183 -334h-115l-144 279h-98v-279h-92v545q0 26 -2.5 57.5t-5.5 49.5zM604 911h152q53 63 53 144q0 75 -34.5 98t-100.5 23h-70v-265z" />
<glyph unicode="&#xaf;" horiz-adv-x="382" d="M0 1192v102h383v-102h-383z" />
<glyph unicode="&#xb0;" horiz-adv-x="583" d="M102 1255q0 93 53.5 147t135.5 54q90 0 140 -54.5t50 -146.5q0 -87 -52.5 -143.5t-137.5 -56.5q-88 0 -138.5 54.5t-50.5 145.5zM195 1257q0 -54 25.5 -89t70.5 -35q48 0 73 34.5t25 89.5t-26 88t-72 33t-71 -33t-25 -88z" />
<glyph unicode="&#xb1;" horiz-adv-x="1085" d="M133 0v123h819v-123h-819zM133 559v123h344v354h129v-354h346v-123h-346v-354h-129v354h-344z" />
<glyph unicode="&#xb4;" horiz-adv-x="309" d="M0 1192l88 262h221l-229 -262h-80z" />
<glyph unicode="&#xb6;" horiz-adv-x="1406" d="M113 858q0 104 17.5 193.5t53.5 164t89.5 127.5t128 82t165.5 29h656v-1800h-156v1659h-209v-1659h-153v819q-47 -40 -117 -65t-133 -25q-68 0 -127.5 26.5t-108.5 80.5t-77.5 148.5t-28.5 219.5zM274 936q0 -128 30.5 -223t101.5 -154t178 -59q76 0 121 14v799h-177 q-143 0 -198.5 -88t-55.5 -289z" />
<glyph unicode="&#xb7;" horiz-adv-x="579" d="M184 621q0 110 107 110q53 0 78.5 -25t25.5 -81q0 -53 -31.5 -81t-72.5 -28q-47 0 -77 26t-30 79z" />
<glyph unicode="&#xb8;" horiz-adv-x="264" d="M0 -391q66 9 103.5 43t37.5 80q0 69 -63 69q-42 0 -70 -14l-4 39l90 182h76l-59 -123q10 2 28 2q57 0 91 -30.5t34 -92.5q0 -82 -65.5 -136.5t-190.5 -61.5z" />
<glyph unicode="&#xba;" d="M113 449q0 135 42.5 249t113.5 189.5t163 117.5t193 42q212 0 323 -137.5t111 -364.5q0 -106 -36.5 -208t-101.5 -183t-163 -131t-211 -50q-202 0 -318 133t-116 343zM279 547q0 -85 21 -164t62 -145t110 -106t157 -40q135 0 199.5 100.5t64.5 272.5q0 212 -90.5 338.5 t-239.5 126.5q-137 0 -210.5 -97.5t-73.5 -285.5z" />
<glyph unicode="&#xbb;" horiz-adv-x="987" d="M174 963l64 32l292 -434v-18l-290 -437l-60 41l185 400v8zM530 963l62 32l293 -434v-18l-291 -437l-57 41l184 400v8z" />
<glyph unicode="&#xbf;" horiz-adv-x="854" d="M70 -229q0 164 85.5 309.5t284.5 279.5v201h133v-186q-177 -131 -258.5 -249.5t-81.5 -242.5q0 -145 69.5 -218t223.5 -73q135 0 252 54l15 -27q-8 -7 -21.5 -17.5t-57 -38.5t-88 -49.5t-108 -39t-123.5 -17.5q-74 0 -132 19t-93.5 49.5t-58.5 72.5t-32 84.5t-9 88.5z M406 829q0 52 31.5 79.5t72.5 27.5q106 0 106 -102q0 -113 -106 -113q-104 0 -104 108z" />
<glyph unicode="&#xc0;" horiz-adv-x="1290" d="M82 0l508 1436h117l501 -1436h-174l-131 406h-538l-134 -406h-149zM397 1782h221l121 -219h-86zM399 518h469l-112 342l-115 352h-10q-82 -248 -117 -354z" />
<glyph unicode="&#xc1;" horiz-adv-x="1290" d="M82 0l508 1436h117l501 -1436h-174l-131 406h-538l-134 -406h-149zM399 518h469l-112 342l-115 352h-10q-82 -248 -117 -354zM559 1563l121 219h221l-256 -219h-86z" />
<glyph unicode="&#xc2;" horiz-adv-x="1290" d="M82 0l508 1436h117l501 -1436h-174l-131 406h-538l-134 -406h-149zM377 1589l229 223h80l219 -223l-31 -26l-233 127l-235 -129zM399 518h469l-112 342l-115 352h-10q-82 -248 -117 -354z" />
<glyph unicode="&#xc3;" horiz-adv-x="1290" d="M82 0l508 1436h117l501 -1436h-174l-131 406h-538l-134 -406h-149zM391 1561q40 114 75.5 153t78.5 39q14 0 31.5 -3.5t28 -6.5t30 -10.5t22.5 -8.5l52 -18q67 -25 96 -25q59 0 84 86l41 -8q-49 -196 -150 -196q-17 0 -37 4t-30 7t-36 12.5t-30 10.5l-53 19 q-58 20 -78 20q-28 0 -45.5 -17.5t-40.5 -68.5zM399 518h469l-112 342l-115 352h-10q-82 -248 -117 -354z" />
<glyph unicode="&#xc4;" horiz-adv-x="1290" d="M82 0l508 1436h117l501 -1436h-174l-131 406h-538l-134 -406h-149zM391 1642q0 111 90 111q86 0 86 -106q0 -51 -25 -77t-61 -26q-43 0 -66.5 21.5t-23.5 76.5zM399 518h469l-112 342l-115 352h-10q-82 -248 -117 -354zM725 1642q0 111 90 111q88 0 88 -106 q0 -51 -25.5 -77t-62.5 -26q-90 0 -90 98z" />
<glyph unicode="&#xc5;" horiz-adv-x="1290" d="M82 0l508 1436h117l501 -1436h-174l-131 406h-538l-134 -406h-149zM399 518h469l-112 342l-115 352h-10q-82 -248 -117 -354zM483 1692q0 73 49.5 120.5t120.5 47.5q70 0 119 -48t49 -120q0 -70 -49.5 -119t-118.5 -49q-71 0 -120.5 47.5t-49.5 120.5zM567 1692 q0 -37 25 -65t61 -28q35 0 60.5 28t25.5 65t-25.5 63.5t-60.5 26.5q-36 0 -61 -26.5t-25 -63.5z" />
<glyph unicode="&#xc6;" horiz-adv-x="1896" d="M82 0l870 1427h750l-16 -124q-422 16 -539 16h-21v-545l523 17l-15 -115l-508 6v-576q193 0 349.5 7t216.5 15l61 7l-18 -135h-762v406h-496l-244 -406h-151zM545 518h428v543q0 34 4 160h-8q-63 -109 -90 -154z" />
<glyph unicode="&#xc7;" horiz-adv-x="1300" d="M115 655q0 148 40 277t108.5 221.5t158.5 159.5t191 100t204 33q180 0 340 -57l-53 -172q-150 92 -365 92q-92 0 -170.5 -32.5t-142.5 -99.5t-100.5 -182t-36.5 -268q0 -152 46 -273t126.5 -197.5t186.5 -116.5t229 -40q160 0 303 86l18 -32q-66 -64 -176 -116.5 t-244 -57.5l-45 -95q10 2 29 2q57 0 91 -30.5t34 -92.5q0 -82 -65.5 -136.5t-190.5 -61.5l-8 43q66 9 103.5 43t37.5 80q0 69 -64 69q-41 0 -69 -14l-4 39l75 154q-274 17 -430.5 200.5t-156.5 474.5z" />
<glyph unicode="&#xc8;" horiz-adv-x="1118" d="M174 1425h750l-17 -125q-421 17 -538 17h-21v-543l522 17l-14 -115l-508 6v-576q193 0 349.5 7t216.5 15l61 7l-19 -135h-761v1061q0 79 -5.5 170t-10.5 143zM356 1782h222l120 -219h-86z" />
<glyph unicode="&#xc9;" horiz-adv-x="1118" d="M174 1425h750l-17 -125q-421 17 -538 17h-21v-543l522 17l-14 -115l-508 6v-576q193 0 349.5 7t216.5 15l61 7l-19 -135h-761v1061q0 79 -5.5 170t-10.5 143zM477 1563l121 219h221l-256 -219h-86z" />
<glyph unicode="&#xca;" horiz-adv-x="1118" d="M174 1425h750l-17 -125q-421 17 -538 17h-21v-543l522 17l-14 -115l-508 6v-576q193 0 349.5 7t216.5 15l61 7l-19 -135h-761v1061q0 79 -5.5 170t-10.5 143zM289 1589l229 223h80l219 -223l-31 -26l-233 127l-236 -129z" />
<glyph unicode="&#xcb;" horiz-adv-x="1118" d="M174 1425h750l-17 -125q-421 17 -538 17h-21v-543l522 17l-14 -115l-508 6v-576q193 0 349.5 7t216.5 15l61 7l-19 -135h-761v1061q0 79 -5.5 170t-10.5 143zM311 1642q0 111 90 111q86 0 86 -106q0 -51 -25 -77t-61 -26q-43 0 -66.5 21.5t-23.5 76.5zM645 1642 q0 111 90 111q88 0 88 -106q0 -51 -25.5 -77t-62.5 -26q-90 0 -90 98z" />
<glyph unicode="&#xcc;" horiz-adv-x="538" d="M41 1782h221l121 -219h-86zM184 1425h170v-1425h-153v1122q0 88 -17 303z" />
<glyph unicode="&#xcd;" horiz-adv-x="538" d="M176 1563l121 219h221l-256 -219h-86zM184 1425h170v-1425h-153v1122q0 88 -17 303z" />
<glyph unicode="&#xce;" horiz-adv-x="538" d="M8 1589l230 223h79l220 -223l-31 -26l-234 127l-235 -129zM184 1425h170v-1425h-153v1122q0 88 -17 303z" />
<glyph unicode="&#xcf;" horiz-adv-x="538" d="M20 1642q0 111 91 111q86 0 86 -106q0 -51 -25 -77t-61 -26q-43 0 -67 22t-24 76zM184 1425h170v-1425h-153v1122q0 88 -17 303zM354 1642q0 111 90 111q88 0 88 -106q0 -51 -25.5 -77t-62.5 -26q-90 0 -90 98z" />
<glyph unicode="&#xd0;" horiz-adv-x="1478" d="M63 684v113h132v309q0 92 -5.5 172t-10.5 114l-5 33h563q293 0 461 -164.5t168 -453.5q0 -126 -26 -243t-81.5 -220t-135 -179.5t-193 -120.5t-248.5 -44h-487v684h-132zM348 113h326q127 0 227.5 49t163 134t95 195.5t32.5 237.5q0 289 -139.5 436.5t-413.5 147.5h-291 v-516h262v-113h-262v-571z" />
<glyph unicode="&#xd1;" horiz-adv-x="1437" d="M182 0v1425h125l438 -624q216 -305 379 -565h11q-5 269 -5 757v432h125v-1425h-125l-464 651q-45 64 -167 243t-190 277h-10q1 -109 4.5 -308t3.5 -296v-567h-125zM508 1561q40 114 75.5 153t78.5 39q14 0 31.5 -3.5t28 -6.5t30 -10.5t22.5 -8.5l51 -18q67 -25 97 -25 q59 0 84 86l41 -8q-49 -196 -150 -196q-17 0 -37 4t-30 7t-36 12.5t-30 10.5l-53 19q-58 20 -78 20q-28 0 -45.5 -17.5t-40.5 -68.5z" />
<glyph unicode="&#xd2;" horiz-adv-x="1556" d="M113 659q0 145 36 271t99.5 219t149.5 159.5t188 100t213 33.5q158 0 282.5 -55.5t203 -153t119 -226t40.5 -280.5q0 -141 -51.5 -277.5t-140.5 -242t-218.5 -170t-275.5 -64.5q-294 0 -469.5 186t-175.5 500zM289 723q0 -132 33.5 -248t96.5 -205t162.5 -140.5 t223.5 -51.5q94 0 172 34t131 92t90 136t53.5 164t16.5 178q0 301 -141 478t-369 177q-99 0 -184 -40t-148.5 -115.5t-100 -193.5t-36.5 -265zM592 1782h221l121 -219h-86z" />
<glyph unicode="&#xd3;" horiz-adv-x="1556" d="M113 659q0 145 36 271t99.5 219t149.5 159.5t188 100t213 33.5q158 0 282.5 -55.5t203 -153t119 -226t40.5 -280.5q0 -141 -51.5 -277.5t-140.5 -242t-218.5 -170t-275.5 -64.5q-294 0 -469.5 186t-175.5 500zM289 723q0 -132 33.5 -248t96.5 -205t162.5 -140.5 t223.5 -51.5q94 0 172 34t131 92t90 136t53.5 164t16.5 178q0 301 -141 478t-369 177q-99 0 -184 -40t-148.5 -115.5t-100 -193.5t-36.5 -265zM639 1563l121 219h221l-256 -219h-86z" />
<glyph unicode="&#xd4;" horiz-adv-x="1556" d="M113 659q0 145 36 271t99.5 219t149.5 159.5t188 100t213 33.5q158 0 282.5 -55.5t203 -153t119 -226t40.5 -280.5q0 -141 -51.5 -277.5t-140.5 -242t-218.5 -170t-275.5 -64.5q-294 0 -469.5 186t-175.5 500zM289 723q0 -132 33.5 -248t96.5 -205t162.5 -140.5 t223.5 -51.5q94 0 172 34t131 92t90 136t53.5 164t16.5 178q0 301 -141 478t-369 177q-99 0 -184 -40t-148.5 -115.5t-100 -193.5t-36.5 -265zM504 1589l229 223h80l219 -223l-31 -26l-233 127l-236 -129z" />
<glyph unicode="&#xd5;" horiz-adv-x="1556" d="M113 659q0 145 36 271t99.5 219t149.5 159.5t188 100t213 33.5q158 0 282.5 -55.5t203 -153t119 -226t40.5 -280.5q0 -141 -51.5 -277.5t-140.5 -242t-218.5 -170t-275.5 -64.5q-294 0 -469.5 186t-175.5 500zM289 723q0 -132 33.5 -248t96.5 -205t162.5 -140.5 t223.5 -51.5q94 0 172 34t131 92t90 136t53.5 164t16.5 178q0 301 -141 478t-369 177q-99 0 -184 -40t-148.5 -115.5t-100 -193.5t-36.5 -265zM508 1561q40 114 75.5 153t78.5 39q14 0 31.5 -3.5t28 -6.5t30 -10.5t22.5 -8.5l51 -18q67 -25 97 -25q59 0 84 86l41 -8 q-49 -196 -150 -196q-17 0 -37 4t-30 7t-36 12.5t-30 10.5l-53 19q-58 20 -78 20q-28 0 -45.5 -17.5t-40.5 -68.5z" />
<glyph unicode="&#xd6;" horiz-adv-x="1556" d="M113 659q0 145 36 271t99.5 219t149.5 159.5t188 100t213 33.5q158 0 282.5 -55.5t203 -153t119 -226t40.5 -280.5q0 -141 -51.5 -277.5t-140.5 -242t-218.5 -170t-275.5 -64.5q-294 0 -469.5 186t-175.5 500zM289 723q0 -132 33.5 -248t96.5 -205t162.5 -140.5 t223.5 -51.5q94 0 172 34t131 92t90 136t53.5 164t16.5 178q0 301 -141 478t-369 177q-99 0 -184 -40t-148.5 -115.5t-100 -193.5t-36.5 -265zM522 1642q0 111 90 111q86 0 86 -106q0 -51 -25 -77t-61 -26q-43 0 -66.5 21.5t-23.5 76.5zM856 1642q0 111 90 111q88 0 88 -106 q0 -51 -25.5 -77t-62.5 -26q-90 0 -90 98z" />
<glyph unicode="&#xd7;" horiz-adv-x="1085" d="M170 324l299 299l-297 295l90 92l299 -297l293 297l88 -88l-295 -295l297 -301l-90 -90l-297 299l-299 -299z" />
<glyph unicode="&#xd8;" horiz-adv-x="1556" d="M113 659q0 145 36 271t99.5 219t149.5 159.5t188 100t213 33.5q257 0 422 -146l118 144l70 -56l-125 -151q160 -195 160 -506q0 -141 -51.5 -277.5t-140.5 -242t-218.5 -170t-275.5 -64.5q-244 0 -408 127l-123 -149l-67 61l125 152q-172 193 -172 495zM289 723 q0 -249 108 -422l721 870q-141 166 -360 166q-99 0 -184 -40t-148.5 -115.5t-100 -193.5t-36.5 -265zM455 225q134 -147 350 -147q94 0 172 34t131 92t90 136t53.5 164t16.5 178q0 245 -99 412z" />
<glyph unicode="&#xd9;" horiz-adv-x="1429" d="M174 1425h172v-915q0 -215 107.5 -323.5t314.5 -108.5q167 0 260.5 106t93.5 293v582q0 96 -4.5 187.5t-9.5 135.5l-4 43h143v-909q0 -247 -136.5 -393t-397.5 -146q-111 0 -204.5 29t-164.5 86.5t-111 150t-40 212.5v704q0 44 -4.5 110.5t-9.5 110.5zM539 1782h221 l121 -219h-86z" />
<glyph unicode="&#xda;" horiz-adv-x="1429" d="M174 1425h172v-915q0 -215 107.5 -323.5t314.5 -108.5q167 0 260.5 106t93.5 293v582q0 96 -4.5 187.5t-9.5 135.5l-4 43h143v-909q0 -247 -136.5 -393t-397.5 -146q-111 0 -204.5 29t-164.5 86.5t-111 150t-40 212.5v704q0 44 -4.5 110.5t-9.5 110.5zM608 1563l121 219 h221l-256 -219h-86z" />
<glyph unicode="&#xdb;" horiz-adv-x="1429" d="M174 1425h172v-915q0 -215 107.5 -323.5t314.5 -108.5q167 0 260.5 106t93.5 293v582q0 96 -4.5 187.5t-9.5 135.5l-4 43h143v-909q0 -247 -136.5 -393t-397.5 -146q-111 0 -204.5 29t-164.5 86.5t-111 150t-40 212.5v704q0 44 -4.5 110.5t-9.5 110.5zM465 1589l229 223 h80l219 -223l-30 -26l-234 127l-235 -129z" />
<glyph unicode="&#xdc;" horiz-adv-x="1429" d="M174 1425h172v-915q0 -215 107.5 -323.5t314.5 -108.5q167 0 260.5 106t93.5 293v582q0 96 -4.5 187.5t-9.5 135.5l-4 43h143v-909q0 -247 -136.5 -393t-397.5 -146q-111 0 -204.5 29t-164.5 86.5t-111 150t-40 212.5v704q0 44 -4.5 110.5t-9.5 110.5zM481 1642 q0 111 90 111q86 0 86 -106q0 -51 -25 -77t-61 -26q-43 0 -66.5 21.5t-23.5 76.5zM815 1642q0 111 90 111q88 0 88 -106q0 -51 -25.5 -77t-62.5 -26q-90 0 -90 98z" />
<glyph unicode="&#xdd;" horiz-adv-x="1218" d="M82 1423h176l358 -725h11l184 359q31 61 68.5 153t59.5 154l22 61h176l-447 -860v-565h-153v563zM569 1563l121 219h221l-256 -219h-86z" />
<glyph unicode="&#xde;" horiz-adv-x="1120" d="M174 1436h166v-164q325 -18 496.5 -129t171.5 -338q0 -146 -83.5 -266.5t-236.5 -195t-348 -83.5v-260h-154v1272q0 34 -3 75t-6 65zM340 369q224 3 357.5 113.5t133.5 303.5q0 375 -491 383v-800z" />
<glyph unicode="&#xdf;" d="M174 0v1065q0 175 104.5 267.5t272.5 92.5q139 0 226 -66t87 -194q0 -51 -32 -109.5t-69.5 -98.5t-86 -88.5t-62.5 -65.5q-14 -20 -14 -37q0 -23 16 -48t35 -38q80 -63 184.5 -116t168.5 -111q26 -23 42.5 -66t16.5 -86q0 -103 -50.5 -179t-126 -111.5t-163.5 -35.5 q-169 0 -301 66l63 145q160 -90 299 -90q65 0 107.5 38.5t42.5 103.5q0 48 -16.5 73t-63.5 56q-19 12 -78.5 45t-119 70.5t-101.5 72.5q-51 43 -71.5 76t-20.5 71q0 36 19 67t63 81q34 38 52.5 61t43 62t36 81.5t11.5 90.5q0 86 -50 127t-126 41q-92 0 -138 -59.5 t-46 -157.5v-1096h-154z" />
<glyph unicode="&#xe0;" horiz-adv-x="1052" d="M113 291q0 68 23 125t71.5 103.5t132.5 72.5t197 26h170v80q0 121 -59 174.5t-177 53.5q-120 0 -244 -80l-22 35q180 166 387 166q140 0 204 -76t64 -248v-492q0 -125 25 -231h-154q-13 67 -16 147l-6 3q-47 -75 -120.5 -124t-168.5 -49q-134 0 -220.5 85t-86.5 229z M274 328q0 -99 59 -157t154 -58q56 0 111 20t82 40l27 20v307q-131 16 -195 16q-110 0 -174 -49t-64 -139zM352 1454h223l84 -262h-75z" />
<glyph unicode="&#xe1;" horiz-adv-x="1052" d="M113 291q0 68 23 125t71.5 103.5t132.5 72.5t197 26h170v80q0 121 -59 174.5t-177 53.5q-120 0 -244 -80l-22 35q180 166 387 166q140 0 204 -76t64 -248v-492q0 -125 25 -231h-154q-13 67 -16 147l-6 3q-47 -75 -120.5 -124t-168.5 -49q-134 0 -220.5 85t-86.5 229z M274 328q0 -99 59 -157t154 -58q56 0 111 20t82 40l27 20v307q-131 16 -195 16q-110 0 -174 -49t-64 -139zM465 1192l88 262h221l-229 -262h-80z" />
<glyph unicode="&#xe2;" horiz-adv-x="1052" d="M113 291q0 68 23 125t71.5 103.5t132.5 72.5t197 26h170v80q0 121 -59 174.5t-177 53.5q-120 0 -244 -80l-22 35q180 166 387 166q140 0 204 -76t64 -248v-492q0 -125 25 -231h-154q-13 67 -16 147l-6 3q-47 -75 -120.5 -124t-168.5 -49q-134 0 -220.5 85t-86.5 229z M274 328q0 -99 59 -157t154 -58q56 0 111 20t82 40l27 20v307q-131 16 -195 16q-110 0 -174 -49t-64 -139zM274 1202l230 244h80l219 -244l-29 -31l-239 132l-232 -129z" />
<glyph unicode="&#xe3;" horiz-adv-x="1052" d="M113 291q0 68 23 125t71.5 103.5t132.5 72.5t197 26h170v80q0 121 -59 174.5t-177 53.5q-120 0 -244 -80l-22 35q180 166 387 166q140 0 204 -76t64 -248v-492q0 -125 25 -231h-154q-13 67 -16 147l-6 3q-47 -75 -120.5 -124t-168.5 -49q-134 0 -220.5 85t-86.5 229z M274 328q0 -99 59 -157t154 -58q56 0 111 20t82 40l27 20v307q-131 16 -195 16q-110 0 -174 -49t-64 -139zM281 1196q30 114 72.5 160.5t107.5 46.5q8 0 15.5 -0.5t15.5 -2.5l14 -3.5t15 -6t14 -6.5t16 -8t15.5 -8.5t18.5 -10.5t19 -11q40 -23 57 -30t35 -7q53 0 86 100 l41 -10q-29 -113 -71 -160t-107 -47q-42 0 -98 31l-72 41q-40 22 -59 22q-58 0 -94 -100z" />
<glyph unicode="&#xe4;" horiz-adv-x="1052" d="M113 291q0 68 23 125t71.5 103.5t132.5 72.5t197 26h170v80q0 121 -59 174.5t-177 53.5q-120 0 -244 -80l-22 35q180 166 387 166q140 0 204 -76t64 -248v-492q0 -125 25 -231h-154q-13 67 -16 147l-6 3q-47 -75 -120.5 -124t-168.5 -49q-134 0 -220.5 85t-86.5 229z M274 328q0 -99 59 -157t154 -58q56 0 111 20t82 40l27 20v307q-131 16 -195 16q-110 0 -174 -49t-64 -139zM299 1268q0 110 90 110q86 0 86 -106q0 -51 -25 -77t-61 -26q-90 0 -90 99zM633 1268q0 110 90 110q88 0 88 -106q0 -51 -25.5 -77t-62.5 -26q-90 0 -90 99z" />
<glyph unicode="&#xe5;" horiz-adv-x="1052" d="M113 291q0 68 23 125t71.5 103.5t132.5 72.5t197 26h170v80q0 121 -59 174.5t-177 53.5q-120 0 -244 -80l-22 35q180 166 387 166q140 0 204 -76t64 -248v-492q0 -125 25 -231h-154q-13 67 -16 147l-6 3q-47 -75 -120.5 -124t-168.5 -49q-134 0 -220.5 85t-86.5 229z M274 328q0 -99 59 -157t154 -58q56 0 111 20t82 40l27 20v307q-131 16 -195 16q-110 0 -174 -49t-64 -139zM375 1319q0 73 49.5 120.5t120.5 47.5q70 0 119 -48t49 -120q0 -70 -49.5 -119t-118.5 -49q-71 0 -120.5 47.5t-49.5 120.5zM459 1319q0 -37 25 -64.5t61 -27.5 q35 0 60.5 27.5t25.5 64.5t-25.5 63.5t-60.5 26.5q-36 0 -61 -26.5t-25 -63.5z" />
<glyph unicode="&#xe6;" horiz-adv-x="1628" d="M104 291q0 68 23 125t71.5 103.5t132.5 72.5t197 26h185v80q0 228 -250 228q-120 0 -244 -80l-22 35q180 166 387 166q98 0 162 -44t85 -133q67 85 146 131t190 46q73 0 132 -21.5t97 -60.5t64.5 -85t40.5 -102.5t19.5 -105.5t5.5 -101q0 -64 -2 -84h-664 q0 -191 106 -291t283 -100q109 0 215 49l17 -39q-67 -51 -164.5 -91t-202.5 -40q-236 0 -350 199q-154 -197 -352 -197q-134 0 -221 85t-87 229zM266 328q0 -99 59 -157t154 -58q65 0 130.5 27t98.5 54l33 27q-16 39 -24 85t-9 74t-1 87v33q-131 16 -203 16q-110 0 -174 -49 t-64 -139zM868 600h498q0 147 -67 242.5t-187 95.5q-62 0 -110 -29.5t-75.5 -80t-42 -107.5t-16.5 -121z" />
<glyph unicode="&#xe7;" horiz-adv-x="985" d="M113 444q0 128 43.5 242t115.5 192t167 123.5t196 45.5q116 0 215 -29l-31 -172q-112 61 -268 61q-130 0 -203.5 -83.5t-73.5 -264.5q0 -212 107 -335.5t281 -123.5q125 0 210 39l17 -39q-37 -25 -59 -38.5t-63 -33.5t-86.5 -32t-96.5 -16l-45 -95q10 2 28 2 q57 0 91 -30.5t34 -92.5q0 -82 -65.5 -136.5t-190.5 -61.5l-8 43q66 9 103.5 43t37.5 80q0 69 -63 69q-42 0 -70 -14l-4 39l74 151q-78 4 -147.5 34t-125 85.5t-88 145t-32.5 202.5z" />
<glyph unicode="&#xe8;" horiz-adv-x="1042" d="M113 467q0 250 129.5 415t339.5 165q87 0 153.5 -32t104.5 -80.5t61.5 -115.5t31 -125.5t7.5 -122.5t-2 -84h-664q0 -190 106.5 -290.5t283.5 -100.5q109 0 215 49l16 -39q-67 -51 -164.5 -91t-202.5 -40q-82 0 -154 28t-132 84.5t-94.5 154t-34.5 225.5zM283 600h497 q0 147 -67 242.5t-187 95.5q-62 0 -110 -29.5t-75 -80t-41.5 -107.5t-16.5 -121zM387 1454h223l84 -262h-76z" />
<glyph unicode="&#xe9;" horiz-adv-x="1042" d="M113 467q0 250 129.5 415t339.5 165q87 0 153.5 -32t104.5 -80.5t61.5 -115.5t31 -125.5t7.5 -122.5t-2 -84h-664q0 -190 106.5 -290.5t283.5 -100.5q109 0 215 49l16 -39q-67 -51 -164.5 -91t-202.5 -40q-82 0 -154 28t-132 84.5t-94.5 154t-34.5 225.5zM283 600h497 q0 147 -67 242.5t-187 95.5q-62 0 -110 -29.5t-75 -80t-41.5 -107.5t-16.5 -121zM436 1192l88 262h221l-229 -262h-80z" />
<glyph unicode="&#xea;" horiz-adv-x="1042" d="M113 467q0 250 129.5 415t339.5 165q87 0 153.5 -32t104.5 -80.5t61.5 -115.5t31 -125.5t7.5 -122.5t-2 -84h-664q0 -190 106.5 -290.5t283.5 -100.5q109 0 215 49l16 -39q-67 -51 -164.5 -91t-202.5 -40q-82 0 -154 28t-132 84.5t-94.5 154t-34.5 225.5zM283 600h497 q0 147 -67 242.5t-187 95.5q-62 0 -110 -29.5t-75 -80t-41.5 -107.5t-16.5 -121zM297 1202l229 244h80l219 -244l-28 -31l-240 132l-231 -129z" />
<glyph unicode="&#xeb;" horiz-adv-x="1042" d="M113 467q0 250 129.5 415t339.5 165q87 0 153.5 -32t104.5 -80.5t61.5 -115.5t31 -125.5t7.5 -122.5t-2 -84h-664q0 -190 106.5 -290.5t283.5 -100.5q109 0 215 49l16 -39q-67 -51 -164.5 -91t-202.5 -40q-82 0 -154 28t-132 84.5t-94.5 154t-34.5 225.5zM283 600h497 q0 147 -67 242.5t-187 95.5q-62 0 -110 -29.5t-75 -80t-41.5 -107.5t-16.5 -121zM305 1268q0 110 90 110q86 0 86 -106q0 -51 -25 -77t-61 -26q-90 0 -90 99zM639 1268q0 110 90 110q88 0 88 -106q0 -51 -25.5 -77t-62.5 -26q-90 0 -90 99z" />
<glyph unicode="&#xec;" horiz-adv-x="526" d="M66 1454h223l84 -262h-76zM174 997l178 35l-2 -1032h-153v748q0 146 -23 249z" />
<glyph unicode="&#xed;" horiz-adv-x="526" d="M174 997l178 35l-2 -1032h-153v748q0 146 -23 249zM186 1192l88 262h222l-230 -262h-80z" />
<glyph unicode="&#xee;" horiz-adv-x="526" d="M6 1202l230 244h79l220 -244l-29 -31l-240 132l-231 -129zM174 997l178 35l-2 -1032h-153v748q0 146 -23 249z" />
<glyph unicode="&#xef;" horiz-adv-x="526" d="M10 1268q0 110 90 110q86 0 86 -106q0 -51 -25 -77t-61 -26q-90 0 -90 99zM174 997l178 35l-2 -1032h-153v748q0 146 -23 249zM344 1268q0 110 90 110q88 0 88 -106q0 -51 -25.5 -77t-62.5 -26q-90 0 -90 99z" />
<glyph unicode="&#xf0;" d="M113 436q0 139 40.5 252t108.5 183t152 107.5t174 37.5q153 0 264 -90l6 4q-62 199 -217 338l-180 -176l-66 63l172 166q-109 71 -233 111l12 41q162 -38 277 -97l208 203l64 -63l-193 -187q67 -46 126 -112t113 -160.5t86 -225.5t32 -282q0 -264 -141 -420t-371 -156 q-203 0 -318.5 127.5t-115.5 335.5zM279 535q0 -85 21 -162t62 -141t110 -102t157 -38q135 0 199.5 100.5t64.5 272.5q0 210 -90 327t-240 117q-131 0 -207.5 -97t-76.5 -277z" />
<glyph unicode="&#xf1;" horiz-adv-x="1157" d="M193 1004l149 34q15 -58 20 -135q103 76 187 110t178 34q274 0 274 -365v-682h-153v616q0 165 -50 232t-180 67q-62 0 -125 -13.5t-95 -27.5l-33 -14q2 -86 2 -143v-717h-154v752q0 149 -20 252zM342 1196q30 114 72.5 160.5t107.5 46.5q23 0 49 -9t38.5 -16t56.5 -32 q40 -23 57 -30t35 -7q53 0 86 100l41 -10q-29 -113 -71 -160t-107 -47q-43 0 -99 31l-71 41q-40 22 -60 22q-58 0 -94 -100z" />
<glyph unicode="&#xf2;" d="M113 449q0 135 42.5 249t113.5 189.5t163 117.5t193 42q212 0 323 -137.5t111 -364.5q0 -106 -36.5 -208t-101.5 -183t-163 -131t-211 -50q-202 0 -318 133t-116 343zM279 547q0 -85 21 -164t62 -145t110 -106t157 -40q135 0 199.5 100.5t64.5 272.5q0 212 -90.5 338.5 t-239.5 126.5q-137 0 -210.5 -97.5t-73.5 -285.5zM412 1454h223l84 -262h-76z" />
<glyph unicode="&#xf3;" d="M113 449q0 135 42.5 249t113.5 189.5t163 117.5t193 42q212 0 323 -137.5t111 -364.5q0 -106 -36.5 -208t-101.5 -183t-163 -131t-211 -50q-202 0 -318 133t-116 343zM279 547q0 -85 21 -164t62 -145t110 -106t157 -40q135 0 199.5 100.5t64.5 272.5q0 212 -90.5 338.5 t-239.5 126.5q-137 0 -210.5 -97.5t-73.5 -285.5zM483 1192l88 262h222l-230 -262h-80z" />
<glyph unicode="&#xf4;" d="M113 449q0 135 42.5 249t113.5 189.5t163 117.5t193 42q212 0 323 -137.5t111 -364.5q0 -106 -36.5 -208t-101.5 -183t-163 -131t-211 -50q-202 0 -318 133t-116 343zM279 547q0 -85 21 -164t62 -145t110 -106t157 -40q135 0 199.5 100.5t64.5 272.5q0 212 -90.5 338.5 t-239.5 126.5q-137 0 -210.5 -97.5t-73.5 -285.5zM324 1202l229 244h80l219 -244l-29 -31l-239 132l-232 -129z" />
<glyph unicode="&#xf5;" d="M113 449q0 135 42.5 249t113.5 189.5t163 117.5t193 42q212 0 323 -137.5t111 -364.5q0 -106 -36.5 -208t-101.5 -183t-163 -131t-211 -50q-202 0 -318 133t-116 343zM279 547q0 -85 21 -164t62 -145t110 -106t157 -40q135 0 199.5 100.5t64.5 272.5q0 212 -90.5 338.5 t-239.5 126.5q-137 0 -210.5 -97.5t-73.5 -285.5zM319 1196q30 114 73 160.5t108 46.5q8 0 15.5 -0.5t15.5 -2.5l14 -3.5t15 -6t14 -6.5t16 -8t15.5 -8.5t18.5 -10.5t19 -11q40 -23 57 -30t35 -7q53 0 86 100l41 -10q-29 -113 -71 -160t-107 -47q-42 0 -98 31l-72 41 q-40 22 -59 22q-59 0 -95 -100z" />
<glyph unicode="&#xf6;" d="M113 449q0 135 42.5 249t113.5 189.5t163 117.5t193 42q212 0 323 -137.5t111 -364.5q0 -106 -36.5 -208t-101.5 -183t-163 -131t-211 -50q-202 0 -318 133t-116 343zM279 547q0 -85 21 -164t62 -145t110 -106t157 -40q135 0 199.5 100.5t64.5 272.5q0 212 -90.5 338.5 t-239.5 126.5q-137 0 -210.5 -97.5t-73.5 -285.5zM330 1268q0 110 90 110q86 0 86 -106q0 -51 -25 -77t-61 -26q-90 0 -90 99zM664 1268q0 110 90 110q88 0 88 -106q0 -51 -25.5 -77t-62.5 -26q-90 0 -90 99z" />
<glyph unicode="&#xf7;" horiz-adv-x="1085" d="M133 561v123h819v-123h-819zM436 211q0 113 107 113q104 0 104 -109q0 -52 -31.5 -79t-72.5 -27q-107 0 -107 102zM436 1036q0 113 107 113q54 0 79 -24.5t25 -84.5q0 -56 -30.5 -81t-73.5 -25q-107 0 -107 102z" />
<glyph unicode="&#xf8;" d="M113 449q0 135 42.5 249t113.5 189.5t163 117.5t193 42q147 0 254 -74l84 108l73 -51l-92 -119q115 -133 115 -366q0 -106 -36.5 -208t-101.5 -183t-163 -131t-211 -50q-152 0 -262 80l-82 -106l-74 53l90 117q-106 127 -106 332zM279 547q0 -154 61 -273l434 564 q-86 92 -211 92q-137 0 -210.5 -97.5t-73.5 -285.5zM393 195q96 -103 236 -103q135 0 199.5 100.5t64.5 272.5q0 173 -66 295z" />
<glyph unicode="&#xf9;" horiz-adv-x="1150" d="M174 1024h156q4 -43 4 -84v-537q0 -173 49.5 -233.5t198.5 -60.5q52 0 109 15.5t87 30.5l31 15v854h154v-805q0 -130 14 -219h-156q-7 41 -10 129q-171 -152 -346 -152q-42 0 -81 8.5t-76.5 30t-65.5 53.5t-45 83.5t-17 115.5v631q0 95 -6 125zM395 1454h223l84 -262h-75 z" />
<glyph unicode="&#xfa;" horiz-adv-x="1150" d="M174 1024h156q4 -43 4 -84v-537q0 -173 49.5 -233.5t198.5 -60.5q52 0 109 15.5t87 30.5l31 15v854h154v-805q0 -130 14 -219h-156q-7 41 -10 129q-171 -152 -346 -152q-42 0 -81 8.5t-76.5 30t-65.5 53.5t-45 83.5t-17 115.5v631q0 95 -6 125zM500 1192l88 262h221 l-229 -262h-80z" />
<glyph unicode="&#xfb;" horiz-adv-x="1150" d="M174 1024h156q4 -43 4 -84v-537q0 -173 49.5 -233.5t198.5 -60.5q52 0 109 15.5t87 30.5l31 15v854h154v-805q0 -130 14 -219h-156q-7 41 -10 129q-171 -152 -346 -152q-42 0 -81 8.5t-76.5 30t-65.5 53.5t-45 83.5t-17 115.5v631q0 95 -6 125zM326 1202l229 244h80 l219 -244l-29 -31l-239 132l-232 -129z" />
<glyph unicode="&#xfc;" horiz-adv-x="1150" d="M174 1024h156q4 -43 4 -84v-537q0 -173 49.5 -233.5t198.5 -60.5q52 0 109 15.5t87 30.5l31 15v854h154v-805q0 -130 14 -219h-156q-7 41 -10 129q-171 -152 -346 -152q-42 0 -81 8.5t-76.5 30t-65.5 53.5t-45 83.5t-17 115.5v631q0 95 -6 125zM340 1268q0 110 90 110 q86 0 86 -106q0 -51 -25 -77t-61 -26q-90 0 -90 99zM674 1268q0 110 90 110q88 0 88 -106q0 -51 -25.5 -77t-62.5 -26q-90 0 -90 99z" />
<glyph unicode="&#xfd;" horiz-adv-x="1050" d="M72 1024h176l282 -907h11l141 463q31 104 56 215t34 170l10 59h191l-379 -1106q-58 -171 -137 -289q-72 -106 -187 -153l-67 174q59 14 90.5 31.5t66.5 48.5q39 36 66.5 86t38.5 98zM475 1192l88 262h221l-229 -262h-80z" />
<glyph unicode="&#xfe;" horiz-adv-x="573" d="M-131 1409l176 35v-549q139 152 332 152q72 0 129.5 -25t94.5 -67.5t61 -101t34.5 -122t10.5 -135.5q0 -152 -37 -272t-102 -195t-149.5 -113.5t-182.5 -38.5q-96 0 -191 39v-538h-154v1681q0 137 -22 250zM45 207q120 -98 270 -98q228 0 228 370q0 228 -64.5 331 t-214.5 103q-62 0 -122 -16.5t-97 -42.5v-647z" />
<glyph unicode="&#xff;" horiz-adv-x="1050" d="M72 1024h176l282 -907h11l141 463q31 104 56 215t34 170l10 59h191l-379 -1106q-58 -171 -137 -289q-72 -106 -187 -153l-67 174q59 14 90.5 31.5t66.5 48.5q39 36 66.5 86t38.5 98zM285 1268q0 110 90 110q86 0 86 -106q0 -51 -25 -77t-61 -26q-90 0 -90 99zM618 1268 q0 55 24 82.5t67 27.5q88 0 88 -106q0 -51 -25.5 -77t-62.5 -26q-91 0 -91 99z" />
<glyph unicode="&#x100;" horiz-adv-x="1290" d="M82 0l508 1436h117l501 -1436h-174l-131 406h-538l-134 -406h-149zM399 518h469l-112 342l-115 352h-10q-82 -248 -117 -354zM455 1524v102h383v-102h-383z" />
<glyph unicode="&#x101;" horiz-adv-x="1052" d="M113 291q0 68 23 125t71.5 103.5t132.5 72.5t197 26h170v80q0 121 -59 174.5t-177 53.5q-120 0 -244 -80l-22 35q180 166 387 166q140 0 204 -76t64 -248v-492q0 -125 25 -231h-154q-13 67 -16 147l-6 3q-47 -75 -120.5 -124t-168.5 -49q-134 0 -220.5 85t-86.5 229z M274 328q0 -99 59 -157t154 -58q56 0 111 20t82 40l27 20v307q-131 16 -195 16q-110 0 -174 -49t-64 -139zM354 1192v102h383v-102h-383z" />
<glyph unicode="&#x102;" horiz-adv-x="1290" d="M82 0l508 1436h117l501 -1436h-174l-131 406h-538l-134 -406h-149zM385 1759l14 23q62 -66 118 -92.5t130 -26.5q78 0 143 31t105 88l14 -23q-19 -40 -42.5 -75t-56 -68t-75 -52.5t-88.5 -19.5q-48 0 -92.5 21.5t-77 56t-55 69t-37.5 68.5zM399 518h469l-112 342 l-115 352h-10q-82 -248 -117 -354z" />
<glyph unicode="&#x103;" horiz-adv-x="1052" d="M113 291q0 68 23 125t71.5 103.5t132.5 72.5t197 26h170v80q0 121 -59 174.5t-177 53.5q-120 0 -244 -80l-22 35q180 166 387 166q140 0 204 -76t64 -248v-492q0 -125 25 -231h-154q-13 67 -16 147l-6 3q-47 -75 -120.5 -124t-168.5 -49q-134 0 -220.5 85t-86.5 229z M264 1389l15 22q62 -66 118 -92.5t129 -26.5q78 0 143 31t105 88l14 -22q-19 -40 -42.5 -75t-56 -68t-75 -52.5t-88.5 -19.5q-48 0 -92.5 21.5t-77 56t-55 69t-37.5 68.5zM274 328q0 -99 59 -157t154 -58q56 0 111 20t82 40l27 20v307q-131 16 -195 16q-110 0 -174 -49 t-64 -139z" />
<glyph unicode="&#x104;" horiz-adv-x="1290" d="M82 0l508 1436h117l501 -1436h-174l-131 406h-538l-134 -406h-149zM399 518h469l-112 342l-115 352h-10q-82 -248 -117 -354zM928 -242q0 52 25 96.5t60 71t70.5 46t60.5 26.5l25 8l39 -6q-149 -100 -149 -229q0 -71 39 -114.5t125 -66.5l-33 -30q-114 8 -188 61t-74 137 z" />
<glyph unicode="&#x105;" horiz-adv-x="1052" d="M113 291q0 68 23 125t71.5 103.5t132.5 72.5t197 26h170v80q0 121 -59 174.5t-177 53.5q-120 0 -244 -80l-22 35q180 166 387 166q140 0 204 -76t64 -248v-492q0 -125 25 -231h-154q-13 67 -16 147l-6 3q-47 -75 -120.5 -124t-168.5 -49q-134 0 -220.5 85t-86.5 229z M274 328q0 -99 59 -157t154 -58q56 0 111 20t82 40l27 20v307q-131 16 -195 16q-110 0 -174 -49t-64 -139zM604 -242q0 52 25 96.5t60.5 71t71 46t60.5 26.5l25 8l39 -6q-150 -101 -150 -229q0 -71 39 -114.5t125 -66.5l-33 -30q-114 8 -188 61t-74 137z" />
<glyph unicode="&#x106;" horiz-adv-x="1300" d="M115 655q0 148 40 277t108.5 221.5t158.5 159.5t191 100t204 33q180 0 340 -57l-53 -172q-150 92 -365 92q-92 0 -170.5 -32.5t-142.5 -99.5t-100.5 -182t-36.5 -268q0 -152 46 -273t126.5 -197.5t186.5 -116.5t229 -40q160 0 303 86l18 -32q-70 -68 -186.5 -122.5 t-259.5 -54.5q-195 0 -340.5 86.5t-221 239.5t-75.5 352zM678 1563l121 219h221l-256 -219h-86z" />
<glyph unicode="&#x107;" horiz-adv-x="985" d="M113 444q0 128 43.5 242t115.5 192t167 123.5t196 45.5q95 0 194 -29l-30 -172q-108 61 -248 61q-130 0 -203.5 -83.5t-73.5 -264.5q0 -211 105.5 -335t271.5 -124q116 0 201 39l16 -39q-49 -36 -89.5 -59t-111 -43.5t-147.5 -20.5q-62 0 -120 17t-110.5 54.5t-91.5 91 t-62 132t-23 172.5zM494 1192l88 262h221l-230 -262h-79z" />
<glyph unicode="&#x108;" horiz-adv-x="1300" d="M115 655q0 148 40 277t108.5 221.5t158.5 159.5t191 100t204 33q180 0 340 -57l-53 -172q-150 92 -365 92q-92 0 -170.5 -32.5t-142.5 -99.5t-100.5 -182t-36.5 -268q0 -152 46 -273t126.5 -197.5t186.5 -116.5t229 -40q160 0 303 86l18 -32q-70 -68 -186.5 -122.5 t-259.5 -54.5q-195 0 -340.5 86.5t-221 239.5t-75.5 352zM451 1589l229 223h80l219 -223l-31 -26l-233 127l-236 -129z" />
<glyph unicode="&#x109;" horiz-adv-x="964" d="M113 444q0 128 43.5 242t115.5 192t167 123.5t196 45.5q95 0 194 -29l-30 -172q-108 61 -248 61q-130 0 -203.5 -83.5t-73.5 -264.5q0 -211 105.5 -335t271.5 -124q116 0 201 39l16 -39q-49 -36 -89.5 -59t-111 -43.5t-147.5 -20.5q-62 0 -120 17t-110.5 54.5t-91.5 91 t-62 132t-23 172.5zM258 1202l229 244h80l219 -244l-28 -31l-240 132l-231 -129z" />
<glyph unicode="&#x10a;" horiz-adv-x="1300" d="M115 655q0 148 40 277t108.5 221.5t158.5 159.5t191 100t204 33q180 0 340 -57l-53 -172q-150 92 -365 92q-92 0 -170.5 -32.5t-142.5 -99.5t-100.5 -182t-36.5 -268q0 -152 46 -273t126.5 -197.5t186.5 -116.5t229 -40q160 0 303 86l18 -32q-70 -68 -186.5 -122.5 t-259.5 -54.5q-195 0 -340.5 86.5t-221 239.5t-75.5 352zM639 1642q0 111 90 111q86 0 86 -106q0 -51 -25 -77t-61 -26q-43 0 -66.5 21.5t-23.5 76.5z" />
<glyph unicode="&#x10b;" horiz-adv-x="964" d="M113 444q0 128 43.5 242t115.5 192t167 123.5t196 45.5q95 0 194 -29l-30 -172q-108 61 -248 61q-130 0 -203.5 -83.5t-73.5 -264.5q0 -211 105.5 -335t271.5 -124q116 0 201 39l16 -39q-49 -36 -89.5 -59t-111 -43.5t-147.5 -20.5q-62 0 -120 17t-110.5 54.5t-91.5 91 t-62 132t-23 172.5zM475 1268q0 110 90 110q86 0 86 -106q0 -51 -25 -77t-61 -26q-90 0 -90 99z" />
<glyph unicode="&#x10c;" horiz-adv-x="1300" d="M115 655q0 148 40 277t108.5 221.5t158.5 159.5t191 100t204 33q180 0 340 -57l-53 -172q-150 92 -365 92q-92 0 -170.5 -32.5t-142.5 -99.5t-100.5 -182t-36.5 -268q0 -152 46 -273t126.5 -197.5t186.5 -116.5t229 -40q160 0 303 86l18 -32q-70 -68 -186.5 -122.5 t-259.5 -54.5q-195 0 -340.5 86.5t-221 239.5t-75.5 352zM496 1786l28 29l238 -129l231 126l31 -26l-227 -223h-80z" />
<glyph unicode="&#x10d;" horiz-adv-x="985" d="M113 444q0 128 43.5 242t115.5 192t167 123.5t196 45.5q95 0 194 -29l-30 -172q-108 61 -248 61q-130 0 -203.5 -83.5t-73.5 -264.5q0 -211 105.5 -335t271.5 -124q116 0 201 39l16 -39q-49 -36 -89.5 -59t-111 -43.5t-147.5 -20.5q-62 0 -120 17t-110.5 54.5t-91.5 91 t-62 132t-23 172.5zM301 1415l29 31l241 -127l230 125l28 -29l-229 -244h-80z" />
<glyph unicode="&#x10e;" horiz-adv-x="1478" d="M174 1425h563q293 0 461 -164.5t168 -453.5q0 -126 -26 -243t-81.5 -220t-135 -179.5t-193 -120.5t-248.5 -44h-487v1106q0 92 -5.5 172t-10.5 114zM348 113h326q127 0 227.5 49t163 134t95 195.5t32.5 237.5q0 289 -139.5 436.5t-413.5 147.5h-291v-1200zM381 1786 l29 29l237 -129l232 126l30 -26l-227 -223h-80z" />
<glyph unicode="&#x10f;" horiz-adv-x="1132" d="M82 442q0 172 67 310.5t186.5 216.5t268.5 78q74 0 168 -21v139q0 142 -22 252l176 33v-1450h-56l-90 94q-75 -64 -143 -90.5t-158 -26.5q-54 0 -108 16t-106.5 53t-93 89.5t-65 132t-24.5 174.5zM244 524q0 -189 98.5 -302t265.5 -113q81 0 164 26v731q-94 62 -221 62 q-148 0 -227.5 -103.5t-79.5 -300.5zM1008 1044q57 86 57 164q0 99 -47 152l164 78q32 -40 32 -103q0 -25 -10.5 -59t-32 -75.5t-62 -85.5t-93.5 -79z" />
<glyph unicode="&#x110;" horiz-adv-x="1478" d="M63 684v113h132v309q0 92 -5.5 172t-10.5 114l-5 33h563q293 0 461 -164.5t168 -453.5q0 -126 -26 -243t-81.5 -220t-135 -179.5t-193 -120.5t-248.5 -44h-487v684h-132zM348 113h326q127 0 227.5 49t163 134t95 195.5t32.5 237.5q0 289 -139.5 436.5t-413.5 147.5h-291 v-516h262v-113h-262v-571z" />
<glyph unicode="&#x111;" horiz-adv-x="1099" d="M113 442q0 163 58.5 300t172 221t260.5 84q74 0 168 -21v104h-201v111h201q-7 113 -20 176l174 33v-209h110v-111h-110v-1130h-56l-90 94q-76 -65 -139.5 -91t-151.5 -26q-54 0 -106 16t-101.5 52t-86.5 88.5t-59.5 132t-22.5 176.5zM274 524q0 -194 88 -304.5 t256 -110.5q71 0 154 26v731q-94 62 -221 62q-145 0 -211 -100.5t-66 -303.5z" />
<glyph unicode="&#x112;" horiz-adv-x="1118" d="M174 1425h750l-17 -125q-421 17 -538 17h-21v-543l522 17l-14 -115l-508 6v-576q193 0 349.5 7t216.5 15l61 7l-19 -135h-761v1061q0 79 -5.5 170t-10.5 143zM373 1561v102h383v-102h-383z" />
<glyph unicode="&#x113;" horiz-adv-x="1042" d="M113 467q0 250 129.5 415t339.5 165q87 0 153.5 -32t104.5 -80.5t61.5 -115.5t31 -125.5t7.5 -122.5t-2 -84h-664q0 -190 106.5 -290.5t283.5 -100.5q109 0 215 49l16 -39q-67 -51 -164.5 -91t-202.5 -40q-82 0 -154 28t-132 84.5t-94.5 154t-34.5 225.5zM283 600h497 q0 147 -67 242.5t-187 95.5q-62 0 -110 -29.5t-75 -80t-41.5 -107.5t-16.5 -121zM362 1192v102h383v-102h-383z" />
<glyph unicode="&#x114;" horiz-adv-x="1118" d="M174 1425h750l-17 -125q-421 17 -538 17h-21v-543l522 17l-14 -115l-508 6v-576q193 0 349.5 7t216.5 15l61 7l-19 -135h-761v1061q0 79 -5.5 170t-10.5 143zM311 1739l15 22q62 -66 118 -92.5t129 -26.5q78 0 143 31t105 88l15 -22q-18 -39 -42.5 -74.5t-57 -68.5 t-75 -52.5t-88.5 -19.5q-48 0 -92.5 21.5t-77 56t-55 69t-37.5 68.5z" />
<glyph unicode="&#x115;" horiz-adv-x="1042" d="M113 467q0 250 129.5 415t339.5 165q87 0 153.5 -32t104.5 -80.5t61.5 -115.5t31 -125.5t7.5 -122.5t-2 -84h-664q0 -190 106.5 -290.5t283.5 -100.5q109 0 215 49l16 -39q-67 -51 -164.5 -91t-202.5 -40q-82 0 -154 28t-132 84.5t-94.5 154t-34.5 225.5zM258 1389l14 22 q62 -66 118 -92.5t130 -26.5q78 0 143 31t105 88l14 -22q-19 -40 -42.5 -75t-56 -68t-75 -52.5t-88.5 -19.5q-48 0 -92.5 21.5t-77 56t-55 69t-37.5 68.5zM283 600h497q0 147 -67 242.5t-187 95.5q-62 0 -110 -29.5t-75 -80t-41.5 -107.5t-16.5 -121z" />
<glyph unicode="&#x116;" horiz-adv-x="1118" d="M174 1425h750l-17 -125q-421 17 -538 17h-21v-543l522 17l-14 -115l-508 6v-576q193 0 349.5 7t216.5 15l61 7l-19 -135h-761v1061q0 79 -5.5 170t-10.5 143zM483 1642q0 111 90 111q86 0 86 -106q0 -51 -25 -77t-61 -26q-43 0 -66.5 21.5t-23.5 76.5z" />
<glyph unicode="&#x117;" horiz-adv-x="1042" d="M113 467q0 250 129.5 415t339.5 165q87 0 153.5 -32t104.5 -80.5t61.5 -115.5t31 -125.5t7.5 -122.5t-2 -84h-664q0 -190 106.5 -290.5t283.5 -100.5q109 0 215 49l16 -39q-67 -51 -164.5 -91t-202.5 -40q-82 0 -154 28t-132 84.5t-94.5 154t-34.5 225.5zM283 600h497 q0 147 -67 242.5t-187 95.5q-62 0 -110 -29.5t-75 -80t-41.5 -107.5t-16.5 -121zM457 1268q0 110 90 110q86 0 86 -106q0 -51 -25 -77t-61 -26q-90 0 -90 99z" />
<glyph unicode="&#x118;" horiz-adv-x="1118" d="M174 1425h750l-17 -125q-421 17 -538 17h-21v-543l522 17l-14 -115l-508 6v-576q193 0 349.5 7t216.5 15l61 7l-19 -135h-761v1061q0 79 -5.5 170t-10.5 143zM676 -242q0 52 25 96.5t60.5 71t71 46t60.5 26.5l25 8l38 -6q-149 -100 -149 -229q0 -71 39 -114.5t125 -66.5 l-33 -30q-114 8 -188 61t-74 137z" />
<glyph unicode="&#x119;" horiz-adv-x="1042" d="M113 467q0 250 129.5 415t339.5 165q87 0 153.5 -32t104.5 -80.5t61.5 -115.5t31 -125.5t7.5 -122.5t-2 -84h-664q0 -190 106.5 -290.5t283.5 -100.5q109 0 215 49l16 -39q-160 -170 -160 -315q0 -71 39 -114t125 -66l-33 -31q-114 8 -188 61.5t-74 137.5q0 145 168 252 q-112 -56 -244 -56q-82 0 -154 28t-132 84.5t-94.5 154t-34.5 225.5zM283 600h497q0 147 -67 242.5t-187 95.5q-62 0 -110 -29.5t-75 -80t-41.5 -107.5t-16.5 -121z" />
<glyph unicode="&#x11a;" horiz-adv-x="1118" d="M174 1425h750l-17 -125q-421 17 -538 17h-21v-543l522 17l-14 -115l-508 6v-576q193 0 349.5 7t216.5 15l61 7l-19 -135h-761v1061q0 79 -5.5 170t-10.5 143zM305 1786l29 29l237 -129l232 126l31 -26l-228 -223h-80z" />
<glyph unicode="&#x11b;" horiz-adv-x="1042" d="M113 467q0 250 129.5 415t339.5 165q87 0 153.5 -32t104.5 -80.5t61.5 -115.5t31 -125.5t7.5 -122.5t-2 -84h-664q0 -190 106.5 -290.5t283.5 -100.5q109 0 215 49l16 -39q-67 -51 -164.5 -91t-202.5 -40q-82 0 -154 28t-132 84.5t-94.5 154t-34.5 225.5zM283 600h497 q0 147 -67 242.5t-187 95.5q-62 0 -110 -29.5t-75 -80t-41.5 -107.5t-16.5 -121zM287 1415l28 31l242 -127l229 125l29 -29l-229 -244h-80z" />
<glyph unicode="&#x11c;" horiz-adv-x="1359" d="M113 672q0 180 58 329t156.5 245t225.5 148t268 52q217 0 381 -60l-53 -169q-158 92 -379 92q-224 0 -351.5 -143.5t-127.5 -442.5q0 -301 165.5 -471t442.5 -170q87 0 205 27v401q-56 0 -134 -2.5t-128 -5.5l-49 -2l16 118h448v-561q-14 2 -43 2q-31 0 -106 -20.5 t-172.5 -41t-181.5 -20.5q-133 0 -248 45t-203.5 130t-139 219t-50.5 301zM512 1589l229 223h80l219 -223l-30 -26l-234 127l-235 -129z" />
<glyph unicode="&#x11d;" horiz-adv-x="1126" d="M113 -281q0 81 60.5 145t162.5 95q-82 7 -117 48.5t-35 86.5q0 39 18.5 74.5t43 60.5t67.5 52.5t73.5 42.5t80.5 38q-127 13 -222 95.5t-95 206.5q0 96 37.5 172.5t98 121t128 67t135.5 22.5q122 0 215 -41l352 16v-133l-223 10q21 -26 36 -74t15 -90q0 -155 -118 -265.5 t-294 -117.5q-7 -4 -18 -11t-39.5 -27t-50 -38t-39.5 -40t-18 -37q0 -45 47.5 -65t154.5 -30l273 -24q106 -10 159.5 -59.5t53.5 -159.5q0 -66 -36 -133.5t-101 -125.5t-172 -95t-234 -37q-96 0 -169.5 15.5t-116 40t-69 58.5t-35.5 66t-9 69zM240 -209q0 -84 98.5 -142.5 t284.5 -58.5q135 0 226 62t91 155q0 58 -39.5 80.5t-136.5 30.5l-371 33q-71 -22 -112 -64t-41 -96zM293 1202l229 244h80l219 -244l-28 -31l-240 132l-231 -129zM301 733q0 -119 75.5 -193.5t194.5 -74.5q100 0 161 61.5t61 161.5q0 106 -71 185t-198 79q-99 0 -161 -58 t-62 -161z" />
<glyph unicode="&#x11e;" horiz-adv-x="1359" d="M113 672q0 180 58 329t156.5 245t225.5 148t268 52q217 0 381 -60l-53 -169q-158 92 -379 92q-224 0 -351.5 -143.5t-127.5 -442.5q0 -301 165.5 -471t442.5 -170q87 0 205 27v401q-56 0 -134 -2.5t-128 -5.5l-49 -2l16 118h448v-561q-14 2 -43 2q-31 0 -106 -20.5 t-172.5 -41t-181.5 -20.5q-133 0 -248 45t-203.5 130t-139 219t-50.5 301zM520 1759l15 23q62 -66 118 -92.5t129 -26.5q78 0 143 31t105 88l14 -23q-19 -40 -42.5 -75t-56 -68t-75 -52.5t-88.5 -19.5q-48 0 -92.5 21.5t-77 56t-55 69t-37.5 68.5z" />
<glyph unicode="&#x11f;" horiz-adv-x="1126" d="M113 -281q0 81 60.5 145t162.5 95q-82 7 -117 48.5t-35 86.5q0 39 18.5 74.5t43 60.5t67.5 52.5t73.5 42.5t80.5 38q-127 13 -222 95.5t-95 206.5q0 96 37.5 172.5t98 121t128 67t135.5 22.5q122 0 215 -41l352 16v-133l-223 10q21 -26 36 -74t15 -90q0 -155 -118 -265.5 t-294 -117.5q-7 -4 -18 -11t-39.5 -27t-50 -38t-39.5 -40t-18 -37q0 -45 47.5 -65t154.5 -30l273 -24q106 -10 159.5 -59.5t53.5 -159.5q0 -66 -36 -133.5t-101 -125.5t-172 -95t-234 -37q-96 0 -169.5 15.5t-116 40t-69 58.5t-35.5 66t-9 69zM240 -209q0 -84 98.5 -142.5 t284.5 -58.5q135 0 226 62t91 155q0 58 -39.5 80.5t-136.5 30.5l-371 33q-71 -22 -112 -64t-41 -96zM301 733q0 -119 75.5 -193.5t194.5 -74.5q100 0 161 61.5t61 161.5q0 106 -71 185t-198 79q-99 0 -161 -58t-62 -161zM301 1389l14 22q62 -66 118 -92.5t130 -26.5 q78 0 143 31t105 88l14 -22q-19 -40 -42.5 -75t-56 -68t-75 -52.5t-88.5 -19.5q-48 0 -92.5 21.5t-77 56t-55 69t-37.5 68.5z" />
<glyph unicode="&#x120;" horiz-adv-x="1359" d="M113 672q0 180 58 329t156.5 245t225.5 148t268 52q217 0 381 -60l-53 -169q-158 92 -379 92q-224 0 -351.5 -143.5t-127.5 -442.5q0 -301 165.5 -471t442.5 -170q87 0 205 27v401q-56 0 -134 -2.5t-128 -5.5l-49 -2l16 118h448v-561q-14 2 -43 2q-31 0 -106 -20.5 t-172.5 -41t-181.5 -20.5q-133 0 -248 45t-203.5 130t-139 219t-50.5 301zM668 1642q0 111 90 111q86 0 86 -106q0 -51 -25 -77t-61 -26q-43 0 -66.5 21.5t-23.5 76.5z" />
<glyph unicode="&#x121;" horiz-adv-x="1126" d="M113 -281q0 81 60.5 145t162.5 95q-82 7 -117 48.5t-35 86.5q0 39 18.5 74.5t43 60.5t67.5 52.5t73.5 42.5t80.5 38q-127 13 -222 95.5t-95 206.5q0 96 37.5 172.5t98 121t128 67t135.5 22.5q122 0 215 -41l352 16v-133l-223 10q21 -26 36 -74t15 -90q0 -155 -118 -265.5 t-294 -117.5q-7 -4 -18 -11t-39.5 -27t-50 -38t-39.5 -40t-18 -37q0 -45 47.5 -65t154.5 -30l273 -24q106 -10 159.5 -59.5t53.5 -159.5q0 -66 -36 -133.5t-101 -125.5t-172 -95t-234 -37q-96 0 -169.5 15.5t-116 40t-69 58.5t-35.5 66t-9 69zM240 -209q0 -84 98.5 -142.5 t284.5 -58.5q135 0 226 62t91 155q0 58 -39.5 80.5t-136.5 30.5l-371 33q-71 -22 -112 -64t-41 -96zM301 733q0 -119 75.5 -193.5t194.5 -74.5q100 0 161 61.5t61 161.5q0 106 -71 185t-198 79q-99 0 -161 -58t-62 -161zM475 1268q0 110 90 110q86 0 86 -106q0 -51 -25 -77 t-61 -26q-90 0 -90 99z" />
<glyph unicode="&#x122;" horiz-adv-x="1359" d="M113 672q0 180 58 329t156.5 245t225.5 148t268 52q217 0 381 -60l-53 -169q-158 92 -379 92q-224 0 -351.5 -143.5t-127.5 -442.5q0 -301 165.5 -471t442.5 -170q87 0 205 27v401q-56 0 -134 -2.5t-128 -5.5l-49 -2l16 118h448v-561q-14 2 -43 2q-31 0 -106 -20.5 t-172.5 -41t-181.5 -20.5q-133 0 -248 45t-203.5 130t-139 219t-50.5 301zM649 -522q58 87 58 164q0 96 -48 151l164 78q33 -41 33 -102q0 -58 -49.5 -145.5t-149.5 -153.5z" />
<glyph unicode="&#x123;" horiz-adv-x="1126" d="M113 -281q0 81 60.5 145t162.5 95q-82 7 -117 48.5t-35 86.5q0 39 18.5 74.5t43 60.5t67.5 52.5t73.5 42.5t80.5 38q-127 13 -222 95.5t-95 206.5q0 96 37.5 172.5t98 121t128 67t135.5 22.5q122 0 215 -41l352 16v-133l-223 10q21 -26 36 -74t15 -90q0 -155 -118 -265.5 t-294 -117.5q-7 -4 -18 -11t-39.5 -27t-50 -38t-39.5 -40t-18 -37q0 -45 47.5 -65t154.5 -30l273 -24q106 -10 159.5 -59.5t53.5 -159.5q0 -66 -36 -133.5t-101 -125.5t-172 -95t-234 -37q-96 0 -169.5 15.5t-116 40t-69 58.5t-35.5 66t-9 69zM240 -209q0 -84 98.5 -142.5 t284.5 -58.5q135 0 226 62t91 155q0 58 -39.5 80.5t-136.5 30.5l-371 33q-71 -22 -112 -64t-41 -96zM301 733q0 -119 75.5 -193.5t194.5 -74.5q100 0 161 61.5t61 161.5q0 106 -71 185t-198 79q-99 0 -161 -58t-62 -161zM451 1253q0 25 10.5 59t32 75.5t62 85.5t93.5 79 l8 -8q-57 -86 -57 -164q0 -98 47 -151l-164 -78q-32 40 -32 102z" />
<glyph unicode="&#x124;" horiz-adv-x="1470" d="M174 1425h166v-626h803v254q0 86 -2.5 179t-4.5 143l-3 50h163v-1425h-153v686h-803v-686h-154v1055q0 82 -3 174.5t-6 144.5zM475 1589l230 223h79l220 -223l-31 -26l-234 127l-235 -129z" />
<glyph unicode="&#x125;" horiz-adv-x="1159" d="M174 1409l176 35v-256q0 -205 -4 -293q183 152 369 152q138 0 204 -81.5t66 -283.5v-682h-154v618q0 156 -55.5 228t-193.5 72q-67 0 -125 -16t-83 -32l-24 -16v-145v-709h-153v1159q0 132 -23 250zM340 1589l229 223h80l219 -223l-30 -26l-234 127l-235 -129z" />
<glyph unicode="&#x128;" horiz-adv-x="538" d="M6 1561q40 114 75.5 153t78.5 39q14 0 31.5 -3.5t28 -6.5t30 -10.5t22.5 -8.5l52 -18q67 -25 96 -25q59 0 84 86l41 -8q-49 -196 -150 -196q-17 0 -37 4t-30 7t-36 12.5t-30 10.5l-53 19q-58 20 -78 20q-28 0 -45.5 -17.5t-40.5 -68.5zM184 1425h170v-1425h-153v1122 q0 88 -17 303z" />
<glyph unicode="&#x129;" horiz-adv-x="526" d="M0 1196q30 114 72.5 160.5t107.5 46.5q23 0 49 -9t38.5 -16t56.5 -32q40 -23 57 -30t35 -7q53 0 86 100l41 -10q-29 -113 -71 -160t-107 -47q-43 0 -99 31l-71 41q-40 22 -60 22q-58 0 -94 -100zM174 997l178 35l-2 -1032h-153v748q0 146 -23 249z" />
<glyph unicode="&#x12a;" horiz-adv-x="538" d="M88 1604v102h383v-102h-383zM184 1425h170v-1425h-153v1122q0 88 -17 303z" />
<glyph unicode="&#x12b;" horiz-adv-x="526" d="M80 1192v102h383v-102h-383zM174 997l178 35l-2 -1032h-153v748q0 146 -23 249z" />
<glyph unicode="&#x12c;" horiz-adv-x="538" d="M6 1759l14 23q62 -66 118 -92.5t130 -26.5q78 0 143 31t105 88l14 -23q-19 -40 -42.5 -75t-56 -68t-75 -52.5t-88.5 -19.5q-48 0 -92.5 21.5t-77 56t-55 69t-37.5 68.5zM184 1425h170v-1425h-153v1122q0 88 -17 303z" />
<glyph unicode="&#x12d;" horiz-adv-x="526" d="M8 1389l15 22q62 -66 118 -92.5t129 -26.5q78 0 143 31t105 88l14 -22q-19 -40 -42.5 -75t-56 -68t-75 -52.5t-88.5 -19.5q-48 0 -92.5 21.5t-77 56t-55 69t-37.5 68.5zM174 997l178 35l-2 -1032h-153v748q0 146 -23 249z" />
<glyph unicode="&#x12e;" horiz-adv-x="538" d="M74 -242q0 52 25 96.5t60 71t70.5 46t60.5 26.5l25 8l39 -6q-149 -100 -149 -229q0 -71 39 -114.5t125 -66.5l-33 -30q-114 8 -188 61t-74 137zM184 1425h170v-1425h-153v1122q0 88 -17 303z" />
<glyph unicode="&#x12f;" horiz-adv-x="557" d="M92 -242q0 52 25 96.5t60.5 71t71 46t60.5 26.5l25 8l39 -6q-150 -101 -150 -229q0 -71 39 -114.5t125 -66.5l-33 -30q-114 8 -188 61t-74 137zM174 1298q0 56 28.5 86.5t78.5 30.5q102 0 102 -112q0 -50 -31 -81.5t-71 -31.5q-46 0 -76.5 27t-30.5 81zM199 997l174 35 v-1032h-154v748q0 146 -20 249z" />
<glyph unicode="&#x131;" horiz-adv-x="526" d="M174 997l178 35l-2 -1032h-153v748q0 146 -23 249z" />
<glyph unicode="&#x136;" horiz-adv-x="1275" d="M174 1425h170v-669h37q25 0 47 26l301 385q47 60 88.5 127.5t59.5 104.5l18 37l186 -15l-532 -671l641 -746l-203 -14l-592 708q-14 17 -37 17h-14v-715h-154v1124q0 76 -4 151t-8 113zM514 -522q57 86 57 164q0 98 -47 151l164 78q33 -41 33 -102q0 -58 -49.5 -145.5 t-149.5 -153.5z" />
<glyph unicode="&#x137;" horiz-adv-x="989" d="M174 1409l168 33v-869h29q26 0 53 35l158 213q28 38 60 91t50 86l19 34l186 -14l-360 -447l407 -567l-199 -14l-346 516q-20 33 -49 33h-8v-539h-154v1157q0 154 -14 252zM436 -522q58 87 58 164q0 96 -48 151l164 78q33 -41 33 -102q0 -58 -49.5 -145.5t-149.5 -153.5z " />
<glyph unicode="&#x139;" horiz-adv-x="1054" d="M164 1563l121 219h221l-256 -219h-86zM174 1425h168v-1312q139 0 297 6t246 12l88 6l-19 -137h-766v1174q0 62 -3.5 124.5t-6.5 94.5z" />
<glyph unicode="&#x13a;" horiz-adv-x="565" d="M166 1563l121 219h221l-256 -219h-86zM174 1409l176 35v-1247q0 -58 19.5 -83.5t62.5 -25.5q46 0 64 4l8 -31q-64 -84 -164 -84q-70 0 -106.5 41.5t-36.5 122.5v1018q0 132 -23 250z" />
<glyph unicode="&#x13b;" horiz-adv-x="1054" d="M174 1425h168v-1312q139 0 297 6t246 12l88 6l-19 -137h-766v1174q0 62 -3.5 124.5t-6.5 94.5zM471 -522q57 86 57 164q0 98 -47 151l164 78q33 -41 33 -102q0 -58 -49.5 -145.5t-149.5 -153.5z" />
<glyph unicode="&#x13c;" horiz-adv-x="565" d="M174 1409l176 35v-1247q0 -58 19.5 -83.5t62.5 -25.5q46 0 64 4l8 -31q-64 -84 -164 -84q-70 0 -106.5 41.5t-36.5 122.5v1018q0 132 -23 250zM178 -522q58 87 58 164q0 96 -48 151l164 78q33 -41 33 -102q0 -58 -49.5 -145.5t-149.5 -153.5z" />
<glyph unicode="&#x13d;" horiz-adv-x="1054" d="M174 1425h168v-1312q139 0 297 6t246 12l88 6l-19 -137h-766v1174q0 62 -3.5 124.5t-6.5 94.5zM762 1042q57 86 57 164q0 99 -47 152l164 78q33 -41 33 -103q0 -58 -49.5 -145.5t-149.5 -153.5z" />
<glyph unicode="&#x13e;" horiz-adv-x="589" d="M174 1409l176 35v-1247q0 -58 19.5 -83.5t62.5 -25.5q46 0 64 4l8 -31q-64 -84 -164 -84q-70 0 -106.5 41.5t-36.5 122.5v1018q0 132 -23 250zM434 1044q58 87 58 164q0 97 -48 152l164 78q33 -41 33 -103q0 -58 -49.5 -145.5t-149.5 -153.5z" />
<glyph unicode="&#x141;" horiz-adv-x="1054" d="M-80 510l268 260v404q0 62 -3.5 124.5t-6.5 94.5l-4 32h168v-505l190 188l74 -76l-264 -258v-661q139 0 297 6t246 12l88 6l-19 -137h-766v623l-196 -191z" />
<glyph unicode="&#x142;" horiz-adv-x="575" d="M-72 573l279 271v315q0 132 -23 250l176 35v-451l193 189l72 -76l-265 -258v-651q0 -58 19.5 -83.5t62.5 -25.5q46 0 64 4l8 -31q-64 -84 -164 -84q-70 0 -106.5 41.5t-36.5 122.5v555l-205 -198z" />
<glyph unicode="&#x143;" horiz-adv-x="1437" d="M182 0v1425h125l438 -624q216 -305 379 -565h11q-5 269 -5 757v432h125v-1425h-125l-464 651q-45 64 -167 243t-190 277h-10q1 -109 4.5 -308t3.5 -296v-567h-125zM629 1563l121 219h221l-256 -219h-86z" />
<glyph unicode="&#x144;" horiz-adv-x="1157" d="M193 1004l149 34q15 -58 20 -135q103 76 187 110t178 34q274 0 274 -365v-682h-153v616q0 165 -50 232t-180 67q-62 0 -125 -13.5t-95 -27.5l-33 -14q2 -86 2 -143v-717h-154v752q0 149 -20 252zM508 1192l88 262h221l-229 -262h-80z" />
<glyph unicode="&#x145;" horiz-adv-x="1437" d="M182 0v1425h125l438 -624q216 -305 379 -565h11q-5 269 -5 757v432h125v-1425h-125l-464 651q-45 64 -167 243t-190 277h-10q1 -109 4.5 -308t3.5 -296v-567h-125zM629 -522q57 86 57 164q0 98 -47 151l164 78q33 -41 33 -102q0 -58 -49.5 -145.5t-149.5 -153.5z" />
<glyph unicode="&#x146;" horiz-adv-x="1157" d="M193 1004l149 34q15 -58 20 -135q103 76 187 110t178 34q274 0 274 -365v-682h-153v616q0 165 -50 232t-180 67q-62 0 -125 -13.5t-95 -27.5l-33 -14q2 -86 2 -143v-717h-154v752q0 149 -20 252zM489 -522q58 87 58 164q0 98 -47 151l164 78q32 -40 32 -102 q0 -25 -10.5 -59t-32 -75.5t-62 -85.5t-93.5 -79z" />
<glyph unicode="&#x147;" horiz-adv-x="1437" d="M182 0v1425h125l438 -624q216 -305 379 -565h11q-5 269 -5 757v432h125v-1425h-125l-464 651q-45 64 -167 243t-190 277h-10q1 -109 4.5 -308t3.5 -296v-567h-125zM471 1786l29 29l237 -129l232 126l30 -26l-227 -223h-80z" />
<glyph unicode="&#x148;" horiz-adv-x="1157" d="M193 1004l149 34q15 -58 20 -135q103 76 187 110t178 34q274 0 274 -365v-682h-153v616q0 165 -50 232t-180 67q-62 0 -125 -13.5t-95 -27.5l-33 -14q2 -86 2 -143v-717h-154v752q0 149 -20 252zM334 1415l28 31l242 -127l230 125l28 -29l-229 -244h-80z" />
<glyph unicode="&#x14c;" horiz-adv-x="1556" d="M113 659q0 145 36 271t99.5 219t149.5 159.5t188 100t213 33.5q158 0 282.5 -55.5t203 -153t119 -226t40.5 -280.5q0 -141 -51.5 -277.5t-140.5 -242t-218.5 -170t-275.5 -64.5q-294 0 -469.5 186t-175.5 500zM289 723q0 -132 33.5 -248t96.5 -205t162.5 -140.5 t223.5 -51.5q94 0 172 34t131 92t90 136t53.5 164t16.5 178q0 301 -141 478t-369 177q-99 0 -184 -40t-148.5 -115.5t-100 -193.5t-36.5 -265zM580 1561v102h383v-102h-383z" />
<glyph unicode="&#x14d;" d="M113 449q0 135 42.5 249t113.5 189.5t163 117.5t193 42q212 0 323 -137.5t111 -364.5q0 -106 -36.5 -208t-101.5 -183t-163 -131t-211 -50q-202 0 -318 133t-116 343zM279 547q0 -85 21 -164t62 -145t110 -106t157 -40q135 0 199.5 100.5t64.5 272.5q0 212 -90.5 338.5 t-239.5 126.5q-137 0 -210.5 -97.5t-73.5 -285.5zM401 1192v102h383v-102h-383z" />
<glyph unicode="&#x14e;" horiz-adv-x="1556" d="M113 659q0 145 36 271t99.5 219t149.5 159.5t188 100t213 33.5q158 0 282.5 -55.5t203 -153t119 -226t40.5 -280.5q0 -141 -51.5 -277.5t-140.5 -242t-218.5 -170t-275.5 -64.5q-294 0 -469.5 186t-175.5 500zM289 723q0 -132 33.5 -248t96.5 -205t162.5 -140.5 t223.5 -51.5q94 0 172 34t131 92t90 136t53.5 164t16.5 178q0 301 -141 478t-369 177q-99 0 -184 -40t-148.5 -115.5t-100 -193.5t-36.5 -265zM510 1759l14 23q62 -66 118 -92.5t130 -26.5q78 0 143 31t105 88l14 -23q-19 -40 -42.5 -75t-56 -68t-75 -52.5t-88.5 -19.5 q-48 0 -92.5 21.5t-77 56t-55 69t-37.5 68.5z" />
<glyph unicode="&#x14f;" d="M113 449q0 135 42.5 249t113.5 189.5t163 117.5t193 42q212 0 323 -137.5t111 -364.5q0 -106 -36.5 -208t-101.5 -183t-163 -131t-211 -50q-202 0 -318 133t-116 343zM279 547q0 -85 21 -164t62 -145t110 -106t157 -40q135 0 199.5 100.5t64.5 272.5q0 212 -90.5 338.5 t-239.5 126.5q-137 0 -210.5 -97.5t-73.5 -285.5zM322 1389l14 22q62 -66 118 -92.5t130 -26.5q78 0 142.5 31t104.5 88l15 -22q-19 -40 -42.5 -75t-56 -68t-75 -52.5t-88.5 -19.5q-48 0 -92.5 21.5t-77 56t-55 69t-37.5 68.5z" />
<glyph unicode="&#x150;" horiz-adv-x="1556" d="M113 659q0 145 36 271t99.5 219t149.5 159.5t188 100t213 33.5q158 0 282.5 -55.5t203 -153t119 -226t40.5 -280.5q0 -141 -51.5 -277.5t-140.5 -242t-218.5 -170t-275.5 -64.5q-294 0 -469.5 186t-175.5 500zM289 723q0 -132 33.5 -248t96.5 -205t162.5 -140.5 t223.5 -51.5q94 0 172 34t131 92t90 136t53.5 164t16.5 178q0 301 -141 478t-369 177q-99 0 -184 -40t-148.5 -115.5t-100 -193.5t-36.5 -265zM551 1524l121 219h221l-256 -219h-86zM795 1524l161 219h232l-305 -219h-88z" />
<glyph unicode="&#x151;" d="M113 449q0 135 42.5 249t113.5 189.5t163 117.5t193 42q212 0 323 -137.5t111 -364.5q0 -106 -36.5 -208t-101.5 -183t-163 -131t-211 -50q-202 0 -318 133t-116 343zM279 547q0 -85 21 -164t62 -145t110 -106t157 -40q135 0 199.5 100.5t64.5 272.5q0 212 -90.5 338.5 t-239.5 126.5q-137 0 -210.5 -97.5t-73.5 -285.5zM381 1192l88 262h221l-229 -262h-80zM618 1192l158 262h244l-313 -262h-89z" />
<glyph unicode="&#x152;" horiz-adv-x="1947" d="M113 659q0 145 36 271t99.5 219t149.5 159.5t188 100t213 33.5q68 0 225 -17h729l-16 -125q-422 17 -539 17h-20v-543l522 17l-14 -115l-508 6v-576q193 0 349.5 7t216.5 15l60 7l-18 -135h-762q-145 -27 -256 -27q-302 0 -478.5 185.5t-176.5 500.5zM289 723 q0 -132 33.5 -248t96.5 -205t162.5 -140.5t223.5 -51.5q118 0 219 33v1183q-79 27 -132 35t-134 8q-99 0 -184 -40t-148.5 -115.5t-100 -193.5t-36.5 -265z" />
<glyph unicode="&#x153;" horiz-adv-x="1822" d="M113 449q0 135 42.5 249t113.5 189.5t163 117.5t193 42q254 0 368 -207q63 98 157.5 152.5t211.5 54.5q87 0 153.5 -32t104.5 -80.5t61.5 -115.5t31 -125.5t7.5 -122.5t-2 -84h-663v-14q0 -183 107.5 -280t281.5 -97q109 0 215 49l16 -39q-67 -51 -164 -91t-202 -40 q-114 0 -210.5 53t-150.5 162q-81 -107 -178 -162t-223 -55q-202 0 -318 133t-116 343zM279 547q0 -85 21 -164t62 -145t110 -106t157 -40q136 0 200 103t64 290q0 202 -92.5 323.5t-237.5 121.5q-137 0 -210.5 -97.5t-73.5 -285.5zM1061 600h500q0 147 -67 242.5t-187 95.5 q-50 0 -91.5 -20t-69 -53t-46.5 -77.5t-28 -91t-11 -96.5z" />
<glyph unicode="&#x154;" horiz-adv-x="1183" d="M154 1425h438q204 0 312 -82t108 -243q0 -134 -71 -239.5t-206 -176.5l398 -684h-189l-334 594h-282v-594h-154v1055q0 75 -5 167.5t-10 147.5zM328 707h331q80 51 135.5 138t55.5 193q0 275 -332 275h-190v-606zM446 1563l121 219h221l-256 -219h-86z" />
<glyph unicode="&#x155;" horiz-adv-x="741" d="M174 1014l150 26q16 -122 16 -227l-2 -92h10q44 179 115 252.5t194 73.5q31 0 64 -13l-31 -194q-36 4 -53 4q-136 0 -210.5 -80t-74.5 -178v-586h-153v709q0 174 -25 305zM365 1192l88 262h221l-230 -262h-79z" />
<glyph unicode="&#x156;" horiz-adv-x="1183" d="M154 1425h438q204 0 312 -82t108 -243q0 -134 -71 -239.5t-206 -176.5l398 -684h-189l-334 594h-282v-594h-154v1055q0 75 -5 167.5t-10 147.5zM328 707h331q80 51 135.5 138t55.5 193q0 275 -332 275h-190v-606zM528 -522q58 87 58 164q0 98 -47 151l163 78 q33 -41 33 -102q0 -25 -10.5 -59t-32 -75.5t-62 -85.5t-93.5 -79z" />
<glyph unicode="&#x157;" horiz-adv-x="741" d="M172 -522q57 86 57 164q0 98 -47 151l164 78q33 -41 33 -102q0 -58 -49.5 -145.5t-149.5 -153.5zM174 1014l150 26q16 -122 16 -227l-2 -92h10q44 179 115 252.5t194 73.5q31 0 64 -13l-31 -194q-36 4 -53 4q-136 0 -210.5 -80t-74.5 -178v-586h-153v709q0 174 -25 305z " />
<glyph unicode="&#x158;" horiz-adv-x="1183" d="M154 1425h438q204 0 312 -82t108 -243q0 -134 -71 -239.5t-206 -176.5l398 -684h-189l-334 594h-282v-594h-154v1055q0 75 -5 167.5t-10 147.5zM303 1786l29 29l237 -129l232 126l30 -26l-227 -223h-80zM328 707h331q80 51 135.5 138t55.5 193q0 275 -332 275h-190v-606z " />
<glyph unicode="&#x159;" horiz-adv-x="741" d="M168 1415l29 31l241 -127l230 125l28 -29l-229 -244h-80zM174 1014l150 26q16 -122 16 -227l-2 -92h10q44 179 115 252.5t194 73.5q31 0 64 -13l-31 -194q-36 4 -53 4q-136 0 -210.5 -80t-74.5 -178v-586h-153v709q0 174 -25 305z" />
<glyph unicode="&#x15a;" horiz-adv-x="1052" d="M113 53l57 148q186 -92 393 -92q112 0 176 65.5t64 169.5q0 96 -69 159t-261 156q-195 95 -268.5 180t-73.5 224q0 78 26.5 146t79 121.5t138 84.5t194.5 31q167 0 320 -47l-51 -142q-170 76 -316 76q-117 0 -178 -61.5t-61 -159.5q0 -57 12.5 -95t54 -81t118.5 -86.5 t206 -99.5q152 -66 209 -147t57 -191q0 -58 -13 -115.5t-45.5 -116t-81 -103t-126.5 -72.5t-176 -28q-210 0 -385 76zM432 1563l121 219h221l-256 -219h-86z" />
<glyph unicode="&#x15b;" horiz-adv-x="862" d="M113 41l63 145q153 -90 299 -90q74 0 112 42t38 106q0 60 -44.5 97t-191.5 110q-145 72 -197.5 138.5t-52.5 149.5q0 125 90.5 210t249.5 85q136 0 269 -43l-64 -145q-144 72 -266 72q-61 0 -99 -34.5t-38 -90.5q0 -31 6.5 -53.5t29 -51t72.5 -59t129 -66.5 q126 -56 181 -116.5t55 -157.5q0 -42 -12 -84.5t-39.5 -84t-66 -73.5t-96 -52t-126.5 -20q-161 0 -301 66zM338 1192l88 262h221l-229 -262h-80z" />
<glyph unicode="&#x15c;" horiz-adv-x="1052" d="M113 53l57 148q186 -92 393 -92q112 0 176 65.5t64 169.5q0 96 -69 159t-261 156q-195 95 -268.5 180t-73.5 224q0 78 26.5 146t79 121.5t138 84.5t194.5 31q167 0 320 -47l-51 -142q-170 76 -316 76q-117 0 -178 -61.5t-61 -159.5q0 -57 12.5 -95t54 -81t118.5 -86.5 t206 -99.5q152 -66 209 -147t57 -191q0 -58 -13 -115.5t-45.5 -116t-81 -103t-126.5 -72.5t-176 -28q-210 0 -385 76zM219 1589l230 223h79l220 -223l-31 -26l-234 127l-235 -129z" />
<glyph unicode="&#x15d;" horiz-adv-x="862" d="M113 41l63 145q153 -90 299 -90q74 0 112 42t38 106q0 60 -44.5 97t-191.5 110q-145 72 -197.5 138.5t-52.5 149.5q0 125 90.5 210t249.5 85q136 0 269 -43l-64 -145q-144 72 -266 72q-61 0 -99 -34.5t-38 -90.5q0 -31 6.5 -53.5t29 -51t72.5 -59t129 -66.5 q126 -56 181 -116.5t55 -157.5q0 -42 -12 -84.5t-39.5 -84t-66 -73.5t-96 -52t-126.5 -20q-161 0 -301 66zM166 1202l229 244h80l219 -244l-28 -31l-240 132l-231 -129z" />
<glyph unicode="&#x15e;" horiz-adv-x="1052" d="M113 53l57 148q186 -92 393 -92q112 0 176 65.5t64 169.5q0 96 -69 159t-261 156q-195 95 -268.5 180t-73.5 224q0 78 26.5 146t79 121.5t138 84.5t194.5 31q167 0 320 -47l-51 -142q-170 76 -316 76q-117 0 -178 -61.5t-61 -159.5q0 -57 12.5 -95t54 -81t118.5 -86.5 t206 -99.5q152 -66 209 -147t57 -191q0 -58 -13 -115.5t-45.5 -116t-81 -103t-126.5 -72.5t-176 -28q-210 0 -385 76zM414 -391q66 9 103.5 43t37.5 80q0 69 -63 69q-42 0 -70 -14l-4 39l90 182h76l-60 -123q10 2 29 2q57 0 91 -30.5t34 -92.5q0 -82 -65.5 -136.5 t-190.5 -61.5z" />
<glyph unicode="&#x15f;" horiz-adv-x="862" d="M113 41l63 145q153 -90 299 -90q74 0 112 42t38 106q0 60 -44.5 97t-191.5 110q-145 72 -197.5 138.5t-52.5 149.5q0 125 90.5 210t249.5 85q136 0 269 -43l-64 -145q-144 72 -266 72q-61 0 -99 -34.5t-38 -90.5q0 -31 6.5 -53.5t29 -51t72.5 -59t129 -66.5 q126 -56 181 -116.5t55 -157.5q0 -42 -12 -84.5t-39.5 -84t-66 -73.5t-96 -52t-126.5 -20q-161 0 -301 66zM319 -391q66 9 104 43t38 80q0 69 -64 69q-41 0 -69 -14l-4 39l90 182h75l-59 -123q10 2 29 2q57 0 91 -30.5t34 -92.5q0 -82 -65.5 -136.5t-190.5 -61.5z" />
<glyph unicode="&#x160;" horiz-adv-x="1052" d="M113 53l57 148q186 -92 393 -92q112 0 176 65.5t64 169.5q0 96 -69 159t-261 156q-195 95 -268.5 180t-73.5 224q0 78 26.5 146t79 121.5t138 84.5t194.5 31q167 0 320 -47l-51 -142q-170 76 -316 76q-117 0 -178 -61.5t-61 -159.5q0 -57 12.5 -95t54 -81t118.5 -86.5 t206 -99.5q152 -66 209 -147t57 -191q0 -58 -13 -115.5t-45.5 -116t-81 -103t-126.5 -72.5t-176 -28q-210 0 -385 76zM279 1786l28 29l238 -129l231 126l31 -26l-227 -223h-80z" />
<glyph unicode="&#x161;" horiz-adv-x="862" d="M113 41l63 145q153 -90 299 -90q74 0 112 42t38 106q0 60 -44.5 97t-191.5 110q-145 72 -197.5 138.5t-52.5 149.5q0 125 90.5 210t249.5 85q136 0 269 -43l-64 -145q-144 72 -266 72q-61 0 -99 -34.5t-38 -90.5q0 -31 6.5 -53.5t29 -51t72.5 -59t129 -66.5 q126 -56 181 -116.5t55 -157.5q0 -42 -12 -84.5t-39.5 -84t-66 -73.5t-96 -52t-126.5 -20q-161 0 -301 66zM207 1415l29 31l241 -127l230 125l28 -29l-229 -244h-80z" />
<glyph unicode="&#x162;" horiz-adv-x="1325" d="M82 1280l6 145h1149l6 -145q-164 27 -268 27h-236v-1307h-153v1307h-236q-61 0 -128 -6.5t-104 -13.5zM559 -522q57 86 57 164q0 98 -47 151l164 78q33 -41 33 -102q0 -58 -49.5 -145.5t-149.5 -153.5z" />
<glyph unicode="&#x163;" horiz-adv-x="645" d="M61 911v45q107 46 164 105q83 87 109 192h35v-229h213v-113h-213v-604q0 -49 1.5 -75.5t8 -57t20 -44.5t38 -24t61.5 -10q33 0 71 10l17 -38q-113 -91 -213 -91q-78 0 -118 45t-40 154v735h-154zM240 -522q57 86 57 164q0 98 -47 151l164 78q32 -40 32 -102 q0 -25 -10.5 -59t-32 -75.5t-62 -85.5t-93.5 -79z" />
<glyph unicode="&#x164;" horiz-adv-x="1325" d="M82 1280l6 145h1149l6 -145q-164 27 -268 27h-236v-1307h-153v1307h-236q-61 0 -128 -6.5t-104 -13.5zM399 1786l29 29l238 -129l231 126l31 -26l-228 -223h-79z" />
<glyph unicode="&#x165;" horiz-adv-x="1128" d="M61 911v45q107 46 164 105q83 87 109 192h35v-229h213v-113h-213v-604q0 -49 1.5 -75.5t8 -57t20 -44.5t38 -24t61.5 -10q33 0 71 10l17 -38q-113 -91 -213 -91q-78 0 -118 45t-40 154v735h-154zM672 862q57 86 57 164q0 99 -47 152l164 77q33 -41 33 -102 q0 -58 -49.5 -145.5t-149.5 -153.5z" />
<glyph unicode="&#x168;" horiz-adv-x="1429" d="M174 1425h172v-915q0 -215 107.5 -323.5t314.5 -108.5q167 0 260.5 106t93.5 293v582q0 96 -4.5 187.5t-9.5 135.5l-4 43h143v-909q0 -247 -136.5 -393t-397.5 -146q-111 0 -204.5 29t-164.5 86.5t-111 150t-40 212.5v704q0 44 -4.5 110.5t-9.5 110.5zM471 1561 q40 114 75.5 153t78.5 39q14 0 31.5 -3.5t28 -6.5t30 -10.5t22.5 -8.5l51 -18q67 -25 97 -25q59 0 84 86l41 -8q-49 -196 -150 -196q-17 0 -37 4t-30 7t-36 12.5t-30 10.5l-53 19q-58 20 -78 20q-28 0 -45.5 -17.5t-40.5 -68.5z" />
<glyph unicode="&#x169;" horiz-adv-x="1150" d="M174 1024h156q4 -43 4 -84v-537q0 -173 49.5 -233.5t198.5 -60.5q52 0 109 15.5t87 30.5l31 15v854h154v-805q0 -130 14 -219h-156q-7 41 -10 129q-171 -152 -346 -152q-42 0 -81 8.5t-76.5 30t-65.5 53.5t-45 83.5t-17 115.5v631q0 95 -6 125zM324 1196 q30 114 72.5 160.5t107.5 46.5q8 0 15.5 -0.5t15.5 -2.5l14 -3.5t15 -6t14 -6.5t16 -8t15.5 -8.5t18.5 -10.5t19 -11q40 -23 57 -30t35 -7q53 0 86 100l41 -10q-29 -113 -71 -160t-107 -47q-42 0 -98 31l-72 41q-40 22 -59 22q-58 0 -94 -100z" />
<glyph unicode="&#x16a;" horiz-adv-x="1429" d="M174 1425h172v-915q0 -215 107.5 -323.5t314.5 -108.5q167 0 260.5 106t93.5 293v582q0 96 -4.5 187.5t-9.5 135.5l-4 43h143v-909q0 -247 -136.5 -393t-397.5 -146q-111 0 -204.5 29t-164.5 86.5t-111 150t-40 212.5v704q0 44 -4.5 110.5t-9.5 110.5zM541 1544v103h383 v-103h-383z" />
<glyph unicode="&#x16b;" horiz-adv-x="1150" d="M174 1024h156q4 -43 4 -84v-537q0 -173 49.5 -233.5t198.5 -60.5q52 0 109 15.5t87 30.5l31 15v854h154v-805q0 -130 14 -219h-156q-7 41 -10 129q-171 -152 -346 -152q-42 0 -81 8.5t-76.5 30t-65.5 53.5t-45 83.5t-17 115.5v631q0 95 -6 125zM403 1192v102h383v-102 h-383z" />
<glyph unicode="&#x16c;" horiz-adv-x="1429" d="M174 1425h172v-915q0 -215 107.5 -323.5t314.5 -108.5q167 0 260.5 106t93.5 293v582q0 96 -4.5 187.5t-9.5 135.5l-4 43h143v-909q0 -247 -136.5 -393t-397.5 -146q-111 0 -204.5 29t-164.5 86.5t-111 150t-40 212.5v704q0 44 -4.5 110.5t-9.5 110.5zM479 1759l15 23 q62 -66 118 -92.5t129 -26.5q78 0 143 31t105 88l15 -23q-18 -39 -42.5 -74.5t-57 -68.5t-75 -52.5t-88.5 -19.5q-48 0 -92.5 21.5t-77 56t-55 69t-37.5 68.5z" />
<glyph unicode="&#x16d;" horiz-adv-x="1150" d="M174 1024h156q4 -43 4 -84v-537q0 -173 49.5 -233.5t198.5 -60.5q52 0 109 15.5t87 30.5l31 15v854h154v-805q0 -130 14 -219h-156q-7 41 -10 129q-171 -152 -346 -152q-42 0 -81 8.5t-76.5 30t-65.5 53.5t-45 83.5t-17 115.5v631q0 95 -6 125zM313 1389l15 22 q62 -66 118 -92.5t129 -26.5q78 0 143 31t105 88l15 -22q-18 -39 -42.5 -74.5t-57 -68.5t-75 -52.5t-88.5 -19.5q-48 0 -92.5 21.5t-77 56t-55 69t-37.5 68.5z" />
<glyph unicode="&#x16e;" horiz-adv-x="1429" d="M174 1425h172v-915q0 -215 107.5 -323.5t314.5 -108.5q167 0 260.5 106t93.5 293v582q0 96 -4.5 187.5t-9.5 135.5l-4 43h143v-909q0 -247 -136.5 -393t-397.5 -146q-111 0 -204.5 29t-164.5 86.5t-111 150t-40 212.5v704q0 44 -4.5 110.5t-9.5 110.5zM561 1692 q0 73 49.5 120.5t120.5 47.5q70 0 119 -48t49 -120q0 -70 -49.5 -119t-118.5 -49q-71 0 -120.5 47.5t-49.5 120.5zM645 1692q0 -37 25 -65t61 -28q35 0 60.5 28t25.5 65t-25.5 63.5t-60.5 26.5q-36 0 -61 -26.5t-25 -63.5z" />
<glyph unicode="&#x16f;" horiz-adv-x="1150" d="M174 1024h156q4 -43 4 -84v-537q0 -173 49.5 -233.5t198.5 -60.5q52 0 109 15.5t87 30.5l31 15v854h154v-805q0 -130 14 -219h-156q-7 41 -10 129q-171 -152 -346 -152q-42 0 -81 8.5t-76.5 30t-65.5 53.5t-45 83.5t-17 115.5v631q0 95 -6 125zM414 1319q0 73 49.5 120.5 t120.5 47.5q70 0 119 -48t49 -120q0 -70 -49.5 -119t-118.5 -49q-71 0 -120.5 47.5t-49.5 120.5zM498 1319q0 -37 25 -64.5t61 -27.5q35 0 60.5 27.5t25.5 64.5t-25.5 63.5t-60.5 26.5q-36 0 -61 -26.5t-25 -63.5z" />
<glyph unicode="&#x170;" horiz-adv-x="1429" d="M174 1425h172v-915q0 -215 107.5 -323.5t314.5 -108.5q167 0 260.5 106t93.5 293v582q0 96 -4.5 187.5t-9.5 135.5l-4 43h143v-909q0 -247 -136.5 -393t-397.5 -146q-111 0 -204.5 29t-164.5 86.5t-111 150t-40 212.5v704q0 44 -4.5 110.5t-9.5 110.5zM500 1524l121 219 h221l-256 -219h-86zM743 1524l162 219h232l-306 -219h-88z" />
<glyph unicode="&#x171;" horiz-adv-x="1150" d="M174 1024h156q4 -43 4 -84v-537q0 -173 49.5 -233.5t198.5 -60.5q52 0 109 15.5t87 30.5l31 15v854h154v-805q0 -130 14 -219h-156q-7 41 -10 129q-171 -152 -346 -152q-42 0 -81 8.5t-76.5 30t-65.5 53.5t-45 83.5t-17 115.5v631q0 95 -6 125zM399 1192l88 262h222 l-230 -262h-80zM637 1192l158 262h243l-313 -262h-88z" />
<glyph unicode="&#x172;" horiz-adv-x="1429" d="M174 1425h172v-915q0 -215 107.5 -323.5t314.5 -108.5q167 0 260.5 106t93.5 293v582q0 96 -4.5 187.5t-9.5 135.5l-4 43h143v-909q0 -247 -136.5 -393t-397.5 -146q-111 0 -204.5 29t-164.5 86.5t-111 150t-40 212.5v704q0 44 -4.5 110.5t-9.5 110.5zM553 -242 q0 52 25 96.5t60.5 71t71 46t60.5 26.5l25 8l39 -6q-150 -101 -150 -229q0 -71 39 -114.5t125 -66.5l-33 -30q-114 8 -188 61t-74 137z" />
<glyph unicode="&#x173;" horiz-adv-x="1150" d="M174 1024h156q4 -43 4 -84v-537q0 -173 49.5 -233.5t198.5 -60.5q52 0 109 15.5t87 30.5l31 15v854h154v-805q0 -130 14 -219h-156q-7 41 -10 129q-171 -152 -346 -152q-42 0 -81 8.5t-76.5 30t-65.5 53.5t-45 83.5t-17 115.5v631q0 95 -6 125zM696 -242q0 52 25 96.5 t60.5 71t71 46t60.5 26.5l25 8l39 -6q-150 -101 -150 -229q0 -71 39 -114.5t125 -66.5l-33 -30q-114 8 -188 61t-74 137z" />
<glyph unicode="&#x174;" horiz-adv-x="1984" d="M78 1425h172l211 -788q84 -318 117 -457h10q112 433 119 457l219 790h157l183 -684q104 -388 141 -563h10q9 34 51 191t68 252l121 434q19 70 39.5 162t31.5 149l11 57h162l-431 -1448h-157l-178 660q-19 73 -71 281.5t-75 293.5h-10q-56 -252 -145 -581l-179 -654h-159z M731 1589l230 223h79l220 -223l-31 -26l-234 127l-235 -129z" />
<glyph unicode="&#x175;" horiz-adv-x="1564" d="M76 1024h164l108 -479q16 -74 34.5 -166t29.5 -147l10 -56h12q66 218 117 363l168 485h149l158 -469q22 -64 51 -159t47 -158l19 -62h12q51 228 86 373l43 176q14 56 28.5 131t22.5 122l8 46h150l-281 -1042h-153l-156 452q-42 122 -121 397h-10q-59 -204 -129 -399 l-160 -450h-149zM530 1202l230 244h80l219 -244l-29 -31l-239 132l-232 -129z" />
<glyph unicode="&#x176;" horiz-adv-x="1218" d="M82 1423h176l358 -725h11l184 359q31 61 68.5 153t59.5 154l22 61h176l-447 -860v-565h-153v563zM360 1589l230 223h80l219 -223l-31 -26l-233 127l-236 -129z" />
<glyph unicode="&#x177;" horiz-adv-x="1050" d="M72 1024h176l282 -907h11l141 463q31 104 56 215t34 170l10 59h191l-379 -1106q-58 -171 -137 -289q-72 -106 -187 -153l-67 174q59 14 90.5 31.5t66.5 48.5q39 36 66.5 86t38.5 98zM274 1202l230 244h80l219 -244l-29 -31l-239 132l-232 -129z" />
<glyph unicode="&#x178;" horiz-adv-x="1218" d="M82 1423h176l358 -725h11l184 359q31 61 68.5 153t59.5 154l22 61h176l-447 -860v-565h-153v563zM385 1642q0 111 90 111q86 0 86 -106q0 -51 -25 -77t-61 -26q-43 0 -66.5 21.5t-23.5 76.5zM719 1642q0 111 90 111q88 0 88 -106q0 -51 -25.5 -77t-62.5 -26q-90 0 -90 98 z" />
<glyph unicode="&#x179;" horiz-adv-x="1181" d="M92 0v63l787 1250h-295q-128 0 -236 -6.5t-152 -13.5l-44 -7l20 139h918v-65l-785 -1247h320q152 0 265 7t150 14l37 7l-20 -141h-965zM532 1563l121 219h221l-256 -219h-86z" />
<glyph unicode="&#x17a;" horiz-adv-x="917" d="M102 0v61l508 850h-245q-50 0 -109.5 -5t-93.5 -10l-35 -5l14 133h674v-63l-506 -848h221q64 0 132.5 5t105.5 10l37 5l-17 -133h-686zM381 1192l88 262h221l-229 -262h-80z" />
<glyph unicode="&#x17b;" horiz-adv-x="1181" d="M92 0v63l787 1250h-295q-128 0 -236 -6.5t-152 -13.5l-44 -7l20 139h918v-65l-785 -1247h320q152 0 265 7t150 14l37 7l-20 -141h-965zM522 1642q0 111 90 111q86 0 86 -106q0 -51 -25 -77t-61 -26q-43 0 -66.5 21.5t-23.5 76.5z" />
<glyph unicode="&#x17c;" horiz-adv-x="917" d="M102 0v61l508 850h-245q-50 0 -109.5 -5t-93.5 -10l-35 -5l14 133h674v-63l-506 -848h221q64 0 132.5 5t105.5 10l37 5l-17 -133h-686zM391 1268q0 110 90 110q86 0 86 -106q0 -51 -25 -77t-61 -26q-90 0 -90 99z" />
<glyph unicode="&#x17d;" horiz-adv-x="1181" d="M92 0v63l787 1250h-295q-128 0 -236 -6.5t-152 -13.5l-44 -7l20 139h918v-65l-785 -1247h320q152 0 265 7t150 14l37 7l-20 -141h-965zM356 1786l29 29l238 -129l231 126l31 -26l-228 -223h-79z" />
<glyph unicode="&#x17e;" horiz-adv-x="917" d="M102 0v61l508 850h-245q-50 0 -109.5 -5t-93.5 -10l-35 -5l14 133h674v-63l-506 -848h221q64 0 132.5 5t105.5 10l37 5l-17 -133h-686zM195 1415l28 31l242 -127l229 125l29 -29l-229 -244h-80z" />
<glyph unicode="&#x18f;" horiz-adv-x="1339" d="M113 627v114h931q0 264 -144.5 431t-358.5 167q-176 0 -324 -67l-22 53q199 117 421 117q92 0 177.5 -23t165 -75.5t138 -129t93.5 -191.5t35 -255q0 -159 -45 -303.5t-123 -253t-191 -172.5t-243 -64q-120 0 -213 44t-147.5 110.5t-89.5 157t-47.5 173t-12.5 167.5z M293 588q0 -79 14 -151.5t44.5 -137t74 -112.5t106.5 -75.5t138 -27.5q79 0 148.5 47.5t116 122.5t74.5 162.5t31 171.5h-747z" />
<glyph unicode="&#x1dd;" horiz-adv-x="1705" />
<glyph unicode="&#x218;" horiz-adv-x="1052" d="M113 53l57 148q186 -92 393 -92q112 0 176 65.5t64 169.5q0 96 -69 159t-261 156q-195 95 -268.5 180t-73.5 224q0 78 26.5 146t79 121.5t138 84.5t194.5 31q167 0 320 -47l-51 -142q-170 76 -316 76q-117 0 -178 -61.5t-61 -159.5q0 -57 12.5 -95t54 -81t118.5 -86.5 t206 -99.5q152 -66 209 -147t57 -191q0 -58 -13 -115.5t-45.5 -116t-81 -103t-126.5 -72.5t-176 -28q-210 0 -385 76zM418 -522q57 86 57 164q0 98 -47 151l164 78q33 -41 33 -102q0 -58 -49.5 -145.5t-149.5 -153.5z" />
<glyph unicode="&#x219;" horiz-adv-x="862" d="M113 41l63 145q153 -90 299 -90q74 0 112 42t38 106q0 60 -44.5 97t-191.5 110q-145 72 -197.5 138.5t-52.5 149.5q0 125 90.5 210t249.5 85q136 0 269 -43l-64 -145q-144 72 -266 72q-61 0 -99 -34.5t-38 -90.5q0 -31 6.5 -53.5t29 -51t72.5 -59t129 -66.5 q126 -56 181 -116.5t55 -157.5q0 -42 -12 -84.5t-39.5 -84t-66 -73.5t-96 -52t-126.5 -20q-161 0 -301 66zM328 -522q57 86 57 164q0 98 -47 151l164 78q33 -41 33 -102q0 -58 -49.5 -145.5t-149.5 -153.5z" />
<glyph unicode="&#x259;" horiz-adv-x="1042" d="M113 451q0 64 2 84h663q0 191 -106 291t-283 100q-109 0 -215 -49l-16 38q68 51 164.5 91.5t201.5 40.5q82 0 154.5 -28t132 -84.5t94.5 -154t35 -225.5q0 -250 -129.5 -415t-339.5 -165q-87 0 -153.5 32t-104.5 80.5t-61.5 115.5t-31 125.5t-7.5 122.5zM272 422 q0 -147 67 -242.5t187 -95.5q62 0 110 29.5t75.5 80t42 107.5t16.5 121h-498z" />
<glyph unicode="&#x2c6;" horiz-adv-x="528" d="M0 1202l229 244h80l219 -244l-28 -31l-240 132l-231 -129z" />
<glyph unicode="&#x2c7;" horiz-adv-x="528" d="M0 1415l29 31l241 -127l230 125l28 -29l-229 -244h-80z" />
<glyph unicode="&#x2d8;" horiz-adv-x="524" d="M0 1389l14 22q62 -66 118 -92.5t130 -26.5q78 0 143 31t105 88l14 -22q-19 -40 -42.5 -75t-56 -68t-75 -52.5t-88.5 -19.5q-48 0 -92.5 21.5t-77 56t-55 69t-37.5 68.5z" />
<glyph unicode="&#x2d9;" horiz-adv-x="176" d="M0 1268q0 110 90 110q86 0 86 -106q0 -51 -25 -77t-61 -26q-90 0 -90 99z" />
<glyph unicode="&#x2da;" horiz-adv-x="337" d="M0 1319q0 73 49.5 120.5t120.5 47.5q70 0 119 -48t49 -120q0 -70 -49.5 -119t-118.5 -49q-71 0 -120.5 47.5t-49.5 120.5zM84 1319q0 -37 25 -64.5t61 -27.5q35 0 60.5 27.5t25.5 64.5t-25.5 63.5t-60.5 26.5q-36 0 -61 -26.5t-25 -63.5z" />
<glyph unicode="&#x2db;" horiz-adv-x="294" d="M0 -242q0 52 25 96.5t60.5 71t71 46t60.5 26.5l25 8l39 -6q-150 -101 -150 -229q0 -71 39 -114.5t125 -66.5l-33 -30q-114 8 -188 61t-74 137z" />
<glyph unicode="&#x2dc;" horiz-adv-x="542" d="M0 1196q30 114 72.5 160.5t107.5 46.5q23 0 49 -9t38.5 -16t56.5 -32q40 -23 57 -30t35 -7q53 0 86 100l41 -10q-29 -113 -71 -160t-107 -47q-43 0 -99 31l-71 41q-40 22 -60 22q-58 0 -94 -100z" />
<glyph unicode="&#x2dd;" horiz-adv-x="638" d="M0 1192l88 262h221l-229 -262h-80zM238 1192l157 262h244l-313 -262h-88z" />
<glyph unicode="&#x401;" horiz-adv-x="1118" d="M174 1425h750l-17 -125q-421 17 -538 17h-21v-543l522 17l-14 -115l-508 6v-576q193 0 349.5 7t216.5 15l61 7l-19 -135h-761v1061q0 79 -5.5 170t-10.5 143zM328 1642q0 111 90 111q86 0 86 -106q0 -51 -25 -77t-61 -26q-43 0 -66.5 21.5t-23.5 76.5zM662 1642 q0 111 90 111q88 0 88 -106q0 -51 -25.5 -77t-62.5 -26q-90 0 -90 98z" />
<glyph unicode="&#x402;" horiz-adv-x="1366" d="M102 1280l7 145h1148l7 -145q-165 27 -269 27h-235v-394q78 66 169 100t173 34q134 0 202 -82.5t68 -282.5v-913q0 -145 -79 -218t-203 -73q-96 0 -164 24l26 150q68 -33 129 -33q138 0 138 166v833q0 165 -54.5 232.5t-195.5 67.5q-87 0 -209 -46v-872h-154v1307h-235 q-61 0 -128 -6.5t-104 -13.5z" />
<glyph unicode="&#x403;" horiz-adv-x="1019" d="M154 1425h784l-18 -118l-582 14v-1321h-154v1059q0 88 -7.5 179.5t-14.5 139.5zM461 1563l121 219h221l-256 -219h-86z" />
<glyph unicode="&#x404;" horiz-adv-x="1220" d="M113 649q0 169 44.5 313t128.5 252.5t214.5 170t292.5 61.5q163 0 323 -57l-51 -170q-72 46 -169 68t-183 22q-189 0 -300.5 -134t-121.5 -413l608 8l-10 -131l-598 14q19 -263 155 -402.5t379 -139.5q90 0 176 21.5t138 57.5l20 -34q-179 -179 -457 -179 q-279 0 -434 178t-155 494z" />
<glyph unicode="&#x405;" horiz-adv-x="1052" d="M113 53l57 148q186 -92 393 -92q112 0 176 65.5t64 169.5q0 96 -69 159t-261 156q-195 95 -268.5 180t-73.5 224q0 78 26.5 146t79 121.5t138 84.5t194.5 31q167 0 320 -47l-51 -142q-170 76 -316 76q-117 0 -178 -61.5t-61 -159.5q0 -57 12.5 -95t54 -81t118.5 -86.5 t206 -99.5q152 -66 209 -147t57 -191q0 -58 -13 -115.5t-45.5 -116t-81 -103t-126.5 -72.5t-176 -28q-210 0 -385 76z" />
<glyph unicode="&#x406;" horiz-adv-x="497" d="M166 1407l170 29v-1436h-154v1122q0 141 -16 285z" />
<glyph unicode="&#x407;" horiz-adv-x="497" d="M2 1681q0 111 90 111q86 0 86 -106q0 -51 -25 -77t-61 -26q-43 0 -66.5 21.5t-23.5 76.5zM166 1407l170 29v-1436h-154v1122q0 141 -16 285zM336 1681q0 111 90 111q88 0 88 -106q0 -51 -25.5 -77t-62.5 -26q-90 0 -90 98z" />
<glyph unicode="&#x408;" horiz-adv-x="567" d="M20 -504q91 86 142 215t51 283v1122q0 47 -3.5 124.5t-7.5 131.5l-3 53h168v-1284q0 -178 -36.5 -305.5t-119.5 -222.5q-34 -39 -77.5 -75.5t-69.5 -53.5l-27 -16z" />
<glyph unicode="&#x409;" horiz-adv-x="1941" d="M59 147q128 15 168 91q46 88 70 276q35 289 47 713q1 36 -2.5 85.5t-7.5 81.5l-4 31h778v-557q146 84 305 84q64 0 122.5 -12t115 -42t97.5 -75t66 -116t25 -160q0 -170 -73.5 -295.5t-197.5 -188.5t-282 -63h-332v1307h-471q-7 -266 -28 -545q-15 -225 -40 -365 t-77 -233q-79 -140 -229 -187zM1108 113h227q161 0 251.5 87t90.5 269q0 375 -364 375q-76 0 -205 -17v-714z" />
<glyph unicode="&#x40a;" horiz-adv-x="2109" d="M174 1425h166v-626h782v254q0 86 -2.5 179t-5.5 143l-2 50h164v-561q153 88 307 88q64 0 122.5 -12t114.5 -42t96.5 -75t65.5 -116t25 -160q0 -170 -73.5 -295.5t-197.5 -188.5t-282 -63h-332v686h-782v-686h-154v1055q0 82 -3 174.5t-6 144.5zM1276 113h227 q161 0 251.5 87t90.5 269q0 375 -362 375q-81 0 -207 -21v-710z" />
<glyph unicode="&#x40b;" horiz-adv-x="1523" d="M102 1280l7 145h1148l7 -145q-165 27 -269 27h-235v-406q149 139 317 139q137 0 205 -81t68 -281v-678h-154v614q0 159 -45.5 228t-173.5 69q-97 0 -217 -51v-860h-154v1307h-235q-61 0 -128 -6.5t-104 -13.5z" />
<glyph unicode="&#x40c;" horiz-adv-x="1275" d="M174 1425h170v-669h37q25 0 47 26l301 385q47 60 88.5 127.5t59.5 104.5l18 37l186 -15l-532 -671l641 -746l-203 -14l-592 708q-14 17 -37 17h-14v-715h-154v1124q0 76 -4 151t-8 113zM530 1563l121 219h221l-256 -219h-86z" />
<glyph unicode="&#x40e;" horiz-adv-x="1220" d="M82 1425h172l387 -995h10l207 625q23 69 47 161.5t37 150.5l12 58h168l-417 -1173q-84 -232 -183 -307q-3 -2 -23.5 -18t-41.5 -29t-47 -25l-70 172q98 24 145 66q60 49 90 120zM305 1653l121 88q40 -48 104.5 -78.5t147.5 -30.5q140 0 260 78l14 -22 q-65 -67 -159 -116.5t-207 -49.5q-105 0 -174.5 40t-106.5 91z" />
<glyph unicode="&#x40f;" horiz-adv-x="1427" d="M168 1425h170v-1312h752v946q0 76 -4 167.5t-8 145.5l-5 53h170v-1425h-450l-43 -295h-84l-29 295h-453v1055q0 78 -4 170.5t-8 146.5z" />
<glyph unicode="&#x410;" horiz-adv-x="1292" d="M84 0l508 1436h117l501 -1436h-174l-131 406h-538l-134 -406h-149zM401 518h469l-112 342l-115 352h-10q-82 -248 -117 -354z" />
<glyph unicode="&#x411;" horiz-adv-x="1212" d="M174 1425h836l-21 -118l-645 14v-535q18 9 49.5 22.5t123 36.5t175.5 23q107 0 186.5 -31t124.5 -85.5t66 -118.5t21 -139q0 -99 -32.5 -186.5t-96 -157t-169 -110t-241.5 -40.5h-361v1059q0 89 -4 180.5t-8 138.5zM344 104h229q182 0 267.5 91t85.5 249q0 174 -87 245 t-278 71q-50 0 -104.5 -4t-83.5 -8l-29 -3v-641z" />
<glyph unicode="&#x412;" horiz-adv-x="1208" d="M174 1425h467q365 0 365 -276q0 -117 -63 -215t-167 -150q162 -31 241 -119.5t79 -218.5q0 -205 -134.5 -325.5t-340.5 -120.5h-428v1137q0 64 -4.5 136t-9.5 112zM346 113h266q157 0 240.5 79t83.5 207q0 283 -420 283h-170v-569zM346 795h367q60 47 95.5 124.5 t35.5 159.5q0 124 -72.5 179t-232.5 55h-193v-518z" />
<glyph unicode="&#x413;" horiz-adv-x="999" d="M174 1425h784l-18 -118l-582 14v-1321h-153v1059q0 88 -7.5 179.5t-15.5 139.5z" />
<glyph unicode="&#x414;" horiz-adv-x="1349" d="M41 113h100q78 84 117 276q32 164 58.5 421t39.5 462q2 33 -1 70.5t-7 59.5l-4 21h776v-1310h154l-21 -408h-125l-8 295h-925l-9 -295h-125zM297 113h670v1192h-471q-5 -47 -19 -188t-21.5 -213.5t-22.5 -198.5t-32 -244q-35 -242 -104 -348z" />
<glyph unicode="&#x415;" horiz-adv-x="1097" d="M174 1425h750l-17 -125q-421 17 -538 17h-21v-543l522 17l-14 -115l-508 6v-576q193 0 349.5 7t216.5 15l61 7l-19 -135h-761v1061q0 79 -5.5 170t-10.5 143z" />
<glyph unicode="&#x416;" horiz-adv-x="1828" d="M86 4l535 760l-498 657l196 15q101 -197 173 -293l233 -309q12 -17 35 -33q20 -13 71 -13v637h154v-637q67 0 82 11q21 14 35 35l229 309q38 51 78.5 124.5t62.5 120.5l21 48l190 -15l-495 -653l555 -764l-180 -14l-516 721q-11 16 -20 22t-23 6h-19v-739h-154v739h-18 q-26 0 -47 -30l-500 -719z" />
<glyph unicode="&#x417;" horiz-adv-x="1083" d="M92 68l74 139q6 -4 16.5 -10t47 -22t76 -28t101 -22t123.5 -10q143 0 209 70t66 212q0 144 -102.5 216.5t-284.5 72.5h-70l17 113h276q56 41 94.5 115.5t38.5 162.5q0 58 -12 99t-42 74.5t-86 50t-140 16.5q-142 0 -275 -47l-37 125q17 6 48 14.5t120 22.5t172 14 q200 0 307 -79.5t107 -242.5q0 -96 -64 -193t-182 -151q133 -47 207 -139t74 -221q0 -87 -35 -167t-97.5 -141.5t-158 -98t-207.5 -36.5q-214 0 -381 91z" />
<glyph unicode="&#x418;" horiz-adv-x="1456" d="M174 1425h172v-596q0 -103 -3.5 -262t-6.5 -267l-4 -107h10q219 350 356 565l426 667h158v-1425h-154v578q0 119 6 283t12 268l5 104h-10q-142 -255 -326 -533l-463 -700h-159v1059q0 100 -4.5 191.5t-9.5 133.5z" />
<glyph unicode="&#x419;" horiz-adv-x="1456" d="M174 1425h172v-596q0 -103 -3.5 -262t-6.5 -267l-4 -107h10q219 350 356 565l426 667h158v-1425h-154v578q0 119 6 283t12 268l5 104h-10q-142 -255 -326 -533l-463 -700h-159v1059q0 100 -4.5 191.5t-9.5 133.5zM399 1683l129 95q43 -52 113 -84.5t158 -32.5 q147 0 278 84l15 -25q-68 -70 -170 -123t-222 -53q-113 0 -187.5 42t-113.5 97z" />
<glyph unicode="&#x41a;" horiz-adv-x="1275" d="M174 1425h170v-669h37q25 0 47 26l301 385q47 60 88.5 127.5t59.5 104.5l18 37l186 -15l-532 -671l641 -746l-203 -14l-592 708q-14 17 -37 17h-14v-715h-154v1124q0 76 -4 151t-8 113z" />
<glyph unicode="&#x41b;" horiz-adv-x="1302" d="M59 147q128 15 168 91q46 88 70 276q35 289 47 713q1 36 -2.5 85.5t-7.5 81.5l-4 31h798v-1425h-153v1307h-481q-4 -157 -20 -395t-30 -375q-27 -250 -96 -373q-77 -136 -239 -187z" />
<glyph unicode="&#x41c;" horiz-adv-x="1732" d="M160 0l86 1425h151l262 -606q96 -225 203 -512h10q15 38 205 481l273 637h157l70 -1425h-158l-12 313q-6 141 -17 460.5t-14 400.5h-10q-105 -280 -258 -617l-178 -399h-148l-180 403q-100 221 -248 613h-10q-4 -107 -11 -285t-14.5 -358.5t-9.5 -225.5l-14 -305h-135z " />
<glyph unicode="&#x41d;" horiz-adv-x="1470" d="M174 1425h166v-626h803v254q0 86 -2.5 179t-4.5 143l-3 50h163v-1425h-153v686h-803v-686h-154v1055q0 82 -3 174.5t-6 144.5z" />
<glyph unicode="&#x41e;" horiz-adv-x="1556" d="M113 659q0 145 36 271t99.5 219t149.5 159.5t188 100t213 33.5q158 0 282.5 -55.5t203 -153t119 -226t40.5 -280.5q0 -141 -51.5 -277.5t-140.5 -242t-218.5 -170t-275.5 -64.5q-294 0 -469.5 186t-175.5 500zM289 723q0 -132 33.5 -248t96.5 -205t162.5 -140.5 t223.5 -51.5q94 0 172 34t131 92t90 136t53.5 164t16.5 178q0 301 -141 478t-369 177q-99 0 -184 -40t-148.5 -115.5t-100 -193.5t-36.5 -265z" />
<glyph unicode="&#x41f;" horiz-adv-x="1458" d="M174 1425h1110v-1425h-154v1307h-782v-1307h-153v1055q0 96 -5.5 188.5t-10.5 136.5z" />
<glyph unicode="&#x420;" horiz-adv-x="1132" d="M174 1423h391q214 0 339.5 -101t125.5 -273q0 -102 -39 -196t-109 -167t-177.5 -116.5t-235.5 -43.5h-123v-526h-153v1167q0 52 -4.5 116t-9.5 102zM346 639h209q143 0 227 99.5t84 256.5q0 74 -19.5 130t-52.5 91t-82 56.5t-101 30t-117 8.5h-148v-672z" />
<glyph unicode="&#x421;" horiz-adv-x="1300" d="M115 655q0 148 40 277t108.5 221.5t158.5 159.5t191 100t204 33q180 0 340 -57l-53 -172q-150 92 -365 92q-92 0 -170.5 -32.5t-142.5 -99.5t-100.5 -182t-36.5 -268q0 -152 46 -273t126.5 -197.5t186.5 -116.5t229 -40q160 0 303 86l18 -32q-70 -68 -186.5 -122.5 t-259.5 -54.5q-195 0 -340.5 86.5t-221 239.5t-75.5 352z" />
<glyph unicode="&#x422;" horiz-adv-x="1366" d="M102 1280l7 145h1148l7 -145q-165 27 -269 27h-235v-1307h-154v1307h-235q-61 0 -128 -6.5t-104 -13.5z" />
<glyph unicode="&#x423;" horiz-adv-x="1220" d="M82 1425h172l387 -995h10l207 625q23 69 47 161.5t37 150.5l12 58h168l-417 -1173q-84 -232 -183 -307q-3 -2 -23.5 -18t-41.5 -29t-47 -25l-70 172q98 24 145 66q60 49 90 120z" />
<glyph unicode="&#x424;" horiz-adv-x="1611" d="M102 700q0 145 47 261.5t132 194t198 122.5t250 57q0 34 -3 75t-6 65l-3 24h166v-164q303 -12 464.5 -150t161.5 -399q0 -88 -26.5 -173.5t-79.5 -162t-127 -137.5t-175 -101.5t-218 -51.5v-160h-154v160q-292 15 -459.5 165.5t-167.5 374.5zM279 758q0 -212 116 -343.5 t334 -146.5v965q-228 -17 -339 -138.5t-111 -336.5zM883 268q220 13 335 141t115 332q0 128 -34 223t-97 151t-141.5 84.5t-177.5 33.5v-965z" />
<glyph unicode="&#x425;" horiz-adv-x="1296" d="M82 0l473 745l-428 680h188l205 -340l142 -229h10q88 139 139 229l199 340h157l-424 -675l471 -750h-186l-203 324l-190 311h-10q-127 -209 -199 -328l-186 -307h-158z" />
<glyph unicode="&#x426;" horiz-adv-x="1468" d="M174 1425h170v-1312h741v936q0 87 -3 181t-6 144l-3 51h166v-1312h158l-29 -408h-125v295h-1053v1059q0 103 -4 194.5t-8 131.5z" />
<glyph unicode="&#x427;" horiz-adv-x="1273" d="M133 1425h168v-497q0 -89 20 -148t63.5 -90.5t100 -44t140.5 -12.5q136 0 321 55v365q0 91 -3 184t-6 141l-3 47h166v-1425h-154v647q-93 -63 -203.5 -99t-218.5 -36q-179 0 -278 91t-99 269v185q0 81 -3.5 173t-7.5 144z" />
<glyph unicode="&#x428;" horiz-adv-x="1968" d="M174 1425h170v-1312h571v938q0 69 -3 162.5t-6 152.5l-3 59h166v-1312h571v936q0 95 -3 189t-6 140l-3 47h166v-1425h-1604v1061q0 81 -4 172t-8 141z" />
<glyph unicode="&#x429;" horiz-adv-x="2019" d="M174 1425h170v-1312h571v934q0 88 -3.5 182.5t-7.5 144.5l-3 51h168v-1312h571v940q0 88 -3 181t-6 142l-3 49h166v-1312h154l-21 -408h-125l-10 295h-1602v1051q0 82 -4 175.5t-8 145.5z" />
<glyph unicode="&#x42a;" horiz-adv-x="1337" d="M41 1305v120h440v-555q96 43 178 62.5t187 19.5q58 0 111.5 -12.5t105 -43t89 -76t60.5 -117t23 -160.5q0 -246 -151 -394.5t-384 -148.5h-372v1315h-76q-48 0 -101 -2.5t-81 -4.5zM481 113h244q348 0 348 358q0 373 -377 373q-115 0 -215 -15v-716z" />
<glyph unicode="&#x42b;" horiz-adv-x="1675" d="M174 1425h176v-553q153 80 330 80q82 0 150.5 -20.5t126.5 -65.5t91 -126.5t33 -192.5q0 -173 -74.5 -298.5t-198.5 -187t-282 -61.5h-331v1061q0 91 -5.5 182t-10.5 137zM350 113h195q192 0 282.5 84.5t90.5 267.5q0 200 -98.5 290.5t-268.5 90.5q-107 0 -201 -15v-718z M1335 1425h166v-1425h-155v1059q0 73 -3 164.5t-5 146.5z" />
<glyph unicode="&#x42c;" horiz-adv-x="1200" d="M174 1425h172v-557q63 36 150 60t176 24q64 0 122.5 -12t115 -42t97.5 -75t66 -116t25 -160q0 -170 -73.5 -295.5t-197.5 -188.5t-282 -63h-352v1059q0 78 -4.5 169.5t-9.5 143.5zM346 113h248q161 0 251.5 87t90.5 269q0 377 -365 377q-111 0 -225 -19v-714z" />
<glyph unicode="&#x42d;" horiz-adv-x="1265" d="M92 82l84 135q171 -117 391 -117q187 0 301 157.5t125 414.5l-731 -13l21 123l710 -10q-10 259 -150 397t-358 138q-183 0 -315 -56l-41 144q155 49 391 49q146 0 264.5 -41.5t206 -123t135.5 -211t48 -298.5q0 -153 -45 -294.5t-128.5 -254t-215 -180.5t-291.5 -68 q-98 0 -208.5 25t-193.5 84z" />
<glyph unicode="&#x42e;" horiz-adv-x="2002" d="M174 1425h174v-641h299q34 297 207.5 477.5t429.5 180.5q126 0 227.5 -36t171.5 -100.5t117 -156t68.5 -198.5t21.5 -232q0 -101 -25.5 -204.5t-79.5 -201t-129 -173t-182 -121.5t-231 -46q-144 0 -260 55t-189.5 149t-113 214t-39.5 254v27h-293v-672h-153v1055 q0 88 -5.5 180.5t-10.5 140.5zM819 702q0 -82 14.5 -164t49.5 -166t87 -148.5t135 -105t185 -40.5q90 0 163.5 38.5t120.5 100.5t79 143t45.5 161.5t13.5 160.5q0 314 -119 484.5t-350 170.5q-197 0 -310.5 -169.5t-113.5 -465.5z" />
<glyph unicode="&#x42f;" horiz-adv-x="1191" d="M106 6l328 592q-126 39 -195 134t-69 224q0 211 139 340t365 129h344v-1425h-154v631q-151 -54 -278 -62l-301 -579zM332 987q0 -136 113.5 -225.5t334.5 -89.5h84v641h-178q-55 0 -105 -10.5t-96 -35.5t-79.5 -61.5t-53.5 -92.5t-20 -126z" />
<glyph unicode="&#x430;" horiz-adv-x="1048" d="M113 291q0 68 23 125t71.5 103.5t132.5 72.5t197 26h170v80q0 121 -59 174.5t-177 53.5q-120 0 -244 -80l-22 35q180 166 387 166q140 0 204 -76t64 -248v-492q0 -125 25 -231h-154q-13 67 -16 147l-6 3q-47 -75 -120.5 -124t-168.5 -49q-134 0 -220.5 85t-86.5 229z M274 328q0 -99 59 -157t154 -58q56 0 111 20t82 40l27 20v307q-131 16 -195 16q-110 0 -174 -49t-64 -139z" />
<glyph unicode="&#x431;" horiz-adv-x="1089" d="M113 508q0 97 18 200t59.5 209.5t101.5 195t151 155.5t200 92l117 26q82 18 147 56l15 -160q-44 -25 -166 -55l-260 -62q-43 -10 -79 -44t-61 -81.5t-41 -99t-24 -104.5q68 54 155 86t175 32q366 0 366 -409q0 -81 -19.5 -162t-59 -154.5t-94.5 -130.5t-131 -91t-163 -34 q-192 0 -299.5 147t-107.5 388zM279 608q0 -241 75 -378.5t213 -137.5q61 0 107.5 26t73.5 65t43.5 93.5t22 103t5.5 101.5q0 355 -311 355q-116 0 -223 -45q-6 -77 -6 -183z" />
<glyph unicode="&#x432;" horiz-adv-x="1036" d="M174 1024h418q299 0 299 -229q0 -72 -50.5 -135.5t-129.5 -96.5q110 -30 166.5 -98.5t56.5 -159.5q0 -136 -86 -220.5t-248 -84.5h-410v817q0 44 -4 95.5t-8 81.5zM344 113h207q103 0 162 43.5t59 128.5q0 178 -225 178h-203v-350zM344 575h322q63 72 63 175 q0 78 -54 119.5t-136 41.5h-195v-336z" />
<glyph unicode="&#x433;" horiz-adv-x="825" d="M174 1024h610l-16 -129l-420 12v-907h-153v819q0 44 -5.5 95.5t-10.5 80.5z" />
<glyph unicode="&#x434;" horiz-adv-x="1089" d="M51 113h88q45 60 86.5 157t67.5 207q43 185 43 375q0 44 -3 87t-6 64l-3 21h600v-911h104v-389h-125l-33 276h-661l-33 -276h-125v389zM305 113h465v792h-287q-19 -266 -59 -452q-47 -218 -119 -340z" />
<glyph unicode="&#x435;" horiz-adv-x="1042" d="M113 467q0 250 129.5 415t339.5 165q87 0 153.5 -32t104.5 -80.5t61.5 -115.5t31 -125.5t7.5 -122.5t-2 -84h-664q0 -190 106.5 -290.5t283.5 -100.5q109 0 215 49l16 -39q-67 -51 -164.5 -91t-202.5 -40q-82 0 -154 28t-132 84.5t-94.5 154t-34.5 225.5zM283 600h497 q0 147 -67 242.5t-187 95.5q-62 0 -110 -29.5t-75 -80t-41.5 -107.5t-16.5 -121z" />
<glyph unicode="&#x436;" horiz-adv-x="1501" d="M53 2l436 530l-399 488l182 14q68 -139 129 -215l195 -239q19 -25 45 -25h33v469h153v-469h33q25 0 45 25l193 237q24 30 57 84.5t53 93.5l21 39l182 -14l-410 -481l445 -535l-184 -14l-390 489q-26 35 -43 35h-2v-514h-153v514h-4q-18 0 -45 -37l-385 -487z" />
<glyph unicode="&#x437;" horiz-adv-x="905" d="M78 74l78 135q4 -4 13 -11.5t38.5 -26t62.5 -32.5t85.5 -25.5t107.5 -11.5q86 0 134 50.5t48 128.5q0 192 -229 192h-117l18 119h248q47 86 47 164q0 82 -49.5 120.5t-152.5 38.5q-137 0 -258 -75l-25 34q6 7 18 18.5t51 41.5t79.5 53t101 41.5t119.5 18.5 q121 0 200.5 -57t79.5 -171q0 -63 -41.5 -130.5t-122.5 -113.5q181 -68 181 -251q0 -62 -28 -123.5t-77 -111.5t-122 -81t-156 -31q-119 0 -207 32.5t-125 64.5z" />
<glyph unicode="&#x438;" d="M174 1024h170v-328q0 -126 -3 -255t-6 -195l-3 -66h10q172 312 287 500l211 344h157v-1024h-153v297q0 242 20 545h-10q-107 -205 -211 -371l-295 -471h-158v817q0 44 -4 96t-8 81z" />
<glyph unicode="&#x439;" d="M174 1024h170v-328q0 -126 -3 -255t-6 -195l-3 -66h10q172 312 287 500l211 344h157v-1024h-153v297q0 242 20 545h-10q-107 -205 -211 -371l-295 -471h-158v817q0 44 -4 96t-8 81zM303 1298l121 88q40 -48 104.5 -78t147.5 -30q140 0 260 78l14 -23q-65 -67 -159 -116.5 t-207 -49.5q-105 0 -174.5 40t-106.5 91z" />
<glyph unicode="&#x43a;" horiz-adv-x="1044" d="M174 1024h168v-465h33q29 0 49 23l209 237q33 36 66.5 90t50.5 89l18 36l195 -14l-422 -471l438 -545l-182 -14l-387 481q-5 6 -13 16t-11.5 13.5t-9.5 9t-12 7t-14 1.5h-8v-518h-154v813q0 34 -3.5 86.5t-6.5 88.5z" />
<glyph unicode="&#x43b;" horiz-adv-x="1087" d="M4 117q97 32 146 73q62 53 86 127q32 89 62 250.5t30 356.5l-9 100h594v-1024h-153v905h-287q-3 -24 -8 -67q-24 -205 -37 -292t-37 -184q-41 -167 -104 -247q-75 -98 -197 -138z" />
<glyph unicode="&#x43c;" horiz-adv-x="1456" d="M174 0l49 1024h152l145 -305q1 -2 85.5 -175t119.5 -251h10q90 195 185 381l172 350h145l51 -1024h-153l-13 207q-15 266 -10 567h-10q-79 -176 -205 -405l-111 -207h-147l-107 203q-82 155 -192 409h-10q-4 -148 -14.5 -366t-10.5 -224l-8 -184h-123z" />
<glyph unicode="&#x43d;" horiz-adv-x="1148" d="M174 1024h164v-424h483v221q0 43 -3 93.5t-6 79.5l-3 30h166v-1024h-154v487h-483v-487h-154v819q0 51 -2.5 102.5t-5.5 76.5z" />
<glyph unicode="&#x43e;" d="M113 449q0 135 42.5 249t113.5 189.5t163 117.5t193 42q212 0 323 -137.5t111 -364.5q0 -106 -36.5 -208t-101.5 -183t-163 -131t-211 -50q-202 0 -318 133t-116 343zM279 547q0 -85 21 -164t62 -145t110 -106t157 -40q135 0 199.5 100.5t64.5 272.5q0 212 -90.5 338.5 t-239.5 126.5q-137 0 -210.5 -97.5t-73.5 -285.5z" />
<glyph unicode="&#x43f;" horiz-adv-x="1161" d="M174 1024h813v-1024h-153v905h-492v-905h-154v813q0 37 -3.5 90t-6.5 87z" />
<glyph unicode="&#x440;" horiz-adv-x="1103" d="M164 1008l155 34q14 -86 17 -147q132 152 344 152q108 0 189.5 -64.5t121 -164.5t39.5 -216q0 -176 -65 -320t-175 -224.5t-241 -80.5q-96 0 -211 33v-532h-154v1288q0 139 -20 242zM338 203q52 -42 124 -68t146 -26q119 0 187.5 109t68.5 282q0 211 -78.5 312 t-222.5 101q-58 0 -121.5 -17t-103.5 -42v-651z" />
<glyph unicode="&#x441;" horiz-adv-x="985" d="M113 444q0 128 43.5 242t115.5 192t167 123.5t196 45.5q95 0 194 -29l-30 -172q-108 61 -248 61q-130 0 -203.5 -83.5t-73.5 -264.5q0 -211 105.5 -335t271.5 -124q116 0 201 39l16 -39q-49 -36 -89.5 -59t-111 -43.5t-147.5 -20.5q-62 0 -120 17t-110.5 54.5t-91.5 91 t-62 132t-23 172.5z" />
<glyph unicode="&#x442;" horiz-adv-x="987" d="M106 889l5 135h817l2 -135q-91 14 -191 14h-143v-903h-154v903h-143q-58 0 -106.5 -3.5t-67.5 -7.5z" />
<glyph unicode="&#x443;" horiz-adv-x="1050" d="M72 1024h176l282 -907h11l141 463q31 104 56 215t34 170l10 59h191l-379 -1106q-58 -171 -137 -289q-72 -106 -187 -153l-67 174q59 14 90.5 31.5t66.5 48.5q39 36 66.5 86t38.5 98z" />
<glyph unicode="&#x444;" horiz-adv-x="1591" d="M115 496q0 86 14.5 164.5t46 149.5t77.5 123.5t114 83t151 30.5q103 0 201 -50v162q0 142 -21 250l174 35v-443q129 46 248 46q359 0 359 -465q0 -274 -107 -439.5t-270 -165.5q-49 0 -114 20.5t-116 65.5v-585h-153v585q-102 -86 -221 -86q-171 0 -277 137.5t-106 381.5 zM276 561q0 -208 76.5 -326t227.5 -118q65 0 139 35v727q-76 53 -189 53q-130 0 -192 -90t-62 -281zM872 156q79 -39 207 -39q100 0 168 93t68 292q0 205 -66 317.5t-196 112.5q-96 0 -181 -51v-725z" />
<glyph unicode="&#x445;" horiz-adv-x="980" d="M72 0l344 524l-305 500h172l75 -131l148 -262h8q98 176 139 258l70 135h160l-303 -494l319 -530h-172l-106 184l-129 240h-11q-100 -172 -145 -252l-98 -172h-166z" />
<glyph unicode="&#x446;" horiz-adv-x="1169" d="M174 1024h166v-911h473v712q0 41 -3 90.5t-6 78.5l-3 30h166v-911h151l-24 -389h-127v276h-781v819q0 48 -3 99.5t-6 78.5z" />
<glyph unicode="&#x447;" horiz-adv-x="1050" d="M102 1024h168v-268q0 -81 9.5 -131.5t35.5 -87t72 -51.5t119 -15q52 0 106 10.5t82 21.5l29 11v305q0 41 -3 92t-6 82l-3 31h166v-1024h-154v473q-166 -121 -326 -121q-41 0 -78 7t-75 26.5t-65.5 49t-44.5 79t-17 113.5v192q0 48 -3.5 99.5t-7.5 78.5z" />
<glyph unicode="&#x448;" horiz-adv-x="1675" d="M174 1024h164v-911h428v680q0 51 -2.5 109t-5.5 90l-2 32h164v-911h428v684q0 42 -3 98.5t-7 92.5l-3 36h166v-1024h-1317v797q0 48 -2.5 105t-5.5 90z" />
<glyph unicode="&#x449;" horiz-adv-x="1712" d="M174 1024h166v-911h428v700q0 36 -3 88.5t-6 87.5l-3 35h166v-911h430v698q0 35 -3 88t-7 89l-3 36h166v-911h156l-27 -389h-129v276h-1319v813q0 34 -3 86.5t-6 88.5z" />
<glyph unicode="&#x44a;" horiz-adv-x="1062" d="M20 891v133h388v-428q149 98 297 98q62 0 113.5 -15.5t93.5 -48t65.5 -89t23.5 -131.5q0 -188 -118.5 -299t-315.5 -111h-313v905h-55q-48 0 -93 -3.5t-66 -7.5zM408 113h186q132 0 189 54t57 181q0 119 -66 176.5t-178 57.5q-101 0 -188 -27v-442z" />
<glyph unicode="&#x44b;" horiz-adv-x="1447" d="M174 1024h168v-426q134 94 297 94q120 0 198 -68.5t78 -213.5q0 -186 -123 -298t-313 -112h-291v817q0 41 -3.5 92.5t-6.5 82.5zM342 113h162q132 0 191 51t59 178q0 117 -62.5 178.5t-169.5 61.5q-82 0 -180 -25v-444zM1106 1024h168v-1024h-154v817q0 38 -3.5 90 t-6.5 85z" />
<glyph unicode="&#x44c;" horiz-adv-x="995" d="M174 1024h166v-424q143 92 297 92q131 0 214 -68t83 -214q0 -189 -115.5 -299.5t-312.5 -110.5h-320v817q0 38 -3 90t-6 85zM340 113h190q127 0 184.5 51.5t57.5 181.5q0 118 -67.5 177t-178.5 59q-91 0 -186 -23v-446z" />
<glyph unicode="&#x44d;" horiz-adv-x="1003" d="M102 63l68 138q5 -3 13.5 -8.5t37.5 -19.5t60.5 -24.5t80 -19t97.5 -8.5q58 0 105 23t76.5 58.5t49 82.5t27.5 91.5t8 88.5l-489 -10l8 118l481 -8q-6 169 -91 258.5t-220 89.5q-126 0 -236 -88l-37 33q6 8 17 20.5t48 45t77 57.5t101.5 45.5t123.5 20.5q79 0 143.5 -27 t108.5 -73t74 -109.5t43.5 -136t13.5 -152.5q0 -259 -133 -415.5t-332 -156.5q-92 0 -182.5 25.5t-141.5 60.5z" />
<glyph unicode="&#x44e;" horiz-adv-x="1587" d="M174 1024h168v-453h240q17 200 150.5 338t314.5 138q108 0 191 -39t134 -110t77 -165t26 -209q0 -146 -59 -272t-167.5 -202.5t-242.5 -76.5q-190 0 -303.5 132t-122.5 354h-238v-459h-154v819q0 34 -3.5 85t-6.5 86zM743 520q0 -80 18.5 -154.5t54 -136.5t95.5 -99.5 t136 -37.5q68 0 121 35.5t83 94t45 125.5t15 138q0 202 -80.5 323.5t-224.5 121.5q-123 0 -193 -114t-70 -296z" />
<glyph unicode="&#x44f;" horiz-adv-x="1036" d="M106 4l273 408q-116 22 -179 91t-63 177q0 62 23 120.5t69 109.5t127.5 82.5t186.5 31.5h319v-1024h-153v473q-57 -30 -166 -65l-252 -418zM299 725q0 -45 13 -80.5t44 -66t91 -47.5t147 -17h115v391h-185q-102 0 -163.5 -48t-61.5 -132z" />
<glyph unicode="&#x450;" horiz-adv-x="1042" d="M113 467q0 250 129.5 415t339.5 165q87 0 153.5 -32t104.5 -80.5t61.5 -115.5t31 -125.5t7.5 -122.5t-2 -84h-664q0 -190 106.5 -290.5t283.5 -100.5q109 0 215 49l16 -39q-67 -51 -164.5 -91t-202.5 -40q-82 0 -154 28t-132 84.5t-94.5 154t-34.5 225.5zM283 600h497 q0 147 -67 242.5t-187 95.5q-62 0 -110 -29.5t-75 -80t-41.5 -107.5t-16.5 -121zM367 1454h223l84 -262h-76z" />
<glyph unicode="&#x451;" horiz-adv-x="1042" d="M113 467q0 250 129.5 415t339.5 165q87 0 153.5 -32t104.5 -80.5t61.5 -115.5t31 -125.5t7.5 -122.5t-2 -84h-664q0 -190 106.5 -290.5t283.5 -100.5q109 0 215 49l16 -39q-67 -51 -164.5 -91t-202.5 -40q-82 0 -154 28t-132 84.5t-94.5 154t-34.5 225.5zM283 600h497 q0 147 -67 242.5t-187 95.5q-62 0 -110 -29.5t-75 -80t-41.5 -107.5t-16.5 -121zM287 1266q0 110 90 110q86 0 86 -106q0 -51 -25 -77t-61 -26q-90 0 -90 99zM621 1266q0 110 90 110q88 0 88 -106q0 -51 -25.5 -77t-62.5 -26q-90 0 -90 99z" />
<glyph unicode="&#x452;" horiz-adv-x="1218" d="M176 1126v105h143v18q0 83 -14 160l168 35v-213h236v-105h-236v-213q171 131 330 131q140 0 212 -82t72 -282v-913q0 -145 -79 -218t-203 -73q-97 0 -164 24l27 150q68 -33 129 -33q73 0 105 38.5t32 98.5v883q0 153 -55 217t-195 64q-94 0 -211 -46v-872h-154v1126h-143 z" />
<glyph unicode="&#x453;" horiz-adv-x="835" d="M266 1024h611l-17 -129l-420 12v-907h-153v819q0 44 -5.5 95.5t-10.5 80.5zM514 1192l88 262h221l-229 -262h-80z" />
<glyph unicode="&#x454;" horiz-adv-x="929" d="M113 494q0 155 54 278.5t164 199t261 75.5q128 0 237 -33l-32 -160q-101 53 -238 53q-282 0 -285 -350l447 8l-16 -108l-429 10q21 -179 116 -274t243 -95q130 0 217 43l18 -37q-75 -59 -157 -93t-191 -34q-182 0 -295.5 132.5t-113.5 384.5z" />
<glyph unicode="&#x455;" horiz-adv-x="862" d="M113 41l63 145q153 -90 299 -90q74 0 112 42t38 106q0 60 -44.5 97t-191.5 110q-145 72 -197.5 138.5t-52.5 149.5q0 125 90.5 210t249.5 85q136 0 269 -43l-64 -145q-144 72 -266 72q-61 0 -99 -34.5t-38 -90.5q0 -31 6.5 -53.5t29 -51t72.5 -59t129 -66.5 q126 -56 181 -116.5t55 -157.5q0 -42 -12 -84.5t-39.5 -84t-66 -73.5t-96 -52t-126.5 -20q-161 0 -301 66z" />
<glyph unicode="&#x456;" horiz-adv-x="557" d="M174 1298q0 56 28.5 86.5t78.5 30.5q102 0 102 -112q0 -50 -31 -81.5t-71 -31.5q-46 0 -76.5 27t-30.5 81zM199 997l174 35v-1032h-154v748q0 146 -20 249z" />
<glyph unicode="&#x457;" horiz-adv-x="532" d="M33 1268q0 110 90 110q86 0 86 -106q0 -51 -25 -77t-61 -26q-90 0 -90 99zM186 997l179 35l-3 -1032h-153v748q0 146 -23 249zM367 1268q0 110 90 110q88 0 88 -106q0 -51 -25.5 -77t-62.5 -26q-90 0 -90 99z" />
<glyph unicode="&#x458;" horiz-adv-x="575" d="M23 -498q87 74 139.5 191t52.5 246v837q0 116 -20 221l174 35v-885q0 -192 -39 -321t-127 -227q-35 -38 -74 -70.5t-61 -45.5l-21 -13zM188 1298q0 56 28.5 86.5t78.5 30.5q102 0 102 -112q0 -50 -31 -81.5t-71 -31.5q-46 0 -76.5 27t-30.5 81z" />
<glyph unicode="&#x459;" horiz-adv-x="1538" d="M41 150q154 26 190 126q23 64 41.5 250t18.5 398l-8 100h620v-424q47 31 78.5 47t84.5 30.5t114 14.5q131 0 214 -68t83 -214q0 -189 -115.5 -299.5t-312.5 -110.5h-299v905h-310q-34 -642 -131 -778q-78 -108 -219 -150zM903 113h170q127 0 184.5 51.5t57.5 181.5 q0 118 -67.5 177t-178.5 59q-67 0 -166 -21v-448z" />
<glyph unicode="&#x45a;" horiz-adv-x="1589" d="M174 1024h164v-424h463v221q0 43 -3.5 93.5t-6.5 79.5l-3 30h166v-424q67 43 134 67.5t151 24.5q126 0 207.5 -68.5t81.5 -213.5q0 -189 -115.5 -299.5t-312.5 -110.5h-299v487h-463v-487h-154v819q0 51 -2.5 102.5t-5.5 76.5zM954 113h170q127 0 184.5 51.5t57.5 181.5 q0 118 -67.5 177t-178.5 59q-72 0 -166 -23v-446z" />
<glyph unicode="&#x45b;" horiz-adv-x="1284" d="M176 1126v105h143q-4 130 -12 178l166 35v-213h236v-105h-236v-227q67 67 159 107.5t187 40.5q289 0 289 -365v-682h-154v618q0 156 -55.5 228t-193.5 72q-61 0 -119 -15t-86 -30l-27 -15v-858h-154v1126h-143z" />
<glyph unicode="&#x45c;" horiz-adv-x="1009" d="M160 1024h168v-465h32q30 0 50 23l208 237q27 31 64 85t60 92l24 38l176 -18l-416 -467l437 -541l-181 -18l-387 481q-5 6 -12.5 15.5t-11.5 14t-9.5 9t-11.5 6.5t-14 2h-8v-518h-154v813q0 34 -3.5 86.5t-6.5 88.5zM465 1192l88 262h221l-229 -262h-80z" />
<glyph unicode="&#x45d;" d="M174 1024h170v-328q0 -126 -3 -255t-6 -195l-3 -66h10q172 312 287 500l211 344h157v-1024h-153v297q0 242 20 545h-10q-107 -205 -211 -371l-295 -471h-158v817q0 44 -4 96t-8 81zM412 1454h223l84 -262h-76z" />
<glyph unicode="&#x45e;" horiz-adv-x="1050" d="M72 1024h176l282 -907h11l141 463q31 104 56 215t34 170l10 59h191l-379 -1106q-58 -171 -137 -289q-72 -106 -187 -153l-67 174q59 14 90.5 31.5t66.5 48.5q39 36 66.5 86t38.5 98zM250 1260l121 88q40 -48 104.5 -78.5t147.5 -30.5q140 0 260 78l14 -23 q-64 -66 -159 -116t-208 -50q-105 0 -173.5 40t-106.5 92z" />
<glyph unicode="&#x45f;" horiz-adv-x="1130" d="M158 1024h170v-911h473v616q0 67 -4.5 140.5t-8.5 114.5l-4 40h172v-1024h-317l-33 -242h-86l-31 242h-315v723q0 77 -4 152.5t-8 112.5z" />
<glyph unicode="&#x48a;" horiz-adv-x="1540" d="M174 1425h172v-596q0 -103 -3.5 -262t-6.5 -267l-4 -107h10q219 350 356 565l426 667h158v-1312h186l-213 -408h-125l132 295h-134v578q0 119 6 283t12 268l5 104h-10q-142 -255 -326 -533l-463 -700h-159v1059q0 100 -4.5 191.5t-9.5 133.5zM399 1663l129 94 q43 -52 113 -84.5t158 -32.5q147 0 278 84l15 -24q-68 -70 -170 -123t-222 -53q-113 0 -187.5 42t-113.5 97z" />
<glyph unicode="&#x48b;" horiz-adv-x="1234" d="M174 1024h170v-328q0 -126 -3 -255t-6 -195l-3 -66h10q172 312 287 500l211 344h157v-911h187l-148 -389h-127l88 276h-153v297q0 242 20 545h-10q-107 -205 -211 -371l-295 -471h-158v817q0 44 -4 96t-8 81zM303 1298l121 88q40 -48 104.5 -78t147.5 -30q140 0 260 78 l14 -23q-65 -67 -159 -116.5t-207 -49.5q-105 0 -174.5 40t-106.5 91z" />
<glyph unicode="&#x48c;" horiz-adv-x="1347" d="M41 1305v120h287v136h153v-136h267v-110h-267v-445q96 43 178 62.5t187 19.5q58 0 111.5 -12.5t105 -43t89 -76t60.5 -117t23 -160.5q0 -246 -151 -394.5t-384 -148.5h-372v1315h-76q-48 0 -101 -2.5t-81 -4.5zM481 113h244q348 0 348 358q0 373 -377 373 q-115 0 -215 -15v-716z" />
<glyph unicode="&#x48d;" horiz-adv-x="1062" d="M20 891v133h234v135q0 132 -23 250l177 35v-420h233v-119h-233v-309q149 98 297 98q62 0 113.5 -15.5t93.5 -48t65.5 -89t23.5 -131.5q0 -188 -118.5 -299t-315.5 -111h-313v905h-55q-48 0 -93 -3.5t-66 -7.5zM408 113h186q132 0 189 54t57 181q0 119 -66 176.5 t-178 57.5q-101 0 -188 -27v-442z" />
<glyph unicode="&#x48e;" horiz-adv-x="1132" d="M174 1423h391q214 0 339.5 -101t125.5 -273q0 -131 -62 -246.5t-175 -188.5l137 -178l-88 -67l-152 196q-103 -39 -221 -39h-123v-526h-153v1167q0 52 -4.5 116t-9.5 102zM346 639h209q41 0 72 8l-138 178l91 70l153 -203q63 46 98 125.5t35 177.5q0 74 -19.5 130 t-52.5 91t-82 56.5t-101 30t-117 8.5h-148v-672z" />
<glyph unicode="&#x48f;" horiz-adv-x="1124" d="M174 1008l156 34q12 -76 16 -147q132 152 336 152q108 0 184.5 -65t111 -163.5t34.5 -216.5q0 -163 -49.5 -297t-137.5 -219l123 -182l-90 -62l-121 181q-87 -46 -178 -46q-96 0 -211 33v-532h-153v1288q0 134 -21 242zM348 203q52 -42 124 -68t146 -26q32 0 56 6 l-137 207l92 61l137 -207q80 98 80 324q0 214 -69 313.5t-212 99.5q-57 0 -116.5 -16.5t-100.5 -42.5v-651z" />
<glyph unicode="&#x490;" horiz-adv-x="935" d="M168 1425h580l22 113h84l-2 -231h-514v-1307h-154v1061q0 96 -4 187t-8 134z" />
<glyph unicode="&#x491;" horiz-adv-x="827" d="M166 1024h483l21 115h86v-234h-426v-905h-154v819z" />
<glyph unicode="&#x492;" horiz-adv-x="999" d="M55 684v113h150v262q0 88 -7.5 179.5t-15.5 139.5l-8 47h784l-18 -118l-582 14v-524h418v-113h-418v-684h-153v684h-150z" />
<glyph unicode="&#x493;" horiz-adv-x="825" d="M45 446v113h150v260q0 44 -5.5 95.5t-10.5 80.5l-5 29h610l-16 -129l-420 12v-348h275v-113h-275v-446h-153v446h-150z" />
<glyph unicode="&#x494;" horiz-adv-x="1230" d="M174 1425h770l-20 -118l-580 14v-561q162 88 348 88q89 0 160.5 -25t118.5 -68t78.5 -103t45 -126.5t13.5 -142.5q0 -79 -16.5 -158t-54.5 -157.5t-94 -138.5t-142.5 -97t-192.5 -37q-109 0 -227 31l35 145q102 -32 215 -32q151 0 232 105.5t81 283.5q0 200 -95.5 305.5 t-303.5 105.5q-40 0 -90.5 -5t-80.5 -10l-30 -5v-719h-154v1059q0 89 -4 180.5t-8 138.5z" />
<glyph unicode="&#x495;" horiz-adv-x="1060" d="M174 1024h610l-16 -129l-420 12v-422q45 26 114 46t136 20q350 0 350 -414q0 -71 -16.5 -140t-52.5 -133t-87.5 -113t-127.5 -78t-166 -29q-95 0 -193 26l31 123q77 -29 176 -29q133 0 206 94t73 263q0 164 -70.5 251t-214.5 87q-46 0 -93 -8t-65 -15v-436h-153v819 q0 44 -5.5 95.5t-10.5 80.5z" />
<glyph unicode="&#x496;" horiz-adv-x="1705" d="M86 4l535 760l-498 657l196 15q101 -197 173 -293l233 -309q12 -17 35 -33q20 -13 71 -13v637h154v-637q67 0 82 11q21 14 35 35l229 309q38 51 78.5 124.5t62.5 120.5l21 48l190 -15l-495 -653l483 -659l172 4l-28 -408h-125v295l-134 -10l-509 721q-11 16 -20 22t-23 6 h-19v-739h-154v739h-18q-26 0 -47 -30l-500 -719z" />
<glyph unicode="&#x497;" horiz-adv-x="1562" d="M53 2l436 530l-399 488l182 14q68 -139 129 -215l195 -239q19 -25 45 -25h33v469h153v-469h33q25 0 45 25l193 237q24 30 57 84.5t53 93.5l21 39l182 -14l-410 -481l359 -433l147 7l-24 -389h-127v274l-94 -8l-390 489q-26 35 -43 35h-2v-514h-153v514h-4q-18 0 -45 -37 l-385 -487z" />
<glyph unicode="&#x498;" horiz-adv-x="1083" d="M92 68l74 139q6 -4 16.5 -10t47 -22t76 -28t101 -22t123.5 -10q143 0 209 70t66 212q0 144 -102.5 216.5t-284.5 72.5h-70l17 113h276q56 41 94.5 115.5t38.5 162.5q0 58 -12 99t-42 74.5t-86 50t-140 16.5q-142 0 -275 -47l-37 125q17 6 48 14.5t120 22.5t172 14 q200 0 307 -79.5t107 -242.5q0 -96 -64 -193t-182 -151q133 -47 207 -139t74 -221q0 -171 -123.5 -298t-327.5 -142q172 -79 172 -222q0 -84 -74 -137t-188 -61l-33 30q86 23 125 66.5t39 114.5q0 113 -119 206q-204 6 -350 91z" />
<glyph unicode="&#x499;" horiz-adv-x="905" d="M78 74l78 135q4 -4 13 -11.5t38.5 -26t62.5 -32.5t85.5 -25.5t107.5 -11.5q86 0 134 50.5t48 128.5q0 192 -229 192h-117l18 119h248q47 86 47 164q0 82 -49.5 120.5t-152.5 38.5q-137 0 -258 -75l-25 34q6 7 18 18.5t51 41.5t79.5 53t101 41.5t119.5 18.5 q121 0 200.5 -57t79.5 -171q0 -63 -41.5 -130.5t-122.5 -113.5q181 -68 181 -251q0 -79 -43 -154.5t-125.5 -129t-184.5 -60.5q170 -83 170 -222q0 -84 -74 -137t-188 -61l-33 30q86 23 125 66.5t39 114.5q0 115 -121 209q-102 8 -176 37.5t-104 56.5z" />
<glyph unicode="&#x49a;" horiz-adv-x="1275" d="M174 1425h170v-669h37q25 0 47 26l301 385q47 60 88.5 127.5t59.5 104.5l18 37l186 -15l-532 -671l551 -641l151 6l-28 -410h-125v293l-111 -8l-592 708q-14 17 -37 17h-14v-715h-154v1124q0 76 -4 151t-8 113z" />
<glyph unicode="&#x49b;" horiz-adv-x="1101" d="M174 1024h168v-465h33q29 0 49 23l209 237q33 36 66.5 90t50.5 89l18 36l195 -14l-422 -471l344 -428l196 14l-24 -409h-127v276l-133 -12l-387 481q-5 6 -13 16t-11.5 13.5t-9.5 9t-12 7t-14 1.5h-8v-518h-154v813q0 34 -3.5 86.5t-6.5 88.5z" />
<glyph unicode="&#x49c;" horiz-adv-x="1275" d="M174 1425h170v-669h59v219h105v-219h37q34 0 47 26l160 297q36 68 77 157t63 144l23 56l187 -15l-389 -671l497 -746l-202 -14l-449 708q-14 17 -37 17h-14v-219h-105v219h-59v-715h-154v1124q0 76 -4 151t-8 113z" />
<glyph unicode="&#x49d;" horiz-adv-x="1044" d="M174 1024h168v-465h61v211h105v-211h27q41 0 49 23l94 198q21 44 43.5 107.5t34.5 104.5l12 42l195 -14l-256 -471l272 -545l-182 -14l-219 481q-19 47 -60 47h-10v-213h-105v213h-61v-518h-154v813q0 34 -3.5 86.5t-6.5 88.5z" />
<glyph unicode="&#x49e;" horiz-adv-x="1275" d="M49 1151v111h141v163h154v-163h166v-111h-166v-395h37q25 0 47 26l301 385q47 60 88.5 127.5t59.5 104.5l18 37l186 -15l-532 -671l641 -746l-203 -14l-592 708q-14 17 -37 17h-14v-715h-154v1151h-141z" />
<glyph unicode="&#x49f;" horiz-adv-x="1044" d="M37 795v110h151v119h154v-119h156v-110h-156v-236h33q29 0 49 23l209 237q33 36 66.5 90t50.5 89l18 36l195 -14l-422 -471l438 -545l-182 -14l-387 481q-5 6 -13 16t-11.5 13.5t-9.5 9t-12 7t-14 1.5h-8v-518h-154v795h-151z" />
<glyph unicode="&#x4a0;" horiz-adv-x="1413" d="M41 1305v120h440v-669h37q25 0 47 26l301 385q47 60 88.5 127.5t59.5 104.5l18 37l187 -15l-533 -671l641 -746l-203 -14l-592 708q-14 17 -36 17h-15v-715h-153v1315h-76q-48 0 -101 -2.5t-81 -4.5z" />
<glyph unicode="&#x4a1;" horiz-adv-x="1110" d="M20 891v133h388v-465h32q29 0 49 23l209 237q33 36 67 90t51 89l18 36l194 -14l-422 -471l438 -545l-182 -14l-373 481q-20 27 -31.5 37t-27.5 10h-22v-518h-154v905h-55q-48 0 -93 -3.5t-66 -7.5z" />
<glyph unicode="&#x4a2;" horiz-adv-x="1470" d="M174 1425h166v-626h803v254q0 86 -2.5 179t-4.5 143l-3 50h163v-1312h154l-29 -408h-125v295h-153v686h-803v-686h-154v1055q0 82 -3 174.5t-6 144.5z" />
<glyph unicode="&#x4a3;" horiz-adv-x="1148" d="M174 1024h164v-424h483v221q0 43 -3 93.5t-6 79.5l-3 30h166v-911h151l-24 -389h-127v276h-154v487h-483v-487h-154v819q0 51 -2.5 102.5t-5.5 76.5z" />
<glyph unicode="&#x4a4;" horiz-adv-x="1896" d="M174 1425h166v-626h782v325q0 168 -10 301h743l-18 -118l-561 14v-1321h-154v686h-782v-686h-154v1055q0 82 -3 174.5t-6 144.5z" />
<glyph unicode="&#x4a5;" horiz-adv-x="1431" d="M174 1024h164v-424h483v424h570l-17 -129l-399 12v-907h-154v487h-483v-487h-154v819q0 51 -2.5 102.5t-5.5 76.5z" />
<glyph unicode="&#x4a6;" horiz-adv-x="2150" d="M174 1425h1090v-1425h-154v1307h-762v-1307h-153v1055q0 96 -5.5 188.5t-10.5 136.5zM1264 719v41q162 88 348 88q89 0 160.5 -25t118.5 -68t78.5 -103t45 -126.5t13.5 -142.5q0 -79 -16.5 -158t-54.5 -157.5t-94 -138.5t-142.5 -97t-192.5 -37q-110 0 -228 31l35 145 q102 -32 215 -32q152 0 233 105.5t81 283.5q0 411 -400 411q-40 0 -90 -5t-80 -10z" />
<glyph unicode="&#x4a7;" horiz-adv-x="1699" d="M174 1024h813v-539q45 26 114 46t136 20q350 0 350 -414q0 -71 -16.5 -140t-52.5 -133t-87.5 -113t-127.5 -78t-166 -29q-95 0 -193 26l31 123q77 -29 176 -29q133 0 206 94t73 263q0 164 -70.5 251t-214.5 87q-46 0 -93 -8t-65 -15v-436h-153v905h-492v-905h-154v813 q0 37 -3.5 90t-6.5 87z" />
<glyph unicode="&#x4a8;" horiz-adv-x="1650" d="M113 659q0 144 36 270t99.5 219t149.5 160t188 100.5t213 33.5q86 0 211 -29l-41 -123q-96 47 -211 47q-99 0 -184 -40t-148.5 -115.5t-100 -193.5t-36.5 -265q0 -133 35 -248t103.5 -204.5t180 -141t254.5 -51.5q133 0 244.5 83.5t172 213t60.5 270.5q0 214 -88.5 342.5 t-226.5 128.5q-55 0 -108.5 -34t-97.5 -96.5t-71.5 -163t-27.5 -220.5q0 -151 37 -278t99 -214.5t143.5 -149t170 -90t179.5 -28.5q72 0 119.5 12t93.5 42l18 -33q-132 -142 -346 -142q-128 0 -251.5 60.5t-221 166.5t-157.5 264.5t-60 340.5q0 147 34.5 264.5t89 189.5 t126 120t139.5 66.5t137 18.5q91 0 171 -35t141 -100t96.5 -167.5t35.5 -229.5q0 -129 -45.5 -254t-127.5 -226.5t-211 -164t-283 -62.5q-337 0 -535 185.5t-198 500.5z" />
<glyph unicode="&#x4a9;" horiz-adv-x="1263" d="M113 465q0 129 40.5 239t109.5 184.5t162.5 116.5t199.5 42q33 0 80 -7l-68 -118q-41 6 -76 6q-144 0 -213 -101.5t-69 -279.5q0 -85 23.5 -164t68 -145t118.5 -106t166 -40q129 0 221.5 121.5t92.5 302.5q0 118 -49 199.5t-132 81.5q-76 0 -128 -75.5t-52 -215.5 q0 -159 56 -285.5t163.5 -201t249.5 -74.5q74 0 111 12l14 -37q-38 -35 -107.5 -59.5t-148.5 -24.5q-100 0 -190.5 40.5t-159.5 112.5t-109.5 180t-40.5 234q0 229 105.5 357.5t279.5 128.5q135 0 219.5 -86t84.5 -246q0 -119 -43.5 -227.5t-115 -186.5t-168.5 -124 t-200 -46q-156 0 -270 67t-169.5 177t-55.5 248z" />
<glyph unicode="&#x4aa;" horiz-adv-x="1300" d="M115 655q0 148 40 277t108.5 221.5t158.5 159.5t191 100t204 33q180 0 340 -57l-53 -172q-150 92 -365 92q-92 0 -170.5 -32.5t-142.5 -99.5t-100.5 -182t-36.5 -268q0 -152 46 -273t126.5 -197.5t186.5 -116.5t229 -40q160 0 303 86l18 -32q-59 -57 -155 -106.5 t-214 -63.5q-124 -93 -124 -213q0 -71 38.5 -114.5t124.5 -66.5l-32 -30q-114 8 -188.5 61t-74.5 137q0 137 168 219q-192 3 -334.5 89.5t-217 238.5t-74.5 350z" />
<glyph unicode="&#x4ab;" horiz-adv-x="985" d="M113 444q0 128 43.5 242t115.5 192t167 123.5t196 45.5q116 0 215 -29l-31 -172q-112 61 -268 61q-130 0 -203.5 -83.5t-73.5 -264.5q0 -212 107 -335.5t281 -123.5q125 0 210 39l17 -39q-110 -77 -209 -102q-143 -99 -143 -227q0 -71 38.5 -114.5t124.5 -66.5l-32 -30 q-114 8 -188 61t-74 137q0 80 50.5 135.5t118.5 86.5q-7 0 -22.5 -1.5t-22.5 -1.5q-65 0 -124.5 17t-113 54.5t-93.5 91t-63 132t-23 172.5z" />
<glyph unicode="&#x4ac;" horiz-adv-x="1325" d="M82 1280l6 145h1149l6 -145q-164 27 -268 27h-236v-1194h154l-29 -408h-125v295h-153v1307h-236q-61 0 -128 -6.5t-104 -13.5z" />
<glyph unicode="&#x4ad;" horiz-adv-x="962" d="M82 889l4 135h817l2 -135q-90 14 -190 14h-144v-790h152l-25 -389h-127v276h-153v903h-144q-58 0 -106 -3.5t-67 -7.5z" />
<glyph unicode="&#x4ae;" horiz-adv-x="1218" d="M82 1423h176l358 -725h11l184 359q31 61 68.5 153t59.5 154l22 61h176l-447 -860v-565h-153v563z" />
<glyph unicode="&#x4af;" horiz-adv-x="1050" d="M72 1024h176l282 -907h11l141 463q31 104 56 215t34 170l10 59h191l-367 -1069v-473h-153v473z" />
<glyph unicode="&#x4b0;" horiz-adv-x="1218" d="M82 1423h176l358 -725h11l184 359q31 61 68.5 153t59.5 154l22 61h176l-447 -862h283v-106h-283v-457h-153v457h-281v106h281z" />
<glyph unicode="&#x4b1;" horiz-adv-x="1044" d="M72 1024h176l282 -907h11l141 463q31 104 56 215t34 170l10 59h191l-367 -1065h283v-106h-283v-371h-153v371h-281v106h279z" />
<glyph unicode="&#x4b2;" horiz-adv-x="1329" d="M82 0l473 745l-428 680h188l205 -340l142 -229h10q88 139 139 229l199 340h157l-424 -675l400 -637h166l-29 -408h-125v295h-127l-203 324l-190 311h-10q-127 -209 -199 -328l-186 -307h-158z" />
<glyph unicode="&#x4b3;" horiz-adv-x="1019" d="M72 0l344 524l-305 500h172l75 -131l148 -262h8q98 176 139 258l70 135h160l-303 -494l251 -417h189l-25 -389h-127v276h-141l-106 184l-129 240h-11q-100 -172 -145 -252l-98 -172h-166z" />
<glyph unicode="&#x4b4;" horiz-adv-x="1843" d="M82 1280l6 145h1108l6 -145q-164 27 -268 27h-215v-1194h741v936q0 87 -3 181t-6 144l-3 51h166v-1312h158l-29 -408h-125v295h-1053v1307h-215q-61 0 -128 -6.5t-104 -13.5z" />
<glyph unicode="&#x4b5;" horiz-adv-x="1380" d="M82 889l6 135h772l4 -135q-90 14 -190 14h-123v-790h473v712q0 41 -3 90.5t-6 78.5l-3 30h166v-911h151l-24 -389h-127v276h-781v903h-123q-58 0 -106 -3.5t-67 -7.5z" />
<glyph unicode="&#x4b6;" horiz-adv-x="1325" d="M133 1425h168v-497q0 -89 20 -148t63.5 -90.5t100 -44t140.5 -12.5q136 0 321 55v365q0 91 -3 184t-6 141l-3 47h166v-1312h153l-28 -408h-125v295h-154v647q-93 -63 -203.5 -99t-218.5 -36q-179 0 -278 91t-99 269v185q0 81 -3.5 173t-7.5 144z" />
<glyph unicode="&#x4b7;" horiz-adv-x="1079" d="M102 1024h168v-268q0 -81 9.5 -131.5t35.5 -87t72 -51.5t119 -15q52 0 106 10.5t82 21.5l29 11v305q0 41 -3 92t-6 82l-3 31h166v-911h151l-24 -389h-127v276h-154v473q-166 -121 -326 -121q-41 0 -78 7t-75 26.5t-65.5 49t-44.5 79t-17 113.5v192q0 48 -3.5 99.5 t-7.5 78.5z" />
<glyph unicode="&#x4b8;" horiz-adv-x="1273" d="M113 1425h168v-497q0 -150 61.5 -216t189.5 -77v239h113v-241q143 6 301 55v365q0 91 -3 184t-6 141l-3 47h166v-1425h-154v647q-135 -93 -301 -123v-227h-113v215h-20q-180 0 -282.5 91.5t-102.5 268.5v185q0 81 -3.5 173t-7.5 144z" />
<glyph unicode="&#x4b9;" horiz-adv-x="1050" d="M80 1024h168v-268q0 -147 37.5 -210.5t148.5 -72.5v262h113v-262q42 4 86 14.5t67 18.5l23 8v305q0 41 -3 92t-6 82l-3 31h166v-1024h-154v473q-82 -61 -176 -90v-225h-113v198q-20 -4 -59 -4q-52 0 -98 12.5t-89 41.5t-68.5 85.5t-25.5 135.5v192q0 48 -3.5 99.5 t-6.5 78.5z" />
<glyph unicode="&#x4ba;" horiz-adv-x="1429" d="M174 1425h166v-639q9 6 24.5 16t66.5 36t104.5 46t131.5 36t154 16q434 0 434 -453v-483h-153v434q0 192 -91 291.5t-288 99.5q-99 0 -195 -20t-142 -40l-46 -20v-745h-154v1055q0 82 -3 174.5t-6 144.5z" />
<glyph unicode="&#x4bb;" horiz-adv-x="1159" d="M174 1409l176 35v-256q0 -205 -4 -293q183 152 369 152q138 0 204 -81.5t66 -283.5v-682h-154v618q0 156 -55.5 228t-193.5 72q-67 0 -125 -16t-83 -32l-24 -16v-145v-709h-153v1159q0 132 -23 250z" />
<glyph unicode="&#x4bc;" horiz-adv-x="1374" d="M-72 1049l41 10q40 -230 191 -230h14q30 173 110 311t205 220t273 82q87 0 160 -23t124.5 -61t91.5 -91.5t65 -111t41 -123t22 -124t6 -117.5v-115h-932q0 -268 139.5 -431t364.5 -163q195 0 325 59l19 -41q-198 -125 -420 -125q-92 0 -177.5 23t-164.5 75.5t-137.5 129 t-93.5 191.5t-35 255v27h-15q-49 0 -90.5 23.5t-66.5 64.5q-24 41 -38.5 102.5t-21.5 182.5zM344 829h748q0 133 -39.5 245.5t-123.5 185.5t-198 73q-83 0 -156 -47.5t-121.5 -122.5t-77.5 -162.5t-32 -171.5z" />
<glyph unicode="&#x4bd;" horiz-adv-x="1081" d="M-61 819l41 10q15 -121 59.5 -175t122.5 -54q33 199 156.5 323t302.5 124q87 0 153.5 -32t104.5 -80.5t61.5 -115.5t31 -125.5t7.5 -122.5t-2 -84h-664q0 -191 106 -291t283 -100q110 0 216 49l16 -39q-67 -51 -164.5 -91t-202.5 -40q-82 0 -154 28t-132 84.5t-94.5 154 t-34.5 225.5v22q-106 0 -156 70q-25 36 -38 93t-19 167zM322 600h497q0 147 -67 242.5t-187 95.5q-62 0 -110 -29.5t-75 -80t-41.5 -107.5t-16.5 -121z" />
<glyph unicode="&#x4be;" horiz-adv-x="1404" d="M-41 1049l41 10q40 -230 190 -230h15q30 173 110 311t205 220t273 82q87 0 160 -23t124.5 -61t91.5 -91.5t65 -111t41 -123t22 -124t6 -117.5v-115h-932q0 -268 139 -431t364 -163q196 0 326 59l19 -41q-156 -99 -332 -118q-123 -95 -123 -211q0 -71 39 -114.5t125 -66.5 l-33 -30q-114 8 -188 61t-74 137q0 136 162 217q-91 1 -176 24.5t-164 76t-137 128.5t-93 190.5t-35 254.5v27h-14q-49 0 -91 23.5t-67 64.5q-24 41 -38 102t-21 183zM375 829h747q0 98 -23.5 187.5t-67 161t-113.5 113.5t-156 42q-83 0 -156 -47.5t-121.5 -122.5 t-77.5 -162.5t-32 -171.5z" />
<glyph unicode="&#x4bf;" horiz-adv-x="1101" d="M-41 819l41 10q15 -121 59.5 -175t122.5 -54q33 199 156.5 323t302.5 124q87 0 153.5 -32t104.5 -80.5t61.5 -115.5t31 -125.5t7.5 -122.5t-2 -84h-663q0 -191 106 -291t283 -100q109 0 215 49l16 -39q-110 -85 -256 -118q-131 -95 -131 -217q0 -71 39 -114.5t125 -66.5 l-33 -30q-114 8 -188 61t-74 137q0 136 162 217h-10q-82 0 -154.5 28t-132 84.5t-94.5 154t-35 225.5v22q-106 0 -156 70q-25 36 -38 93t-19 167zM342 600h498q0 147 -67 242.5t-187 95.5q-62 0 -110 -29.5t-75.5 -80t-42 -107.5t-16.5 -121z" />
<glyph unicode="&#x4c0;" horiz-adv-x="538" d="M184 1425h170v-1425h-153v1122q0 88 -17 303z" />
<glyph unicode="&#x4c1;" horiz-adv-x="1828" d="M86 4l535 760l-498 657l196 15q101 -197 173 -293l233 -309q12 -17 35 -33q20 -13 71 -13v637h154v-637q67 0 82 11q21 14 35 35l229 309q38 51 78.5 124.5t62.5 120.5l21 48l190 -15l-495 -653l555 -764l-180 -14l-516 721q-11 16 -20 22t-23 6h-19v-739h-154v739h-18 q-26 0 -47 -30l-500 -719zM586 1653l121 88q91 -109 251 -109q141 0 261 78l14 -22q-64 -66 -159 -116t-208 -50q-105 0 -174 39.5t-106 91.5z" />
<glyph unicode="&#x4c2;" horiz-adv-x="1501" d="M53 2l436 530l-399 488l182 14q68 -139 129 -215l195 -239q19 -25 45 -25h33v469h153v-469h33q25 0 45 25l193 237q24 30 57 84.5t53 93.5l21 39l182 -14l-410 -481l445 -535l-184 -14l-390 489q-26 35 -43 35h-2v-514h-153v514h-4q-18 0 -45 -37l-385 -487zM424 1305 l121 88q40 -48 104.5 -78.5t147.5 -30.5q140 0 260 78l14 -23q-64 -66 -158.5 -115.5t-207.5 -49.5q-105 0 -174.5 40t-106.5 91z" />
<glyph unicode="&#x4c3;" horiz-adv-x="1275" d="M174 1425h170v-686l35 15q42 19 84 71l266 342q47 60 88.5 127.5t59.5 104.5l18 37l186 -15l-516 -649h70q223 0 349 -124t126 -314q0 -71 -18 -144t-58 -144.5t-97 -127t-142 -89.5t-185 -34q-109 0 -227 31l35 145q87 -32 198 -32q153 0 241.5 100t88.5 264 q0 187 -114 281t-318 94h-170v-678h-154v1124q0 76 -4 151t-8 113z" />
<glyph unicode="&#x4c4;" horiz-adv-x="1028" d="M174 1024h168v-485l25 10q40 15 73 53l193 217q33 36 66.5 90t50.5 89l18 36l195 -14l-414 -461h20q97 0 171 -36t116.5 -97.5t63 -134t20.5 -154.5q0 -71 -16.5 -140t-53 -133t-88 -113t-127.5 -78t-166 -29q-94 0 -192 26l31 123q77 -29 176 -29q132 0 205 96.5 t73 266.5q0 171 -82 277t-243 106q-75 0 -115 -12v-498h-154v813q0 34 -3.5 86.5t-6.5 88.5z" />
<glyph unicode="&#x4c5;" horiz-adv-x="1406" d="M59 147q128 15 168 91q46 88 70 276q35 289 47 713q1 36 -2.5 85.5t-7.5 81.5l-4 31h798v-1312h207l-213 -408h-125l131 295h-153v1307h-481q-4 -157 -20 -395t-30 -375q-27 -250 -96 -373q-77 -136 -239 -187z" />
<glyph unicode="&#x4c6;" horiz-adv-x="1150" d="M41 150q154 26 190 126q23 64 41.5 250t18.5 398l-8 100h630v-911h187l-148 -389h-127l88 276h-153v905h-330q-3 -45 -8.5 -130t-8.5 -126.5t-8 -103.5t-11.5 -112t-14.5 -101q-20 -128 -76 -205q-80 -110 -213 -150z" />
<glyph unicode="&#x4c7;" horiz-adv-x="1470" d="M174 1425h166v-626h803v254q0 86 -2.5 179t-4.5 143l-3 50h163v-1425q0 -124 -43.5 -217.5t-122.5 -183.5q-35 -38 -73.5 -70.5t-60.5 -45.5l-21 -13l-25 32q87 74 140 191t53 246v747h-803v-686h-154v1055q0 82 -3 174.5t-6 144.5z" />
<glyph unicode="&#x4c8;" horiz-adv-x="1705" d="M174 1024h164v-424h483v424h154v-877q0 -192 -39 -321t-127 -227q-35 -38 -74 -70.5t-61 -45.5l-21 -13l-24 32q87 74 139.5 191t52.5 246v548h-483v-487h-154v819q0 51 -2.5 102.5t-5.5 76.5z" />
<glyph unicode="&#x4c9;" horiz-adv-x="1572" d="M174 1425h166v-626h803v254q0 86 -2.5 179t-4.5 143l-3 50h163v-1312h205l-213 -408h-125l131 295h-151v686h-803v-686h-154v1055q0 82 -3 174.5t-6 144.5z" />
<glyph unicode="&#x4ca;" horiz-adv-x="1212" d="M174 1024h164v-424h483v221q0 43 -3 93.5t-6 79.5l-3 30h166v-911h186l-147 -389h-127l88 276h-154v487h-483v-487h-154v819q0 51 -2.5 102.5t-5.5 76.5z" />
<glyph unicode="&#x4cb;" horiz-adv-x="1273" d="M133 1425h168v-497q0 -89 20 -148t63.5 -90.5t100 -44t140.5 -12.5q136 0 321 55v365q0 91 -3 184t-6 141l-3 47h166v-1425h-154v-295h-125l-28 408h153v534q-93 -63 -203.5 -99t-218.5 -36q-179 0 -278 91t-99 269v185q0 81 -3.5 173t-7.5 144z" />
<glyph unicode="&#x4cc;" horiz-adv-x="1050" d="M102 1024h168v-268q0 -81 9.5 -131.5t35.5 -87t72 -51.5t119 -15q52 0 106 10.5t82 21.5l29 11v305q0 41 -3 92t-6 82l-3 31h166v-1024h-154v-276h-127l-25 389h152v360q-166 -121 -326 -121q-41 0 -78 7t-75 26.5t-65.5 49t-44.5 79t-17 113.5v192q0 48 -3.5 99.5 t-7.5 78.5z" />
<glyph unicode="&#x4cd;" horiz-adv-x="1859" d="M164 0l86 1425h151l263 -606q88 -207 202 -512h11q29 72 204 481l273 637h157l64 -1312h213l-213 -408h-125l131 295h-158l-12 313q-6 141 -17 460.5t-14 400.5h-10q-105 -280 -258 -617l-178 -399h-148l-180 403q-100 221 -248 613h-10q-4 -107 -11 -285t-14.5 -358.5 t-9.5 -225.5l-14 -305h-135z" />
<glyph unicode="&#x4ce;" horiz-adv-x="1525" d="M174 0l49 1024h152l145 -305q1 -2 85.5 -175t119.5 -251h10q90 195 185 381l172 350h145l45 -911h193l-148 -389h-127l88 276h-153l-13 207q-15 266 -10 567h-10q-79 -176 -205 -405l-111 -207h-147l-107 203q-82 155 -192 409h-10q-4 -148 -14.5 -366t-10.5 -224 l-8 -184h-123z" />
<glyph unicode="&#x4d0;" horiz-adv-x="1292" d="M84 0l508 1436h117l501 -1436h-174l-131 406h-538l-134 -406h-149zM332 1653l121 88q40 -48 104.5 -78.5t147.5 -30.5q140 0 260 78l14 -22q-64 -66 -159 -116t-208 -50q-105 0 -174 39.5t-106 91.5zM401 518h469l-112 342l-115 352h-10q-82 -248 -117 -354z" />
<glyph unicode="&#x4d1;" horiz-adv-x="1048" d="M113 291q0 68 23 125t71.5 103.5t132.5 72.5t197 26h170v80q0 121 -59 174.5t-177 53.5q-120 0 -244 -80l-22 35q180 166 387 166q140 0 204 -76t64 -248v-492q0 -125 25 -231h-154q-13 67 -16 147l-6 3q-47 -75 -120.5 -124t-168.5 -49q-134 0 -220.5 85t-86.5 229z M219 1305l121 88q40 -48 104.5 -78.5t147.5 -30.5q140 0 260 78l14 -23q-64 -66 -158.5 -115.5t-207.5 -49.5q-105 0 -174.5 40t-106.5 91zM274 328q0 -99 59 -157t154 -58q56 0 111 20t82 40l27 20v307q-131 16 -195 16q-110 0 -174 -49t-64 -139z" />
<glyph unicode="&#x4d2;" horiz-adv-x="1292" d="M84 0l508 1436h117l501 -1436h-174l-131 406h-538l-134 -406h-149zM393 1642q0 111 90 111q86 0 86 -106q0 -51 -25 -77t-61 -26q-43 0 -66.5 21.5t-23.5 76.5zM401 518h469l-112 342l-115 352h-10q-82 -248 -117 -354zM727 1642q0 111 90 111q88 0 88 -106 q0 -51 -25.5 -77t-62.5 -26q-90 0 -90 98z" />
<glyph unicode="&#x4d3;" horiz-adv-x="1048" d="M113 291q0 68 23 125t71.5 103.5t132.5 72.5t197 26h170v80q0 121 -59 174.5t-177 53.5q-120 0 -244 -80l-22 35q180 166 387 166q140 0 204 -76t64 -248v-492q0 -125 25 -231h-154q-13 67 -16 147l-6 3q-47 -75 -120.5 -124t-168.5 -49q-134 0 -220.5 85t-86.5 229z M274 328q0 -99 59 -157t154 -58q56 0 111 20t82 40l27 20v307q-131 16 -195 16q-110 0 -174 -49t-64 -139zM297 1268q0 110 90 110q86 0 86 -106q0 -51 -25 -77t-61 -26q-90 0 -90 99zM631 1268q0 110 90 110q88 0 88 -106q0 -51 -25.5 -77t-62.5 -26q-90 0 -90 99z" />
<glyph unicode="&#x4d4;" horiz-adv-x="1896" d="M82 0l870 1427h750l-16 -124q-422 16 -539 16h-21v-545l523 17l-15 -115l-508 6v-576q193 0 349.5 7t216.5 15l61 7l-18 -135h-762v406h-496l-244 -406h-151zM545 518h428v543q0 34 4 160h-8q-63 -109 -90 -154z" />
<glyph unicode="&#x4d5;" horiz-adv-x="1636" d="M113 291q0 68 23 125t71.5 103.5t132.5 72.5t197 26h184v80q0 228 -250 228q-120 0 -244 -80l-22 35q180 166 387 166q98 0 162.5 -44t85.5 -133q67 85 146 131t190 46q87 0 153.5 -32t104.5 -80.5t61.5 -115.5t31 -125.5t7.5 -122.5t-2 -84h-664q0 -191 106 -291 t283 -100q110 0 216 49l16 -39q-67 -51 -164.5 -91t-202.5 -40q-236 0 -350 199q-154 -197 -352 -197q-134 0 -220.5 85t-86.5 229zM274 328q0 -99 59 -157t154 -58q41 0 83.5 11t73 27t55.5 32t38 27l13 11q-16 39 -24.5 84.5t-9.5 75.5t-1 86v33q-131 16 -203 16 q-110 0 -174 -49t-64 -139zM877 600h497q0 147 -67 242.5t-187 95.5q-62 0 -110 -29.5t-75 -80t-41.5 -107.5t-16.5 -121z" />
<glyph unicode="&#x4d6;" horiz-adv-x="1097" d="M174 1425h750l-17 -125q-421 17 -538 17h-21v-543l522 17l-14 -115l-508 6v-576q193 0 349.5 7t216.5 15l61 7l-19 -135h-761v1061q0 79 -5.5 170t-10.5 143zM238 1675l120 88q40 -48 104.5 -78t147.5 -30q140 0 260 78l15 -23q-64 -66 -159 -116t-208 -50 q-105 0 -174 39.5t-106 91.5z" />
<glyph unicode="&#x4d7;" horiz-adv-x="1042" d="M113 467q0 250 129.5 415t339.5 165q87 0 153.5 -32t104.5 -80.5t61.5 -115.5t31 -125.5t7.5 -122.5t-2 -84h-664q0 -190 106.5 -290.5t283.5 -100.5q109 0 215 49l16 -39q-67 -51 -164.5 -91t-202.5 -40q-82 0 -154 28t-132 84.5t-94.5 154t-34.5 225.5zM242 1305 l120 88q40 -48 104.5 -78.5t147.5 -30.5q140 0 260 78l15 -23q-64 -66 -159 -115.5t-208 -49.5q-105 0 -174 39.5t-106 91.5zM283 600h497q0 147 -67 242.5t-187 95.5q-62 0 -110 -29.5t-75 -80t-41.5 -107.5t-16.5 -121z" />
<glyph unicode="&#x4d8;" horiz-adv-x="1339" d="M113 627v114h931q0 264 -144.5 431t-358.5 167q-176 0 -324 -67l-22 53q199 117 421 117q92 0 177.5 -23t165 -75.5t138 -129t93.5 -191.5t35 -255q0 -159 -45 -303.5t-123 -253t-191 -172.5t-243 -64q-120 0 -213 44t-147.5 110.5t-89.5 157t-47.5 173t-12.5 167.5z M293 588q0 -79 14 -151.5t44.5 -137t74 -112.5t106.5 -75.5t138 -27.5q79 0 148.5 47.5t116 122.5t74.5 162.5t31 171.5h-747z" />
<glyph unicode="&#x4d9;" horiz-adv-x="1042" d="M113 451q0 64 2 84h663q0 191 -106 291t-283 100q-109 0 -215 -49l-16 38q68 51 164.5 91.5t201.5 40.5q82 0 154.5 -28t132 -84.5t94.5 -154t35 -225.5q0 -250 -129.5 -415t-339.5 -165q-87 0 -153.5 32t-104.5 80.5t-61.5 115.5t-31 125.5t-7.5 122.5zM272 422 q0 -147 67 -242.5t187 -95.5q62 0 110 29.5t75.5 80t42 107.5t16.5 121h-498z" />
<glyph unicode="&#x4da;" horiz-adv-x="1339" d="M113 627v114h931q0 264 -144.5 431t-358.5 167q-176 0 -324 -67l-22 53q199 117 421 117q92 0 177.5 -23t165 -75.5t138 -129t93.5 -191.5t35 -255q0 -159 -45 -303.5t-123 -253t-191 -172.5t-243 -64q-120 0 -213 44t-147.5 110.5t-89.5 157t-47.5 173t-12.5 167.5z M293 588q0 -79 14 -151.5t44.5 -137t74 -112.5t106.5 -75.5t138 -27.5q79 0 148.5 47.5t116 122.5t74.5 162.5t31 171.5h-747zM414 1642q0 111 90 111q86 0 86 -106q0 -51 -25 -77t-61 -26q-43 0 -66.5 21.5t-23.5 76.5zM748 1642q0 111 90 111q88 0 88 -106 q0 -51 -25.5 -77t-62.5 -26q-90 0 -90 98z" />
<glyph unicode="&#x4db;" horiz-adv-x="1042" d="M113 451q0 64 2 84h663q0 191 -106 291t-283 100q-109 0 -215 -49l-16 38q68 51 164.5 91.5t201.5 40.5q82 0 154.5 -28t132 -84.5t94.5 -154t35 -225.5q0 -250 -129.5 -415t-339.5 -165q-87 0 -153.5 32t-104.5 80.5t-61.5 115.5t-31 125.5t-7.5 122.5zM270 1268 q0 110 90 110q86 0 86 -106q0 -51 -25 -77t-61 -26q-90 0 -90 99zM272 422q0 -147 67 -242.5t187 -95.5q62 0 110 29.5t75.5 80t42 107.5t16.5 121h-498zM604 1268q0 110 90 110q88 0 88 -106q0 -51 -25.5 -77t-62.5 -26q-90 0 -90 99z" />
<glyph unicode="&#x4dc;" horiz-adv-x="1828" d="M86 4l535 760l-498 657l196 15q101 -197 173 -293l233 -309q12 -17 35 -33q20 -13 71 -13v637h154v-637q67 0 82 11q21 14 35 35l229 309q38 51 78.5 124.5t62.5 120.5l21 48l190 -15l-495 -653l555 -764l-180 -14l-516 721q-11 16 -20 22t-23 6h-19v-739h-154v739h-18 q-26 0 -47 -30l-500 -719zM649 1642q0 111 90 111q86 0 86 -106q0 -51 -25 -77t-61 -26q-43 0 -66.5 21.5t-23.5 76.5zM983 1642q0 111 90 111q88 0 88 -106q0 -51 -25.5 -77t-62.5 -26q-90 0 -90 98z" />
<glyph unicode="&#x4dd;" horiz-adv-x="1501" d="M53 2l436 530l-399 488l182 14q68 -139 129 -215l195 -239q19 -25 45 -25h33v469h153v-469h33q25 0 45 25l193 237q24 30 57 84.5t53 93.5l21 39l182 -14l-410 -481l445 -535l-184 -14l-390 489q-26 35 -43 35h-2v-514h-153v514h-4q-18 0 -45 -37l-385 -487zM494 1268 q0 110 90 110q86 0 86 -106q0 -51 -25 -77t-61 -26q-90 0 -90 99zM827 1268q0 55 24 82.5t67 27.5q88 0 88 -106q0 -51 -25.5 -77t-62.5 -26q-91 0 -91 99z" />
<glyph unicode="&#x4de;" horiz-adv-x="1083" d="M92 68l74 139q6 -4 16.5 -10t47 -22t76 -28t101 -22t123.5 -10q143 0 209 70t66 212q0 144 -102.5 216.5t-284.5 72.5h-70l17 113h276q56 41 94.5 115.5t38.5 162.5q0 58 -12 99t-42 74.5t-86 50t-140 16.5q-142 0 -275 -47l-37 125q17 6 48 14.5t120 22.5t172 14 q200 0 307 -79.5t107 -242.5q0 -96 -64 -193t-182 -151q133 -47 207 -139t74 -221q0 -87 -35 -167t-97.5 -141.5t-158 -98t-207.5 -36.5q-214 0 -381 91zM285 1642q0 111 90 111q86 0 86 -106q0 -51 -25 -77t-61 -26q-43 0 -66.5 21.5t-23.5 76.5zM618 1642q0 55 24 83 t67 28q88 0 88 -106q0 -51 -25.5 -77t-62.5 -26q-91 0 -91 98z" />
<glyph unicode="&#x4df;" horiz-adv-x="905" d="M78 74l78 135q4 -4 13 -11.5t38.5 -26t62.5 -32.5t85.5 -25.5t107.5 -11.5q86 0 134 50.5t48 128.5q0 192 -229 192h-117l18 119h248q47 86 47 164q0 82 -49.5 120.5t-152.5 38.5q-137 0 -258 -75l-25 34q6 7 18 18.5t51 41.5t79.5 53t101 41.5t119.5 18.5 q121 0 200.5 -57t79.5 -171q0 -63 -41.5 -130.5t-122.5 -113.5q181 -68 181 -251q0 -62 -28 -123.5t-77 -111.5t-122 -81t-156 -31q-119 0 -207 32.5t-125 64.5zM197 1268q0 110 90 110q86 0 86 -106q0 -51 -25 -77t-61 -26q-90 0 -90 99zM530 1268q0 55 24 82.5t67 27.5 q88 0 88 -106q0 -51 -25.5 -77t-62.5 -26q-91 0 -91 99z" />
<glyph unicode="&#x4e0;" horiz-adv-x="1126" d="M82 -133l35 145q181 -73 358 -73q180 0 277.5 108.5t97.5 286.5q0 194 -103 289.5t-323 95.5q-84 0 -195 -21l-6 41l545 582h-340q-106 0 -178 -6.5t-92 -13.5l-19 -7l21 140h805v-64l-519 -553q62 10 123 10q113 0 199.5 -34.5t139.5 -96t79.5 -140.5t26.5 -173 q0 -78 -21 -158t-67 -157.5t-111 -138t-162.5 -97.5t-212.5 -37q-85 0 -190 23t-168 49z" />
<glyph unicode="&#x4e1;" horiz-adv-x="909" d="M82 -324l31 123q93 -35 219 -35q138 0 222.5 95.5t84.5 269.5q0 166 -86 248t-229 82q-91 0 -152 -23v49l389 426h-209q-50 0 -109.5 -5t-93.5 -10l-34 -5l14 133h612v-63l-381 -418q33 8 62 8q98 0 172.5 -32.5t117.5 -89t64 -125t21 -148.5q0 -75 -19.5 -148 t-60 -138.5t-98 -116t-138.5 -80t-176 -29.5q-117 0 -223 32z" />
<glyph unicode="&#x4e2;" horiz-adv-x="1456" d="M174 1425h172v-596q0 -103 -3.5 -262t-6.5 -267l-4 -107h10q219 350 356 565l426 667h158v-1425h-154v578q0 119 6 283t12 268l5 104h-10q-142 -255 -326 -533l-463 -700h-159v1059q0 100 -4.5 191.5t-9.5 133.5zM553 1544v103h383v-103h-383z" />
<glyph unicode="&#x4e3;" d="M174 1024h170v-328q0 -126 -3 -255t-6 -195l-3 -66h10q172 312 287 500l211 344h157v-1024h-153v297q0 242 20 545h-10q-107 -205 -211 -371l-295 -471h-158v817q0 44 -4 96t-8 81zM424 1192v102h383v-102h-383z" />
<glyph unicode="&#x4e4;" horiz-adv-x="1456" d="M174 1425h172v-596q0 -103 -3.5 -262t-6.5 -267l-4 -107h10q219 350 356 565l426 667h158v-1425h-154v578q0 119 6 283t12 268l5 104h-10q-142 -255 -326 -533l-463 -700h-159v1059q0 100 -4.5 191.5t-9.5 133.5zM500 1642q0 111 90 111q86 0 86 -106q0 -51 -25 -77 t-61 -26q-43 0 -66.5 21.5t-23.5 76.5zM834 1642q0 111 90 111q88 0 88 -106q0 -51 -25.5 -77t-62.5 -26q-90 0 -90 98z" />
<glyph unicode="&#x4e5;" d="M174 1024h170v-328q0 -126 -3 -255t-6 -195l-3 -66h10q172 312 287 500l211 344h157v-1024h-153v297q0 242 20 545h-10q-107 -205 -211 -371l-295 -471h-158v817q0 44 -4 96t-8 81zM365 1268q0 110 90 110q86 0 86 -106q0 -51 -25 -77t-61 -26q-90 0 -90 99zM698 1268 q0 110 90 110q89 0 89 -106q0 -51 -26 -77t-63 -26q-90 0 -90 99z" />
<glyph unicode="&#x4e6;" horiz-adv-x="1556" d="M113 659q0 145 36 271t99.5 219t149.5 159.5t188 100t213 33.5q158 0 282.5 -55.5t203 -153t119 -226t40.5 -280.5q0 -141 -51.5 -277.5t-140.5 -242t-218.5 -170t-275.5 -64.5q-294 0 -469.5 186t-175.5 500zM289 723q0 -132 33.5 -248t96.5 -205t162.5 -140.5 t223.5 -51.5q94 0 172 34t131 92t90 136t53.5 164t16.5 178q0 301 -141 478t-369 177q-99 0 -184 -40t-148.5 -115.5t-100 -193.5t-36.5 -265zM492 1642q0 111 90 111q86 0 86 -106q0 -51 -25 -77t-61 -26q-43 0 -66.5 21.5t-23.5 76.5zM825 1642q0 111 90 111q89 0 89 -106 q0 -51 -26 -77t-63 -26q-90 0 -90 98z" />
<glyph unicode="&#x4e7;" d="M113 449q0 135 42.5 249t113.5 189.5t163 117.5t193 42q212 0 323 -137.5t111 -364.5q0 -106 -36.5 -208t-101.5 -183t-163 -131t-211 -50q-202 0 -318 133t-116 343zM279 547q0 -85 21 -164t62 -145t110 -106t157 -40q135 0 199.5 100.5t64.5 272.5q0 212 -90.5 338.5 t-239.5 126.5q-137 0 -210.5 -97.5t-73.5 -285.5zM332 1268q0 110 90 110q86 0 86 -106q0 -51 -25 -77t-61 -26q-90 0 -90 99zM666 1268q0 110 90 110q88 0 88 -106q0 -51 -25.5 -77t-62.5 -26q-90 0 -90 99z" />
<glyph unicode="&#x4e8;" horiz-adv-x="1556" d="M113 659q0 145 36 271t99.5 219t149.5 159.5t188 100t213 33.5q158 0 282.5 -55.5t203 -153t119 -226t40.5 -280.5q0 -141 -51.5 -277.5t-140.5 -242t-218.5 -170t-275.5 -64.5q-294 0 -469.5 186t-175.5 500zM289 754h977q-19 270 -156.5 426.5t-351.5 156.5 q-97 0 -180 -38t-146.5 -109.5t-101 -183.5t-41.5 -252zM291 641q10 -118 48 -219.5t101 -178.5t157 -121t208 -44q112 0 200 47t142.5 127.5t84 179t34.5 209.5h-975z" />
<glyph unicode="&#x4e9;" d="M113 449q0 135 42.5 249t113.5 189.5t163 117.5t193 42q212 0 323 -137.5t111 -364.5q0 -106 -36.5 -208t-101.5 -183t-163 -131t-211 -50q-202 0 -318 133t-116 343zM279 561h608q-20 170 -107.5 269.5t-216.5 99.5q-135 0 -208 -93.5t-76 -275.5zM285 449 q11 -73 37 -135t67 -113t102.5 -80t137.5 -29q131 0 196 96t68 261h-608z" />
<glyph unicode="&#x4ea;" horiz-adv-x="1556" d="M113 659q0 145 36 271t99.5 219t149.5 159.5t188 100t213 33.5q158 0 282.5 -55.5t203 -153t119 -226t40.5 -280.5q0 -141 -51.5 -277.5t-140.5 -242t-218.5 -170t-275.5 -64.5q-294 0 -469.5 186t-175.5 500zM289 754h977q-19 270 -156.5 426.5t-351.5 156.5 q-97 0 -180 -38t-146.5 -109.5t-101 -183.5t-41.5 -252zM291 641q10 -118 48 -219.5t101 -178.5t157 -121t208 -44q112 0 200 47t142.5 127.5t84 179t34.5 209.5h-975zM518 1642q0 111 90 111q86 0 86 -106q0 -51 -25 -77t-61 -26q-43 0 -66.5 21.5t-23.5 76.5zM852 1642 q0 111 90 111q88 0 88 -106q0 -51 -25.5 -77t-62.5 -26q-90 0 -90 98z" />
<glyph unicode="&#x4eb;" d="M113 449q0 135 42.5 249t113.5 189.5t163 117.5t193 42q212 0 323 -137.5t111 -364.5q0 -106 -36.5 -208t-101.5 -183t-163 -131t-211 -50q-202 0 -318 133t-116 343zM279 561h608q-20 170 -107.5 269.5t-216.5 99.5q-135 0 -208 -93.5t-76 -275.5zM285 449 q11 -73 37 -135t67 -113t102.5 -80t137.5 -29q131 0 196 96t68 261h-608zM340 1268q0 110 90 110q86 0 86 -106q0 -51 -25 -77t-61 -26q-90 0 -90 99zM674 1268q0 110 90 110q88 0 88 -106q0 -51 -25.5 -77t-62.5 -26q-90 0 -90 99z" />
<glyph unicode="&#x4ec;" horiz-adv-x="1265" d="M92 82l84 135q171 -117 391 -117q187 0 301 157.5t125 414.5l-731 -13l21 123l710 -10q-10 259 -150 397t-358 138q-183 0 -315 -56l-41 144q155 49 391 49q146 0 264.5 -41.5t206 -123t135.5 -211t48 -298.5q0 -153 -45 -294.5t-128.5 -254t-215 -180.5t-291.5 -68 q-98 0 -208.5 25t-193.5 84zM322 1642q0 111 90 111q86 0 86 -106q0 -51 -25 -77t-61 -26q-43 0 -66.5 21.5t-23.5 76.5zM655 1642q0 111 90 111q89 0 89 -106q0 -51 -26 -77t-63 -26q-90 0 -90 98z" />
<glyph unicode="&#x4ed;" horiz-adv-x="1003" d="M102 63l68 138q5 -3 13.5 -8.5t37.5 -19.5t60.5 -24.5t80 -19t97.5 -8.5q58 0 105 23t76.5 58.5t49 82.5t27.5 91.5t8 88.5l-489 -10l8 118l481 -8q-6 169 -91 258.5t-220 89.5q-126 0 -236 -88l-37 33q6 8 17 20.5t48 45t77 57.5t101.5 45.5t123.5 20.5q79 0 143.5 -27 t108.5 -73t74 -109.5t43.5 -136t13.5 -152.5q0 -259 -133 -415.5t-332 -156.5q-92 0 -182.5 25.5t-141.5 60.5zM225 1268q0 110 90 110q86 0 86 -106q0 -51 -25 -77t-61 -26q-90 0 -90 99zM559 1268q0 110 90 110q88 0 88 -106q0 -51 -25.5 -77t-62.5 -26q-90 0 -90 99z" />
<glyph unicode="&#x4ee;" horiz-adv-x="1220" d="M82 1425h172l387 -995h10l207 625q23 69 47 161.5t37 150.5l12 58h168l-417 -1173q-84 -232 -183 -307q-3 -2 -23.5 -18t-41.5 -29t-47 -25l-70 172q98 24 145 66q60 49 90 120zM438 1544v103h383v-103h-383z" />
<glyph unicode="&#x4ef;" horiz-adv-x="1050" d="M72 1024h176l282 -907h11l141 463q31 104 56 215t34 170l10 59h191l-379 -1106q-58 -171 -137 -289q-72 -106 -187 -153l-67 174q59 14 90.5 31.5t66.5 48.5q39 36 66.5 86t38.5 98zM358 1192v102h383v-102h-383z" />
<glyph unicode="&#x4f0;" horiz-adv-x="1220" d="M82 1425h172l387 -995h10l207 625q23 69 47 161.5t37 150.5l12 58h168l-417 -1173q-84 -232 -183 -307q-3 -2 -23.5 -18t-41.5 -29t-47 -25l-70 172q98 24 145 66q60 49 90 120zM387 1642q0 111 90 111q86 0 86 -106q0 -51 -25 -77t-61 -26q-43 0 -66.5 21.5t-23.5 76.5z M721 1642q0 111 90 111q88 0 88 -106q0 -51 -25.5 -77t-62.5 -26q-90 0 -90 98z" />
<glyph unicode="&#x4f1;" horiz-adv-x="1050" d="M72 1024h176l282 -907h11l141 463q31 104 56 215t34 170l10 59h191l-379 -1106q-58 -171 -137 -289q-72 -106 -187 -153l-67 174q59 14 90.5 31.5t66.5 48.5q39 36 66.5 86t38.5 98zM291 1268q0 110 90 110q86 0 86 -106q0 -51 -25 -77t-61 -26q-90 0 -90 99zM625 1268 q0 110 90 110q88 0 88 -106q0 -51 -25.5 -77t-62.5 -26q-90 0 -90 99z" />
<glyph unicode="&#x4f2;" horiz-adv-x="1220" d="M82 1425h172l387 -995h10l207 625q23 69 47 161.5t37 150.5l12 58h168l-417 -1173q-84 -232 -183 -307q-3 -2 -23.5 -18t-41.5 -29t-47 -25l-70 172q98 24 145 66q60 49 90 120zM393 1524l121 219h221l-256 -219h-86zM637 1524l162 219h231l-305 -219h-88z" />
<glyph unicode="&#x4f3;" horiz-adv-x="1050" d="M72 1024h176l282 -907h11l141 463q31 104 56 215t34 170l10 59h191l-379 -1106q-58 -171 -137 -289q-72 -106 -187 -153l-67 174q59 14 90.5 31.5t66.5 48.5q39 36 66.5 86t38.5 98zM385 1192l88 262h221l-229 -262h-80zM623 1192l157 262h244l-313 -262h-88z" />
<glyph unicode="&#x4f4;" horiz-adv-x="1273" d="M133 1425h168v-497q0 -89 20 -148t63.5 -90.5t100 -44t140.5 -12.5q136 0 321 55v365q0 91 -3 184t-6 141l-3 47h166v-1425h-154v647q-93 -63 -203.5 -99t-218.5 -36q-179 0 -278 91t-99 269v185q0 81 -3.5 173t-7.5 144zM383 1642q0 111 90 111q86 0 86 -106 q0 -51 -25 -77t-61 -26q-43 0 -66.5 21.5t-23.5 76.5zM717 1642q0 111 90 111q88 0 88 -106q0 -51 -25.5 -77t-62.5 -26q-90 0 -90 98z" />
<glyph unicode="&#x4f5;" horiz-adv-x="1050" d="M102 1024h168v-268q0 -81 9.5 -131.5t35.5 -87t72 -51.5t119 -15q52 0 106 10.5t82 21.5l29 11v305q0 41 -3 92t-6 82l-3 31h166v-1024h-154v473q-166 -121 -326 -121q-41 0 -78 7t-75 26.5t-65.5 49t-44.5 79t-17 113.5v192q0 48 -3.5 99.5t-7.5 78.5zM260 1268 q0 110 90 110q86 0 86 -106q0 -51 -25 -77t-61 -26q-90 0 -90 99zM594 1268q0 110 90 110q88 0 88 -106q0 -51 -25.5 -77t-62.5 -26q-90 0 -90 99z" />
<glyph unicode="&#x4f8;" horiz-adv-x="1675" d="M174 1425h176v-553q153 80 330 80q82 0 150.5 -20.5t126.5 -65.5t91 -126.5t33 -192.5q0 -173 -74.5 -298.5t-198.5 -187t-282 -61.5h-331v1061q0 91 -5.5 182t-10.5 137zM350 113h195q192 0 282.5 84.5t90.5 267.5q0 200 -98.5 290.5t-268.5 90.5q-107 0 -201 -15v-718z M582 1642q0 111 90 111q86 0 86 -106q0 -51 -25 -77t-61 -26q-43 0 -66.5 21.5t-23.5 76.5zM915 1642q0 55 24 83t67 28q88 0 88 -106q0 -51 -25.5 -77t-62.5 -26q-91 0 -91 98zM1335 1425h166v-1425h-155v1059q0 73 -3 164.5t-5 146.5z" />
<glyph unicode="&#x4f9;" horiz-adv-x="1447" d="M174 1024h168v-426q134 94 297 94q120 0 198 -68.5t78 -213.5q0 -186 -123 -298t-313 -112h-291v817q0 41 -3.5 92.5t-6.5 82.5zM342 113h162q132 0 191 51t59 178q0 117 -62.5 178.5t-169.5 61.5q-82 0 -180 -25v-444zM487 1268q0 110 91 110q86 0 86 -106 q0 -51 -25 -77t-61 -26q-91 0 -91 99zM821 1268q0 110 90 110q88 0 88 -106q0 -51 -25.5 -77t-62.5 -26q-90 0 -90 99zM1106 1024h168v-1024h-154v817q0 38 -3.5 90t-6.5 85z" />
<glyph unicode="&#x1ebc;" horiz-adv-x="1118" d="M174 1425h750l-17 -125q-421 17 -538 17h-21v-543l522 17l-14 -115l-508 6v-576q193 0 349.5 7t216.5 15l61 7l-19 -135h-761v1061q0 79 -5.5 170t-10.5 143zM301 1561q40 114 75.5 153t78.5 39q14 0 31.5 -3.5t28 -6.5t30 -10.5t22.5 -8.5l51 -18q67 -25 97 -25 q59 0 84 86l41 -8q-49 -196 -150 -196q-17 0 -37 4t-30 7t-36 12.5t-30 10.5l-53 19q-58 20 -78 20q-28 0 -45.5 -17.5t-40.5 -68.5z" />
<glyph unicode="&#x1ebd;" horiz-adv-x="1042" d="M113 467q0 250 129.5 415t339.5 165q87 0 153.5 -32t104.5 -80.5t61.5 -115.5t31 -125.5t7.5 -122.5t-2 -84h-664q0 -190 106.5 -290.5t283.5 -100.5q109 0 215 49l16 -39q-67 -51 -164.5 -91t-202.5 -40q-82 0 -154 28t-132 84.5t-94.5 154t-34.5 225.5zM272 1196 q30 114 73 160.5t108 46.5q8 0 15.5 -0.5t15.5 -2.5l14 -3.5t15 -6t14 -6.5t16 -8t15.5 -8.5t18.5 -10.5t19 -11q40 -23 57 -30t35 -7q53 0 86 100l41 -10q-29 -113 -71 -160t-107 -47q-42 0 -98 31l-72 41q-40 22 -59 22q-59 0 -95 -100zM283 600h497q0 147 -67 242.5 t-187 95.5q-62 0 -110 -29.5t-75 -80t-41.5 -107.5t-16.5 -121z" />
<glyph unicode="&#x2000;" horiz-adv-x="932" />
<glyph unicode="&#x2001;" horiz-adv-x="1864" />
<glyph unicode="&#x2002;" horiz-adv-x="932" />
<glyph unicode="&#x2003;" horiz-adv-x="1864" />
<glyph unicode="&#x2004;" horiz-adv-x="621" />
<glyph unicode="&#x2005;" horiz-adv-x="466" />
<glyph unicode="&#x2006;" horiz-adv-x="310" />
<glyph unicode="&#x2007;" horiz-adv-x="310" />
<glyph unicode="&#x2008;" horiz-adv-x="233" />
<glyph unicode="&#x2009;" horiz-adv-x="372" />
<glyph unicode="&#x200a;" horiz-adv-x="103" />
<glyph unicode="&#x2010;" horiz-adv-x="720" d="M117 549v141h485v-141h-485z" />
<glyph unicode="&#x2011;" horiz-adv-x="720" d="M117 549v141h485v-141h-485z" />
<glyph unicode="&#x2012;" horiz-adv-x="720" d="M117 549v141h485v-141h-485z" />
<glyph unicode="&#x2013;" horiz-adv-x="1191" d="M113 559v123h966v-123h-966z" />
<glyph unicode="&#x2014;" horiz-adv-x="1771" d="M113 559v123h1546v-123h-1546z" />
<glyph unicode="&#x2018;" horiz-adv-x="483" d="M92 1104q0 27 11.5 66t36 87.5t71.5 101.5t108 93l11 -12q-66 -77 -66 -183q0 -117 53 -180l-190 -92q-35 49 -35 119z" />
<glyph unicode="&#x2019;" horiz-adv-x="483" d="M154 995q65 75 65 181q0 119 -53 182l190 92q35 -49 35 -119q0 -28 -11.5 -67t-36 -87t-71.5 -99.5t-108 -92.5z" />
<glyph unicode="&#x201a;" horiz-adv-x="485" d="M154 -266q67 83 67 190q0 112 -55 174l190 92q37 -51 37 -118q0 -69 -56.5 -170t-172.5 -178z" />
<glyph unicode="&#x201c;" horiz-adv-x="839" d="M92 1104q0 27 12 66t36.5 87.5t71 101.5t107.5 93l11 -12q-66 -77 -66 -183q0 -117 53 -180l-190 -92q-35 49 -35 119zM449 1104q0 27 11.5 66t36 87.5t71.5 101.5t108 93l10 -12q-68 -79 -68 -183q0 -117 56 -180l-191 -92q-34 47 -34 119z" />
<glyph unicode="&#x201d;" horiz-adv-x="839" d="M154 995q67 72 67 181q0 120 -55 182l190 92q37 -46 37 -119q0 -28 -12 -67t-36.5 -87t-72 -99.5t-108.5 -92.5zM510 995q65 75 65 181q0 119 -53 182l191 92q35 -49 35 -119q0 -28 -12 -67t-36.5 -87t-71.5 -99.5t-108 -92.5z" />
<glyph unicode="&#x201e;" horiz-adv-x="839" d="M154 -266q67 77 67 182q0 120 -55 182l190 92q37 -46 37 -118q0 -28 -12 -67t-36.5 -87.5t-72 -100.5t-108.5 -93zM510 -266q65 81 65 182q0 119 -53 182l191 92q35 -49 35 -118q0 -28 -12 -67t-36.5 -87.5t-71.5 -100.5t-108 -93z" />
<glyph unicode="&#x2020;" horiz-adv-x="966" d="M143 879l27 178l244 -27v98q0 134 -17 287l170 29l-4 -414l271 27l-35 -178l-238 18l-24 -1311h-97l-24 1305z" />
<glyph unicode="&#x2021;" horiz-adv-x="976" d="M143 475l27 178l252 -26l-6 264l-273 -12l27 178l244 -27l-2 96q-2 116 -21 289l197 29l-17 -414l263 27l-35 -178l-230 18l-8 -270l273 26l-35 -178l-240 19l-22 -908h-97l-16 901z" />
<glyph unicode="&#x2022;" horiz-adv-x="827" d="M225 645q0 82 55.5 140.5t133.5 58.5t133 -58.5t55 -140.5t-55 -140.5t-133 -58.5t-133.5 58.5t-55.5 140.5z" />
<glyph unicode="&#x2026;" horiz-adv-x="1953" d="M246 72q0 110 106 110q54 0 79.5 -25t25.5 -81q0 -53 -32 -81t-73 -28q-47 0 -76.5 26t-29.5 79zM897 72q0 110 107 110q53 0 78.5 -25t25.5 -81q0 -53 -31.5 -81t-72.5 -28q-47 0 -77 26t-30 79zM1548 72q0 110 107 110q53 0 78.5 -25t25.5 -81q0 -53 -31.5 -81 t-72.5 -28q-47 0 -77 26t-30 79z" />
<glyph unicode="&#x202f;" horiz-adv-x="372" />
<glyph unicode="&#x2030;" horiz-adv-x="2281" d="M102 1085q0 164 94 267.5t218 103.5q130 0 203 -82t73 -241q0 -89 -35.5 -175.5t-108.5 -147t-165 -60.5q-136 0 -207.5 85t-71.5 250zM221 -10l1010 1456l74 -51l-1010 -1458zM246 1122q0 -39 8 -83.5t26.5 -92.5t55 -79t86.5 -31q131 0 131 245q0 126 -50 207.5 t-126 81.5q-66 0 -98.5 -56t-32.5 -192zM891 311q0 164 93 268.5t218 104.5q132 0 204.5 -86t72.5 -238q0 -92 -37 -178.5t-109.5 -145.5t-163.5 -59q-127 0 -202.5 87t-75.5 247zM1032 348q0 -43 9.5 -89t28.5 -92t55.5 -75t84.5 -29q39 0 66.5 23.5t40 63t17.5 77t5 80.5 q0 128 -50 209.5t-124 81.5q-68 0 -100.5 -58.5t-32.5 -191.5zM1591 311q0 164 93.5 268.5t218.5 104.5q132 0 204 -86t72 -238q0 -92 -36.5 -178.5t-109 -145.5t-163.5 -59q-127 0 -203 87.5t-76 246.5zM1733 348q0 -43 9.5 -89t28.5 -92t55.5 -75t84.5 -29q39 0 66.5 23.5 t40 63t17.5 77t5 80.5q0 128 -50 209.5t-124 81.5q-68 0 -100.5 -58.5t-32.5 -191.5z" />
<glyph unicode="&#x2039;" horiz-adv-x="630" d="M102 543v18l293 434l62 -32l-191 -408v-8l185 -400l-58 -41z" />
<glyph unicode="&#x203a;" horiz-adv-x="630" d="M174 963l62 32l292 -434v-18l-290 -437l-58 41l185 400v8z" />
<glyph unicode="&#x205f;" horiz-adv-x="466" />
<glyph unicode="&#x20ac;" horiz-adv-x="1259" d="M98 541v106h97v8q0 79 8 142h-105v106h123q57 254 221.5 402.5t431.5 148.5q170 0 330 -57l-51 -170q-72 46 -169.5 68t-184.5 22q-173 0 -283.5 -105.5t-136.5 -308.5h645l-37 -106h-616q-2 -84 4 -150h649l-37 -106h-598q21 -97 62 -173.5t89.5 -122.5t107.5 -76 t112.5 -41t109.5 -11q144 0 273 88l71 -117q-171 -111 -399 -111q-268 0 -428 149.5t-188 414.5h-101z" />
<glyph unicode="&#x20b4;" horiz-adv-x="1079" d="M113 528v107h293l149 149h-442v107h540q92 114 92 219q0 108 -66.5 158.5t-170.5 50.5q-74 0 -155 -26t-146 -66l-23 37q193 182 422 182q163 0 243.5 -84.5t80.5 -222.5q0 -129 -78 -248h186l-37 -107h-231q-25 -29 -145 -149h413l-37 -107h-485q-106 -118 -106 -233 q0 -66 34.5 -110.5t86 -62.5t116.5 -18q73 0 154 27t147 68l23 -39q-194 -183 -422 -183q-163 0 -243.5 82.5t-80.5 221.5q0 117 92 247h-204z" />
<glyph unicode="&#x20bd;" horiz-adv-x="1114" d="M96 330v106h137v96h-137v107h137v528q0 52 -4.5 116t-8.5 102l-5 38h391q214 0 339.5 -101t125.5 -273q0 -102 -39 -196t-109 -167t-177.5 -116.5t-235.5 -43.5h-123v-90h512l-37 -106h-475v-330h-154v330h-137zM387 639h209q143 0 227 99.5t84 256.5q0 74 -19.5 130 t-52.5 91t-82 56.5t-101 30t-117 8.5h-148v-672z" />
<glyph unicode="&#x2116;" horiz-adv-x="2103" d="M174 -10v1425h125l438 -624q211 -297 379 -566h10q-4 215 -4 758v432h125v-1425h-125l-465 651q-44 62 -164 238.5t-192 281.5h-10q1 -109 4.5 -308t3.5 -296v-567h-125zM1395 1077q0 165 91 268t220 103q132 0 203 -83t71 -241q0 -93 -36 -179t-108.5 -145t-164.5 -59 q-135 0 -205.5 89.5t-70.5 246.5zM1444 504v129h485v-129h-485zM1536 1114q0 -43 9 -89.5t28 -92.5t56 -75.5t85 -29.5q129 0 129 244q0 121 -51 206t-125 85q-131 0 -131 -248z" />
<glyph unicode="&#x2122;" horiz-adv-x="1366" d="M133 1366l2 80h570v-80q-81 14 -132 14h-106v-637h-94v637h-107q-31 0 -64.5 -3.5t-51.5 -6.5zM743 743l41 703h119l123 -301q27 -64 94 -254h8q29 78 101 254l121 301h116l39 -703h-96l-6 154q-3 71 -6 212.5t-6 219.5h-7q-77 -206 -122 -311l-82 -197h-117l-82 197 q-15 37 -117 311h-8q-12 -365 -16 -436l-6 -150h-91z" />
<glyph unicode="&#x2212;" horiz-adv-x="1085" d="M133 559v123h819v-123h-819z" />
<glyph unicode="&#x221a;" horiz-adv-x="1753" d="M55 1124l400 54l88 -1272l1300 1958l64 -35l-1426 -2177h-59l-107 1425l-252 -30z" />
<glyph unicode="&#x221e;" horiz-adv-x="1085" d="M33 596q0 137 71.5 224t198.5 87q84 0 133.5 -55t81.5 -168q137 132 206 177.5t153 45.5q186 0 186 -215q0 -136 -65.5 -233t-184.5 -97q-62 0 -122.5 53.5t-102.5 157.5q-137 -126 -204.5 -169.5t-141.5 -43.5q-37 0 -70.5 11t-66.5 35.5t-52.5 73t-19.5 116.5zM98 672 q0 -72 44 -118t106 -46q41 0 92 28t81 53.5t75 67.5q-77 75 -138 109.5t-143 34.5q-59 0 -88 -34.5t-29 -94.5zM610 600q147 -127 260 -127q64 0 96.5 34t32.5 93q0 75 -36.5 118.5t-102.5 43.5q-52 0 -104 -36t-146 -126z" />
<glyph unicode="&#x2248;" horiz-adv-x="1085" d="M100 430q70 91 144.5 137.5t142.5 46.5q47 0 86.5 -11.5t108.5 -51.5q49 -30 79 -42.5t64 -12.5q49 0 95.5 32.5t82.5 81.5l82 -84q-68 -80 -140.5 -127t-135.5 -47q-78 0 -179 62q-95 57 -170 57q-86 0 -172 -121zM100 725q70 91 144.5 137.5t142.5 46.5 q47 0 86.5 -11.5t108.5 -51.5q49 -30 79 -42.5t64 -12.5q49 0 95.5 32.5t82.5 81.5l82 -84q-68 -80 -140.5 -127t-135.5 -47q-78 0 -179 62q-95 57 -170 57q-86 0 -172 -121z" />
<glyph unicode="&#x2260;" horiz-adv-x="1085" d="M129 682v123h459l219 325l74 -51l-185 -274h273v-123h-357l-82 -123h441v-123h-525l-184 -276l-74 51l152 225h-209v123h291l84 123h-377z" />
<glyph unicode="&#x2264;" horiz-adv-x="1085" d="M242 0v135h604v-135h-604zM244 664v135l602 456v-157l-479 -355v-12l479 -360v-164z" />
<glyph unicode="&#x2265;" horiz-adv-x="1085" d="M242 0v135h604v-135h-604zM244 211v164l477 360v13l-477 354v158l602 -457v-133z" />
<glyph unicode="&#x25fc;" horiz-adv-x="1024" d="M0 0v1024h1024v-1024h-1024z" />
<glyph unicode="&#xf639;" horiz-adv-x="1239" d="M133 664q0 131 18.5 245.5t59.5 215t102.5 172t152.5 112.5t204 41q216 0 326 -176.5t110 -487.5q0 -119 -15.5 -229t-54.5 -218t-97.5 -186.5t-152 -127t-211.5 -48.5q-95 0 -171 37.5t-126 101t-83 152.5t-47.5 187t-14.5 209zM311 770q0 -112 7.5 -204t28.5 -185 t56 -156.5t94 -103t138 -39.5q95 0 162 77t99 204.5t32 291.5q0 691 -320 691q-94 0 -162.5 -78.5t-101.5 -207t-33 -290.5z" />
<glyph unicode="&#xf63a;" horiz-adv-x="983" d="M82 0v80q79 75 150 152t152 184t139 209.5t97 223t39 230.5q0 128 -62.5 188t-195.5 60q-141 0 -278 -92l-23 31q32 30 70.5 58.5t92.5 59.5t121.5 49.5t135.5 18.5q164 0 242 -83.5t78 -229.5q0 -125 -54 -266t-145 -272.5t-191.5 -244.5t-211.5 -213h643v-143h-799z " />
<glyph unicode="&#xf63b;" horiz-adv-x="980" d="M82 1266q8 8 22 20.5t58.5 44.5t90 56.5t111.5 44.5t128 20q65 0 119.5 -14t99 -44.5t69.5 -85t25 -128.5q0 -101 -62.5 -199t-187.5 -168q151 -33 232 -108.5t81 -210.5q0 -76 -27.5 -149.5t-85.5 -140.5t-140.5 -117t-201 -80t-257.5 -30l-4 37q149 8 272 60 t199.5 148.5t76.5 221.5q0 139 -99 203t-316 64h-95l25 104h270q69 49 113.5 128.5t44.5 172.5q0 104 -67 157.5t-183 53.5q-152 0 -289 -92z" />
<glyph unicode="&#xf63c;" horiz-adv-x="1062" d="M74 393v105l563 956h176l-625 -915h502v444l156 45v-489h176v-146h-176v-393h-156v393h-616z" />
<glyph unicode="&#xf63d;" horiz-adv-x="911" d="M92 14q151 5 276 69t194 164t69 212q0 157 -88 224t-256 67q-84 0 -168 -11l-25 23l58 670h608v-146h-516l-39 -407q84 8 160 8q204 0 319 -97.5t115 -265.5q0 -101 -39 -190t-106.5 -154t-156.5 -112t-192 -70t-209 -21z" />
<glyph unicode="&#xf63e;" horiz-adv-x="1105" d="M113 520q0 135 25.5 258t66 214t94.5 167t107 124.5t108 78.5q78 45 141 66t170 45l9 -31q-93 -29 -178 -76.5t-136 -93.5q-215 -198 -237 -516q68 75 166 123.5t219 48.5q88 0 157.5 -30t112 -81.5t64.5 -114.5t22 -133q0 -135 -41.5 -249.5t-109.5 -188t-151.5 -114 t-170.5 -40.5q-95 0 -171 30t-125 80.5t-82 121t-46.5 147.5t-13.5 164zM283 707q0 -312 78.5 -457.5t242.5 -145.5q69 0 120.5 31t79.5 84t41 114.5t13 131.5q0 96 -22.5 163.5t-65 104t-94 52.5t-119.5 16q-62 0 -139 -27t-135 -67z" />
<glyph unicode="&#xf63f;" horiz-adv-x="948" d="M82 1288v146h825v-64q-19 -28 -50 -78t-113.5 -206t-150 -312.5t-132.5 -376t-86 -417.5l-176 14q33 214 99 414t152.5 364.5t163 282t166.5 233.5h-698z" />
<glyph unicode="&#xf640;" horiz-adv-x="1105" d="M102 299q0 145 79.5 248.5t228.5 159.5q-158 88 -219.5 173t-61.5 201q0 167 120.5 270t330.5 103q51 0 98 -8.5t92.5 -29.5t79 -52.5t54 -81t20.5 -111.5q0 -138 -75 -234t-204 -142q154 -62 217 -104q140 -100 142 -259q0 -52 -17 -110.5t-57 -120.5t-97 -111.5 t-145 -81t-192 -31.5q-114 0 -201.5 35t-140 109t-52.5 178zM231 389q0 -133 94 -204.5t246 -71.5q126 0 205.5 59t79.5 166q0 29 -11 57t-26.5 50.5t-44.5 47.5t-53.5 42t-66 41t-68.5 37.5t-74 37.5l-74 39q-207 -96 -207 -301zM293 1130q0 -101 70 -174.5t253 -148.5 q99 59 147 138.5t48 166.5q0 118 -71 179t-195 61q-119 0 -185.5 -61t-66.5 -161z" />
<glyph unicode="&#xf641;" horiz-adv-x="1105" d="M82 877q0 136 38.5 247t104 182t150.5 109.5t180 38.5q103 0 180.5 -34.5t126 -92t78.5 -142.5t41.5 -175.5t11.5 -200.5q0 -126 -27 -247t-80 -230t-142.5 -191.5t-204.5 -120.5q-120 -40 -222 -43l-6 35q136 28 267 123q87 62 145 161.5t79 190t21 177.5 q-95 -77 -185 -112.5t-200 -35.5q-149 0 -252.5 94.5t-103.5 266.5zM248 981q0 -182 78 -264t231 -82q65 0 142.5 20.5t123.5 51.5q-6 620 -321 620q-120 0 -187 -99t-67 -247z" />
<glyph unicode="&#xf6d6;" horiz-adv-x="829" d="M61 1186q196 112 342 262l148 8v-1311h194v-145h-589v145h241v1102q-160 -55 -321 -90z" />
<glyph unicode="&#xf730;" horiz-adv-x="1202" d="M92 473q0 119 31.5 217t84.5 164t124.5 111t150 65.5t162.5 20.5q217 0 346 -140t129 -362q0 -113 -42 -218t-114 -183t-174 -124.5t-217 -46.5q-114 0 -207.5 41.5t-152 111.5t-90 158t-31.5 185zM262 516q0 -80 22 -150t65.5 -126.5t115.5 -89.5t164 -33 q143 0 232 106.5t89 280.5q0 104 -28.5 184.5t-78 128.5t-112 72t-135.5 24q-148 0 -241 -107t-93 -290z" />
<glyph unicode="&#xf731;" horiz-adv-x="768" d="M31 788q193 111 342 263l147 8v-914h205v-145h-631v145h273v723q-161 -72 -320 -116z" />
<glyph unicode="&#xf732;" horiz-adv-x="862" d="M61 0v80q66 49 116.5 89t118.5 99t117 113t94.5 115.5t69 124.5t23.5 122q0 97 -52.5 142t-156.5 45q-131 0 -250 -88l-26 30q75 77 176.5 133t218.5 56q138 0 205 -69t67 -175q0 -68 -19 -132.5t-57.5 -123.5t-84 -111.5t-111.5 -107.5t-126 -99t-140 -98h557v-145h-740 z" />
<glyph unicode="&#xf733;" horiz-adv-x="849" d="M39 -369q250 59 397.5 181.5t147.5 287.5q0 141 -77.5 195.5t-250.5 54.5h-135v117h266q70 47 115 122t45 152q0 104 -56.5 150.5t-168.5 46.5q-58 0 -129 -20.5t-125 -49.5l-21 37q7 6 19 16.5t53 37.5t84.5 47.5t110 37.5t132.5 17q134 0 208.5 -59t74.5 -183 q0 -99 -75 -194t-203 -160q88 -17 149.5 -49t95 -76t48 -91.5t14.5 -105.5q0 -90 -41.5 -174t-124.5 -158.5t-222.5 -132.5t-320.5 -88z" />
<glyph unicode="&#xf734;" horiz-adv-x="1052" d="M51 0v94l543 965h180l-606 -914h502v525l153 45v-570h176v-145h-176v-330h-153v330h-619z" />
<glyph unicode="&#xf735;" horiz-adv-x="919" d="M92 410l51 616h609v-145h-519l-28 -328q66 16 186 16q67 0 127 -11t117.5 -38t98.5 -68.5t66 -108t25 -150.5q0 -131 -56.5 -243.5t-150 -189t-207.5 -125.5t-237 -65l-8 41q258 73 373.5 200.5t115.5 313.5q0 150 -86 223.5t-243 73.5q-125 0 -217 -35z" />
<glyph unicode="&#xf736;" horiz-adv-x="1073" d="M92 494q0 151 35 283t93.5 224.5t122.5 156t134 102.5q79 45 140 65.5t167 44.5l11 -41q-93 -29 -177 -75.5t-135 -92.5q-99 -91 -154 -198.5t-67 -284.5q23 23 57 49t83.5 54.5t113.5 46.5t127 18q106 0 184 -48t116 -124.5t38 -169.5q0 -131 -38 -234.5t-102 -166 t-143.5 -94.5t-167.5 -32q-106 0 -190.5 42t-138 114t-81.5 164.5t-28 196.5zM262 631q0 -106 17 -197t53 -167t99.5 -119.5t148.5 -43.5q109 0 168 85t59 225q0 163 -68.5 234t-201.5 71q-136 0 -275 -88z" />
<glyph unicode="&#xf737;" horiz-adv-x="901" d="M41 877v147h819v-63q-8 -10 -22.5 -28.5t-57 -84t-83.5 -138t-94.5 -188.5t-97.5 -238t-85 -284.5t-64 -329.5l-178 21q134 666 551 1186h-688z" />
<glyph unicode="&#xf738;" horiz-adv-x="1064" d="M92 303q0 142 77 238.5t210 146.5q-132 58 -196 132.5t-64 178.5q0 164 124 268.5t316 104.5q64 0 121 -16t106 -49t78 -92t29 -136q0 -59 -19 -109t-56 -89t-75.5 -67t-91.5 -58q43 -19 72.5 -32.5t66 -34t61 -39t49.5 -45t39.5 -54.5t24 -64.5t9.5 -78.5 q0 -47 -14 -100.5t-49.5 -113.5t-87.5 -107.5t-137 -78.5t-189 -31q-78 0 -149.5 21t-129 61t-91.5 103t-34 141zM223 379q0 -88 49.5 -150t121.5 -89t157 -27q121 0 197.5 56.5t76.5 168.5q0 51 -20 92.5t-65 77t-101 64.5t-143 65l-78 33q-99 -57 -147 -133.5t-48 -157.5z M283 1071q0 -185 331 -297q172 108 172 273q0 107 -72.5 165t-195.5 58q-105 0 -170 -56t-65 -143z" />
<glyph unicode="&#xf739;" horiz-adv-x="1062" d="M82 549q0 124 38 223t101.5 160t143 93t167.5 32t161.5 -31t124 -83t86 -122t51.5 -147.5t16 -159.5q0 -145 -32.5 -270t-89 -216t-120.5 -156.5t-139 -113.5q-78 -50 -148.5 -73.5t-169.5 -40.5l-10 41q93 29 177.5 76.5t135.5 93.5q50 47 84.5 89t65.5 99t50 130 t26 165q-174 -150 -391 -150q-105 0 -181.5 52.5t-111.5 132.5t-35 176zM256 600q0 -153 70.5 -219t205.5 -66q144 0 269 64q0 123 -17 221.5t-51.5 173.5t-93 115.5t-137.5 40.5q-63 0 -112.5 -32.5t-77 -83.5t-42 -106t-14.5 -108z" />
<glyph unicode="&#xfb02;" horiz-adv-x="1095" d="M102 918v106h105v94q0 100 26.5 169t78.5 107.5t118.5 55t157.5 16.5q103 0 264 -30v-1117q0 -40 0.5 -62t3 -49t8 -40.5t15 -28.5t24.5 -21.5t35.5 -11t48.5 -4.5q21 0 72 15l16 -39q-111 -101 -225 -101q-152 0 -152 164v1155q-83 39 -182 39q-85 0 -120.5 -32.5 t-35.5 -120.5v-158h224v-106h-224v-918h-153v918h-105z" />
<glyph horiz-adv-x="614" />
<glyph horiz-adv-x="647" d="M0 1305l121 88q40 -48 104.5 -78.5t147.5 -30.5q140 0 260 78l14 -23q-64 -66 -158.5 -115.5t-207.5 -49.5q-105 0 -174.5 40t-106.5 91z" />
<glyph horiz-adv-x="0" />
<glyph horiz-adv-x="342" d="M0 1563l121 219h221l-256 -219h-86z" />
<glyph horiz-adv-x="512" d="M0 1642q0 111 90 111q86 0 86 -106q0 -51 -25 -77t-61 -26q-43 0 -66.5 21.5t-23.5 76.5zM334 1642q0 111 90 111q88 0 88 -106q0 -51 -25.5 -77t-62.5 -26q-90 0 -90 98z" />
<glyph horiz-adv-x="342" d="M0 1782h221l121 -219h-86z" />
<glyph horiz-adv-x="538" d="M0 1561q40 114 75.5 153t78.5 39q14 0 31.5 -3.5t28 -6.5t30 -10.5t22.5 -8.5l51 -18q67 -25 97 -25q59 0 84 86l41 -8q-49 -196 -150 -196q-17 0 -37 4t-30 7t-36 12.5t-30 10.5l-53 19q-58 20 -78 20q-28 0 -45.5 -17.5t-40.5 -68.5z" />
<glyph horiz-adv-x="528" d="M0 1589l229 223h80l219 -223l-30 -26l-234 127l-235 -129z" />
<glyph horiz-adv-x="528" d="M0 1786l29 29l237 -129l232 126l30 -26l-227 -223h-80z" />
<glyph horiz-adv-x="206" d="M0 -522q57 86 57 164q0 98 -47 151l164 78q33 -41 33 -102q0 -58 -49.5 -145.5t-149.5 -153.5z" />
<glyph horiz-adv-x="0" d="M-8 1524l121 219h221l-256 -219h-86zM236 1524l161 219h232l-305 -219h-88z" />
<glyph horiz-adv-x="0" />
</font>
</defs>
</svg>
