<?xml version="1.0" standalone="no"?>
<!DOCTYPE svg PUBLIC "-//W3C//DTD SVG 1.1//EN" "http://www.w3.org/Graphics/SVG/1.1/DTD/svg11.dtd" >
<svg xmlns="http://www.w3.org/2000/svg">
<metadata></metadata>
<defs>
<font id="als_klinkopisregular" horiz-adv-x="1228" >
<font-face units-per-em="2048" ascent="1536" descent="-512" />
<missing-glyph horiz-adv-x="409" />
<glyph unicode=" "  horiz-adv-x="409" />
<glyph unicode="&#x09;" horiz-adv-x="409" />
<glyph unicode="&#xa0;" horiz-adv-x="409" />
<glyph unicode="!" horiz-adv-x="868" d="M82 84q0 34 24 58t58 24q35 0 59.5 -24t24.5 -58q0 -35 -24.5 -59.5t-59.5 -24.5q-34 0 -58 24.5t-24 59.5zM274 412q0 10 9 28q106 277 149 404q134 416 184 606q14 53 29 69.5t37 16.5h70q34 0 34 -39q0 -75 -61 -268q-26 -83 -107 -268t-147 -308q-139 -260 -178 -260 q-19 0 -19 19z" />
<glyph unicode="&#x22;" horiz-adv-x="636" d="M102 977q0 16 9 64t26.5 132t22.5 107q6 29 17.5 40t33.5 11h45q13 0 23 -10.5t10 -22.5q0 -35 -29 -114q-29 -83 -69 -164.5t-68 -81.5q-21 0 -21 39zM348 977q0 16 9 64t26.5 132t22.5 107q6 29 17.5 40t33.5 11h45q13 0 23 -10.5t10 -22.5q0 -35 -29 -114 q-29 -83 -69 -164.5t-68 -81.5q-21 0 -21 39z" />
<glyph unicode="#" horiz-adv-x="1433" d="M55 387q0 45 142 64q45 7 217 14q66 155 131 313l4 13q-95 -3 -185.5 -12t-109.5 -9q-59 0 -59 27q0 24 40 37.5t125 25.5q67 7 224 14q81 196 192 396q29 52 79.5 114t74.5 62q16 0 16 -14q0 -6 -8 -21.5t-23.5 -43t-19.5 -34.5q-112 -213 -211 -454q62 2 150.5 3.5 t105.5 2.5q25 0 37 2q87 200 188 383q29 52 79.5 114t74.5 62q16 0 16 -14q0 -6 -8 -21.5t-23.5 -43t-19.5 -34.5q-114 -216 -205 -438q68 6 134 16t102 16.5t43 6.5q37 0 37 -21q0 -67 -351 -102l-16 -45q-92 -226 -117 -283q68 7 139 17.5t111 17t47 6.5q45 0 45 -20 q0 -34 -107 -61.5t-272 -43.5q-102 -227 -194 -370q-40 -65 -81.5 -115.5t-61.5 -50.5q-15 0 -17 12q0 13 4 21q104 172 246 495q-108 -6 -215 -6h-76q-92 -204 -188 -356q-40 -65 -82 -115.5t-62 -50.5q-14 0 -16 12q0 13 4 21q100 159 242 485q-92 -3 -168 -12t-94 -9 q-60 0 -60 27zM516 469q63 2 153 3.5t107 2.5q21 0 31 2q61 143 135 326q-101 -8 -223 -8h-70l-10 -29q-105 -255 -123 -297z" />
<glyph unicode="$" d="M-205 -662q0 11 17 17q57 19 94 39q155 88 293 244q57 65 113.5 167t86.5 189q-128 29 -239 156q-8 12 -8 20q0 16 18 16q9 0 25 -16q137 -127 297 -127q125 0 204.5 83.5t79.5 213.5q0 69 -24 145t-59 145.5t-69.5 139t-58.5 147.5t-24 150q0 131 91 226.5t249 95.5 q37 69 118 170q25 30 69 72t56 42q17 0 17 -14q0 -8 -27 -38.5t-72 -96t-79 -146.5q56 -14 112 -63q25 -25 25 -35q0 -16 -13 -16q-10 0 -22 8q-74 61 -154 61q-93 0 -145.5 -59t-52.5 -156q0 -61 24.5 -133.5t59.5 -142t70.5 -141.5t60 -154.5t24.5 -157.5 q0 -169 -123.5 -288t-300.5 -119q-110 -226 -260 -383q-64 -68 -154 -134t-182 -106q-74 -33 -116 -33q-21 0 -21 12zM303 305q0 24 13.5 38.5t35.5 14.5q25 0 39.5 -14t14.5 -39q0 -22 -14.5 -35.5t-39.5 -13.5q-22 0 -35.5 13.5t-13.5 35.5z" />
<glyph unicode="%" horiz-adv-x="1286" d="M61 -33q0 9 9 21q73 76 160.5 183t138.5 175.5t149 203t119 163.5q124 167 201 265t180 214q33 38 99 96t91 58q17 0 17 -17q0 -6 -16 -24t-40 -42t-32 -34q-35 -41 -71 -85.5t-61.5 -76t-68.5 -89.5t-62 -84t-75.5 -103.5t-77.5 -106.5q-289 -398 -473 -596 q-48 -52 -98.5 -92.5t-71.5 -40.5q-17 0 -17 12zM238 1130q0 73 75.5 137t190.5 64q71 0 126.5 -46t55.5 -132q0 -94 -76 -154.5t-176 -60.5q-83 0 -139.5 50.5t-56.5 141.5zM356 1116q0 -64 18 -101.5t66 -37.5q52 0 89.5 62t37.5 141q0 50 -19.5 81t-58.5 31 q-45 0 -89 -58.5t-44 -117.5zM641 186q0 87 65 147t181 60q81 -2 142 -49.5t61 -128.5q0 -92 -76.5 -153.5t-175.5 -61.5q-92 0 -144.5 51.5t-52.5 134.5zM760 162q0 -123 76 -123q56 0 95.5 56t39.5 147q0 50 -19.5 81t-58.5 31q-58 0 -95.5 -59t-37.5 -133z" />
<glyph unicode="&#x26;" horiz-adv-x="1155" d="M102 348q0 149 107.5 278t341.5 267q0 51 7 105t26.5 116t49 109t79.5 78.5t114 31.5q60 0 95.5 -42.5t35.5 -102.5q0 -50 -21.5 -93.5t-66.5 -83.5t-81.5 -65t-98.5 -63q40 -304 176 -619q41 36 95 119q10 16 22 16q14 0 14 -22q0 -25 -29.5 -74t-76.5 -98 q165 -379 436.5 -711t593.5 -526q84 -51 156 -83t192 -77q12 -5 12 -18q0 -8 -5.5 -13.5t-14.5 -5.5q-30 0 -82.5 12.5t-95.5 30.5q-430 173 -770 504q-166 163 -315 364.5t-244 407.5q-60 -45 -118.5 -68.5t-93 -27.5t-83.5 -4q-151 0 -254 96t-103 262zM287 326 q0 -126 56 -201.5t157 -75.5q118 0 227 94q-68 148 -119 322.5t-55 339.5q-92 -66 -154.5 -156t-87 -170t-24.5 -153zM670 1083q0 -83 10 -129q211 103 211 236q0 37 -21 63.5t-55 26.5q-68 0 -106.5 -60.5t-38.5 -136.5zM1942 -801q0 24 13.5 38.5t35.5 14.5q25 0 39 -14 t14 -39q0 -22 -14.5 -35.5t-38.5 -13.5q-22 0 -35.5 13.5t-13.5 35.5z" />
<glyph unicode="'" horiz-adv-x="380" d="M123 653q0 25 57 310q6 29 17.5 40t33.5 11h56q13 0 22.5 -10.5t9.5 -22.5q0 -44 -28 -121q-25 -72 -72 -159t-76 -87q-20 0 -20 39z" />
<glyph unicode="(" horiz-adv-x="872" d="M102 -53q0 83 11 196t26 187q51 250 144 472.5t219.5 408t268 337.5t314.5 295q24 19 37 19q7 0 12 -5.5t5 -13.5q0 -3 -3 -7.5t-8 -9.5t-6 -7q-67 -72 -158 -185t-149 -200q-172 -258 -319 -580t-224 -647q-37 -160 -56 -281.5t-32 -306.5q-4 -27 -20 -27t-23 21 q-39 110 -39 334z" />
<glyph unicode=")" horiz-adv-x="1013" d="M41 -336q0 3 4.5 12.5t7.5 12.5q229 257 377.5 539t249.5 620q38 130 62 309t24 254q0 203 -37 358q-20 90 -20 109q0 14 12 14q15 0 22 -14q77 -118 122.5 -293t45.5 -323q0 -536 -317 -1043q-209 -334 -512 -567q-16 -8 -25 -8q-16 0 -16 20z" />
<glyph unicode="*" horiz-adv-x="786" d="M123 1102q0 8 16 24q87 67 205 107q-55 58 -105.5 130t-50.5 99q0 10 5.5 17.5t15.5 7.5q7 0 27 -25q5 -6 28 -33t33.5 -39t29.5 -33t35 -35.5t31 -25.5q60 153 115 230q21 28 37 28q12 0 12 -14t-16 -53q-49 -104 -74 -207q50 11 117 39q37 15 66.5 30t41 21t17.5 6 q12 0 12 -14q0 -18 -66 -66q-56 -42 -178 -84q42 -46 158 -120q37 -21 37 -33q0 -6 -4.5 -10.5t-10.5 -4.5q-46 0 -110 31.5t-123 75.5q-19 -56 -59.5 -130.5t-79.5 -117.5q-33 -37 -52 -37q-12 0 -12 17q0 6 9.5 21.5t26.5 43.5t30 56q50 106 65 159q-61 -15 -109.5 -34.5 t-72 -30.5t-33.5 -11q-14 0 -14 15z" />
<glyph unicode="+" horiz-adv-x="950" d="M61 629q0 6 8.5 11t18.5 5q20 0 62 -7t63 -9q79 -9 209 -13q17 72 57 195q15 47 61 127t81 80q14 0 14 -17q-1 -10 -9 -32.5t-19.5 -49t-14.5 -36.5q-46 -122 -70 -267q57 0 92 2q62 2 144 16.5t88 14.5q43 0 43 -18q0 -78 -324 -99l-61 -4l-33 -120q-23 -113 -43 -174.5 t-33.5 -79t-29.5 -17.5q-17 0 -17 39q0 44 6 90l19 113q2 12 30 151q-108 3 -208 23q-79 15 -105 30t-29 46z" />
<glyph unicode="," horiz-adv-x="532" d="M41 -303q0 10 14 16q61 25 103 58q52 40 89.5 97.5t49.5 115.5q-41 3 -62.5 26t-21.5 58q0 34 25 58t61 24q45 0 67.5 -33t22.5 -74q0 -94 -71 -185t-160 -141q-21 -11 -53.5 -21.5t-43.5 -10.5q-20 0 -20 12z" />
<glyph unicode="-" horiz-adv-x="616" d="M61 309q0 29 62 69t141 40q32 0 84 -12.5t72 -12.5q65 0 104 25q12 8 19 8q12 0 12 -12q0 -13 -8 -21q-65 -78 -164 -78q-29 0 -87 10.5t-75 10.5q-44 0 -86 -14q-7 -3 -21.5 -9.5t-25 -11t-14.5 -4.5q-5 0 -9 4t-4 8z" />
<glyph unicode="." horiz-adv-x="329" d="M61 84q0 34 24 58t58 24q35 0 59.5 -24t24.5 -58q0 -35 -24.5 -59.5t-59.5 -24.5q-34 0 -58 24.5t-24 59.5z" />
<glyph unicode="/" horiz-adv-x="1304" d="M102 -33q0 9 9 21q40 43 82.5 94t91.5 117.5t83 112.5t90.5 129.5t77 113.5t80 120.5t64.5 98.5q102 153 168 244t153 194q36 44 97 94t88 50q16 0 16 -17q0 -6 -11 -19t-30.5 -33.5t-27.5 -29.5q-86 -106 -159.5 -210t-201.5 -302q-297 -461 -483 -657 q-48 -52 -98.5 -92.5t-71.5 -40.5q-17 0 -17 12z" />
<glyph unicode="0" d="M162 281q0 115 34.5 240.5t94.5 241.5t145 221t181 182.5t208 123t222 45.5q264 0 264 -282q0 -99 -34.5 -216.5t-94 -234t-145.5 -225.5t-184 -192.5t-216 -134t-234 -50.5q-120 0 -180.5 76.5t-60.5 204.5zM301 223q-3 -164 109 -164q89 0 198 77t207.5 200t182 265 t133 285t49.5 247q0 75 -36 113t-97 38q-79 0 -169 -57t-170 -149t-155 -208t-129.5 -233.5t-88 -227t-34.5 -186.5z" />
<glyph unicode="1" d="M92 -41q-12 35 29 53q150 51 317 76q65 165 223 520.5t191 435.5q-64 -61 -236 -147q-42 -22 -101 -46t-77 -24q-43 0 -43 19q0 24 56 47q244 93 522 311q11 9 54.5 47t72.5 59t43 21q22 0 22 -16q0 -7 -11.5 -27.5t-43.5 -76t-63 -113.5q-78 -143 -210.5 -468 t-213.5 -552q85 -7 141 -25q18 -9 18 -18q0 -51 -61 -37q-76 25 -242 25q-70 0 -146 -21t-132 -42t-76 -21q-29 0 -33 20z" />
<glyph unicode="2" d="M106 25q0 39 91 153q62 79 169.5 170.5t203 167t186.5 162.5t145.5 190t54.5 215q0 76 -41.5 131.5t-113.5 55.5q-107 0 -187 -72q-13 -11 -32 -35.5t-33 -40.5t-23 -16q-5 0 -10.5 5t-5.5 13q0 14 18 43q41 63 104 102t110.5 49.5t93.5 10.5q142 0 223.5 -78t81.5 -213 q0 -71 -34 -140t-92.5 -130t-130.5 -119.5t-156 -116t-160.5 -110.5t-151.5 -114t-123 -115q114 30 194 30q70 0 139.5 -28t159.5 -107q57 -51 109 -51q28 0 58.5 9t35.5 9q23 0 23 -16q0 -22 -52 -37.5t-86 -15.5q-83 0 -155 23.5t-139 47t-136 23.5t-135.5 -20t-112 -40 t-63.5 -20q-27 0 -27 25z" />
<glyph unicode="3" d="M70 106q0 15 16 15q4 -2 6 -2q89 -72 209 -72q112 0 223.5 63t182.5 185q88 147 88 346q0 47 -10 90.5t-33 84t-66.5 65t-103.5 24.5q-44 0 -91.5 -16.5t-50.5 -16.5q-18 0 -18 13q0 4 4 12q2 2 102 53q44 23 72.5 40.5t63.5 47t53 67t18 81.5q0 31 -24.5 58.5 t-59.5 27.5q-36 0 -80 -23q-21 -11 -41.5 -29t-32.5 -29t-18 -11q-7 0 -8.5 3t-1.5 15q0 9 16.5 29.5t43.5 43.5t71 40.5t90 17.5q81 0 128.5 -42.5t47.5 -106.5q0 -45 -25.5 -83.5t-67 -64t-79.5 -41.5t-78 -26q29 0 61.5 -5.5t76 -18.5t82 -40t72 -64.5t53.5 -98 t20 -134.5q0 -145 -106.5 -292.5t-272.5 -239.5q-135 -72 -287 -72q-52 0 -124.5 23t-116.5 67q-4 8 -4 16z" />
<glyph unicode="4" d="M88 328q0 12 14 22q86 60 162 131t185 187q96 102 215 253t206 302q52 90 88 173t48.5 111.5t25.5 28.5q17 0 17 -20q0 -52 -91.5 -250t-183.5 -344q-229 -361 -414 -560q83 0 188.5 14t160.5 32q76 168 120 254q17 47 64 47h51q47 0 47 -27q0 -7 -8 -31 q-89 -194 -174 -422q-13 -35 -28 -80t-22.5 -66.5t-17.5 -44t-19.5 -30.5t-21.5 -8h-94q-14 0 -22.5 8t-8.5 21q0 60 113 321q-95 -21 -267 -37t-253 -16q-80 0 -80 31z" />
<glyph unicode="5" d="M78 184q2 13 18 13q1 0 2 -0.5t2.5 -1.5t2.5 -2.5t2 -4t2 -4.5t3 -5.5t3 -6.5q19 -41 49.5 -69.5t62.5 -41t55.5 -17.5t41.5 -5q77 0 149 35t125.5 91t98.5 124.5t73 138t43.5 129t15.5 98.5q0 100 -36 154.5t-123 54.5q-51 0 -101.5 -17.5t-81 -38.5t-56.5 -38.5 t-34 -17.5q-23 0 -4 39q7 13 80 133q62 104 199 376q11 22 20.5 30.5t26.5 8.5q5 0 98.5 -21.5t161.5 -21.5q75 0 129 13q14 3 32.5 9t30.5 9.5t17 3.5q20 0 20 -20t-71 -49q-82 -37 -209 -37q-67 0 -129 10q-59 -139 -166 -332q54 12 84 12q135 0 205.5 -85t70.5 -224 q0 -123 -53 -237.5t-139 -197t-200 -132t-232 -49.5q-94 0 -165.5 35t-101.5 90q-22 42 -22 69z" />
<glyph unicode="6" d="M174 422q0 112 36.5 237.5t106.5 244t163 214.5t216.5 154.5t255.5 58.5q46 0 88.5 -13t64 -28t21.5 -26q0 -21 -26 -21q-6 0 -49.5 16.5t-75.5 16.5q-83 0 -173 -52t-171.5 -143.5t-151.5 -226t-112 -289.5q55 74 146 120t177 46q145 0 233.5 -84.5t88.5 -226.5 q0 -74 -29 -141.5t-78 -117t-110.5 -87t-128 -56t-129.5 -18.5q-177 0 -270 111.5t-93 310.5zM338 293q0 -106 52 -176t147 -70q86 0 152.5 55t100 142.5t33.5 189.5q0 39 -8.5 76.5t-27 74t-55 59t-85.5 22.5q-124 0 -216.5 -112.5t-92.5 -260.5z" />
<glyph unicode="7" d="M256 387q0 18 22.5 31.5t56.5 20.5t66 10.5t58 3.5q172 360 504 749q-36 -4 -56 -4q-58 0 -115.5 20.5t-102.5 41t-73 20.5q-32 0 -61 -16q-36 -21 -78 -68q-4 -4 -14 -16.5t-18 -19.5t-15 -7q-12 0 -12 16q0 33 45.5 88t87.5 74q44 21 84 21q26 0 65.5 -12t102.5 -23.5 t145 -11.5q74 0 160 15t96 15t17.5 -5t7.5 -13q0 -7 -2.5 -13.5t-8.5 -15t-9.5 -13t-13 -14.5t-11.5 -12q-76 -83 -189 -220.5t-153 -201.5q-138 -217 -230 -399q45 -10 66 -10q36 0 76 16q10 4 23.5 11.5t22 11.5t13.5 4q21 0 21 -19q0 -8 -9.5 -20.5t-17.5 -18.5 q-24 -20 -66.5 -34.5t-81.5 -14.5q-25 0 -73 8q-98 -212 -135 -323q-7 -22 -16 -30.5t-32 -8.5h-96q-24 0 -24 25q0 41 52 166t91 198q-55 0 -97.5 -11t-47.5 -11q-25 0 -25 20z" />
<glyph unicode="8" d="M127 319q0 83 41 166.5t103 149t147 128t160 105.5t155 80q-30 58 -43.5 98t-13.5 84q0 87 61 144t174 57q38 0 73.5 -11.5t65 -44.5t29.5 -81q0 -37 -14 -70t-32.5 -55t-50 -45t-52.5 -34t-55 -28l-44 -22q170 -210 170 -448q0 -129 -69 -242t-189 -181.5t-260 -68.5 q-98 0 -176 31.5t-129 105.5t-51 182zM281 264q-2 -70 30.5 -122.5t80.5 -76.5t102 -24q73 0 133 40t98 102t64.5 139.5t37.5 149t11 134.5q0 54 -18.5 149t-55.5 146q-141 -66 -252.5 -178.5t-169.5 -232.5t-61 -226zM770 1118q0 -41 37 -131q77 32 129.5 92t52.5 133 q0 34 -23.5 56t-52.5 22q-68 0 -105.5 -49.5t-37.5 -122.5z" />
<glyph unicode="9" d="M186 16q0 14 13 17q85 22 170 92q108 89 196 217q68 99 129.5 225.5t79.5 231.5q-61 -68 -142.5 -96.5t-148.5 -28.5q-99 0 -157 72t-58 165q0 118 68.5 216t177.5 151t231 53q111 0 180.5 -81t69.5 -197q0 -446 -434 -856q-72 -67 -191.5 -132t-166.5 -65q-7 0 -12 5 t-5 11zM422 866q0 -58 25.5 -97.5t80.5 -39.5q75 0 141 42.5t107 107t64.5 135.5t23.5 133q0 72 -32 107.5t-84 35.5q-87 0 -164.5 -69t-119.5 -166t-42 -189z" />
<glyph unicode=":" horiz-adv-x="495" d="M123 68q0 34 24 58t58 24q35 0 59.5 -24t24.5 -58q0 -35 -24.5 -59.5t-59.5 -24.5q-34 0 -58 24.5t-24 59.5zM207 453q0 34 24 58t58 24q35 0 59.5 -24t24.5 -58q0 -35 -24.5 -59.5t-59.5 -24.5q-34 0 -58 24.5t-24 59.5z" />
<glyph unicode=";" horiz-adv-x="514" d="M41 -283q0 11 14 17q63 26 103 57q97 75 121 193q-41 3 -62.5 26t-21.5 58q0 34 25 58t61 24q42 0 66 -32.5t24 -74.5q0 -92 -62.5 -174t-150.5 -131q-21 -11 -53.5 -22t-43.5 -11q-20 0 -20 12zM266 453q0 34 24 58t58 24q35 0 59.5 -24t24.5 -58q0 -35 -24.5 -59.5 t-59.5 -24.5q-34 0 -58 24.5t-24 59.5z" />
<glyph unicode="&#x3c;" horiz-adv-x="968" d="M143 512q0 20 25 33q190 90 246 123q142 84 268 174q29 21 59 46t44 35.5t22 10.5q18 0 18 -21q0 -29 -75 -104q-79 -79 -192.5 -156.5t-221.5 -132.5q52 -21 130.5 -77.5t139.5 -110.5q92 -79 113 -107q16 -20 16 -35q0 -16 -20 -16q-16 0 -38.5 13t-80.5 52.5 t-109 71.5q-123 77 -317 166q-27 12 -27 35z" />
<glyph unicode="=" horiz-adv-x="983" d="M61 469q0 26 38.5 41.5t107.5 15.5q59 0 183.5 -3t197.5 -3q70 0 169 13.5t101 13.5q17 0 28 -7t11 -18q0 -43 -123 -67.5t-260 -24.5q-65 0 -202.5 5t-211.5 5q-39 0 -39 29zM90 729q0 23 24.5 35.5t82.5 21.5q62 10 206 17q58 2 144 2.5t100 1.5q61 3 142 15t90 12 q43 0 43 -19q0 -45 -126.5 -71.5t-310.5 -26.5q-132 0 -240 -7.5t-112 -7.5q-43 0 -43 27z" />
<glyph unicode="&#x3e;" horiz-adv-x="976" d="M143 193q0 5 3 11.5t8.5 14.5t11.5 15.5t15 17t15.5 15.5t16.5 16l14 14q79 79 192.5 156.5t221.5 132.5q-78 31 -258 188q-67 58 -104 107q-13 16 -13 34q0 17 25 17q15 0 38 -16.5t74 -57t107 -76.5q148 -96 297 -164q27 -12 27 -34q0 -20 -25 -33q-197 -94 -246 -121 q-169 -96 -268 -166q-26 -18 -60.5 -45t-49.5 -37t-23 -10q-19 0 -19 21z" />
<glyph unicode="?" horiz-adv-x="1130" d="M82 74q0 34 24 58t58 24q35 0 59.5 -24t24.5 -58q0 -35 -24.5 -59.5t-59.5 -24.5q-34 0 -58 24.5t-24 59.5zM242 416q0 24 47 106.5t102 155.5q35 48 188.5 238t204.5 284q66 119 66 219q0 63 -44 106.5t-110 43.5q-78 0 -147 -44t-113 -143q-9 -22 -26 -22q-7 0 -12 9.5 t-5 21.5q0 31 22.5 73.5t61 84.5t101 71t131.5 29q56 0 108.5 -18.5t95.5 -53t69 -91t26 -126.5q0 -82 -30 -155t-93 -146.5t-129.5 -136.5t-172.5 -165t-188 -194q-42 -47 -73.5 -92.5t-43 -61.5t-22.5 -16q-14 0 -14 23z" />
<glyph unicode="@" horiz-adv-x="1400" d="M102 252q0 105 37.5 200.5t103 167.5t151 125.5t184 81t198.5 27.5q243 0 382.5 -132.5t139.5 -342.5q0 -57 -20 -123t-56 -126t-93.5 -100t-124.5 -40q-87 0 -139.5 53t-65.5 135q-18 -65 -73.5 -121.5t-131.5 -56.5q-71 0 -114.5 61t-43.5 138q0 128 84.5 225.5 t204.5 97.5q74 0 106 -82q15 38 31 64q12 16 43 16h62q15 0 21.5 -3.5t6.5 -14.5q0 -3 -17.5 -56t-34.5 -134.5t-17 -153.5q0 -125 78 -125q61 0 106.5 58t65.5 134.5t20 153.5q0 195 -116 315.5t-304 120.5q-111 0 -211 -49t-169 -128t-109.5 -180t-40.5 -204 q0 -225 131.5 -361.5t347.5 -136.5q25 0 70 7.5t47 7.5q16 0 16 -11q0 -19 -59 -34q-70 -19 -137 -19q-88 0 -168.5 20.5t-152.5 64t-124.5 106.5t-83.5 154t-31 200zM571 197q0 -61 20 -92t54 -31q44 0 84.5 51t62 117t21.5 118q0 50 -18 80.5t-47 30.5q-67 0 -122 -89 t-55 -185z" />
<glyph unicode="A" horiz-adv-x="1894" d="M20 215q0 18 15 18q6 0 22 -13.5t40 -36.5t36 -33q141 -111 354 -111q222 0 426 151q85 62 159.5 135.5t117.5 127.5q-74 7 -154 36q-46 17 -72 35.5t-26 32.5t14 14q7 0 19 -6t31.5 -15t39.5 -15q106 -33 187 -33q55 61 125 155q207 282 325 464.5t232 387.5 q16 27 39 27h84q9 0 16.5 -5.5t7.5 -14.5t-41 -144q-23 -75 -107 -339.5t-130 -416.5q-22 -74 -44.5 -157.5t-35.5 -135.5t-37 -150t-33 -136q-5 -20 -13 -28.5t-24 -8.5h-104q-21 0 -30 11t-9 24q0 21 35 153q49 170 80 267q-93 -13 -185 -13q-54 0 -114 7q-3 -3 -42 -50.5 t-94 -105.5t-122 -115q-237 -203 -519 -203q-135 0 -233.5 40.5t-185.5 125.5q-13 13 -31.5 37t-18.5 37zM1305 496q39 -4 90 -4q114 0 184 18q126 377 297 846q-138 -248 -265 -440t-306 -420z" />
<glyph unicode="B" horiz-adv-x="1769" d="M20 -281q0 16 31 21q3 0 24.5 3t36 5.5t42.5 9t51 15.5t53 24t57 35q158 113 279 318q133 227 250 548q61 165 128.5 408.5t88.5 378.5q-72 -19 -156 -70q-21 -13 -44 -30.5t-36 -27t-18 -9.5q-16 0 -16 12q0 8 14.5 26t25.5 27q197 164 457 164q71 0 132.5 -24.5 t103 -78t41.5 -126.5q0 -91 -88 -162t-213 -82q71 -9 160.5 -53t162.5 -121q129 -135 129 -369q0 -109 -47 -213.5t-128 -185t-199 -129.5t-252 -49q-143 0 -244 53q-41 20 -41 39q0 12 12 12q6 0 19.5 -5.5t32 -13.5t30.5 -12q59 -20 143 -20q213 0 348.5 159.5 t135.5 403.5q0 211 -114 345.5t-288 139.5q-21 -90 -52 -192t-83 -241t-131.5 -289.5t-173.5 -280.5q-70 -97 -180.5 -190t-224.5 -140q-122 -49 -228 -49q-31 0 -31 16zM1137 1130q125 0 202.5 70.5t77.5 161.5q0 76 -35 119t-108 43q-23 0 -47 -4q-86 -374 -90 -390z" />
<glyph unicode="C" horiz-adv-x="1351" d="M410 592q0 232 125.5 460t338.5 373q211 144 445 144q46 0 106 -17.5t99 -56.5q51 -51 51 -76q0 -20 -16 -20q-5 0 -16.5 13.5t-33.5 34.5t-49 34q-64 30 -143 30q-329 0 -574 -436q-67 -120 -105 -265t-38 -271q0 -235 99 -368.5t259 -133.5q51 0 98.5 12t84.5 32.5 t61.5 37.5t49 38.5t26.5 22.5q9 6 16 6q11 0 11 -16q0 -14 -20.5 -40.5t-55.5 -53.5q-57 -44 -125.5 -70t-173.5 -26q-106 0 -194 35t-147.5 93.5t-100.5 138t-59.5 166t-18.5 179.5z" />
<glyph unicode="D" horiz-adv-x="1880" d="M246 1090q0 39 85.5 132.5t172.5 151.5q259 170 565 170q58 0 105 -8q33 99 71 319q4 13 15 13q6 0 12.5 -7t7.5 -16q6 -30 6 -84q0 -28 -6.5 -106.5t-15.5 -134.5q112 -30 213 -94.5t183 -158t130.5 -224.5t48.5 -279q0 -111 -31 -222.5t-93 -211.5t-146 -177.5 t-199.5 -123t-245.5 -45.5q-62 0 -188.5 23t-165.5 24q-115 0 -221 -43q-44 -18 -87 -46t-67.5 -45.5t-34.5 -17.5q-22 0 -22 23q0 24 49 90q242 319 458 744t302 714q-59 16 -146 16q-230 0 -452 -139q-57 -36 -106 -76.5t-78 -72t-50.5 -57.5t-34.5 -40t-20 -14 q-14 0 -14 23zM635 78q74 14 168 14q34 0 145 -16.5t144 -16.5q99 0 187 42t152 113.5t110.5 163t69.5 193t23 201.5q0 104 -22 202t-66.5 188t-120.5 158t-176 99q-35 -169 -117.5 -386.5t-174.5 -404.5t-180 -337t-142 -213z" />
<glyph unicode="E" horiz-adv-x="1392" d="M246 489q0 182 90.5 323t255 219.5t377.5 82.5q-154 81 -154 227q0 71 43 125.5t105.5 80.5t130.5 26q107 0 184 -62q11 -10 23 -27.5t12 -27.5q0 -18 -17 -18q-7 0 -15 7t-22.5 20.5t-31.5 23.5q-29 16 -92 16q-69 0 -117.5 -48t-48.5 -136q0 -131 123 -199 q12 -7 77 -39q8 -4 11 -6t6.5 -6.5t3.5 -11.5q0 -21 -25 -21q-12 0 -24 4q-74 17 -123 17q-118 0 -223 -46t-182 -126.5t-122 -195t-45 -245.5q0 -83 25.5 -156t75 -130t128.5 -90t179 -33q74 0 159 35.5t152 93.5q64 57 140 149q3 4 8.5 10t8 9t6 6t7 4.5t6.5 1.5 q11 0 11 -12q0 -9 -6 -21q-51 -93 -121 -163t-144 -109t-145.5 -57.5t-140.5 -18.5q-251 0 -400 141.5t-149 382.5z" />
<glyph unicode="F" horiz-adv-x="1083" d="M123 -195q0 11 35 19q75 15 154.5 77.5t140.5 151.5q157 226 288 668q69 235 187 749q-61 9 -101 9q-130 0 -241 -29q-68 -18 -130 -51t-116 -82t-86.5 -118.5t-32.5 -149.5q0 -107 55 -177q4 -6 12.5 -15t13.5 -15.5t5 -10.5q0 -10 -16 -10q-10 0 -29.5 15.5t-34.5 35.5 q-63 82 -63 193q0 90 39.5 170.5t105.5 138.5t148 98t170 56q117 20 198 20q62 0 270.5 -25.5t276.5 -25.5q77 0 145.5 7.5t112 18t75.5 21t50.5 18t22.5 7.5q22 0 22 -19q0 -7 -31 -24.5t-80 -34.5t-90 -23q-14 -2 -43.5 -6.5t-41.5 -6t-34.5 -4.5t-37.5 -4t-36 -2t-42 -1 q-119 0 -260 16q-68 -334 -125 -528q68 4 134.5 16t105 22.5t43.5 10.5q24 0 24 -14q0 -15 -16 -23q-121 -50 -305 -74q-40 -133 -109 -305q-50 -125 -149.5 -301t-188.5 -270q-190 -203 -354 -203q-41 0 -41 14z" />
<glyph unicode="G" horiz-adv-x="1654" d="M410 618q0 112 32.5 226t90.5 217t143 193t185 156t221.5 104t248.5 38q235 0 340 -131q8 -8 8 -20t-12 -12q-6 0 -30.5 16.5t-56.5 35.5t-90 35.5t-122 16.5q-138 0 -263 -58.5t-216.5 -156t-159 -221t-101.5 -256.5t-34 -260q0 -234 92 -372t246 -138q77 0 144 29 t115.5 76.5t87 112t62.5 130.5t39 137q-36 4 -92 22.5t-98 18.5q-46 0 -91 -16.5t-46 -16.5q-21 0 -21 15q0 13 41 36q48 29 127 29q37 0 118.5 -14.5t119.5 -14.5q23 0 63.5 5.5t44.5 5.5q21 0 21 -27q0 -36 -28 -111t-62 -131q-93 -149 -235.5 -241t-313.5 -92 q-126 0 -225.5 49t-163 135t-96.5 200.5t-33 249.5z" />
<glyph unicode="H" horiz-adv-x="1370" d="M82 53q0 15 16 15q4 0 16.5 -8t35 -15.5t49.5 -7.5q51 0 96.5 26t82.5 73.5t62.5 92.5t51.5 103q162 357 335 1151q-51 6 -169 31.5t-189 25.5q-101 0 -213 -33q-22 -6 -54.5 -21t-56.5 -26.5t-30 -11.5q-17 0 -17 14q0 12 17 23q66 56 177 81t193 25q75 0 192 -21.5 t177 -21.5q31 0 60 3t47.5 5.5t21.5 2.5q18 0 18 -19q0 -56 -38 -231q-41 -196 -101 -396q58 -4 70 -4q31 0 105 9t116 20q74 242 115 332q71 162 146.5 250t162.5 141q26 17 61 29t48 12q4 0 8 -4t4 -8q0 -6 -20.5 -21t-53.5 -42.5t-57 -59.5q-75 -100 -142 -267 q-64 -161 -105.5 -347.5t-98.5 -520.5q-17 -99 -29.5 -191t-18.5 -139t-10 -63q-9 -39 -39 -39h-106q-14 0 -24.5 8.5t-10.5 22.5q0 70 47.5 339.5t112.5 503.5q-113 -22 -209 -22q-53 0 -84 4q-21 -71 -51.5 -161t-88 -226.5t-110.5 -224.5q-56 -92 -136.5 -157.5 t-168.5 -88.5q-36 -8 -72 -8q-16 0 -48.5 6.5t-43.5 11.5q-16 6 -32.5 20.5t-16.5 24.5z" />
<glyph unicode="I" horiz-adv-x="770" d="M164 -23q0 13 14 19q50 19 72 37q50 41 101.5 168t98 297.5t91 347t98 353.5t102.5 280q-41 10 -86 10q-41 0 -95 -12.5t-56 -12.5q-21 0 -21 11q0 9 21 22q71 39 164 39q18 0 58 -1t56 -1q32 0 81 8t50 8q21 0 21 -14q0 -9 -4 -19t-20 -39t-29 -55q-50 -98 -112.5 -311 t-112 -415t-110 -399.5t-108.5 -274.5q32 -7 66 -7q32 0 71 13q25 10 39 11q13 0 13 -11q0 -27 -56 -41.5t-104 -14.5q-25 0 -81 1t-69 1q-28 0 -77 -7.5t-56 -8.5q-20 3 -20 18z" />
<glyph unicode="J" horiz-adv-x="1257" d="M20 -500q0 13 19 13q7 0 43 -4.5t70 -4.5q177 0 354 177q217 213 389 706q111 321 195 830q21 126 30 241q-61 0 -181.5 25.5t-143.5 25.5q-45 0 -86 -9.5t-58.5 -17t-46.5 -22.5q-24 -12 -37 -12q-12 0 -12 10q0 23 49 53q82 56 211 56q42 0 150 -19.5t155 -19.5 q34 0 98 8t74 8q27 0 27 -37q0 -21 -11.5 -134.5t-17.5 -147.5q-45 -238 -87 -403t-113 -382q-71 -215 -188.5 -414t-235.5 -317q-131 -131 -255.5 -191.5t-254.5 -60.5q-44 0 -90 11t-46 32z" />
<glyph unicode="K" horiz-adv-x="1824" d="M82 86q0 18 14 18q4 0 14 -7.5t25.5 -19.5t30.5 -20q46 -24 92 -24q81 0 146 57.5t110 138.5q82 146 150 304.5t119.5 323t85.5 292t73 293.5q-40 4 -148 23.5t-132 19.5q-69 -1 -113.5 -17.5t-85.5 -54.5q-18 -15 -36 -37.5t-28.5 -35.5t-17.5 -13q-12 0 -12 16 q0 31 43 87q94 112 262 112q37 0 135.5 -16.5t134.5 -16.5q43 0 113.5 11.5t79.5 11.5q22 0 22 -21q0 -10 -4 -30q-122 -460 -184 -619q90 7 222.5 78t276.5 186q302 240 455 463q44 63 80 123q39 62 51 62q15 0 15 -11q0 -41 -91.5 -189.5t-205.5 -279.5 q-131 -152 -300.5 -275.5t-347.5 -207.5q25 -76 46 -135t54.5 -143.5t64.5 -147t73 -130.5t83 -111.5t91.5 -72t101.5 -28.5q34 0 76 10l41 10q15 0 15 -14q0 -6 -17 -20q-20 -17 -70 -29t-102 -12q-73 0 -139.5 24t-117.5 60.5t-102 99.5t-86 119.5t-76 144t-66.5 150.5 t-61.5 159q-14 -44 -57.5 -151.5t-92.5 -204.5q-94 -186 -223 -301t-260 -115q-120 0 -192 72q-27 27 -27 41z" />
<glyph unicode="L" horiz-adv-x="1327" d="M82 51q0 69 61.5 125.5t167.5 56.5q45 0 88 -18q82 171 164.5 428.5t120.5 413.5q-78 -44 -232.5 -84.5t-220.5 -40.5q-34 0 -34 16t39 23q175 36 303 82q124 46 174 86q45 129 125 252q47 72 110.5 118.5t132.5 46.5q47 0 68.5 -27.5t21.5 -70.5q0 -83 -79.5 -164.5 t-196.5 -140.5q-76 -313 -159 -541.5t-214 -439.5q104 -61 226 -100t223 -39q66 0 121.5 11.5t81.5 22.5t61.5 31.5t44.5 24.5q20 8 25 8q12 0 12 -10q0 -16 -29.5 -40t-76.5 -46.5t-116 -38.5t-139 -16q-108 0 -222 32t-265 97q-58 -72 -123 -117t-125 -45q-58 0 -98.5 28 t-40.5 76zM152 57q0 -25 16 -41t45 -16q47 0 88 37.5t70 120.5q-32 16 -74 16q-68 0 -106.5 -37.5t-38.5 -79.5zM909 1214q81 41 150 111t69 129q0 55 -45 55q-37 0 -72.5 -44.5t-60.5 -109t-41 -141.5z" />
<glyph unicode="M" horiz-adv-x="2320" d="M20 88q0 9 4.5 16t10.5 7t18 -8t34.5 -21t45.5 -23q105 -45 238 -45q102 0 207.5 37.5t202 103.5t182.5 146t165 176q174 212 256 352q200 342 412 740q22 41 35 56t29 15q18 0 18 -22q0 -16 -16 -70q-10 -36 -63 -217t-87 -302.5t-83.5 -312.5t-84.5 -349 q134 138 308.5 406.5t340.5 569.5q96 173 114 199q24 35 38 35q16 0 16 -14q0 -18 -6 -39q-101 -306 -207 -838q-47 -231 -47 -381q0 -155 37 -268q10 -29 24.5 -55.5t23.5 -40.5t9 -19q0 -14 -20 -14q-18 0 -58 19.5t-69 49.5q-127 133 -127 414q0 230 92 535 q-100 -190 -219 -353.5t-350 -445.5q-31 -36 -82 -82.5t-70 -46.5q-22 0 -22 33t14 82q16 70 37 168.5t33.5 155t41.5 164t70 245.5q-169 -273 -292 -420q-61 -73 -113 -129t-133 -124t-160 -112.5t-183.5 -75t-213.5 -30.5q-127 0 -240 47q-39 16 -75 41.5t-36 44.5z" />
<glyph unicode="N" horiz-adv-x="2013" d="M-410 -272q0 12 13 12q17 0 80 -35q76 -41 175.5 -62.5t164.5 -21.5q149 0 281.5 50t279.5 149q303 203 649 712q68 101 127 197.5t86 143t82.5 148.5t70.5 130q44 80 110 218t67 140q23 41 36 41q19 0 19 -30q0 -23 -7 -76t-27 -189.5t-34 -240.5q-5 -36 -22.5 -146.5 t-26.5 -192t-14 -177.5q178 333 342.5 592.5t329.5 441.5q70 77 151.5 129.5t159.5 56.5q27 0 27 -14q0 -16 -23 -23q-154 -44 -270 -186q-126 -155 -162 -209q-194 -288 -362.5 -592.5t-286.5 -566.5q-64 -147 -101 -147q-13 0 -19.5 11t-7.5 23.5t-1 34.5q3 105 31 394 t71 513q-183 -343 -467 -733q-184 -250 -403 -413q-58 -43 -98 -70.5t-108.5 -65.5t-130.5 -60t-147.5 -38t-175.5 -16q-140 0 -259.5 38t-188.5 107q-11 11 -11 23z" />
<glyph unicode="O" horiz-adv-x="1705" d="M410 489q0 215 89 420.5t240 364.5q134 142 296 210t331 68q130 0 213 -67q76 -62 122 -176t46 -267q0 -232 -96.5 -444t-264.5 -377q-111 -109 -245 -174q-61 -30 -141.5 -48.5t-141.5 -18.5q-111 0 -197.5 39.5t-140.5 109t-82 161t-28 199.5zM573 365q0 -47 9 -93.5 t29.5 -91.5t50.5 -79t76 -55t102 -21q93 0 186.5 50t172 136t144.5 196.5t113 235.5q103 274 103 543q0 152 -50 234.5t-168 82.5q-154 0 -310 -135t-271 -344q-89 -161 -138 -340t-49 -319z" />
<glyph unicode="P" horiz-adv-x="1431" d="M41 -516q0 5 3.5 8.5t12 6.5t15.5 4.5t21.5 4.5t23.5 5q76 21 136.5 54.5t117.5 94.5q103 109 190 338q78 200 172 493t172.5 519.5t151.5 367.5q-86 -31 -176 -95t-158 -132q-31 -31 -43 -31q-10 0 -10 11q0 22 51 73q92 92 174 144q129 83 201 108q115 198 188 262 q37 29 43 29q8 0 11 -2.5t3 -11.5q0 -4 -6 -15.5t-19.5 -36.5t-25.5 -51q-33 -70 -57 -153q66 14 156 14q55 0 122 -17.5t111 -45.5q77 -49 117.5 -127.5t40.5 -172.5q0 -145 -80 -258t-193 -172q-165 -86 -356 -86q-84 0 -84 25q0 7 7.5 9t39.5 3q19 1 31 2q178 12 293 121 q74 70 114.5 171t40.5 202q0 59 -14 109t-43.5 92t-82 66t-122.5 24q-55 0 -108 -13q-30 -91 -151 -505.5t-198 -624.5q-70 -191 -165 -361q-138 -247 -316 -366q-85 -56 -174.5 -79.5t-138.5 -23.5q-17 0 -28 5.5t-11 13.5z" />
<glyph unicode="Q" horiz-adv-x="1722" d="M410 444q0 125 36.5 257.5t100 252.5t154 227t194 185.5t224 124t239.5 45.5q177 0 291 -128t114 -349q0 -142 -40.5 -286t-117 -273t-178.5 -235.5t-234 -180.5t-275 -100q37 -204 88.5 -342t130.5 -275q44 -75 89 -133.5t66 -81.5t21 -29q0 -18 -27 -18 q-14 0 -48.5 23.5t-90 79.5t-109.5 130q-125 170 -188.5 309t-128.5 347q-134 31 -222.5 151t-88.5 299zM598 336q0 -125 50 -212t145 -87q104 0 207 54.5t187 143.5t157.5 204t123.5 235t78.5 237t28.5 211q0 79 -8 137.5t-30 113t-66.5 83.5t-110.5 29q-100 0 -200 -55 t-182 -146.5t-154 -211t-121 -246.5t-77 -255t-28 -235z" />
<glyph unicode="R" horiz-adv-x="1693" d="M20 -596q0 3 7 8t22.5 15.5t28.5 21.5q96 78 174 191q72 106 144 255.5t116 260.5q63 159 253.5 678t207.5 563q-137 -32 -271 -125q-41 -29 -55 -29q-10 0 -10 10q0 11 20 35t43 39q162 112 312 152q68 134 127 198q37 40 72.5 63t48.5 23q12 0 12 -12q0 -2 -8 -15.5 t-23.5 -39.5t-28.5 -51q-26 -50 -59 -152q43 6 78 6q58 0 119.5 -13t101.5 -34q170 -83 170 -268q0 -80 -39 -150t-113 -121q-142 -96 -305 -102q54 -274 105 -397q56 -133 108.5 -210t122.5 -132q41 -32 119 -64q4 -1 11 -4t9.5 -4t6.5 -3t5 -5t1 -6q0 -15 -33 -15 q-40 3 -96 21q-149 45 -260 166q-119 126 -201.5 306t-116.5 363q-23 -84 -107.5 -306.5t-150.5 -368.5q-58 -127 -191 -324.5t-268 -314.5q-144 -121 -194 -121q-15 0 -15 12zM961 870q65 -14 124 -14q81 0 140.5 28.5t115.5 86.5q44 46 65 107.5t21 119.5q0 116 -62 180 t-153 64q-28 0 -71 -6q-69 -240 -180 -566z" />
<glyph unicode="S" horiz-adv-x="1069" d="M10 373q0 22 13 22q17 0 26 -18q64 -156 146 -225q128 -109 258 -109q72 0 128 27.5t89 73.5t50 101t17 115q0 71 -25.5 154.5t-62.5 162.5t-74 160.5t-62.5 174.5t-25.5 178q0 65 25 126.5t70.5 112t118.5 81t161 30.5q126 0 195 -88q14 -18 23.5 -41.5t9.5 -32.5 q0 -14 -15 -14q-13 0 -20 14q-68 107 -164 107q-223 0 -223 -275q0 -75 27 -162.5t65 -167.5t76 -160.5t65 -167t27 -161.5q0 -176 -120 -292.5t-325 -116.5q-97 0 -189 37.5t-153 103.5q-76 82 -114 186q-17 43 -17 64z" />
<glyph unicode="T" horiz-adv-x="1206" d="M20 -545q0 18 52 21q122 7 252 94q218 148 387 526q215 479 346 1358q-178 31 -248 31q-202 0 -342 -121q-59 -51 -93 -125t-34 -158q0 -25 2.5 -50t5 -40.5t2.5 -17.5q0 -19 -10 -19q-12 0 -21 15q-24 46 -24 125q0 189 133 315q81 78 187.5 117t258.5 39q58 0 276 -34 t337 -34q75 0 172.5 19t161.5 51q16 8 26 8q15 0 15 -10q0 -5 -5.5 -16.5t-9.5 -14.5q-66 -56 -180 -83.5t-217 -27.5q-121 0 -184 4q-122 -826 -410 -1382q-27 -52 -62.5 -108t-91 -126.5t-116.5 -130.5t-141 -115t-162 -85q-113 -45 -197 -45q-66 0 -66 20z" />
<glyph unicode="U" horiz-adv-x="1538" d="M328 203q0 62 16.5 127.5t44 138.5t106.5 286t162 455q31 88 48.5 144t37 155.5t19.5 184.5q0 92 -17 164.5t-34 110t-17 44.5q0 6 5.5 10.5t13.5 4.5q15 0 47 -51t55 -119q24 -68 35.5 -146t11.5 -131q0 -183 -74 -451q-45 -163 -92.5 -312.5t-94 -288.5t-66.5 -201 q-33 -105 -33 -156q0 -40 17.5 -66t49.5 -26q43 0 113 62t147 165q127 168 216.5 332.5t164.5 355.5q36 92 71 188t64 182.5t37 107.5q13 38 23.5 50.5t36.5 12.5h108q29 0 29 -20t-25 -93q-117 -329 -190 -585q-117 -410 -117 -590q0 -76 11 -124.5t42 -74.5 q18 -16 42.5 -20t38.5 -5.5t14 -11.5q0 -12 -26 -19t-50 -7q-79 0 -135 51q-48 43 -73.5 116.5t-25.5 149.5q0 68 21 196t47 230q-24 -56 -102 -188t-144 -226q-230 -325 -411 -325q-78 0 -123 56.5t-45 156.5z" />
<glyph unicode="V" horiz-adv-x="1261" d="M410 1532q0 14 20 14q45 0 140.5 -93t158.5 -214q158 -301 184 -811q103 188 236 393q355 548 666 840q110 103 200 147q26 13 35 13q10 0 10 -11q0 -8 -47 -43q-69 -54 -170 -155q-174 -171 -518 -694q-88 -134 -179.5 -287t-149 -255t-185.5 -331q-31 -57 -61 -57 q-9 0 -16.5 11t-8.5 28q-4 32 -6 126t-8 177q-9 120 -17.5 207.5t-25.5 220t-43.5 250.5t-61.5 211q-75 193 -129 270q-21 30 -24 43z" />
<glyph unicode="W" horiz-adv-x="1705" d="M410 1552q0 15 20 15q38 0 120.5 -98.5t137.5 -223.5q83 -187 123.5 -381t40.5 -366q81 176 157.5 305.5t231.5 367.5q-14 148 -76 351q-1 6 -12 32.5t-12 36.5q0 15 18 15q17 0 49 -35t68 -92t71.5 -144.5t55.5 -179.5q63 -283 63 -479q0 -96 -8 -172q71 132 193 334 q140 230 310 461.5t302 361.5q44 44 99.5 85t97.5 62q26 13 34 13q11 0 11 -11q0 -8 -47 -43q-108 -84 -170 -149q-185 -194 -488 -676q-44 -70 -88.5 -147.5t-77.5 -136.5t-82 -152t-74 -141.5t-82.5 -161.5t-80.5 -158q-28 -57 -62 -57q-9 0 -16.5 11t-7.5 28t12.5 151.5 t15.5 229.5q9 216 9 380q0 178 -15 281q-304 -468 -526 -1022q-9 -22 -14 -32t-14 -18.5t-21 -8.5q-19 0 -19 59q0 16 4.5 116t4.5 199q0 664 -228 1127q-26 51 -28 63z" />
<glyph unicode="X" horiz-adv-x="1816" d="M82 -272q0 15 22 22q174 68 371 219q356 275 631 779q-65 252 -121 409.5t-145 280.5q-26 36 -62 67q-30 26 -30 35q0 14 24 14q42 0 93 -21.5t107.5 -65.5t113 -123t98.5 -181q30 -73 96 -260q156 235 283.5 383.5t273.5 239.5q37 22 57 22q19 0 19 -14q0 -6 -6.5 -12 t-26 -19.5t-33.5 -25.5q-2 -2 -19 -15.5t-24 -19.5t-25.5 -22.5t-33.5 -32.5t-37 -40.5t-47.5 -55.5t-54.5 -68q-171 -221 -283 -428q65 -249 148.5 -460.5t168.5 -287.5q50 -43 68 -53q45 -22 51 -31q4 -6 4 -14q0 -19 -82 -19q-27 0 -78.5 13t-82.5 32q-64 37 -126 114 t-109.5 171t-82.5 186t-57 177q-364 -581 -795 -818q-176 -96 -241 -96q-12 0 -19.5 5.5t-7.5 13.5z" />
<glyph unicode="Y" horiz-adv-x="1024" d="M246 1585q0 12 26 12q91 0 184.5 -77t161.5 -187q59 -94 113.5 -224t75.5 -212q156 330 344 592q87 120 195.5 223t197.5 158q57 33 74 33q20 0 20 -15q0 -11 -20 -24q-133 -95 -234 -204t-210 -265q-240 -345 -369 -813q-25 -89 -67.5 -267t-69.5 -284q-8 -31 -37 -31 h-119q-15 0 -22 5t-7 22q0 6 29 147q69 323 131 574q-14 92 -72 266q-18 54 -42.5 114.5t-62.5 142t-88.5 157t-103.5 122.5q-28 25 -28 35z" />
<glyph unicode="Z" horiz-adv-x="1380" d="M246 1473q0 13 14 24q38 26 94 51q154 74 361 74q123 0 310 -30.5t257 -30.5q40 0 115 9t78 9q28 0 28 -25q0 -18 -41 -73q-20 -28 -137.5 -187t-232.5 -323q-392 -556 -553 -846q209 0 426 -76q85 -29 184 -29q43 0 111 20.5t71 20.5q21 0 21 -18q0 -15 -17 -25 q-92 -61 -229 -61q-47 0 -160 23q-11 2 -56 12t-72.5 15.5t-70.5 13t-81.5 11t-73.5 3.5q-72 0 -178 -17.5t-111 -17.5q-33 0 -33 33q0 29 60 127q179 300 422.5 647t498.5 666q-97 0 -272.5 41.5t-282.5 41.5q-81 0 -160 -15.5t-127 -34.5t-89.5 -34.5t-57.5 -15.5t-16 17z " />
<glyph unicode="[" horiz-adv-x="1036" d="M123 -236q0 25 49 187q121 391 335 953.5t337 826.5q24 55 63 55q5 0 36 -6t82.5 -12.5t104.5 -6.5q61 0 137 14.5t81 14.5q16 0 16 -18q0 -14 -18 -23q-118 -59 -222 -59q-84 0 -104 2q-174 -386 -366.5 -891.5t-346.5 -984.5q40 -6 92 -6q72 0 146 14t84 14 q8 0 14 -5.5t6 -12.5t-15.5 -20.5t-27.5 -16.5q-127 -38 -231 -45q-92 -6 -221 -6q-31 0 -31 32z" />
<glyph unicode="\" horiz-adv-x="1024" d="M104 1524q2 14 21 14q26 -5 80 -71.5t76 -104.5q151 -251 284 -567q22 -53 76 -187.5t86 -211t84.5 -185t103.5 -191.5q7 -9 7 -20q-2 -10 -19 -10q-22 4 -63 51t-78 109q-29 48 -60.5 108.5t-53.5 105.5t-55 120.5t-45.5 105t-46 110t-36.5 88.5q-67 163 -100 240 t-85 184t-110 203q-6 11 -25 38t-30.5 46t-10.5 25z" />
<glyph unicode="]" horiz-adv-x="1050" d="M-246 -223q0 10 13 20q22 14 80 25.5t96 11.5q77 0 151 -6q22 56 312 833.5t380 993.5q-55 14 -124 14q-40 0 -83.5 -6t-73 -12t-34.5 -6q-20 0 -20 10q0 14 20 26q39 22 145.5 35t174.5 13q49 0 139 -9q39 -4 39 -24q0 -22 -49 -142q-98 -244 -335 -878t-331 -897 q-17 -45 -55 -45q-16 0 -112.5 16.5t-147.5 16.5q-39 0 -99.5 -3.5t-64.5 -3.5q-9 0 -15 5.5t-6 11.5z" />
<glyph unicode="^" horiz-adv-x="845" d="M61 778q0 9 23 25q81 59 192 174q154 159 302 354q7 10 18 10q15 0 18 -20q35 -170 64 -275t78 -212q4 -9 11.5 -22.5t12 -23.5t4.5 -14q0 -14 -10 -14q-12 0 -24.5 9t-18.5 16t-16 22q-55 77 -98 177t-62 192q-200 -250 -405 -381q-53 -33 -72 -33q-17 0 -17 16z" />
<glyph unicode="_" horiz-adv-x="1024" d="M0 -342h1024v-68h-1024v68z" />
<glyph unicode="`" horiz-adv-x="473" d="M123 1300q0 31 57 31q60 0 70 -31q35 -104 72 -188q4 -10 12 -25t12 -24.5t4 -13.5q0 -15 -12 -15q-17 0 -43 20.5t-45 41.5q-46 48 -86.5 111t-40.5 93z" />
<glyph unicode="a" horiz-adv-x="747" d="M61 193q0 89 48.5 171t136.5 130q62 34 145 34q70 0 105 -43q9 -11 28 -59q17 50 27 68q9 18 39 18h88q16 0 16 -14q0 -6 -22 -74q-22 -67 -40 -154t-18 -149q0 -40 10 -74.5t27 -44.5q2 -1 5.5 -3t5 -3t3.5 -2.5t2.5 -3.5t0.5 -4q0 -8 -13.5 -12.5t-25.5 -4.5 q-71 0 -105 39q-47 50 -51 127q-35 -69 -98 -110t-144 -41q-75 0 -122.5 58t-47.5 151zM211 154q0 -50 16.5 -83.5t51.5 -33.5q73 0 131 86q34 51 56.5 126t22.5 116q0 26 -5.5 51t-22 46t-41.5 21q-34 0 -72 -27.5t-72 -76.5q-31 -46 -48 -111t-17 -114z" />
<glyph unicode="b" horiz-adv-x="704" d="M82 295q0 214 110.5 523t280.5 558q38 58 81.5 109t59.5 51q13 0 13 -8q0 -4 -5 -13t-14.5 -22.5t-11.5 -17.5q-86 -136 -133 -242q-99 -224 -154 -447q-21 -83 -43.5 -211.5t-25.5 -183.5q40 59 94 93t112 34q93 0 150 -57t57 -162q0 -119 -99.5 -214t-229.5 -95 q-242 0 -242 305zM207 1335q0 25 13.5 39.5t35.5 14.5q25 0 39 -14.5t14 -39.5q0 -22 -14.5 -35.5t-38.5 -13.5q-22 0 -35.5 13.5t-13.5 35.5zM231 201q0 -75 24 -122.5t77 -47.5q61 0 114.5 82t53.5 200q0 67 -25 108.5t-67 41.5q-69 0 -123 -82.5t-54 -179.5z" />
<glyph unicode="c" horiz-adv-x="595" d="M61 209q0 120 97.5 218.5t220.5 98.5q83 0 127 -28q21 -14 35 -42t14 -44q0 -19 -14 -19q-11 0 -25 27q-30 53 -76 53q-54 0 -106 -45q-50 -43 -78.5 -111t-28.5 -137q0 -70 27.5 -108.5t79.5 -38.5q63 0 141 59q12 12 21 12q12 0 12 -14t-21 -35q-81 -71 -194 -71 q-102 0 -167 59t-65 166z" />
<glyph unicode="d" horiz-adv-x="718" d="M31 219q0 118 90 210.5t221 92.5q84 0 127 -61q53 273 182 606q60 154 131 288.5t116 199.5t67 83q14 11 22 11q6 0 6 -9q0 -7 -24 -47q-61 -118 -138 -323q-97 -261 -180.5 -610.5t-83.5 -544.5q0 -39 13 -74t41 -35q12 0 26 6t15 6q6 0 6 -8q0 -11 -22.5 -25t-47.5 -14 q-54 0 -91.5 30t-70.5 103q-73 -120 -192 -120q-95 0 -154 62t-59 173zM188 176q0 -57 20.5 -98t63.5 -41q50 0 93 49.5t65.5 120.5t22.5 141q0 59 -21 90t-53 31q-77 0 -134 -93t-57 -200zM958 1247q0 24 14 38.5t36 14.5q25 0 39 -14t14 -39q0 -22 -14.5 -35.5 t-38.5 -13.5q-22 0 -36 13.5t-14 35.5z" />
<glyph unicode="e" horiz-adv-x="606" d="M61 221q0 113 96.5 207t231.5 94q65 0 110.5 -31.5t45.5 -95.5q0 -66 -62.5 -108t-160.5 -58q-65 -10 -97 -10q0 -79 33 -130.5t102 -51.5q66 0 109 26q14 8 28 17.5t20 13.5t9 4q15 0 15 -14t-31 -41q-80 -66 -201 -66q-36 0 -69 6.5t-66.5 23.5t-58 43.5t-39.5 70.5 t-15 100zM229 262q35 2 82 17q55 17 91 59t36 86q0 55 -49 55q-51 0 -101.5 -58.5t-58.5 -158.5z" />
<glyph unicode="f" horiz-adv-x="565" d="M-717 -1520q0 3 2 6.5t7 8t8.5 7t12.5 8.5t13 9q95 73 236 256q97 128 184.5 303t183.5 422q89 230 180.5 530t143.5 523q-55 -4 -102 -25q-24 -8 -25 -8q-18 0 -18 15q0 4 5.5 14t10.5 14q55 44 143 58l113 370q-68 -32 -170 -59q-32 -8 -66 -8q-9 0 -14.5 6t-5.5 14 q0 15 33 29q28 11 86.5 31t94.5 34t69 31q75 206 182.5 336.5t226.5 130.5q42 0 69 -28.5t27 -75.5q0 -53 -34.5 -110.5t-89.5 -106.5t-114.5 -88t-117.5 -66q-63 -285 -100 -414q102 0 157 17q18 6 29 6q14 0 14 -15q0 -28 -41 -43q-82 -30 -174 -30q-48 -152 -141 -467 q-111 -380 -320.5 -801.5t-406.5 -632.5q-89 -96 -141 -139q-89 -74 -133 -74q-17 0 -17 12zM-602 -1120q0 24 13.5 38.5t35.5 14.5q25 0 39 -14t14 -39q0 -22 -14.5 -35.5t-38.5 -13.5q-22 0 -35.5 13.5t-13.5 35.5zM578 1145q99 46 186.5 131t87.5 156q0 57 -43 57 q-135 0 -231 -344z" />
<glyph unicode="g" horiz-adv-x="827" d="M-655 -1270q0 153 131.5 320t358.5 309t499 225q80 239 160 543q-103 -143 -246 -143q-85 0 -131.5 53.5t-46.5 136.5q0 103 54.5 185t134.5 122.5t165 40.5q49 0 84 -11t47.5 -21t30.5 -29q11 30 21.5 40.5t31.5 10.5h72q13 0 22.5 -10.5t9.5 -22.5q0 -34 -57 -284 q-51 -234 -147 -539q200 61 264 61q14 0 14 -16q0 -10 -7 -19t-23.5 -18.5t-34 -17.5t-48.5 -18.5t-56 -18.5t-66.5 -21.5t-71.5 -23.5q-93 -247 -129 -322q-53 -113 -110 -213t-137 -207t-163.5 -182.5t-188.5 -124.5t-212 -49q-114 0 -169.5 70t-55.5 194zM-582 -1290 q0 -75 42 -129t116 -54q76 0 153.5 41t142.5 106.5t126 153t107 175t83 178.5q59 137 123 315q-190 -54 -358 -146.5t-284 -199t-183.5 -222.5t-67.5 -218zM240 158q0 -45 18 -77t59 -32q44 0 100 51.5t81 106.5q37 82 59 203q-18 29 -37.5 41t-52.5 12q-59 0 -112.5 -46.5 t-84 -117t-30.5 -141.5z" />
<glyph unicode="h" horiz-adv-x="792" d="M82 25q0 17 12 88q93 537 234 936q49 142 140.5 321t186.5 287q107 117 156 117q12 0 12 -11q0 -2 -2.5 -5.5t-7.5 -9t-10 -10.5t-13.5 -13t-15.5 -15q-84 -90 -135 -190q-57 -111 -102.5 -233.5t-84.5 -276t-63 -265.5t-63 -309q88 88 211 88q67 0 104 -40.5t37 -116.5 q0 -36 -17.5 -134t-17.5 -129q0 -25 10.5 -41t24.5 -16t29.5 7t21.5 7q10 0 10 -10q0 -18 -39 -39.5t-90 -21.5q-65 0 -98 45q-27 36 -27 110q0 47 18.5 135t18.5 101q0 39 -13 55.5t-40 16.5q-32 0 -75.5 -24t-80.5 -79q-13 -44 -24.5 -96t-24.5 -121.5t-20 -103.5 q-4 -29 -29 -29h-113q-20 0 -20 25zM743 1419q0 24 14 39t36 15q25 0 39 -14.5t14 -39.5q0 -22 -14.5 -35.5t-38.5 -13.5q-22 0 -36 13.5t-14 35.5z" />
<glyph unicode="i" horiz-adv-x="374" d="M61 160q0 54 24.5 146.5t53.5 166.5q13 39 51 39h84q29 0 29 -25q0 -5 -5 -19t-12.5 -34t-11.5 -33q-65 -221 -65 -268q0 -46 11 -68t38 -22q19 0 40.5 15.5t23.5 15.5q12 0 12 -13q0 -18 -35 -45q-34 -24 -109 -24q-51 0 -90 44.5t-39 123.5zM197 711q0 29 20 50t49 21 q31 0 52.5 -21t21.5 -50q0 -31 -21.5 -51.5t-52.5 -20.5q-29 0 -49 20.5t-20 51.5z" />
<glyph unicode="j" horiz-adv-x="440" d="M-1024 -1499q0 6 10 6q4 0 33 -2t47 -2q50 0 127.5 29.5t136.5 74.5q235 182 437 586q92 182 166 399t153 506q76 282 94 363q6 28 18.5 39.5t34.5 11.5h82q13 0 23 -10.5t10 -22.5q0 -52 -47 -233q-122 -486 -313 -899q-28 -61 -64.5 -129t-91.5 -156.5t-115 -169 t-136 -160.5t-153.5 -138t-168 -94t-179.5 -36q-64 0 -92 16q-12 8 -12 21zM-799 -1165q0 24 13.5 38.5t35.5 14.5q25 0 39.5 -14t14.5 -39q0 -22 -14.5 -35.5t-39.5 -13.5q-22 0 -35.5 13.5t-13.5 35.5zM236 711q0 29 20 50t49 21q31 0 52.5 -21t21.5 -50 q0 -31 -21.5 -51.5t-52.5 -20.5q-29 0 -49 20.5t-20 51.5z" />
<glyph unicode="k" horiz-adv-x="696" d="M37 14q0 2 3 14.5t3 14.5q30 184 114 479.5t134 421.5q30 77 69 159t96.5 186.5t126.5 184.5t134 109q12 6 20 6q11 0 11 -6q0 -9 -15 -20q-86 -65 -162 -217q-86 -176 -165 -445q-10 -36 -34 -114.5t-40.5 -137t-28.5 -108.5q35 51 96 81.5t111 30.5q54 0 85.5 -29 t31.5 -73q0 -76 -58 -127q-30 -27 -78 -50.5t-96 -33.5q27 -122 90.5 -212t139.5 -105q4 -1 9.5 -2t8 -1t6 -1t5 -2.5t2.5 -3.5t1 -5q0 -9 -18 -16q-24 -8 -53 -8q-215 0 -336 297q-7 -24 -30.5 -114.5t-37.5 -137.5q-8 -29 -28 -29h-103q-14 0 -14 14zM268 352 q117 24 187 74q25 17 48 50t23 73q0 24 -13.5 37.5t-33.5 13.5q-58 0 -111.5 -58t-80.5 -136zM655 1278q0 24 14 38.5t36 14.5q25 0 39 -14t14 -39q0 -22 -14.5 -35.5t-38.5 -13.5q-22 0 -36 13.5t-14 35.5z" />
<glyph unicode="l" horiz-adv-x="464" d="M-35 733q0 5 4 9t13.5 7t20 6.5t29 9t34.5 11.5q102 36 172 76q104 209 178 326q64 103 135 171t125 68q36 0 57 -23.5t21 -54.5q0 -50 -18 -92.5t-52 -95.5q-99 -154 -315 -297q-57 -139 -94 -310t-37 -339q0 -152 94 -152q29 0 59 19q7 4 18 11.5t18 12t9 4.5 q13 0 13 -12q0 -7 -13.5 -22t-34.5 -29q-54 -37 -108 -37q-87 0 -141 61t-54 197q0 102 30 247t85 281q-62 -28 -160 -55q-40 -12 -65 -12q-23 0 -23 14zM393 928q52 30 122 95t110 120q84 115 84 178q0 55 -35 55q-39 0 -98.5 -86t-106 -183.5t-76.5 -178.5z" />
<glyph unicode="m" horiz-adv-x="1069" d="M51 473q0 9 31 35q46 37 100 37q70 0 97 -39q30 -40 30 -125q69 141 180 141q49 0 85 -41.5t40 -115.5q82 157 197 157q53 0 89 -36.5t36 -112.5q0 -51 -19.5 -157t-19.5 -136q0 -19 10 -33t25 -14q24 0 45 14q24 16 29 16q12 0 12 -14q0 -10 -16 -24.5t-33 -22.5 q-37 -18 -95 -18q-47 0 -82.5 36.5t-35.5 112.5q0 27 20.5 127t20.5 129q0 57 -39 57q-34 0 -71 -57.5t-64 -163.5q-12 -46 -23 -85.5t-21 -75t-14 -50.5q-3 -14 -18 -14h-117q-10 0 -10 10q0 21 4 33q4 17 16 67t19 79.5t16 71t13 72t4 50.5q0 37 -10.5 54.5t-35.5 17.5 q-36 0 -72.5 -57.5t-62.5 -145.5q-14 -48 -34.5 -129.5t-28.5 -108.5q-6 -14 -25 -14h-114q-15 0 -15 16q0 4 15 70q44 176 53 215q16 73 16 135q0 53 -43 53q-15 0 -41 -13t-31 -13q-12 0 -12 10z" />
<glyph unicode="n" horiz-adv-x="784" d="M51 473q0 15 33 35q47 29 100 29q65 0 99 -43q30 -35 30 -107q26 48 72 84q64 51 154 51q53 0 86.5 -38.5t33.5 -98.5q0 -42 -28 -205q-15 -82 -15 -92q0 -55 33 -55q25 0 43 10q6 3 13 7.5t11 6.5t7 2q10 0 10 -12q0 -10 -18 -25t-33 -22q-40 -16 -92 -16 q-50 0 -87.5 31t-37.5 96q0 50 14 108q33 139 33 174q0 66 -45 66q-39 0 -80.5 -47t-75.5 -140q-17 -47 -40.5 -130t-34.5 -117q-7 -25 -33 -25h-107q-16 0 -16 16q0 13 14 60q44 146 60 211q24 106 24 147q0 55 -43 55q-17 0 -43 -13t-29 -13q-12 0 -12 10z" />
<glyph unicode="o" horiz-adv-x="710" d="M61 227q0 49 20.5 98.5t60.5 94.5t110.5 73.5t159.5 28.5q104 -2 170.5 -64.5t66.5 -170.5q0 -123 -92 -210t-242 -87q-120 0 -187 66t-67 171zM215 199q0 -68 24 -117t80 -49q70 0 119 86.5t49 204.5q0 155 -94 155q-73 0 -125.5 -89t-52.5 -191z" />
<glyph unicode="p" horiz-adv-x="727" d="M-754 -1520q0 6 25 23q95 60 182 154q294 322 471 856q76 222 107 376q62 300 96 570q6 53 45 53h72q28 0 28 -27q0 -29 -2 -47q67 84 181 84q102 0 158.5 -66t56.5 -159q0 -135 -81 -224t-182 -89q-127 0 -180 88q-36 -170 -97 -369.5t-126 -355.5q-34 -83 -89 -183.5 t-132 -216.5t-179 -228t-208 -187q-98 -68 -131 -68q-5 0 -10 5t-5 11zM-702 -1128q0 24 13.5 38.5t35.5 14.5q25 0 39 -14t14 -39q0 -22 -14.5 -36t-38.5 -14q-22 0 -35.5 14t-13.5 36zM236 139q19 -47 54.5 -73.5t67.5 -26.5q69 0 108.5 78t39.5 176q0 80 -27 127t-80 47 q-37 0 -71.5 -23.5t-57.5 -64.5q-8 -70 -34 -240z" />
<glyph unicode="q" horiz-adv-x="686" d="M23 211q0 132 95 221.5t226 89.5q48 0 84 -14t72 -59q17 39 30 51t35 12h78q16 0 22.5 -5.5t6.5 -19.5q0 -10 -7.5 -33t-21.5 -60.5t-18 -47.5q-11 -30 -269 -723q-12 -33 -48.5 -125t-58 -151.5t-51 -149t-50 -178.5t-33.5 -178q-6 -40 -10.5 -52t-14.5 -12 q-12 0 -18 48t-6 100q0 69 20.5 193t42.5 206q69 254 100 338q57 158 133 363q-28 -20 -52 -26.5t-74 -6.5q-92 0 -152.5 62.5t-60.5 156.5zM188 209q0 -71 24 -118.5t79 -47.5q45 0 90 39q23 69 96 309q-15 36 -43 57t-59 21q-53 0 -97 -41.5t-67 -100.5t-23 -118z" />
<glyph unicode="r" horiz-adv-x="604" d="M41 16q0 12 39 154q66 257 74 293q10 49 45 49h61q20 0 26.5 -7t6.5 -22q0 -17 -25 -100q53 81 115 127q67 51 117 51q36 0 60 -25.5t24 -62.5q0 -36 -6.5 -69t-16.5 -33q-5 0 -9.5 4t-12.5 15.5t-11 15.5q-35 47 -82 47q-46 0 -100 -45.5t-86 -139.5q-11 -32 -21 -67 t-24.5 -91t-21.5 -81q-8 -29 -33 -29h-103q-16 0 -16 16z" />
<glyph unicode="s" horiz-adv-x="524" d="M10 109q0 20 17 20q10 0 26 -20q53 -64 107 -64q32 0 56 23t24 63q0 18 -4.5 38t-8.5 30t-15.5 36.5t-14.5 32.5q-31 73 -31 131q0 64 56.5 112t137.5 48q73 0 119 -43q25 -21 25 -37q0 -12 -12 -12q-9 0 -37.5 18.5t-57.5 18.5q-40 0 -63 -23.5t-23 -58.5q0 -20 5.5 -41 t18.5 -53t15 -37t8.5 -22.5t8 -21t6 -17t5.5 -18t3.5 -16t3 -19t1.5 -19t1 -23.5q0 -53 -53 -101t-127 -48q-55 0 -88 12.5t-72 46.5q-11 10 -24 33t-13 31z" />
<glyph unicode="t" horiz-adv-x="475" d="M102 272q0 98 49 315t103 347q-68 -14 -96 -14q-31 0 -31 20q0 13 11.5 21t41.5 16q63 17 109 37q13 28 25 53.5t21.5 45t20.5 41t17 34t17.5 34t16 29.5t17.5 31t16.5 29.5t19.5 34.5t21 36q100 172 127 172q17 0 17 -18q0 -8 -6.5 -25.5t-18.5 -44t-16 -36.5 q-2 -5 -34.5 -72.5t-63 -146t-60.5 -181.5q22 2 45 6t38.5 7t41 10.5t34.5 10t39 12t35 11.5q57 17 62 17q14 0 14 -14q0 -8 -14 -21t-33 -22q-164 -76 -285 -91q-58 -162 -107.5 -381.5t-49.5 -308.5q0 -36 0.5 -55t3 -51t8.5 -49.5t16 -37t26.5 -28t39.5 -8.5 q32 0 63 19.5t37 19.5q13 0 13 -17q0 -16 -41 -45q-42 -30 -111 -30q-199 0 -199 288z" />
<glyph unicode="u" horiz-adv-x="718" d="M41 440q0 11 16.5 27.5t36.5 28.5q48 30 105 30q45 0 76.5 -32.5t31.5 -81.5q0 -51 -30.5 -164.5t-30.5 -141.5q0 -22 9 -35.5t24 -13.5q39 0 86 58q28 35 61 110q19 45 38 102.5t33 107t17 57.5q8 20 31 20h92q20 0 20 -16q0 -3 -31.5 -135.5t-31.5 -210.5t22 -103 q16 -20 48 -24q14 -2 14 -13q0 -16 -39 -16q-71 0 -115 33q-27 21 -47 62.5t-20 92.5q-41 -93 -104.5 -137.5t-125.5 -44.5q-54 0 -87.5 32.5t-33.5 90.5q0 51 29 159t29 144q0 37 -29 37q-16 0 -47 -17q-5 -3 -12.5 -8.5t-13.5 -8.5t-11 -3q-10 0 -10 14z" />
<glyph unicode="v" horiz-adv-x="573" d="M20 514q0 18 29 18q43 0 87 -24t73 -59q36 -46 53.5 -80t42.5 -113q80 153 191 299.5t184 218.5q12 12 22 12q15 0 15 -14q0 -8 -12 -24q-71 -93 -162.5 -236.5t-134.5 -224.5q-16 -30 -144 -289q-11 -18 -26 -18t-23 22l-33 134q-34 134 -71 222q-41 91 -76 131 q-15 19 -15 25z" />
<glyph unicode="w" horiz-adv-x="911" d="M41 510q0 14 16 14q30 0 72.5 -22.5t77.5 -67.5q66 -84 84 -184q29 57 111.5 166.5t105.5 109.5q20 0 27 -20q41 -105 69 -264q65 113 173.5 248t203.5 219q12 12 25 12q14 0 14 -16q0 -8 -10 -23q-46 -56 -193 -246q-88 -112 -258 -418q-22 -36 -33 -36q-19 0 -22 22 q-38 245 -74 361q-13 -22 -38.5 -61t-39.5 -61.5t-34 -57t-37 -68.5q-7 -13 -19 -37.5t-19.5 -38t-16.5 -29.5t-16 -23t-13 -7q-20 0 -23 22q-21 193 -55 318q-16 62 -62 157q-2 4 -6.5 11.5t-7 12t-2.5 7.5z" />
<glyph unicode="x" horiz-adv-x="589" d="M-874 -678q0 3 1 5t2 3.5t3 3.5t4.5 3t6 2.5t6.5 3t8 3.5t9 3q7 3 36.5 12.5t58.5 20.5t81.5 35t108.5 55q126 70 250.5 177t219 218t164 213t105.5 182q-49 133 -98 211q-3 6 -10 16t-10.5 17t-3.5 12q0 19 30 19q20 0 52.5 -9t54.5 -28q56 -47 102 -135q75 112 155 188 t107 76q17 0 17 -15q0 -8 -37 -45q-125 -125 -205 -274q72 -167 125 -236q7 -10 15 -19t11.5 -13t6 -8.5t2.5 -8.5q0 -20 -43 -20q-95 0 -146 53q-31 32 -71 114q-4 8 -6 13q-37 -63 -83.5 -130.5t-123 -159t-161 -172.5t-199.5 -163.5t-236 -140.5q-95 -46 -176 -69 t-109 -23q-24 0 -24 10z" />
<glyph unicode="y" horiz-adv-x="747" d="M-623 -1315q0 346 600 688q179 100 320 158q31 93 61 195t48 166.5t40.5 148t28.5 106.5q-45 -73 -103.5 -111t-142.5 -38q-50 0 -82 37t-32 96q0 56 40 174.5t40 145.5q0 41 -35 41q-33 0 -80 -39q-29 -21 -33 -21q-10 0 -10 14q0 8 16 29q58 68 160 68q48 0 85.5 -31 t37.5 -76q0 -86 -39 -192q-37 -101 -37 -125q0 -56 41 -56q72 0 141.5 121t110.5 305q5 23 39 23h92q10 0 16.5 -7t6.5 -18q0 -24 -7 -59q-72 -398 -211 -834q110 35 152 35q21 0 21 -16t-70 -39l-121 -41q-61 -178 -133 -334q-42 -91 -93.5 -182.5t-127 -194t-155.5 -179.5 t-180 -128t-198 -51q-96 0 -151.5 54t-55.5 167zM-547 -1311q0 -81 40 -126.5t104 -45.5q70 0 145 46t143.5 126t130 178t113.5 211q66 142 145 369q-169 -76 -233 -111q-296 -159 -477 -380q-111 -140 -111 -267z" />
<glyph unicode="z" horiz-adv-x="645" d="M41 25q0 23 53 86q19 22 64 75t74 87t73.5 84t85.5 92q-12 3 -31 7.5t-30 7.5t-28.5 5t-35.5 2q-47 0 -92.5 -13.5t-48.5 -13.5q-21 0 -21 17q0 8 35 28q29 16 72.5 24.5t73.5 8.5q20 0 92 -5t88 -5q26 0 68 4t49 4q22 0 22 -20q0 -14 -47 -66q-114 -128 -293 -348 q30 0 88 -12q114 -26 156 -68q4 -4 4 -10q0 -14 -14 -14q-5 0 -14.5 2.5t-22 6.5t-17.5 5q-82 20 -194 20q-59 0 -120 -9l-62 -9q-11 0 -19 7t-8 20z" />
<glyph unicode="{" horiz-adv-x="931" d="M20 -664q0 80 16.5 165t49.5 176.5t56 145.5t63 142q59 128 83.5 183.5t48 124t23.5 106.5q0 172 -139 209q-26 6 -26 20q0 12 38 21q65 15 125 63q76 64 156 215q13 23 76.5 142t114.5 208t110 179q23 35 54 73t80.5 85t101.5 83t118.5 61t130.5 25q41 0 41 -16 q0 -8 -10.5 -14.5t-23.5 -8.5q-164 -29 -275 -190q-63 -93 -146.5 -255.5t-166.5 -304.5t-176 -239q-79 -85 -219 -131q80 -46 116.5 -125t36.5 -166q0 -84 -35.5 -191.5t-86.5 -215.5t-102 -220.5t-86.5 -240t-35.5 -240.5q0 -45 7.5 -81t16 -53t16 -30.5t7.5 -19.5 q0 -16 -14 -16q-17 0 -44.5 32.5t-45.5 65.5q-26 48 -40 113.5t-14 119.5z" />
<glyph unicode="|" horiz-adv-x="704" d="M246 -350q0 16 3 41t9 67.5t10 83.5q41 401 41 785q0 424 43 686q5 44 35 133.5t57 89.5q5 0 10 -4t5 -10q0 -13 -11.5 -59t-13.5 -56q-17 -111 -24 -297q-4 -92 -4 -459q0 -496 -62 -815q-10 -54 -35.5 -129.5t-50.5 -75.5q-12 0 -12 19z" />
<glyph unicode="}" horiz-adv-x="952" d="M-451 -1034q0 6 4.5 10t13 7t16.5 4.5t20.5 4t19.5 4.5q55 17 103 51t86.5 84t69.5 102.5t60.5 120.5t50.5 122.5t47 124.5t44 112q28 66 74 180.5t66 157.5t61 109.5t96 126.5q41 44 104.5 83.5t137.5 61.5q-66 40 -100 98t-34 154q0 97 80 326q16 45 52.5 139.5t57 152 t38.5 141.5t18 156q0 53 -22 111q-15 34 -15 39q0 6 4.5 11t10.5 5q11 0 22 -14q94 -117 94 -313q0 -78 -34 -205t-74.5 -238t-74.5 -227.5t-34 -175.5q0 -87 72 -143q16 -12 16 -23t-28 -23q-64 -27 -101 -53q-89 -68 -161 -225q-42 -96 -106 -268.5t-124 -312t-133 -255.5 q-35 -57 -80 -111t-104 -107.5t-130 -86.5t-141 -33q-43 0 -43 15z" />
<glyph unicode="~" horiz-adv-x="1161" d="M82 340q0 14 32 48t79.5 71.5t113 65.5t123.5 28q52 0 81 -5.5t73 -21.5q19 -7 76 -31.5t97.5 -36.5t78.5 -12q44 0 85 15.5t64.5 34t45 34t30.5 15.5q7 0 12.5 -4.5t5.5 -10.5q0 -13 -6 -22q-48 -84 -128.5 -142.5t-186.5 -58.5q-69 0 -133 25q-29 11 -83.5 39 t-96.5 42.5t-87 14.5q-58 0 -110 -22t-125 -80q-11 -11 -27 -11q-14 0 -14 25z" />
<glyph unicode="&#xa6;" horiz-adv-x="874" d="M123 16q0 14 14.5 43.5t35.5 67t28 51.5q32 68 68 161t73.5 195.5t52.5 141.5q7 20 62 20q47 0 47 -26q0 -17 -4 -25q-82 -255 -219 -487q-10 -19 -32 -52t-56.5 -69.5t-57.5 -36.5q-12 0 -12 16zM469 905q0 26 31 109q50 137 164 348q14 26 35 58.5t59 74t63 41.5 q13 0 13 -12q0 -9 -9.5 -28.5t-25.5 -48t-23 -42.5q-60 -121 -100 -223q-12 -31 -47.5 -126t-57.5 -151q-11 -26 -51 -26q-28 0 -39.5 5.5t-11.5 20.5z" />
<glyph unicode="&#xa7;" horiz-adv-x="1132" d="M-123 -1522q0 2 0.5 4t1.5 4t2 3.5t3.5 3.5t3.5 3t4 3t4.5 2.5t5 2.5t4.5 3q63 36 135 100q365 326 365 787q0 145 -22 314t-43.5 317t-21.5 241q0 83 21.5 152.5t56 116t80 80t90 50.5t90.5 23q-4 20 -14 72t-14.5 74.5t-11.5 68.5t-10.5 78t-6 76.5t-2.5 89.5 q0 166 83 277.5t228 111.5q37 0 79.5 -22.5t68.5 -63.5q14 -28 14 -41q0 -12 -8 -12q-10 0 -19 12q-23 29 -56 50.5t-66 21.5q-45 0 -79 -15.5t-54 -40t-32 -61.5t-16 -73t-4 -81q0 -80 55.5 -353t55.5 -370t-30 -181.5t-80.5 -143.5t-111.5 -99t-130 -61q67 -275 67 -530 q0 -105 -24.5 -215t-76.5 -227.5t-144.5 -233.5t-217.5 -213q-119 -91 -178 -109q-6 -2 -12.5 -4.5t-11 -4t-7.5 -1.5q-14 0 -14 14zM57 -924q0 25 13.5 39.5t35.5 14.5q25 0 39.5 -14.5t14.5 -39.5q0 -22 -14.5 -35.5t-39.5 -13.5q-22 0 -35.5 13.5t-13.5 35.5zM440 352 q0 -146 43 -299q115 49 165 148t50 219q0 88 -28 211q-90 0 -160 -75t-70 -204z" />
<glyph unicode="&#xa9;" horiz-adv-x="1562" d="M82 633q0 151 66.5 283.5t175 221.5t247.5 140t285 51q120 0 222 -33t175.5 -90.5t125.5 -134.5t77 -165.5t25 -182.5q0 -151 -55 -284t-153 -230t-241 -153t-311 -56q-187 0 -330 72.5t-226 217t-83 343.5zM190 635q0 -137 44 -247.5t120.5 -182t179 -110t222.5 -38.5 q79 0 160 21t164.5 72t147.5 126t105 195t41 268q0 243 -145.5 392t-372.5 149q-175 0 -328 -85t-245.5 -234t-92.5 -326zM381 547q0 82 26 167.5t75 162.5t114 137.5t150 96.5t176 36q122 0 170 -113q3 -8 0.5 -14t-7.5 -6q-9 0 -22 18q-57 66 -115 66q-85 0 -165.5 -59.5 t-134.5 -146t-87 -181t-33 -168.5q0 -142 48.5 -201t152.5 -59q86 0 176 53q41 29 49 29q11 0 11 -13q0 -9 -11 -20q-114 -105 -286 -105q-124 0 -205.5 91t-81.5 229z" />
<glyph unicode="&#xab;" horiz-adv-x="1054" d="M61 430q0 18 27 35q127 80 381 283q19 15 39.5 31.5t32 26t22.5 18t18.5 12.5t12.5 4q18 0 18 -21q0 -9 -10 -24t-20.5 -27t-29 -32t-24.5 -27q-39 -44 -89.5 -91.5t-132.5 -117.5t-87 -74q109 -90 180 -176q76 -90 97 -133q12 -20 12 -41q0 -17 -25 -17q-14 0 -33 20 t-62 68.5t-93 92.5q-101 88 -207 153q-27 16 -27 37zM459 432q0 22 28 39q81 52 187 132t168 136q14 12 33.5 30.5t33 31t28 25t24 18.5t14.5 6q18 0 18 -21q0 -32 -82 -114q-132 -137 -319 -291q9 -10 36 -38.5t46 -50.5t41 -50q96 -127 96 -162q0 -10 -6 -16.5t-14 -6.5 q-14 0 -28.5 16t-54.5 63t-90 95q-44 42 -131 119q-28 22 -28 39z" />
<glyph unicode="&#xac;" horiz-adv-x="1026" d="M61 879q0 27 58 42t119 15q65 0 184.5 -4t161.5 -4q73 0 150.5 8t128 16.5t57.5 8.5q45 0 45 -35q0 -11 -5.5 -29.5t-11.5 -33t-16.5 -38.5t-13.5 -32q-50 -119 -80 -195q-17 -39 -35 -39q-27 0 -27 29q0 48 33 176q16 60 31 100q-120 -24 -281 -24q-89 0 -237.5 5 t-217.5 5q-22 0 -32.5 9t-10.5 20z" />
<glyph unicode="&#xad;" horiz-adv-x="616" d="M61 344q0 29 60.5 68t138.5 39q20 0 78 -10.5t78 -10.5q58 0 106 23q12 8 21 8q12 0 12 -12q0 -11 -6 -17q-70 -84 -176 -84q-40 0 -89.5 10.5t-66.5 10.5q-35 0 -82 -13q-6 -2 -30.5 -12t-32.5 -10q-11 0 -11 10z" />
<glyph unicode="&#xae;" horiz-adv-x="1562" d="M82 633q0 152 66.5 284.5t175 222t247.5 140.5t285 51q120 0 222 -33.5t175.5 -91.5t125.5 -135.5t77 -165.5t25 -182q0 -152 -55 -285t-153 -229.5t-241 -152.5t-311 -56q-188 0 -331 72.5t-225.5 217t-82.5 343.5zM190 635q0 -137 43.5 -248t120.5 -182.5t179.5 -109.5 t222.5 -38q78 0 159 21t164.5 72t148 126t105.5 195t41 268q0 244 -145 392.5t-373 148.5q-130 0 -252 -50.5t-213 -136t-146 -205.5t-55 -253zM395 322q-1 5 4 8.5t16.5 7.5t18.5 8q39 30 70 90t65 156q26 70 83.5 249.5t78.5 227.5q-26 -6 -115 -55q-10 -10 -24 -10 q-6 2 -6 10q0 10 26 30q121 91 260 91q113 0 169.5 -49.5t56.5 -122.5q0 -86 -66 -141t-158 -70q21 -98 89 -216.5t135 -168.5q10 -8 23 -16.5t17.5 -13.5t4.5 -11q0 -9 -17 -9q-28 0 -65 15q-221 86 -322 375q-14 -53 -44.5 -118t-72.5 -128.5t-97 -106.5t-109 -43 q-18 0 -21 11zM760 766q93 0 150 58t57 149q0 55 -29 87.5t-80 31.5z" />
<glyph unicode="&#xb0;" horiz-adv-x="694" d="M123 1130q0 73 75.5 137t190.5 64q71 0 126.5 -46t55.5 -132q0 -94 -76 -154.5t-176 -60.5q-83 0 -139.5 50.5t-56.5 141.5zM242 1116q0 -64 18 -101.5t66 -37.5q52 0 89.5 62t37.5 141q0 50 -19.5 81t-58.5 31q-45 0 -89 -58.5t-44 -117.5z" />
<glyph unicode="&#xb1;" horiz-adv-x="1028" d="M82 258q0 23 24 35.5t82 21.5q70 11 187 17q58 2 143.5 2.5t99.5 1.5q61 3 132 14.5t79 11.5q43 0 43 -18q0 -46 -117 -72t-298 -26q-132 0 -230 -7.5t-102 -7.5q-43 0 -43 27zM160 831q0 7 7.5 13t18.5 6q16 0 50 -6.5t55 -9.5q80 -10 205 -13q19 73 39 129 q9 27 29.5 69t52.5 82t57 40q14 0 14 -17q-1 -10 -9 -32.5t-19.5 -49t-14.5 -36.5q-34 -100 -51 -185q63 0 98 2q62 2 133.5 16.5t77.5 14.5q43 0 43 -18q0 -80 -303 -99l-68 -4q-6 -15 -15.5 -46t-15.5 -55l-7 -24q-37 -129 -52 -152q-11 -16 -24 -16q-25 0 -25 43 q0 28 8 90q3 26 31 162q-102 3 -203 23q-112 21 -112 73z" />
<glyph unicode="&#xb5;" horiz-adv-x="747" d="M-317 -401q0 6 9 12.5t26 15t22 11.5q65 38 125 98q101 101 181.5 255.5t158.5 375.5q16 49 39 114q19 51 37 51q9 0 14.5 -7.5t5.5 -18.5q0 -52 -20 -129q-27 -115 -78 -252q10 -80 59 -80q32 0 66.5 36.5t60.5 84t53 114.5t40 107t26 82q8 25 15.5 34t21.5 9h76 q18 0 18 -16q0 -15 -8 -43q-7 -28 -29.5 -104t-36.5 -135.5t-14 -96.5q0 -64 39 -64q21 0 51.5 23.5t34.5 23.5q10 0 10 -12q0 -27 -40.5 -57.5t-76.5 -30.5q-41 0 -64 10t-44 41q-18 29 -27 101q-16 -28 -27 -44t-35.5 -46t-54.5 -46t-63 -16q-30 0 -48 16.5t-34 44.5 q-33 -73 -67.5 -125t-100.5 -137q-57 -74 -148.5 -144.5t-152.5 -70.5q-20 0 -20 15z" />
<glyph unicode="&#xb6;" horiz-adv-x="1320" d="M-410 -1182q0 11 15 21q159 121 312 315t269.5 404.5t215.5 440t162.5 426.5t97.5 359q-85 14 -139 101.5t-54 171.5q0 89 52 156.5t134 101t179 33.5q37 0 149.5 -9.5t167.5 -9.5q155 0 279 23q18 3 45.5 12.5t31.5 9.5q19 0 19 -16t-30.5 -35.5t-80.5 -34.5 q-42 -13 -108 -24t-115 -11q-60 -288 -145 -570.5t-175 -477.5q-22 -50 -68.5 -127.5t-72.5 -77.5q-16 0 -16 14q0 10 6 19q16 26 80 174q38 94 69 177.5t56 169t40.5 140t34 145.5t25.5 127.5t26 144t25 140.5q-89 0 -180 15q-64 -454 -305 -1054t-531 -986 q-73 -96 -188.5 -218.5t-200.5 -174.5q-4 -2 -18.5 -11.5t-25 -14.5t-17.5 -5q-21 0 -21 16zM-229 -616q0 24 13.5 38.5t35.5 14.5q25 0 39 -14t14 -39q0 -22 -14.5 -36t-38.5 -14q-22 0 -35.5 14t-13.5 36z" />
<glyph unicode="&#xb7;" horiz-adv-x="493" d="M164 453q0 34 24 58t58 24q35 0 59.5 -24t24.5 -58q0 -35 -24.5 -59.5t-59.5 -24.5q-34 0 -58 24.5t-24 59.5z" />
<glyph unicode="&#xbb;" horiz-adv-x="1054" d="M61 80q0 33 82 115q123 128 320 290q-10 11 -29 31.5t-30.5 32.5t-29 33t-34.5 43q-96 127 -96 161q0 10 6 16.5t14 6.5q9 0 17.5 -6t21.5 -21t28 -33.5t43.5 -50t61.5 -63.5q44 -42 131 -119q29 -23 29 -39q0 -21 -29 -39q-81 -52 -186.5 -132t-167.5 -136 q-14 -12 -33.5 -30.5t-33 -31t-28 -25t-24 -18.5t-14.5 -6q-19 0 -19 21zM442 90q0 7 5.5 17.5t16 23.5t20 23.5t23 25t19.5 21.5q39 44 92 93t129.5 113.5t88.5 75.5q-112 93 -181 176q-73 85 -96 134q-12 20 -12 41q0 16 24 16q14 0 33 -19.5t62.5 -68t93.5 -92.5 q105 -91 207 -154q26 -16 26 -37q0 -19 -26 -35q-133 -83 -381 -282q-19 -15 -39.5 -31.5t-32 -26t-22.5 -18t-18.5 -12.5t-12.5 -4q-19 0 -19 20z" />
<glyph unicode="&#x401;" horiz-adv-x="1306" d="M123 567q0 106 40 200.5t106.5 163.5t153.5 123t181 85.5t189 42.5q-48 25 -78.5 70.5t-30.5 105.5q0 83 59.5 131.5t149.5 48.5q76 0 126 -48t50 -89q0 -23 -18 -23q-13 0 -19 15q-34 67 -110 67q-44 0 -83.5 -40.5t-39.5 -92.5q0 -50 29 -89t62.5 -55.5t65.5 -21.5 q39 -6 39 -24q0 -8 -7 -14.5t-17 -6.5q-12 0 -51.5 4t-53.5 4q-89 0 -183.5 -38.5t-177 -107.5t-135.5 -178.5t-53 -236.5q0 -92 31 -175.5t88 -149.5t146 -105t198 -39q135 0 216 29.5t190 109.5q39 29 45 29q14 0 14 -16q0 -15 -28.5 -47t-42.5 -41q-106 -84 -222 -124 t-272 -40q-133 0 -240.5 46.5t-175.5 126t-104.5 182t-36.5 218.5zM770 1675q0 23 15.5 39.5t37.5 16.5t38 -16.5t16 -39.5q0 -20 -16 -35.5t-38 -15.5t-37.5 15.5t-15.5 35.5zM954 1675q0 23 16 39.5t38 16.5t37.5 -16.5t15.5 -39.5q0 -20 -15.5 -35.5t-37.5 -15.5 t-38 15.5t-16 35.5z" />
<glyph unicode="&#x404;" horiz-adv-x="1142" d="M102 555q0 123 45.5 260.5t132 266t199 233t259.5 168t300 63.5q120 0 187 -55q41 -33 41 -53q0 -17 -25 -17q-9 0 -24 10t-32 22t-52 22t-78 10q-126 0 -244.5 -59.5t-208.5 -158t-156.5 -218t-101.5 -246.5q62 0 160.5 -18.5t132.5 -18.5q43 0 108.5 12.5t67.5 12.5 q16 0 16 -13q0 -18 -14 -28q-74 -56 -209 -56q-24 0 -94 7.5t-90 7.5q-46 0 -105 -9q-16 -88 -16 -151q0 -246 93.5 -372t252.5 -126q71 0 147.5 29t137.5 70q67 47 74 47q20 0 20 -19q0 -14 -25 -39q-163 -153 -434 -153q-209 0 -337 147t-128 422z" />
<glyph unicode="&#x406;" horiz-adv-x="770" d="M164 -23q0 13 14 19q50 19 72 37q50 41 101.5 168t98 297.5t91 347t98 353.5t102.5 280q-41 10 -86 10q-41 0 -95 -12.5t-56 -12.5q-21 0 -21 11q0 9 21 22q71 39 164 39q18 0 58 -1t56 -1q32 0 81 8t50 8q21 0 21 -14q0 -9 -4 -19t-20 -39t-29 -55q-50 -98 -112.5 -311 t-112 -415t-110 -399.5t-108.5 -274.5q32 -7 66 -7q32 0 71 13q25 10 39 10q13 0 13 -10q0 -27 -56 -41.5t-104 -14.5q-25 0 -81 1t-69 1q-28 0 -77 -7.5t-56 -8.5q-20 3 -20 18z" />
<glyph unicode="&#x407;" horiz-adv-x="770" d="M164 -23q0 13 14 19q50 19 72 37q50 41 101.5 168t98 297.5t91 347t98 353.5t102.5 280q-41 10 -86 10q-41 0 -95 -12.5t-56 -12.5q-21 0 -21 11q0 9 21 22q71 39 164 39q18 0 58 -1t56 -1q32 0 81 8t50 8q21 0 21 -14q0 -9 -4 -19t-20 -39t-29 -55q-50 -98 -112.5 -311 t-112 -415t-110 -399.5t-108.5 -274.5q32 -7 66 -7q32 0 71 13q25 10 39 10q13 0 13 -10q0 -27 -56 -41.5t-104 -14.5q-25 0 -81 1t-69 1q-28 0 -77 -7.5t-56 -8.5q-20 3 -20 18zM750 1757q0 23 15.5 39t37.5 16t37.5 -16t15.5 -39q0 -20 -15.5 -35.5t-37.5 -15.5 t-37.5 15.5t-15.5 35.5zM934 1757q0 23 15.5 39t37.5 16t37.5 -16t15.5 -39q0 -20 -15.5 -35.5t-37.5 -15.5t-37.5 15.5t-15.5 35.5z" />
<glyph unicode="&#x40e;" horiz-adv-x="1509" d="M41 -109q0 13 22 13q1 0 64 -9.5t139 -9.5q206 0 405 149.5t357 409.5q75 123 130.5 238.5t82 183t78.5 213.5q-26 -38 -53 -74t-72.5 -85.5t-90.5 -85t-103 -61t-113 -25.5q-81 0 -119.5 54.5t-38.5 147.5q0 58 18.5 132t40 133t40 127t18.5 116q0 35 -14.5 56.5 t-43.5 21.5q-55 0 -145 -72q-13 -10 -25 -10q-14 0 -14 12q0 8 6 17q36 54 107 92.5t149 38.5q61 0 107.5 -47t46.5 -131q0 -72 -28 -177t-56.5 -196.5t-28.5 -130.5q0 -19 1.5 -32t7 -29t19 -24.5t34.5 -8.5q27 0 63 21t69.5 50.5t77.5 79t76 89.5t75 99t64.5 90.5 t55.5 80.5q2 3 32 47.5t46.5 68t45 63t52.5 66.5t43 43q16 13 29 13q16 0 16 -13q0 -2 -4 -10q-32 -73 -77 -210.5t-64 -188.5q-14 -37 -64.5 -175.5t-76.5 -203.5t-84 -185.5t-127 -234.5q-68 -113 -162.5 -216.5t-211.5 -190.5t-259.5 -139t-286.5 -52q-119 0 -227 31 q-10 3 -19.5 12.5t-9.5 17.5zM1178 1845q0 43 30 73t70 30q33 0 56.5 -26t23.5 -69q0 -15 -7 -38.5t-16 -36.5q47 0 89 13.5t70 31.5t54.5 45.5t39.5 45.5t28 42q2 3 6.5 11t8 14t8.5 12.5t9.5 10t8.5 3.5q16 0 16 -20q0 -29 -39 -93q-57 -87 -143 -132.5t-162 -45.5 q-71 0 -111 34t-40 95z" />
<glyph unicode="&#x410;" horiz-adv-x="1675" d="M20 209q0 12 13 12q7 0 28 -24q144 -164 340 -164q269 0 539 295q-81 45 -127 102q-16 21 -16 41q0 12 12 12q3 0 12.5 -8.5t27 -25.5t32.5 -29q42 -34 90 -53q161 167 331 395t281 405.5t199 337.5q9 21 26.5 26t51.5 5q61 0 61 -27q0 -29 -84 -264 q-308 -857 -438 -1212q-11 -33 -35 -33h-147q-19 0 -19 16q0 14 14 47l68 187q-158 6 -287 59q-66 -71 -128.5 -124.5t-137 -100t-158 -71.5t-170.5 -25q-90 0 -175.5 36.5t-151.5 102.5q-19 19 -35.5 44t-16.5 38zM1026 348q57 -26 135.5 -39.5t132.5 -13.5 q101 224 373 919q-96 -165 -307 -452t-334 -414z" />
<glyph unicode="&#x411;" horiz-adv-x="1548" d="M20 -248q0 7 10.5 11.5t38.5 13t50 16.5q107 43 248 168q146 130 307 471q117 246 205 524t139 490q-174 0 -275.5 -67t-152.5 -191q-7 -10 -17 -10q-18 0 -18 26q0 47 49 118.5t139 121.5q116 63 304 63q87 0 310 -41t298 -41q153 0 262 50q10 4 26.5 13t28 15t13.5 6 q14 0 14 -10q0 -43 -106.5 -86t-247.5 -43q-90 0 -161 8.5t-156.5 24.5t-145.5 24q-38 -193 -115.5 -431.5t-151.5 -393.5q119 107 244 107q137 0 216 -84.5t79 -204.5q0 -106 -52.5 -203t-155 -161t-230.5 -64q-155 0 -254 94q-8 6 -17.5 17.5t-9.5 21.5q0 16 17 16 q12 0 28 -16q86 -70 185 -70q65 0 125 37.5t100.5 95.5t65 128.5t24.5 136.5q0 79 -39.5 136.5t-114.5 57.5t-135 -35.5t-125 -134.5q-115 -182 -174 -268q-163 -240 -385 -379q-49 -32 -132.5 -65t-129.5 -33q-15 0 -20 4t-5 16z" />
<glyph unicode="&#x412;" horiz-adv-x="1880" d="M20 -453q0 8 13 11.5t49 12t72 21.5q141 53 254 166q270 265 471 910q142 462 213 782q-69 -16 -161 -86t-169 -188q-7 -11 -14 -11q-13 0 -13 17q0 11 23 57q41 75 134 151.5t185 110.5q122 45 256 45q53 0 110 -15t85 -34q110 -67 110 -182q0 -111 -110 -185 q-38 -27 -121 -51q101 -14 180.5 -57.5t129.5 -106.5t76 -140t26 -163q0 -105 -46 -214.5t-124 -200t-193.5 -148t-243.5 -57.5q-58 0 -86.5 2t-76 18t-97.5 49q-12 9 -27.5 26.5t-15.5 25.5q0 16 15 16q4 0 12.5 -5.5t18 -13t10.5 -8.5q51 -36 98.5 -48.5t114.5 -12.5 q61 0 126 26t126.5 78.5t110.5 124.5t78.5 172.5t29.5 212.5q0 89 -33.5 170.5t-107 143.5t-175.5 78q-36 4 -51 4q-22 0 -22 14t16 18q99 24 160 90.5t61 163.5q0 86 -65 127q-45 29 -107 29q-45 0 -63 -4q-26 -179 -90.5 -424.5t-127.5 -421.5q-40 -113 -86 -219 t-115 -230.5t-145.5 -228.5t-179 -201t-213.5 -159q-49 -27 -122 -51.5t-117 -24.5q-46 0 -46 18z" />
<glyph unicode="&#x413;" horiz-adv-x="1200" d="M20 -90q0 18 15 18q6 0 18 -6q54 -27 105 -38t129 -11q54 0 132.5 30.5t135.5 80.5q177 155 324 452q93 188 192.5 499t134.5 529q-69 15 -145 15q-242 0 -367 -164q-27 -36 -44 -76t-23 -71t-10 -57t-9 -40t-16 -14q-23 0 -23 59q0 137 84 246q57 74 137.5 117.5t156 57 t171.5 13.5q75 0 205.5 -25t276.5 -50t260 -25q80 0 151 15.5t109.5 33.5t68 33.5t35.5 15.5q21 0 21 -18q0 -8 -25.5 -31.5t-58.5 -42.5q-58 -32 -144.5 -53t-171.5 -21q-83 0 -159.5 7t-128.5 16t-160 29q-114 -515 -287 -899q-60 -134 -142.5 -259.5t-170.5 -216.5 q-230 -241 -510 -241q-146 0 -252 71q-15 15 -15 21z" />
<glyph unicode="&#x414;" horiz-adv-x="1982" d="M512 1319q0 10 22 30.5t44 34.5q125 83 272.5 121.5t279.5 38.5q70 0 105 -4q10 44 17 104t12.5 126.5t7.5 84.5q0 5 4 9t8 4q6 0 14 -7t9 -16q7 -23 16 -84q14 -94 14 -237q303 -66 464 -264t161 -484q0 -149 -59 -287.5t-159.5 -242t-244.5 -166t-305 -62.5 q-50 0 -143 6.5t-146 6.5q-83 0 -180 -21.5t-104 -21.5q-6 0 -10.5 5t-4.5 11q0 10 14.5 30t43.5 57.5t51 70.5q193 300 332.5 668.5t175.5 635.5q-58 7 -113 7q-145 0 -260 -28t-227 -89q-14 -8 -40.5 -23.5t-40 -22.5t-18.5 -7q-12 0 -12 16zM862 82q49 6 109 6 q20 0 89 -3t105 -3q128 0 242 58t193.5 154.5t125.5 227t46 271.5q0 151 -46.5 279.5t-146.5 226t-242 137.5q-5 -194 -53 -404t-120 -387.5t-149.5 -321t-152.5 -241.5z" />
<glyph unicode="&#x415;" horiz-adv-x="1478" d="M307 573q0 109 37 204t100 166t149 125.5t182 88t200 47.5q-48 25 -78.5 70t-30.5 104q0 73 59.5 121.5t157.5 48.5q41 0 77 -16t56.5 -37.5t32 -41t11.5 -30.5q0 -18 -13 -18q-6 0 -26 20q-27 30 -49.5 41t-57.5 11q-47 0 -82 -35.5t-35 -81.5q0 -73 42.5 -118t93.5 -58 q1 0 7.5 -2t10 -3t9 -3.5t8.5 -4.5t5.5 -6t2.5 -8q0 -18 -23 -18q-11 0 -43 4t-55 4q-74 0 -150.5 -23.5t-149 -72.5t-129.5 -116.5t-91.5 -163.5t-34.5 -206q0 -217 126.5 -359.5t334.5 -142.5q137 0 274 70q32 16 70.5 43.5t64 46t33.5 19.5q14 0 14 -17t-40.5 -54 t-78.5 -62q-174 -115 -391 -115q-145 0 -261 46.5t-189 126.5t-111.5 184t-38.5 222z" />
<glyph unicode="&#x416;" horiz-adv-x="2183" d="M41 72q0 12 12 12q10 0 32 -8t66 -16.5t107 -8.5q112 0 223 55.5t201.5 151t161.5 216.5t110 261t39 275t-34.5 241.5t-106 171t-170.5 64.5q-60 0 -112.5 -11.5t-83 -23.5t-37.5 -12q-11 0 -11 10q0 11 43 35q102 51 238 51q139 0 242 -86q190 -158 190 -510 q0 -156 -64 -313q101 136 171.5 248t147 254t95.5 176q13 24 38.5 75t40 73t26.5 22q14 0 17 -9t3 -32q0 -47 -118 -435.5t-156 -486.5q13 21 76.5 124t114 182t135.5 195t167 208q282 315 529 315q91 0 141 -47q37 -37 37 -66q0 -20 -15 -20q-8 0 -20.5 12.5t-26.5 27.5 t-41.5 27.5t-60.5 12.5q-119 0 -240 -103q-182 -157 -280.5 -400.5t-98.5 -537.5q0 -56 7.5 -109t26 -106t47 -92t73.5 -63.5t102 -24.5q23 0 52 6t30 6q21 0 21 -12q0 -13 -14 -20q-52 -27 -119 -27q-84 0 -152 34t-110.5 88t-71 126t-40 143.5t-11.5 145.5q0 82 14 187 t45 183q-95 -133 -238 -362t-230 -358.5t-116 -129.5q-18 0 -18 25q0 15 23 81.5t90 270.5t145 465q-152 -259 -292 -436t-273.5 -277.5t-256.5 -143t-261 -42.5q-64 0 -132.5 23t-68.5 49z" />
<glyph unicode="&#x417;" horiz-adv-x="1472" d="M123 350q0 5 4.5 11t11.5 6q6 0 15 -11t22 -32t19 -29q178 -238 479 -238q108 0 201 36.5t158.5 97.5t112 141t69 167t22.5 175q0 143 -56.5 258.5t-174.5 163.5q-27 11 -84 22q-21 4 -21 21t29 20q95 10 165 62t70 141q0 60 -27.5 90.5t-76.5 30.5q-43 0 -85.5 -21 t-71 -42t-36.5 -21q-14 0 -14 12q0 17 16 33q100 100 254 100q84 0 140.5 -45.5t56.5 -130.5q0 -58 -30.5 -103.5t-77.5 -70t-89 -37t-80 -16.5q171 -44 278.5 -183.5t107.5 -310.5q0 -294 -207.5 -473.5t-544.5 -179.5q-163 0 -304.5 79t-226.5 218q-24 42 -24 59z" />
<glyph unicode="&#x418;" horiz-adv-x="1470" d="M328 211q0 71 25.5 170t63 201.5t118 328t153.5 447.5q105 317 105 506q0 159 -54 307q-8 21 -21 46t-21.5 40.5t-8.5 21.5t5.5 10.5t13.5 4.5q33 0 86 -105q50 -96 70 -220.5t20 -233.5q0 -110 -27.5 -272t-69.5 -314q-25 -87 -100.5 -325t-121.5 -404t-46 -234 q0 -60 14 -90t54 -30q82 0 200.5 158t222 375.5t169.5 424.5q18 54 135 449q11 38 22 50.5t37 12.5h111q28 0 28 -23q0 -24 -20 -96q-9 -30 -61 -208.5t-79.5 -281t-67.5 -259t-59.5 -270.5t-19.5 -187q0 -139 51 -195q11 -12 27 -20t28 -10.5t20.5 -7.5t8.5 -13 q0 -20 -39 -20q-76 0 -130.5 52t-78.5 129t-24 167q0 163 76 457q-9 -16 -42 -89t-79 -164t-94 -169q-46 -74 -88.5 -130t-94 -107t-107.5 -78t-114 -27q-90 0 -143 56t-53 169z" />
<glyph unicode="&#x419;" horiz-adv-x="1476" d="M328 215q0 48 12 106t41 142t56.5 156.5t80 208t90.5 237.5q32 87 46.5 131t31 126.5t16.5 158.5q0 54 -16 107t-32.5 88t-16.5 44q0 6 5.5 10.5t12.5 4.5q17 0 49.5 -50.5t61.5 -137.5t29 -169q0 -179 -76 -454q-31 -111 -89.5 -295.5t-92 -302t-33.5 -168.5 q0 -45 18 -70t47 -25q78 0 172 97q97 103 197 282q156 281 254 572q34 98 62.5 188.5t52.5 171t30 99.5q11 37 22.5 50t37.5 13h110q31 0 31 -20q0 -12 -3.5 -27.5t-12 -43.5t-11.5 -38q-16 -55 -82 -265t-108.5 -352t-81.5 -316.5t-39 -266.5q0 -141 57 -193 q17 -15 35.5 -23t29.5 -9t18.5 -5t7.5 -12q0 -20 -39 -20q-111 0 -181.5 88t-70.5 235q0 97 17.5 204.5t70.5 277.5q-5 -11 -39.5 -89t-77.5 -164.5t-92 -166.5q-208 -344 -410 -344q-90 0 -144 58t-54 171zM991 1845q0 43 30 73t71 30q33 0 56 -26t23 -69q0 -42 -22 -75 q47 0 89 13.5t70 31.5t54.5 45.5t39.5 45.5t28 42q2 3 6.5 11t8 14t8 12.5t9 10t8.5 3.5q17 0 17 -20q0 -29 -39 -93q-57 -87 -143 -132.5t-162 -45.5q-71 0 -111.5 34t-40.5 95z" />
<glyph unicode="&#x41a;" horiz-adv-x="1466" d="M82 76q0 16 16 16q9 0 25 -15.5t45.5 -31.5t69.5 -16q72 0 132 47.5t101 120.5q46 85 87 174.5t78 192t62.5 176.5t57.5 192t46 171t45.5 181t39.5 158q-41 4 -138.5 23.5t-121.5 19.5q-69 -1 -113.5 -17.5t-85.5 -54.5q-18 -15 -36 -37.5t-28.5 -35.5t-17.5 -13 q-12 0 -12 16q0 31 43 87q94 112 262 112q37 0 135.5 -16.5t134.5 -16.5q43 0 100 11.5t66 11.5q23 0 23 -21q0 -10 -4 -30q-129 -486 -187 -629q42 1 82 13t73 29.5t70.5 51.5t65.5 63t68 81.5t66.5 90.5t72.5 105q179 264 299 381q54 53 118 91t91 38q10 0 10 -10 q0 -8 -9 -16.5t-36 -27.5t-47 -36q-130 -105 -281 -328q-12 -19 -67.5 -105t-91.5 -140.5t-86.5 -120.5t-85.5 -97q-56 -47 -82 -64.5t-80 -41.5q7 -30 29 -134t36.5 -162t45.5 -157.5t69 -191.5q27 -65 43.5 -102.5t49 -101.5t71.5 -123t86 -116q95 -112 203 -178 q10 -7 22 -14.5l20 -12.5t15 -10t10.5 -9t3.5 -7q0 -14 -26 -14q-36 0 -135.5 60.5t-186.5 144.5q-77 76 -160 181.5t-129 196.5q-55 108 -85.5 171.5t-81.5 203.5t-91 297q-11 -37 -27.5 -82t-48.5 -122t-67.5 -147.5t-86 -147t-103 -132t-118.5 -91.5t-132 -36 q-78 0 -135 34.5t-66 68.5z" />
<glyph unicode="&#x41b;" horiz-adv-x="1789" d="M20 260q0 16 17 16q6 0 24 -23.5t49.5 -57t75.5 -66.5t115.5 -56.5t155.5 -23.5q73 0 144 17t126.5 42t113.5 64t98 72t87 78q112 105 219.5 230t188.5 235t166.5 243.5t141 227.5t124.5 215q12 22 18 32q17 31 49 31h64q19 0 26 -3.5t7 -14.5q0 -9 -2 -17 q-17 -66 -109.5 -323t-244 -665.5t-171.5 -463.5q-19 -47 -47 -47h-121q-24 0 -24 31q0 22 24 92q22 58 75.5 192.5t150.5 376.5t186 469q-158 -267 -342 -507t-348 -394q-289 -270 -600 -270q-78 0 -150.5 21t-147 75t-126.5 137q-13 26 -13 35z" />
<glyph unicode="&#x41c;" horiz-adv-x="2654" d="M-102 -295q0 14 14 14q6 0 17.5 -7t33.5 -19.5t45 -22.5q119 -51 277 -51q93 0 211.5 35t216.5 92q146 84 281 200t223 210q177 196 344 450q140 216 280 471q37 67 81.5 151.5t88.5 170t62 119.5q41 77 63 77q23 0 23 -24q0 -16 -15 -78q-203 -744 -289 -1198 q78 88 185.5 237.5t177.5 266.5q58 97 149 246t151 249t101 170q38 66 56 66q20 0 20 -25q0 -20 -26 -96q-35 -99 -100 -309t-113 -398q-28 -113 -42 -229.5t-14 -173.5q0 -172 45 -274q15 -37 43 -70q23 -26 23 -33q0 -16 -23 -16q-59 0 -121 59q-133 128 -133 400 q0 79 18.5 215t63.5 276q-91 -165 -188 -311q-140 -210 -383 -479q-77 -82 -98 -82q-27 0 -27 34q0 38 6 80q44 230 82.5 389.5t120.5 430.5q-134 -267 -265.5 -454t-295.5 -362q-130 -139 -244 -235t-248 -176q-95 -58 -219 -94.5t-260 -36.5q-152 0 -281 55 q-35 14 -76.5 43.5t-41.5 46.5z" />
<glyph unicode="&#x41d;" horiz-adv-x="1865" d="M61 31q0 16 15 16q13 -4 33.5 -21t37.5 -26q111 -57 203 -57q148 0 252 65t219 223q69 95 136 233.5t133 323t110 323t109 353.5q-51 0 -138 13.5t-127 13.5q-132 0 -241 -96q-86 -78 -121 -207q-7 -23 -25 -23q-6 0 -11 6t-5 15q0 35 17 80.5t40 81.5q22 37 53.5 69.5 t78 64.5t112.5 51t143 19q56 0 135 -6t91 -6q100 0 170 31q4 4 17.5 9t19.5 5q18 0 18 -16q0 -17 -14 -64q-129 -444 -240 -694q20 -2 59 -2q125 0 230 20q129 342 272 621q26 50 46.5 68t47.5 18h56q18 0 27.5 -4.5t9.5 -20.5q0 -6 -1 -12.5t-4.5 -16t-7 -18.5t-11 -25.5 t-14.5 -30.5t-19 -40t-23 -49q-247 -520 -363 -961q-24 -91 -24 -202q0 -39 20.5 -76t61.5 -37t75 27q21 14 23 14q14 0 14 -14q0 -13 -20 -33q-25 -26 -61 -39.5t-68 -13.5q-99 0 -149 62t-50 171q0 91 38 251.5t99 303.5q-101 -16 -184 -16q-26 0 -61.5 1t-36.5 1 q-49 -145 -173.5 -350.5t-218.5 -307.5q-86 -94 -214.5 -153.5t-249.5 -59.5q-184 0 -316 103q-10 6 -20.5 20t-10.5 21z" />
<glyph unicode="&#x41e;" horiz-adv-x="1642" d="M410 481q0 159 45 319t129.5 298t196 245t253.5 168.5t293 61.5q101 0 179.5 -43t125 -116.5t69.5 -162.5t23 -188q0 -123 -31.5 -255t-92.5 -263t-160.5 -254t-225.5 -215q-195 -137 -393 -137q-105 0 -185.5 44t-129 120.5t-72.5 172t-24 205.5zM571 338q0 -51 6.5 -98 t24 -94.5t44 -82.5t69.5 -57t98 -22q145 0 277 116q113 100 206.5 249.5t150 303.5t87.5 299.5t31 259.5q0 63 -14 118.5t-42.5 100.5t-75.5 71t-108 26q-97 0 -189 -43.5t-166 -117.5t-138.5 -172t-111.5 -208.5t-81 -224.5t-51 -222.5t-17 -201.5z" />
<glyph unicode="&#x41f;" horiz-adv-x="1673" d="M82 -156q0 19 22 19q56 -8 86 -8q107 0 201.5 35t170.5 100t136 143.5t115 179.5q225 416 457 1176q-62 12 -172 12q-126 0 -231.5 -26.5t-213.5 -96.5q-114 -75 -169.5 -183t-55.5 -216q0 -80 14 -127q4 -12 10 -27t9.5 -24t3.5 -13q0 -14 -10 -14q-25 0 -52.5 68 t-27.5 147q0 255 235 436q108 84 247.5 116t328.5 32q44 0 302 -25.5t431 -25.5q103 0 186.5 11.5t131 27.5t80 32t50.5 27.5t25 11.5q18 0 18 -16q0 -24 -54 -60t-128 -59q-46 -14 -94 -24t-99.5 -15t-80 -7.5t-79 -4.5t-52.5 -2q-17 -57 -61.5 -212.5t-65.5 -227.5 t-65 -212.5t-78 -238t-84 -229t-103 -256.5q-15 -37 -32 -52.5t-42 -15.5h-71q-52 0 -52 33q0 20 84 221q98 227 215 571.5t197 638.5l-225 15q-59 -254 -200 -617t-275 -561q-53 -78 -103.5 -141.5t-123 -133t-146 -117t-168.5 -78t-195 -30.5q-71 0 -127 21q-16 6 -20 22z " />
<glyph unicode="&#x420;" horiz-adv-x="1331" d="M20 -201q0 15 17 15q4 0 13 -6.5t21 -15.5t19 -13q45 -23 100 -23q189 0 388 437q49 109 138.5 329t127.5 330q137 390 223 578q-90 -32 -188.5 -97.5t-161.5 -128.5q-30 -30 -43 -30q-10 0 -10 10q0 11 15 35t36 43q96 92 174 141q47 30 112.5 62.5t110.5 47.5 q37 73 98 167.5t107 142.5q25 28 45 28q8 0 11 -2.5t3 -11.5q0 -8 -9 -26t-24 -47t-24 -48q-39 -86 -68 -180q54 10 119 10q70 0 153.5 -20.5t131.5 -55.5q143 -106 143 -288q0 -145 -79.5 -258t-192.5 -172q-165 -86 -373 -86q-84 0 -84 24q0 7 11 9.5t44 4.5h7.5t7 0.5 t8.5 0.5q180 12 293 120q74 70 114.5 171t40.5 202q0 122 -71 206.5t-199 84.5q-43 0 -92 -12q-64 -207 -167.5 -507t-162.5 -442q-173 -409 -311 -589q-40 -52 -78.5 -91t-87 -74t-105.5 -54t-120 -19q-78 0 -127 35q-54 38 -54 63z" />
<glyph unicode="&#x421;" horiz-adv-x="1509" d="M512 504q0 123 37.5 252t103 245.5t159.5 220.5t202.5 179.5t237 119.5t257.5 44q110 0 183 -45.5t100 -124.5q4 -12 4 -19q0 -12 -12 -12q-14 0 -37 29q-51 58 -103.5 81t-117.5 23q-105 0 -211.5 -50t-196.5 -133.5t-168.5 -194t-133.5 -230.5t-86.5 -244t-31.5 -233 q0 -185 78.5 -276t214.5 -91q188 0 361 105q13 8 30.5 20.5t28 19.5t14.5 7q21 0 21 -19q0 -8 -25 -33q-187 -159 -434 -159q-226 0 -350.5 136t-124.5 382z" />
<glyph unicode="&#x422;" horiz-adv-x="2174" d="M123 -141q0 6 6 10t12 4q3 0 50.5 -17.5t91.5 -17.5q60 0 113 20t96.5 57.5t74 72.5t64.5 84q56 81 110.5 184t96.5 196.5t88 223t74 215.5t67 224t55 199.5t49 188.5q-249 0 -407 -61q-99 -37 -175 -93.5t-122.5 -123.5t-73 -133.5t-39.5 -139.5q-4 -26 -7 -54.5 t-4.5 -46t-3.5 -32.5t-5.5 -21.5t-9.5 -6.5q-14 0 -22.5 34t-8.5 68q0 394 338 584q119 67 251.5 91.5t317.5 24.5q117 0 299 -30.5t373 -61.5t332 -31q104 0 189.5 14t135 33.5t83 39t51.5 33.5t24 14q20 0 20 -17q0 -23 -78 -76t-167 -79q-146 -41 -293 -41 q-77 -202 -184 -607q-35 -136 -55.5 -268t-20.5 -213q0 -193 76 -272q1 -1 6.5 -6t9 -8.5t7 -9t3.5 -9.5q0 -18 -31 -18q-52 0 -102 45q-47 43 -81 133.5t-34 216.5q0 235 113 649q62 227 119 383q-33 4 -80.5 11t-95 14.5t-58.5 9.5q-71 -313 -191.5 -726t-223.5 -653 q-13 -31 -32.5 -47t-53.5 -16h-62q-40 0 -43 27q0 9 6 24q84 203 174 491.5t140.5 475t115.5 444.5q-134 26 -229 33q-158 -598 -336 -995q-41 -92 -89 -183t-127 -206t-155 -183q-157 -145 -352 -145q-92 0 -156 43q-24 16 -24 33z" />
<glyph unicode="&#x423;" horiz-adv-x="1454" d="M20 -205q0 12 23 12q1 0 56.5 -10t131.5 -10q243 0 472 165t405 476q147 259 278 651q-26 -38 -53 -74t-72.5 -85.5t-90.5 -85t-103 -61t-113 -25.5q-82 0 -124 55t-42 147q0 73 31 169.5t62.5 187.5t31.5 151q0 78 -57 78q-55 0 -145 -72q-13 -10 -25 -10q-14 0 -14 12 q0 8 6 17q36 54 107 92.5t149 38.5q61 0 107 -47t46 -131t-27 -197.5t-54 -204.5t-27 -119q0 -16 1.5 -26.5t6.5 -23.5t17.5 -20t31.5 -7q27 0 62.5 21t70 51t78 79t76 89.5t75 98.5t65 90.5t55.5 80.5q2 3 32 47.5t46.5 68t45 63t52.5 66.5t43 43q16 13 28 13q17 0 17 -13 q0 -2 -4 -10q-32 -73 -78 -211.5t-64 -187.5q-17 -44 -73 -197t-88 -237t-82.5 -195.5t-92.5 -175.5q-227 -356 -485.5 -522t-558.5 -166q-102 0 -207 30q-10 3 -19.5 13t-9.5 18z" />
<glyph unicode="&#x424;" horiz-adv-x="1613" d="M20 -150q0 15 17 15q2 0 26 -12q48 -31 116 -46.5t122 -15.5q279 0 502 270q120 146 192.5 281t147.5 334q-76 -43 -160 -43q-155 0 -234 92.5t-79 261.5q0 100 43.5 199.5t115 176.5t171.5 125t206 48q123 0 180 -63q48 198 68 389q-97 0 -207 18t-147 18q-45 0 -97 -11 t-59 -11q-18 0 -18 18q0 13 16 19q89 39 191 39q23 0 102.5 -13.5t124.5 -13.5q62 0 133 14q25 5 52 13.5t44.5 14t24.5 5.5q12 0 22.5 -6t10.5 -18q0 -57 -9 -136q-13 -129 -59 -350q104 74 240 74q106 0 179 -84t73 -221q0 -159 -68 -295t-193 -218.5t-278 -82.5 q-51 0 -102.5 19t-86.5 55q-90 -220 -158.5 -348.5t-170.5 -249.5q-68 -81 -136.5 -144.5t-153.5 -119.5t-184.5 -86.5t-205.5 -30.5q-193 0 -295 90q-19 19 -19 30zM854 897q0 -103 43 -159t109 -56q83 0 159 57q132 347 211 682q-50 64 -131 64q-87 0 -163 -57 t-124.5 -145t-76 -190t-27.5 -196zM1360 748q56 -60 145 -60q77 0 148.5 56.5t119.5 142.5t76.5 188t28.5 195q0 98 -38 151.5t-111 53.5q-80 0 -164 -80q-60 -245 -205 -647z" />
<glyph unicode="&#x425;" horiz-adv-x="1724" d="M123 -215q0 10 24 22q94 42 191.5 117t181 164t159 181.5t137.5 186t103.5 161t69.5 120.5q-65 318 -123.5 487t-122.5 228q-29 26 -52.5 35.5t-57.5 9.5q-54 0 -98 -31q-18 -12 -21 -12q-14 0 -14 14q0 13 8 21q64 67 178 67q123 0 220.5 -86t148.5 -266 q43 -152 86 -309q64 106 134 205.5t155.5 201t182.5 184t191 130.5q40 20 62 20q18 0 18 -12q0 -8 -14 -19.5t-50 -36.5q-3 -2 -5.5 -3.5t-4.5 -3.5q-128 -89 -264 -246q-81 -94 -201 -261t-174 -276q82 -480 199 -647q60 -86 133 -86q47 0 78 31q8 8 16 8q11 0 11 -12 q0 -18 -19 -37q-48 -51 -145 -51q-56 0 -103.5 19.5t-88.5 73.5t-67 91t-61 131.5t-47.5 133.5t-47.5 153q-5 15 -7 22q-15 -23 -57.5 -89.5t-70.5 -109t-80.5 -113t-100.5 -125.5t-117 -121.5t-143 -123.5q-72 -53 -162 -102t-141 -49q-27 0 -27 10z" />
<glyph unicode="&#x426;" horiz-adv-x="1511" d="M246 -895q0 12 20 12q2 0 15 -1.5t33 -3t40 -1.5q52 0 118.5 31.5t119.5 81.5q40 37 82.5 86t74 91t94 126t109.5 145q180 237 275 334q-45 -18 -88 -18q-85 0 -123.5 62.5t-38.5 166.5q0 88 32.5 226.5t92.5 291.5q-4 -6 -79 -156.5t-146 -259.5q-102 -158 -205 -245.5 t-219 -87.5q-71 0 -113.5 49t-42.5 131q0 60 26.5 163.5t58 195t94 266t97.5 278.5q46 134 71.5 215.5t50 194.5t24.5 192q0 129 -31 236q-6 22 -16 46t-16.5 38t-6.5 20t6.5 10t14.5 4q7 0 13.5 -4.5t13.5 -16t11.5 -21t13.5 -29.5t15 -31q38 -78 57 -198t19 -205 q0 -254 -131 -648q-14 -44 -42.5 -129t-43.5 -129.5t-37 -114t-34 -112t-24.5 -92t-18 -84.5t-5.5 -61q0 -78 60 -78q52 0 119 67t163 213q174 264 355 680q140 325 180 441q12 37 25 50t40 13h107q26 0 26 -23q0 -14 -28 -96q-28 -79 -105.5 -276.5t-136.5 -352.5 t-108.5 -332t-49.5 -278q0 -28 2.5 -48t10 -41.5t23.5 -32.5t40 -11q45 0 98 49q10 9 21 19.5t18 17.5t14 13t12 9t9 3q21 0 21 -19q0 -4 -1.5 -9.5t-5.5 -13.5l-7.5 -15t-11 -20t-13 -21.5t-16 -25.5t-17.5 -28q-9 -14 -78.5 -137t-140.5 -234q-100 -157 -192.5 -262 t-207.5 -186q-74 -51 -166 -86t-167 -35q-45 0 -74.5 7.5t-39 16t-9.5 17.5z" />
<glyph unicode="&#x427;" horiz-adv-x="1251" d="M82 1313q0 11 35 53q90 107 233 184.5t266 77.5q107 0 154 -48.5t47 -145.5q0 -58 -45 -224.5t-45 -205.5q0 -105 70 -105q75 0 162 90t159.5 220.5t134.5 289.5q8 23 20.5 30t35.5 7h77q29 0 29 -23q0 -17 -50.5 -137.5t-153 -376.5t-195.5 -522q-76 -215 -76 -307 q0 -133 98 -133q29 0 54 12t41 24.5t22 12.5q12 0 12 -16q-2 -23 -46.5 -54.5t-108.5 -31.5q-215 0 -215 258q0 99 73.5 317.5t184.5 464.5q-65 -84 -146.5 -140.5t-150.5 -56.5q-89 0 -138 54t-49 145q0 84 47.5 232t47.5 198q0 105 -101 105q-105 0 -227.5 -75.5 t-212.5 -172.5q-19 -19 -31 -19t-12 19z" />
<glyph unicode="&#x428;" horiz-adv-x="2179" d="M369 190q0 74 30.5 192.5t68.5 226t96 270t91 264.5q63 199 88.5 285.5t49.5 204t24 204.5q0 110 -31 238q-6 22 -15 47t-15 40t-6 21t6 10.5t14 4.5q27 0 70 -103q34 -87 50.5 -198.5t16.5 -190.5q0 -105 -25 -273.5t-79 -351.5q-33 -110 -110.5 -352t-112.5 -370 t-35 -189q0 -98 67 -98q51 0 114 64t161 210q80 119 154 278t173 402q99 244 168 444q12 37 25.5 50.5t40.5 13.5h106q27 0 27 -23q0 -11 -29 -96q-52 -148 -80 -230.5t-88 -267t-94 -304t-63 -249.5t-29 -196q0 -64 12 -92.5t43 -28.5q51 0 111 65t139 195q82 135 149 296 t150 401q44 125 99 289t59 177q13 37 25.5 50.5t39.5 13.5h107q27 0 27 -23q0 -11 -29 -96q-348 -949 -348 -1265q0 -132 96 -132q60 0 121 48q19 15 38 36t30 32t18 11q20 0 20 -20q0 -34 -75 -100q-87 -76 -189 -76q-104 0 -155.5 67.5t-51.5 171.5q0 96 18 194.5 t72 248.5q-11 -21 -65.5 -147t-104.5 -208q-25 -40 -42 -66t-54.5 -74t-69.5 -77.5t-75 -53t-82 -23.5q-108 0 -151.5 59t-43.5 170q0 85 34.5 225.5t96.5 296.5q-10 -17 -43.5 -86t-82.5 -159.5t-101 -174.5q-96 -153 -201.5 -243t-212.5 -90q-65 0 -111 54.5t-46 155.5z " />
<glyph unicode="&#x429;" horiz-adv-x="2134" d="M369 195q0 84 42 225.5t120 346.5t90 241q75 224 107 365.5t32 256.5q0 116 -29 236q-6 22 -15.5 47t-15.5 40t-6 21t6.5 10.5t14.5 4.5q9 0 18 -8.5t19 -26.5t16.5 -32.5t17.5 -41.5q36 -90 55 -198t19 -195q0 -259 -106 -604q-27 -86 -72 -226t-71 -221t-47 -165 t-21 -124q0 -33 12.5 -57t38.5 -24q51 0 116.5 66.5t168.5 213.5q28 41 57 92.5t50 93t53 116t47.5 112.5t54 133.5t53.5 132.5q52 129 109.5 282.5t60.5 161.5q14 38 27 51t39 13h110q27 0 27 -23q0 -11 -29 -96q-352 -1013 -352 -1247q0 -67 10 -93t43 -26q51 0 111 64.5 t139 193.5q34 56 65 116.5t63 138.5t52 130t59 157t58 155q35 93 70 188.5t62.5 173.5t37.5 104q13 37 25.5 50.5t39.5 13.5h107q26 0 26 -23q0 -14 -28 -96q-15 -44 -97.5 -269.5t-132.5 -372t-98.5 -334.5t-48.5 -289q0 -28 2 -48t9 -41.5t23 -33t40 -11.5q44 0 98 50 q10 9 21 19.5t18 17t14 12.5t12 9t9 3q20 0 20 -18q0 -19 -62 -120q-6 -9 -9 -14q-5 -8 -77 -133t-145 -237q-117 -179 -209 -281.5t-223 -169.5q-157 -80 -309 -80q-45 0 -75 8t-40 17t-10 18q0 13 21 13q2 0 15 -2t33 -3.5t40 -1.5q122 0 237 74q57 37 106 86t79.5 90 t90.5 125.5t107 145.5q21 27 66.5 88t70.5 94t61 77t66 74q-45 -18 -88 -18q-85 0 -123.5 62.5t-38.5 166.5q0 80 25 176t86 267q-11 -21 -65.5 -147t-104.5 -208q-25 -40 -42 -66t-54.5 -74t-69.5 -77.5t-75 -53t-82 -23.5q-108 0 -151.5 59t-43.5 170q0 166 139 518 q-8 -13 -80.5 -160.5t-142.5 -255.5q-216 -333 -399 -333q-74 0 -122 56t-48 159z" />
<glyph unicode="&#x42a;" horiz-adv-x="1314" d="M246 1376q0 16 15 40.5t34 43.5q54 50 112 66t132 16q48 0 144.5 -11t150.5 -11q44 0 109.5 10t74.5 10q8 0 15 -7t7 -13q0 -19 -14 -33q-135 -181 -265.5 -425t-187.5 -460q62 67 153 102t187 35q132 0 226 -85.5t94 -245.5q0 -76 -36 -151t-100 -136t-161.5 -99 t-210.5 -38q-52 0 -102 13.5t-99.5 47t-86 83t-59 127.5t-22.5 175q0 210 130 481.5t333 536.5q-12 -2 -37 -2q-46 0 -141.5 17.5t-142.5 17.5q-61 0 -111 -19q-27 -11 -56.5 -37t-49.5 -59q-8 -14 -21 -14q-14 0 -14 24zM524 311q0 -122 53 -200t158 -78q111 0 204 105.5 t93 260.5q0 114 -51 187t-150 73q-75 0 -150 -38.5t-124 -104.5q-33 -95 -33 -205z" />
<glyph unicode="&#x42b;" horiz-adv-x="1710" d="M406 406q0 123 30.5 260.5t73.5 242.5q106 259 260 480q57 83 135.5 160t110.5 77q16 0 16 -10q0 -13 -14 -27q-34 -36 -59 -71.5t-66 -104.5q-84 -139 -164.5 -370t-118.5 -443q122 148 297 148q122 0 204.5 -99t82.5 -237q0 -103 -55 -199t-157.5 -158.5t-225.5 -62.5 q-156 0 -253 110.5t-97 303.5zM575 293q0 -104 45 -176t123 -72q87 0 149 62t89 152t27 194q0 106 -43.5 170.5t-118.5 64.5q-33 0 -76.5 -20t-77.5 -54q-57 -56 -87 -143.5t-30 -177.5zM1376 340q0 389 213 868q109 244 164 308q17 20 57 20h82q25 -3 25 -25 q0 -13 -31 -72.5t-73 -137t-95 -197.5t-88 -232q-65 -201 -99 -347t-34 -279q0 -151 16 -213q6 -23 14 -46.5t12.5 -36.5t4.5 -18q0 -14 -16 -14q-16 1 -39 25.5t-37 48.5q-76 126 -76 348z" />
<glyph unicode="&#x42c;" horiz-adv-x="1263" d="M369 410q0 152 40 318.5t95 291.5q118 272 235 444q67 100 188.5 229.5t157.5 129.5q15 0 15 -13q0 -5 -15 -20q-34 -34 -92 -114t-96 -144q-224 -365 -315 -930q126 150 299 150q133 0 217 -98t84 -242q0 -68 -34 -141.5t-91.5 -136t-145 -102.5t-184.5 -40 q-91 0 -161 33.5t-112 91.5t-63.5 132t-21.5 161zM541 293q0 -103 47.5 -175.5t126.5 -72.5q127 0 199.5 115t72.5 293q0 104 -48.5 167.5t-125.5 63.5q-34 0 -77.5 -17.5t-76.5 -50.5q-56 -56 -87 -145t-31 -178z" />
<glyph unicode="&#x42d;" horiz-adv-x="1392" d="M123 279q0 32 20 32q9 0 28 -26.5t50 -64t74.5 -75t115 -64t156.5 -26.5q139 0 268 99t214 245q14 24 45 96.5t45 114.5q-33 -2 -109 -2q-66 0 -223 19q-16 1 -24.5 13t-8.5 26q0 18 14 27t31 9q9 0 90.5 -8t124.5 -8q86 0 131 12q84 232 84 422q0 108 -33 190.5 t-106.5 133.5t-181.5 51q-105 0 -204 -36.5t-212 -125.5q-23 -18 -52 -46.5t-47 -45t-26 -16.5q-14 0 -14 12q0 22 47 76q233 239 518 239q106 0 190.5 -31t141 -84.5t94 -127.5t54 -156.5t16.5 -175.5q0 -138 -40 -280.5t-117 -270t-179 -228t-236 -159.5t-278 -59 q-139 0 -258.5 68t-186.5 188q-16 32 -16 43z" />
<glyph unicode="&#x42e;" horiz-adv-x="2410" d="M20 -377q0 8 8.5 13.5t32 14t35.5 13.5q156 70 301 217q133 136 250 337.5t190 387.5t130 380.5t81 305t33 172.5q-34 5 -93.5 21t-131.5 16q-51 0 -87.5 -7t-84.5 -34q-16 -9 -31.5 -19t-23 -14.5t-14.5 -8t-13 -3.5q-14 0 -14 15q0 20 43 49q113 84 260 84 q42 0 124.5 -13.5t119.5 -13.5q17 0 68.5 2t64.5 2q9 0 15.5 -7.5t6.5 -19.5q0 -59 -24 -157q-79 -321 -168 -578h235q33 99 82.5 196t121 193.5t153.5 169.5t186.5 118.5t214.5 45.5q182 0 291.5 -135.5t109.5 -341.5q0 -195 -65.5 -382.5t-174.5 -328t-260 -227 t-313 -86.5q-165 0 -276 133t-111 354q0 99 29 230h-242q-53 -134 -112 -248.5t-154 -265.5q-52 -81 -153.5 -192t-245.5 -222q-88 -67 -182.5 -113t-149.5 -59q-36 -6 -43 -6q-19 0 -19 12zM1489 432q0 -49 4.5 -94.5t19.5 -98t39.5 -91t67.5 -64t100 -25.5q92 0 181 61.5 t159.5 168t125.5 240t84.5 285.5t29.5 298q0 47 -5 90t-20 88.5t-38 77.5t-62 53t-90 21q-88 0 -167 -39.5t-138 -106t-108.5 -154t-82.5 -181.5t-56 -191.5t-33.5 -182.5t-10.5 -155z" />
<glyph unicode="&#x42f;" horiz-adv-x="1863" d="M10 -492q0 57 299 467q198 274 525.5 580t545.5 424q-172 78 -172 258q0 107 67 186.5t176 118.5t243 39q195 0 350 -51q45 -15 45 -37q0 -6 -23 -72q-265 -709 -460 -1362q-10 -33 -23 -46t-31 -13h-110q-37 0 -37 37q0 105 319 948q105 284 203 518q-52 19 -151 19 q-84 -1 -157 -30t-121.5 -76t-76.5 -107.5t-28 -124.5q0 -82 31.5 -130.5t88.5 -84.5q36 -20 80 -27q25 -4 25 -20q0 -10 -21 -21q-143 -83 -258 -164q-280 -198 -611.5 -504.5t-598.5 -640.5q-82 -104 -102 -104q-17 0 -17 20z" />
<glyph unicode="&#x430;" horiz-adv-x="761" d="M61 188q0 94 51 177.5t138 128.5q31 17 82 27.5t94 10.5q47 0 82 -26t47 -74q10 39 23 62q11 18 34 18h90q19 0 19 -12q0 -8 -16 -58q-24 -72 -47 -174.5t-23 -154.5q0 -82 37 -119q14 -14 14 -23q0 -16 -33 -16q-18 0 -50.5 13t-53.5 36q-19 23 -29.5 38t-20.5 40.5 t-12 54.5q-33 -60 -88.5 -106.5t-130.5 -46.5q-90 0 -148.5 60t-58.5 144zM219 160q0 -127 78 -127q63 0 127 84q38 52 66 131.5t28 128.5q0 106 -69 106q-36 0 -78.5 -29t-75.5 -75q-37 -52 -56.5 -111.5t-19.5 -107.5z" />
<glyph unicode="&#x431;" horiz-adv-x="706" d="M61 233q0 113 92 196t218 83q128 0 194 -82q-20 64 -62.5 187.5t-66.5 198t-44.5 176t-20.5 184.5q0 177 74 310t227 240q127 89 292.5 136t297.5 47q6 0 12 -4.5t6 -10.5q0 -14 -26.5 -19t-102.5 -21t-160 -50q-156 -63 -262 -172q-99 -102 -154 -245.5t-55 -313.5 q0 -79 12 -168.5t23.5 -144.5t37 -160t34.5 -143q20 -89 20 -185q0 -97 -52 -165t-128 -101q-49 -22 -131 -22q-72 0 -125 18q-69 25 -109.5 86.5t-40.5 144.5zM219 193q0 -80 29.5 -126.5t81.5 -46.5q77 0 129.5 90t52.5 205q0 68 -28 108t-81 40q-81 0 -132.5 -82.5 t-51.5 -187.5z" />
<glyph unicode="&#x432;" horiz-adv-x="718" d="M-614 1186q0 8 3.5 10t12.5 2q5 0 28.5 -18t67.5 -48.5t88 -54.5q168 -90 333 -140t376 -60q49 85 111 171t146 175.5t172 157.5t192.5 111.5t203.5 43.5q82 0 127 -49t45 -121q0 -81 -39.5 -156.5t-107 -133.5t-154.5 -106.5t-184 -81t-194.5 -51.5t-186.5 -22 q-89 -163 -145 -373q78 78 206 78q22 0 47.5 -10t54 -32t47.5 -66t19 -103q0 -139 -99 -232t-234 -93q-103 0 -166.5 75t-63.5 211q0 109 52 275t124 284q-152 10 -301 49t-259 90t-187.5 100t-116.5 89q-18 18 -18 29zM-209 1186q0 24 13.5 38.5t35.5 14.5q25 0 39.5 -14 t14.5 -39q0 -22 -14.5 -35.5t-39.5 -13.5q-22 0 -35.5 13.5t-13.5 35.5zM225 160q0 -55 26.5 -93t70.5 -38q55 0 100 51.5t65.5 116t20.5 118.5q0 75 -25 111.5t-67 36.5q-79 0 -135 -91t-56 -212zM449 864q138 9 277.5 49.5t254 104t186.5 154.5t72 190q0 57 -35 92 t-104 35q-90 0 -205 -83t-203 -189q-156 -187 -243 -353z" />
<glyph unicode="&#x433;" horiz-adv-x="514" d="M82 399q0 12 24 38.5t39 35.5q66 45 156 45q66 0 96.5 -37t30.5 -80q0 -33 -17.5 -68.5t-42.5 -65.5t-50 -58.5t-42.5 -57t-17.5 -51.5q0 -26 13.5 -42.5t35.5 -16.5q33 0 74 25q14 9 32.5 25.5t30.5 27t17 10.5q12 0 12 -10q0 -38 -76 -94q-56 -41 -133 -41 q-73 0 -111 36t-38 97q0 39 27.5 85t60.5 81t60.5 73.5t27.5 63.5q0 47 -41 47q-55 0 -125 -59q-5 -4 -13 -12t-11.5 -10.5t-6.5 -2.5q-12 0 -12 16z" />
<glyph unicode="&#x434;" horiz-adv-x="724" d="M-778 -770q0 134 93.5 243t268.5 185q245 106 789 115q46 129 96 331q-3 -4 -17 -21t-22.5 -25.5t-27 -23.5t-36.5 -23t-45.5 -14.5t-58.5 -6.5q-34 0 -67.5 11.5t-64.5 35t-50 66t-19 98.5q0 87 45 161t114 114t142 40q46 0 87.5 -18.5t62.5 -61.5l12 58q6 21 16 26.5 t35 5.5h60q23 0 32 -6.5t9 -23.5q0 -126 -43.5 -332t-97.5 -381q153 11 264 104q4 2 10 2q7 0 12.5 -5.5t5.5 -12.5q0 -17 -14 -27q-127 -103 -295 -112q-34 -100 -70.5 -181t-78.5 -148t-71 -106.5t-77 -101.5q-256 -321 -612 -321q-93 0 -165 26t-112.5 64.5t-66.5 89.5 t-34.5 93t-8.5 83zM-719 -774q0 -20 2 -40.5t10.5 -51.5t22 -58.5t38.5 -56.5t58.5 -49.5t85 -33.5t113.5 -13q109 0 203 37t169.5 103t143.5 167.5t122.5 218.5t108.5 268q-459 0 -706 -94q-180 -67 -275.5 -170t-95.5 -227zM217 207q0 -68 21.5 -114t72.5 -46 q79 0 131 85.5t52 191.5q0 141 -101 141q-72 0 -124 -79.5t-52 -178.5z" />
<glyph unicode="&#x435;" horiz-adv-x="612" d="M61 238q0 120 97 205t245 85q72 0 120 -33t48 -98q0 -40 -24.5 -71.5t-62 -50.5t-87.5 -31.5t-93.5 -18t-88.5 -6.5q0 -79 39 -128.5t119 -49.5q59 0 116 33q44 26 46 26q16 0 16 -16q0 -12 -27 -35q-78 -65 -198 -65q-112 0 -188.5 64t-76.5 190zM219 262q60 0 103 14 q61 19 98 57t37 81q0 67 -64 67q-60 0 -110.5 -61t-63.5 -158z" />
<glyph unicode="&#x436;" horiz-adv-x="931" d="M-35 -463q0 24 13.5 38.5t35.5 14.5q25 0 39.5 -14t14.5 -39q0 -22 -14.5 -35.5t-39.5 -13.5q-22 0 -35.5 13.5t-13.5 35.5zM-20 -848q0 5 14.5 22t47 58t64.5 90q69 107 125.5 240t88 239t55.5 220t31.5 165t11.5 93q-88 -178 -191 -242q-73 -47 -164 -47q-33 0 -57 8 t-24 22q0 11 14 11q2 0 19 -4t30 -4q75 0 129.5 79t54.5 199q0 88 -29 133t-75 45q-11 0 -30 -5t-21 -5q-13 0 -13 12t33.5 23.5t67.5 11.5q99 0 146.5 -74t47.5 -204q55 86 82 206q2 8 7 35t8 37q5 16 28 16h68q15 0 20.5 -5t5.5 -17q0 -42 -49 -262q50 91 133 174 q92 92 207 96q36 0 61 -10.5t25 -24.5t-10 -14q-4 0 -20 5t-27 5q-67 0 -118.5 -90.5t-51.5 -204.5q0 -61 20.5 -103t65.5 -42q16 0 31 6q3 1 10.5 5t14 6.5t10.5 2.5q10 0 10 -10q0 -14 -23 -29q-36 -24 -84 -24q-89 0 -141 57q-51 54 -51 154q0 46 10 84q-2 -3 -13 -16.5 t-17.5 -22.5t-18 -28.5t-20.5 -39.5t-20.5 -50.5t-21.5 -65.5q-92 -335 -245 -623q-57 -108 -139.5 -206.5t-112.5 -98.5q-10 0 -10 12z" />
<glyph unicode="&#x437;" horiz-adv-x="514" d="M-600 -936q0 7 8 13t19 8q82 7 127.5 12.5t105 16.5t111.5 28q264 83 438 274q94 104 138 216t44 206q0 150 -80 213q-50 39 -118 39q-29 0 -65.5 -10t-39.5 -10q-18 0 -18 14q0 9 22 25q4 3 26 16t41.5 25.5t46 35t45 46.5t31.5 57t13 69q0 34 -22 64.5t-60 30.5 q-76 0 -145 -76q-18 -23 -29 -23q-12 0 -12 19q0 15 27 47t63 57q70 47 145 47q49 0 84.5 -14.5t53.5 -38t26 -47t8 -47.5q0 -78 -55.5 -139t-145.5 -99q132 -2 222 -93t90 -224q0 -114 -57 -232t-169 -221q-201 -187 -514 -276q-171 -47 -370 -47q-35 0 -35 18zM-371 -670 q0 25 13.5 39.5t35.5 14.5q25 0 39.5 -14.5t14.5 -39.5q0 -22 -14.5 -35.5t-39.5 -13.5q-22 0 -35.5 13.5t-13.5 35.5z" />
<glyph unicode="&#x438;" horiz-adv-x="737" d="M61 184q0 100 36 190t61 122q13 16 32 16h91q20 0 20 -20q0 -5 -22 -64t-44 -137t-22 -129q0 -88 47 -88q33 0 72 41.5t74 120.5q17 38 57 135t51 118q12 23 35 23h88q20 0 20 -23q0 -7 -3.5 -18t-11.5 -31t-13 -37q-20 -60 -34.5 -139.5t-14.5 -136.5q0 -35 14 -65.5 t49 -30.5q7 0 17 1t12 1q14 0 14 -13t-24.5 -20.5t-43.5 -7.5q-52 0 -89.5 20t-57 53t-28 62t-11.5 61q-9 -18 -18.5 -34t-33 -46.5t-48 -52t-62 -38.5t-77.5 -17q-57 0 -94.5 50.5t-37.5 133.5z" />
<glyph unicode="&#x439;" horiz-adv-x="755" d="M61 178q0 97 19 175t37.5 109.5t29.5 37.5q12 12 33 12h82q23 0 23 -25q0 -4 -19.5 -58.5t-39 -135t-19.5 -146.5q0 -92 55 -92q71 0 144 164q17 38 34 95t30.5 111.5t16.5 63.5q9 23 35 23h94q21 0 21 -23q0 -15 -34 -142.5t-34 -186.5q0 -117 72 -117q8 0 26 5t21 5 q17 0 17 -14q0 -11 -11 -19q-17 -13 -46.5 -21.5t-55.5 -8.5q-47 0 -81 20t-50 52t-22.5 60.5t-6.5 55.5q-10 -21 -15.5 -31t-22 -37.5t-33.5 -44t-40.5 -36.5t-53.5 -29.5t-64 -9.5q-54 0 -98 53.5t-44 134.5zM299 723q0 35 22.5 56.5t55.5 21.5q27 0 46 -19.5t19 -52.5 q0 -17 -4 -33q65 0 131 60q57 51 99 141q10 23 22 23t12 -21q0 -23 -21.5 -67.5t-59.5 -86.5q-57 -67 -125 -90q-52 -18 -93 -18q-45 0 -74.5 24.5t-29.5 61.5z" />
<glyph unicode="&#x43a;" horiz-adv-x="620" d="M41 27q0 10 2.5 25.5t8 40t11 48t15 62.5t16.5 69q19 81 31 139.5t16 73.5q7 27 47 27h64q35 0 35 -27q0 -10 -4 -31t-13 -64.5t-14 -72.5q106 26 258.5 155.5t257.5 293.5q80 124 121 235q12 31 20 31q15 0 15 -22q0 -14 -13 -54q-57 -182 -203 -358t-329 -295 q15 -77 49 -146.5t76 -111.5q21 -21 33 -29q2 -1 6 -4l6 -4.5t4 -4.5t2 -7q0 -14 -29 -14q-83 0 -165 67q-45 35 -84.5 90t-49.5 101l-45 -203q-5 -16 -15.5 -26.5t-23.5 -10.5h-81q-25 0 -25 27zM565 846q0 24 13.5 38.5t35.5 14.5q25 0 39.5 -14t14.5 -39 q0 -22 -14.5 -35.5t-39.5 -13.5q-22 0 -35.5 13.5t-13.5 35.5z" />
<glyph unicode="&#x43b;" horiz-adv-x="540" d="M-1528 -653q0 108 58 194q20 29 46.5 54.5t39.5 25.5q12 0 12 -16q0 -3 -5 -10t-15 -18.5t-17 -22.5q-64 -90 -64 -199q0 -143 92.5 -232.5t245.5 -89.5q107 0 221.5 39.5t253.5 137.5t275 249q375 417 690 1024q15 29 47 29h78q33 0 33 -25q0 -11 -5.5 -37t-15 -71.5 t-16.5 -89.5q-23 -132 -23 -166q0 -28 11 -50t37 -22q9 0 21.5 6t16.5 6q11 0 11 -10q0 -14 -37 -39q-31 -20 -82 -20q-121 0 -121 158q0 52 43 208q-299 -571 -622 -935q-394 -449 -820 -449q-120 0 -210.5 52.5t-134.5 136t-44 182.5z" />
<glyph unicode="&#x43c;" horiz-adv-x="944" d="M-932 -98q0 22 14 22q8 0 17 -14q25 -48 65 -88q68 -68 137 -92.5t164 -24.5q98 0 200.5 44t190.5 113t181 169.5t165.5 196.5t149.5 212q48 72 86 72h66q43 0 43 -23q0 -15 -5 -46.5t-14 -83.5t-14 -85q-3 -19 -7 -47t-5 -37q63 82 96 119q112 137 172 189q17 14 41 14 h66q16 0 16 -23q0 -6 -27 -116q-32 -135 -32 -223q0 -22 3 -42.5t14 -38.5t28 -18q24 0 24 -14q0 -16 -18 -27q-25 -18 -78 -18q-62 0 -96.5 44t-34.5 111q0 88 37 205q-16 -20 -54.5 -66.5t-80.5 -100t-97 -126.5q-18 -24 -25 -33t-18 -17.5t-22 -8.5h-58q-41 0 -41 39 q0 16 3.5 42.5t13 71.5t15 71t20 91.5t18.5 81.5q-1 -2 -38 -60.5t-72.5 -111.5t-81.5 -114q-347 -461 -730 -461q-112 0 -211 46t-163 150q-23 38 -23 56z" />
<glyph unicode="&#x43d;" horiz-adv-x="741" d="M61 31q0 8 2 20t7 33.5t10.5 43t15 60.5t17.5 74q13 55 29 129t18 84q5 20 12.5 28.5t26.5 8.5h88q32 0 32 -25q0 -10 -7 -40t-20 -82t-20 -84q129 7 191 20q26 117 51 172q11 25 21 32t28 7h76q18 0 24.5 -5.5t6.5 -19.5q0 -7 -6 -27.5t-18 -61t-21 -74.5 q-33 -128 -33 -205q0 -82 45 -82q14 0 31 9t20 9q12 0 12 -12q0 -11 -22 -29q-33 -26 -107 -26q-59 0 -93 45t-34 110q0 33 11 105q-93 -15 -193 -19q-2 -8 -14 -58t-21.5 -85.5t-17.5 -52.5q-15 -33 -45 -33h-70q-33 0 -33 31z" />
<glyph unicode="&#x43e;" horiz-adv-x="722" d="M61 229q0 49 20.5 99t60.5 95t110.5 73t159.5 28q116 -2 188 -63t72 -176q0 -122 -94 -208.5t-240 -86.5q-78 0 -138.5 23.5t-99.5 78.5t-39 137zM221 211q0 -172 115 -172q74 0 123 83t49 202q0 68 -29 108.5t-82 40.5q-76 0 -126 -77.5t-50 -184.5z" />
<glyph unicode="&#x43f;" horiz-adv-x="804" d="M41 440q0 10 21 29t61.5 36t83.5 17q119 0 123 -160q38 72 103 116t132 44q109 0 109 -112q0 -52 -18.5 -154t-18.5 -141q0 -68 31 -68q29 0 56.5 22.5t31.5 22.5q12 0 12 -16q0 -11 -19 -31.5t-51 -36.5q-38 -18 -98 -18q-47 0 -82 32t-35 84q0 53 20.5 169.5 t20.5 125.5q0 48 -41 48q-35 0 -80 -48t-75 -122q-17 -41 -40.5 -131t-33.5 -123q-3 -11 -12 -18t-17 -7h-110q-17 0 -17 18q0 13 4 25q10 44 23 96.5t20 81.5t15 63t12 52t7.5 36.5t5 28.5t1.5 17q0 51 -32 51q-27 0 -62 -22.5t-37 -22.5q-14 0 -14 16z" />
<glyph unicode="&#x440;" horiz-adv-x="741" d="M-840 -1524q0 15 23 25q43 18 103 56.5t100 72.5q335 282 526 768q103 261 180 690q18 101 30 187.5t18 141.5t7 62q7 33 52 33h49q24 0 31.5 -16t9.5 -50q72 78 192 78q93 0 154 -70.5t61 -172.5q0 -72 -30.5 -130.5t-76 -91.5t-92 -50t-85.5 -17q-118 0 -170 63 q-34 -168 -76.5 -311.5t-136.5 -380.5q-23 -57 -62.5 -131.5t-104.5 -171.5t-140.5 -188.5t-177 -182.5t-206.5 -153q-50 -29 -69 -39.5t-46.5 -21.5t-45.5 -11q-17 0 -17 12zM-756 -1159q0 24 13.5 38.5t35.5 14.5q25 0 39.5 -14t14.5 -39q0 -22 -14.5 -35.5t-39.5 -13.5 q-22 0 -35.5 13.5t-13.5 35.5zM252 111q51 -66 117 -66q51 0 88.5 43t53 98.5t15.5 110.5q0 84 -29 129t-73 45q-83 0 -135 -88q-13 -129 -37 -272z" />
<glyph unicode="&#x441;" horiz-adv-x="573" d="M61 236q0 111 90.5 194.5t221.5 83.5q73 0 112 -32t39 -62q0 -17 -14 -17q-9 0 -21.5 14t-34.5 28t-55 14q-72 0 -124 -70.5t-52 -171.5q0 -88 38 -130t97 -42q53 0 109 29q10 5 22 12.5t18.5 10.5t10.5 3q14 0 14 -14q0 -7 -9.5 -20t-20.5 -21q-78 -53 -187 -53 q-72 0 -133 31q-121 59 -121 213z" />
<glyph unicode="&#x442;" horiz-adv-x="624" d="M-643 -995q0 11 22 24q16 7 43 18.5t44 19t47.5 24.5t64.5 41q169 115 297 302.5t201 395.5q96 269 143 612q-139 9 -182 37q-17 10 -17 27q0 13 10.5 19.5t24.5 6.5q9 0 38 -5t83 -10t123 -5q95 0 161 5t97 10t41 5q23 0 23 -14q0 -19 -11 -29t-35 -18q-67 -24 -186 -29 q-15 -105 -62 -281t-102 -315q-26 -64 -58 -130t-90.5 -158.5t-125 -174t-164 -167t-205.5 -146.5q-52 -30 -117.5 -54t-89.5 -24q-18 0 -18 13zM-496 -657q0 24 14 38.5t36 14.5q25 0 39 -14t14 -39q0 -22 -14.5 -36t-38.5 -14q-22 0 -36 14t-14 36z" />
<glyph unicode="&#x443;" horiz-adv-x="737" d="M-1413 -754q0 121 56.5 217t152 155t216 89.5t255.5 30.5q74 0 146.5 -8.5t146.5 -28t128 -35.5t129.5 -48.5t109.5 -47.5t110.5 -52t91.5 -44q89 147 175.5 332t131.5 358q-37 -44 -57.5 -65.5t-53 -48.5t-66.5 -38.5t-75 -11.5q-116 0 -116 135q0 122 73 281 q22 46 41 71t41 25q73 0 96 -5t23 -26q0 -12 -32 -83t-63.5 -154.5t-31.5 -126.5q0 -18 9.5 -31.5t23.5 -13.5q64 0 146 115.5t132 285.5q4 14 16.5 26.5t30.5 12.5h60q20 0 31.5 -8.5t11.5 -22.5q0 -83 -44.5 -243.5t-143.5 -388t-226 -431.5q68 -28 191 -28q9 0 14.5 -5.5 t5.5 -13.5q0 -12 -12 -18q-33 -15 -96 -15q-40 0 -136 25q-50 -72 -117 -146t-167 -156.5t-209 -145t-248.5 -103.5t-280.5 -41q-285 0 -452.5 125.5t-167.5 349.5zM-1354 -760q0 -176 149 -285.5t371 -109.5q138 0 271 42.5t230.5 103.5t187.5 144t144 149.5t97 133.5 q-475 265 -831 265q-278 0 -448.5 -122.5t-170.5 -320.5z" />
<glyph unicode="&#x444;" horiz-adv-x="1032" d="M-553 -1350q0 15 21 19q94 21 147 51q35 19 57 32.5t64 46t77.5 69t84 98.5t96.5 139q92 147 207.5 442t165.5 480q-67 -27 -105 -27q-82 0 -137 56.5t-55 158.5q0 91 54 167.5t136 109.5q60 24 119 24q82 0 127 -57q67 168 115 256q5 10 20.5 39t20.5 38.5t18 33 t22 37.5t24 36t32 45q14 22 36 45t29 23q17 0 17 -15q0 -4 -4 -11t-10.5 -17.5t-10.5 -16.5q-34 -67 -65 -139q-61 -142 -113 -348q61 47 164 47q74 0 122 -55.5t48 -151.5q0 -70 -29 -129.5t-73.5 -96.5t-95 -58t-95.5 -21q-98 0 -152 49q-182 -643 -489 -1032 q-83 -106 -165 -180t-202 -137q-51 -28 -110 -44t-88 -16q-25 0 -25 10zM-371 -952q0 24 13.5 38.5t35.5 14.5q25 0 39.5 -14t14.5 -39q0 -22 -14.5 -35.5t-39.5 -13.5q-22 0 -35.5 13.5t-13.5 35.5zM217 162q0 -62 23 -91.5t59 -29.5q32 0 78 29q8 24 115 346 q-25 49 -76 49q-47 0 -103.5 -53.5t-79.5 -137.5q-16 -56 -16 -112zM543 98q13 -21 37.5 -38t52.5 -17q52 0 96.5 48.5t68 117.5t23.5 135q0 48 -24.5 82.5t-67.5 34.5q-17 0 -32.5 -4t-22 -6.5t-24 -13t-19.5 -11.5q-16 -53 -42.5 -158t-45.5 -170z" />
<glyph unicode="&#x445;" horiz-adv-x="614" d="M-788 -317q0 10 10 10q1 0 4 -1t8 -2.5t8 -2.5q52 -15 105 -15q257 0 491 172q246 180 391 406q-37 119 -69 162q-18 26 -51 26q-8 0 -24.5 -6t-23.5 -6q-12 0 -12 10q0 12 19 31q45 45 114 45q43 0 70 -18q29 -18 50.5 -47.5t47.5 -79.5q123 145 207 145q37 0 37 -16 q0 -12 -25 -19q-27 -8 -61 -35q-60 -52 -129 -139q65 -171 131 -237q11 -11 22 -17.5t17 -8t10 -5t4 -10.5q0 -14 -24 -23.5t-58 -9.5q-70 0 -113 36.5t-96 133.5q-177 -222 -391 -369q-236 -164 -512 -164q-62 0 -117 19q-40 13 -40 35z" />
<glyph unicode="&#x446;" horiz-adv-x="729" d="M41 156q0 63 29.5 166.5t60.5 158.5q17 31 51 31h82q12 0 19.5 -8t7.5 -19q0 -8 -4.5 -23.5t-10 -29.5l-16.5 -42t-18 -46q-62 -160 -62 -235q0 -28 11.5 -44t29.5 -16q75 0 148 127q14 24 26.5 50t27 64t21.5 56t25.5 71.5t22.5 65.5q11 29 43 29h79q27 0 27 -25 q0 -34 -37.5 -138.5t-77.5 -180.5q39 -50 56 -80q21 14 45 23q27 10 57 10q25 0 25 -15q0 -4 -2 -7.5t-7 -6.5t-10 -5.5t-13 -6t-13 -6.5q-48 -27 -60 -35q21 -47 33 -113t12 -100q0 -108 -53 -181t-145 -73q-64 0 -103 47t-39 125q0 49 19.5 96t52.5 83.5t58 59t53 42.5 q-12 20 -27.5 37.5t-39.5 40t-26 24.5q-44 -62 -102.5 -99.5t-116.5 -37.5q-139 0 -139 166zM362 -254q0 -55 24.5 -95t66.5 -40q62 0 95.5 52.5t33.5 125.5q0 42 -15 96.5t-45 98.5q-54 -31 -107 -97.5t-53 -140.5z" />
<glyph unicode="&#x447;" horiz-adv-x="581" d="M20 358q0 46 59.5 121.5t113.5 75.5q14 0 37 -14.5t58.5 -28.5t78.5 -14q34 0 88 19.5t61 19.5q23 0 23 -21q0 -11 -11 -25.5t-40.5 -48.5t-55.5 -69q-104 -144 -104 -236q0 -41 18.5 -64.5t52.5 -23.5q43 0 109 37q12 8 18 8q15 0 15 -14q0 -8 -11 -19q-75 -71 -182 -71 q-88 0 -129 46.5t-41 113.5t27.5 121.5t101.5 152.5q-31 5 -76 33q-5 3 -16 10.5t-15 10t-12 5t-16 2.5q-40 0 -98 -96q-26 -45 -39 -45q-15 0 -15 14z" />
<glyph unicode="&#x448;" horiz-adv-x="1030" d="M61 147q0 55 25 153t57 165q12 28 23 37.5t31 9.5h77q33 0 33 -29q0 -11 -6 -29t-17 -47t-18 -53q-59 -184 -59 -233q0 -19 1.5 -30.5t10.5 -22.5t25 -11q80 0 162 232q53 150 73 203q3 9 13 14.5t20 5.5h72q39 0 39 -23q0 -6 -3 -18t-8.5 -31t-11.5 -37.5t-15 -47 t-16 -50.5q-37 -125 -37 -168q0 -69 41 -69q33 0 69 50.5t65 125.5q25 66 49.5 150t27.5 91q11 27 33 27h88q29 0 29 -16q0 -6 -16.5 -68.5t-33 -151t-16.5 -157.5q0 -33 12 -55.5t38 -22.5q16 0 36 12.5t25 12.5q10 0 10 -15q0 -13 -24 -33q-36 -28 -80 -28q-76 0 -114 53 t-38 145q-29 -78 -89 -138t-140 -60q-47 0 -79.5 38t-33.5 109q-35 -66 -90 -106.5t-127 -40.5q-52 0 -82.5 38.5t-30.5 118.5z" />
<glyph unicode="&#x449;" horiz-adv-x="1032" d="M61 152q0 74 29.5 172.5t67.5 158.5q18 29 55 29h63q31 0 31 -16q0 -23 -18 -62q-93 -195 -96 -315q0 -72 38 -72q31 0 73 49.5t71 118.5q23 56 47 122t38 104t23 51q13 20 43 20h62q16 0 21 -5t5 -15q0 -16 -53.5 -165.5t-54.5 -213.5q0 -25 8 -39.5t21 -14.5 q17 0 34 10t34.5 32.5t32.5 44.5t33 60.5t30 65t29.5 73t26 69.5l25.5 69q10 29 43 29h56q17 0 21.5 -8.5t4.5 -24.5q0 -38 -35.5 -139t-66.5 -164q26 -41 57 -94q70 49 135 49q21 0 21 -14q0 -4 -3 -7.5t-6.5 -5.5t-11 -5.5t-12.5 -6.5q-6 -3 -25.5 -10.5t-38 -17 t-38.5 -25.5q27 -51 44 -113.5t17 -113.5q0 -117 -59 -181q-55 -55 -121 -55q-70 0 -110 45.5t-40 126.5q0 129 150 272q-52 81 -70 103q-34 -45 -64.5 -73t-58 -38.5t-43 -13t-39.5 -2.5q-30 0 -52 14.5t-32.5 38.5t-15 47.5t-4.5 48.5q-89 -149 -219 -149q-43 0 -73 39 t-30 117zM666 -260q0 -54 26 -89.5t74 -35.5q46 0 73 47.5t27 118.5q0 72 -75 194q-43 -33 -84 -102t-41 -133z" />
<glyph unicode="&#x44a;" horiz-adv-x="636" d="M20 348q0 31 30.5 88.5t51.5 73.5q29 25 58 25q8 0 49 -13.5t90 -13.5q33 0 89 14.5t65 14.5q22 0 22 -21q0 -5 -9.5 -16.5t-28 -36t-34.5 -53.5q-35 -65 -61 -138q48 31 123 31q63 0 101 -38.5t38 -102.5q0 -43 -33.5 -83.5t-85.5 -66.5q-46 -22 -135 -22t-134.5 48.5 t-45.5 123.5q0 44 11 86t34.5 83t40.5 65.5t49 66.5q-20 -4 -61 -4q-24 0 -52 8t-40 8q-27 0 -68 -80q-2 -3 -5 -10q-30 -58 -42 -61q-17 0 -17 24zM307 115q0 -95 70 -95q41 0 72.5 38.5t31.5 97.5q0 96 -71 96q-41 0 -76 -31q-27 -46 -27 -106z" />
<glyph unicode="&#x44b;" horiz-adv-x="851" d="M61 180q0 62 20 144.5t66 158.5q16 29 48 29h73q19 -1 25 -5t6 -15t-9 -33.5t-27.5 -68t-33.5 -93.5q53 27 121 27q43 0 74.5 -14t47.5 -36t23 -43.5t7 -42.5q0 -126 -156 -182q-44 -16 -102 -16q-70 0 -111 28q-72 49 -72 162zM188 119q0 -41 16 -67.5t50 -26.5 q41 0 80 43.5t39 101.5q0 41 -18.5 73.5t-53.5 32.5q-49 0 -84 -26q-29 -80 -29 -131zM567 184q0 69 23 156t63 152q11 20 39 20h76q27 -2 27 -29q0 -8 -10.5 -32t-26.5 -67t-27 -89q-18 -78 -18 -162q0 -50 15 -70t34 -20q10 0 22.5 5t16.5 5q10 0 10 -14t-31.5 -29.5 t-64.5 -15.5q-74 0 -115 57q-12 18 -22.5 54.5t-10.5 78.5z" />
<glyph unicode="&#x44c;" horiz-adv-x="538" d="M55 184q0 156 86 287q27 41 62 41h73q33 0 33 -16q0 -8 -33 -70q-32 -61 -59 -152q55 48 133 48q15 0 31.5 -2.5t38 -12t38.5 -23.5t28.5 -40t11.5 -60q0 -63 -39.5 -109t-94 -66.5t-114.5 -20.5q-91 0 -143 50t-52 146zM184 111q0 -40 19 -65.5t53 -25.5q45 0 78 49 t33 103q0 43 -18 68.5t-50 25.5q-45 0 -92 -41q-23 -48 -23 -114z" />
<glyph unicode="&#x44d;" horiz-adv-x="591" d="M20 119q0 18 15 18q7 0 14 -8.5t20 -24t29 -26.5q51 -35 109 -35q49 0 94 27q74 50 88 172q-16 2 -92 2q-20 0 -60.5 -3t-46.5 -3q-24 0 -24 22q0 21 35 29t108 14q27 2 84 2q0 95 -47 133q-36 29 -82 29q-45 0 -91 -22.5t-48 -22.5q-19 0 -19 16q0 12 24.5 30.5 t59.5 31.5q61 22 123 22q47 0 97 -16q55 -19 93 -77t38 -124q0 -147 -95.5 -231t-234.5 -84q-87 0 -150 63q-41 41 -41 66z" />
<glyph unicode="&#x44e;" horiz-adv-x="958" d="M41 29q0 15 15.5 64t44.5 153.5t53 226.5q4 18 13 27t16 10.5t20 1.5h71q19 0 26 -4.5t7 -22.5q0 -57 -45 -217h92q10 48 32.5 90t59 78.5t93.5 58t129 21.5q109 0 174 -61.5t65 -173.5t-87 -202.5t-220 -90.5q-115 0 -180 63.5t-70 169.5h-98q-30 -119 -59 -188 q-11 -33 -52 -33h-71q-13 0 -21 8.5t-8 20.5zM483 170q0 -141 95 -141q56 0 100.5 52t66 122t21.5 137q0 61 -24 96t-70 35q-55 0 -100.5 -54.5t-67 -122.5t-21.5 -124z" />
<glyph unicode="&#x44f;" horiz-adv-x="667" d="M-426 -645q0 17 14 41q123 237 336 518q134 178 344 350q-44 8 -78 43t-34 86q0 60 46.5 94.5t108.5 34.5q86 0 158 -41q15 31 53 31h51q17 0 23 -5.5t6 -17.5q0 -9 -17.5 -67.5t-35 -147t-17.5 -168.5q0 -26 6.5 -42.5t14 -21.5t14.5 -5t16.5 2t10.5 2q12 0 12 -10 q0 -17 -27.5 -28t-58.5 -11q-48 0 -83.5 39.5t-35.5 105.5q0 39 7 86q-69 -45 -136 -100q-76 -63 -139.5 -121.5t-167 -173t-207.5 -252.5q-58 -79 -159 -225q-8 -8 -17 -8q-8 0 -8 12zM279 360q0 -47 27.5 -73.5t78.5 -26.5q21 0 31 2q23 138 43 187q-39 22 -78 22 q-42 0 -72 -33.5t-30 -77.5z" />
<glyph unicode="&#x451;" horiz-adv-x="612" d="M61 223q0 123 103.5 211t249.5 88q67 0 112 -32.5t45 -92.5q0 -49 -34.5 -85.5t-90.5 -55t-111.5 -27t-111.5 -8.5q0 -85 38 -131.5t108 -46.5q50 0 110 31q11 6 22.5 13.5t18 12t8.5 4.5q17 0 17 -16q0 -14 -31 -41q-80 -63 -195 -63q-49 0 -92 12t-82 38t-61.5 74.5 t-22.5 114.5zM229 264q49 0 95 12q62 19 100.5 56.5t38.5 79.5q0 69 -64 69q-57 0 -107 -59.5t-63 -157.5zM262 672q0 23 15.5 39t37.5 16t38 -16t16 -39q0 -20 -16 -35.5t-38 -15.5t-37.5 15.5t-15.5 35.5zM446 672q0 23 16 39t38 16t37.5 -16t15.5 -39q0 -20 -15.5 -35.5 t-37.5 -15.5t-38 15.5t-16 35.5z" />
<glyph unicode="&#x454;" horiz-adv-x="573" d="M41 236q0 111 90 194.5t221 83.5q50 0 87 -15.5t51 -32t14 -28.5q0 -14 -12 -14q-8 0 -20.5 9t-35.5 17.5t-57 8.5q-59 0 -108 -45.5t-66 -118.5q31 0 80.5 -14.5t66.5 -14.5q18 0 34.5 2.5t27 5t12.5 2.5q12 0 12 -10q0 -15 -31.5 -28t-66.5 -13q-21 0 -64.5 7.5 t-78.5 7.5q0 -5 -1 -16t-1 -15q0 -88 43.5 -126t107.5 -38q50 0 103 29q44 26 49 26q14 0 14 -14q0 -7 -10 -20t-21 -21q-78 -53 -186 -53q-72 0 -133 31q-121 59 -121 213z" />
<glyph unicode="&#x456;" horiz-adv-x="374" d="M61 160q0 57 20 151t46 162q13 39 47 39h84q29 0 29 -25q0 -17 -21 -86q-57 -194 -57 -268q0 -46 11 -68t38 -22q19 0 40.5 15.5t23.5 15.5q12 0 12 -13q0 -18 -35 -45q-34 -24 -109 -24q-51 0 -90 44.5t-39 123.5zM180 711q0 29 20.5 50t49.5 21q31 0 52.5 -21t21.5 -50 q0 -31 -21.5 -51.5t-52.5 -20.5q-29 0 -49.5 20.5t-20.5 51.5z" />
<glyph unicode="&#x457;" horiz-adv-x="374" d="M61 160q0 57 20 151t46 162q13 39 47 39h84q29 0 29 -25q0 -17 -21 -86q-57 -194 -57 -268q0 -46 11 -68t38 -22q19 0 40.5 15.5t23.5 15.5q12 0 12 -13q0 -18 -35 -45q-34 -24 -109 -24q-51 0 -90 44.5t-39 123.5zM135 713q0 23 15.5 39t37.5 16t38 -16t16 -39 q0 -20 -16 -35.5t-38 -15.5t-37.5 15.5t-15.5 35.5zM319 713q0 23 16 39t38 16t37.5 -16t15.5 -39q0 -20 -15.5 -35.5t-37.5 -15.5t-38 15.5t-16 35.5z" />
<glyph unicode="&#x45e;" horiz-adv-x="788" d="M-860 -1270q0 101 49.5 204.5t130.5 190.5t186.5 169.5t215.5 147t218.5 117t195 85.5t145.5 47q116 309 168 471q-103 -162 -256 -162q-130 0 -130 168q0 114 58 240q17 35 25.5 50.5t27 34.5t37.5 19h59q32 0 43 -5.5t11 -25.5q0 -11 -28 -69t-56.5 -136.5 t-28.5 -138.5q0 -69 45 -69q53 0 119.5 70t124.5 190q11 23 34 77t37 84q11 23 62 23h61q17 0 28 -8t11 -21q0 -14 -28 -100q-3 -11 -216 -633q186 43 377 51q10 0 17.5 -6t7.5 -14q0 -18 -21 -21q-165 -21 -405 -84q-49 -145 -156 -376q-50 -109 -118 -220t-160.5 -223.5 t-191.5 -199t-216.5 -141t-230.5 -54.5q-119 0 -185.5 75t-66.5 193zM-793 -1274q0 -95 50.5 -151t134.5 -56q195 0 409 232q76 82 142 182t124.5 224.5t98 220.5t96.5 249q-82 -28 -172 -66t-194.5 -91.5t-200.5 -113.5t-186 -134t-156 -151t-106 -166.5t-40 -178.5z M381 764q0 35 22.5 56.5t55.5 21.5q27 0 46 -19t19 -53q0 -17 -4 -33q65 0 131 60q57 51 99 141q10 23 22 23t12 -21q0 -23 -22 -67.5t-60 -86.5q-57 -67 -124 -90q-52 -18 -93 -18q-45 0 -74.5 24.5t-29.5 61.5z" />
<glyph unicode="&#x490;" horiz-adv-x="1175" d="M41 -172q0 5 3 8.5t10 6t12.5 4t18 3.5t17.5 3q53 9 144 49q61 30 125 82q185 158 319 430q93 187 194.5 517.5t127.5 532.5q-69 15 -146 15q-241 0 -366 -164q-27 -36 -44.5 -76t-23.5 -71t-10 -57t-9 -40t-16 -14q-22 0 -22 59q0 137 84 246q57 74 137.5 117.5t156 57 t171.5 13.5q74 0 201.5 -25t271.5 -50t258 -25q56 99 133.5 184.5t105.5 85.5q19 0 19 -12q0 -11 -21 -35q-92 -105 -147 -198q-27 -44 -51 -90t-44 -86.5t-26 -51.5q-7 -14 -16 -14q-7 0 -12 6t-5 16q0 25 35 127q-168 0 -430 52q-42 -207 -116 -453t-165 -446 q-120 -266 -323 -469q-131 -132 -271 -193t-241 -61q-39 0 -39 16zM252 141q0 20 13 33.5t32 13.5q20 0 33.5 -13.5t13.5 -33.5q0 -19 -13.5 -32t-33.5 -13q-19 0 -32 13t-13 32z" />
<glyph unicode="&#x491;" horiz-adv-x="522" d="M41 360q0 8 11 26t29.5 52.5t31.5 73.5q7 17 24 88q11 49 33 49q14 0 14 -22q0 -59 -24 -150q65 41 149 41q66 0 96.5 -37t30.5 -80q0 -33 -17.5 -68.5t-42.5 -65.5t-50 -58.5t-42.5 -57t-17.5 -51.5q0 -26 13.5 -42.5t35.5 -16.5q33 0 74 25q14 9 32.5 25.5t30.5 27 t17 10.5q12 0 12 -10q0 -38 -75 -94q-56 -41 -134 -41q-73 0 -111 36t-38 97q0 39 27.5 85t60.5 81t60.5 73.5t27.5 63.5q0 47 -41 47q-60 0 -147 -84q-41 -39 -56 -39q-5 0 -9.5 4.5t-4.5 11.5z" />
<glyph unicode="&#x2000;" horiz-adv-x="1147" />
<glyph unicode="&#x2001;" horiz-adv-x="2294" />
<glyph unicode="&#x2002;" horiz-adv-x="1147" />
<glyph unicode="&#x2003;" horiz-adv-x="2294" />
<glyph unicode="&#x2004;" horiz-adv-x="764" />
<glyph unicode="&#x2005;" horiz-adv-x="573" />
<glyph unicode="&#x2006;" horiz-adv-x="382" />
<glyph unicode="&#x2007;" horiz-adv-x="382" />
<glyph unicode="&#x2008;" horiz-adv-x="286" />
<glyph unicode="&#x2009;" horiz-adv-x="458" />
<glyph unicode="&#x200a;" horiz-adv-x="127" />
<glyph unicode="&#x2010;" horiz-adv-x="616" d="M61 309q0 29 62 69t141 40q32 0 84 -12.5t72 -12.5q65 0 104 25q12 8 19 8q12 0 12 -12q0 -13 -8 -21q-65 -78 -164 -78q-29 0 -87 10.5t-75 10.5q-44 0 -86 -14q-7 -3 -21.5 -9.5t-25 -11t-14.5 -4.5q-5 0 -9 4t-4 8z" />
<glyph unicode="&#x2011;" horiz-adv-x="616" d="M61 309q0 29 62 69t141 40q32 0 84 -12.5t72 -12.5q65 0 104 25q12 8 19 8q12 0 12 -12q0 -13 -8 -21q-65 -78 -164 -78q-29 0 -87 10.5t-75 10.5q-44 0 -86 -14q-7 -3 -21.5 -9.5t-25 -11t-14.5 -4.5q-5 0 -9 4t-4 8z" />
<glyph unicode="&#x2012;" horiz-adv-x="616" d="M61 309q0 29 62 69t141 40q32 0 84 -12.5t72 -12.5q65 0 104 25q12 8 19 8q12 0 12 -12q0 -13 -8 -21q-65 -78 -164 -78q-29 0 -87 10.5t-75 10.5q-44 0 -86 -14q-7 -3 -21.5 -9.5t-25 -11t-14.5 -4.5q-5 0 -9 4t-4 8z" />
<glyph unicode="&#x2013;" horiz-adv-x="1167" d="M82 274q0 61 229 113q156 35 406 35q124 0 209 10q26 3 74.5 11t60.5 8q24 0 24 -21q0 -25 -55 -51q-113 -55 -448 -55q-193 0 -379 -48q-6 -1 -28 -7.5t-40 -10.5t-33 -4q-9 0 -14.5 6t-5.5 14z" />
<glyph unicode="&#x2014;" horiz-adv-x="1390" d="M82 332q0 58 192 100q90 19 240 19q123 0 319 -17.5t230 -17.5q71 0 141 14t80 14q25 0 25 -16q0 -17 -15 -27q-51 -39 -142.5 -56t-170.5 -17q-76 0 -265 15t-261 15q-130 0 -234 -20q-15 -3 -42 -9t-47 -10t-34 -4q-7 0 -11.5 5.5t-4.5 11.5z" />
<glyph unicode="&#x2018;" horiz-adv-x="468" d="M61 735q0 96 65 183t159 151q31 21 59 21q8 0 15.5 -4.5t7.5 -12.5q0 -7 -6.5 -13t-19 -14t-19.5 -14q-69 -61 -100 -110t-44 -111q43 -1 65.5 -28.5t22.5 -65.5q0 -37 -30 -64.5t-70 -27.5q-44 0 -74.5 33.5t-30.5 76.5z" />
<glyph unicode="&#x2019;" horiz-adv-x="468" d="M123 637q0 7 6.5 13t19 14t19.5 14q69 60 99.5 109.5t43.5 111.5q-43 1 -65.5 28.5t-22.5 65.5q0 37 30.5 64.5t70.5 27.5q44 0 74 -33.5t30 -76.5q0 -96 -64.5 -183t-158.5 -151q-30 -20 -60 -20q-22 0 -22 16z" />
<glyph unicode="&#x201a;" horiz-adv-x="428" d="M20 -262q0 7 6.5 13t19.5 13.5t20 14.5q69 60 99.5 109.5t43.5 111.5q-43 1 -65.5 28.5t-22.5 65.5q0 37 30 64.5t70 27.5q44 0 74.5 -33.5t30.5 -76.5q0 -96 -65 -183t-159 -151q-32 -21 -59 -21q-8 0 -15.5 4.5t-7.5 12.5z" />
<glyph unicode="&#x201c;" horiz-adv-x="700" d="M82 715q0 87 60.5 165.5t148.5 139.5q27 18 49 18q20 0 20 -14q0 -6 -6 -11.5t-17.5 -12.5t-17.5 -13q-64 -56 -92 -101.5t-39 -101.5q39 -1 59.5 -26t20.5 -60q0 -34 -27.5 -59t-62.5 -25q-41 0 -68.5 31t-27.5 70zM346 739q0 91 61 175t150 133q22 13 55 23.5t45 10.5 q23 0 23 -12q0 -10 -16 -18q-44 -18 -97 -60q-101 -79 -125 -200q43 -3 65.5 -26t22.5 -60q0 -36 -26 -61.5t-64 -25.5q-44 0 -69 35.5t-25 85.5z" />
<glyph unicode="&#x201d;" horiz-adv-x="761" d="M82 627q0 10 16 18q44 18 97 60q100 78 124 200q-43 3 -65.5 26t-22.5 60q0 35 26.5 60.5t64.5 25.5q44 0 69 -35.5t25 -85.5q0 -91 -61 -174.5t-150 -132.5q-22 -13 -55.5 -24t-45.5 -11q-22 0 -22 13zM401 672q0 6 6 11.5t17.5 12.5t17.5 13q64 57 92 101.5t39 100.5 q-39 1 -59 26t-20 60q0 34 27.5 59t62.5 25q41 0 68.5 -30.5t27.5 -69.5q0 -87 -60.5 -165.5t-148.5 -139.5q-29 -19 -49 -19q-7 0 -14 4t-7 11z" />
<glyph unicode="&#x201e;" horiz-adv-x="741" d="M41 -283q0 11 16 19q46 19 97 59q101 79 125 201q-43 3 -66 26.5t-23 59.5q0 35 26.5 60.5t64.5 25.5q44 0 69 -35.5t25 -85.5q0 -91 -61 -174.5t-150 -132.5q-22 -13 -55.5 -24t-45.5 -11q-22 0 -22 12zM360 -238q0 6 6 11.5t17.5 12.5t17.5 13q64 56 92 101.5t39 101.5 q-39 1 -59 26t-20 60q0 34 27.5 59t62.5 25q41 0 68.5 -30.5t27.5 -69.5q0 -87 -60.5 -165.5t-148.5 -139.5q-29 -19 -49 -19q-21 0 -21 14z" />
<glyph unicode="&#x2020;" horiz-adv-x="919" d="M102 -209q0 7 2 16t7 24.5t9.5 29t13.5 40t16 46.5q93 279 167 555q52 201 101 409q-162 13 -221 54q-11 7 -11 16q0 14 19 14q5 0 53 -8q90 -18 172 -20q33 133 66 319q6 29 17.5 40t33.5 11h67q13 0 23 -10t10 -22q0 -72 -63 -340q83 2 184 22q30 6 35 6q14 0 14 -14 q0 -12 -17 -23.5t-44 -19.5q-70 -21 -185 -29q-116 -438 -243 -766q-62 -157 -123 -267t-90 -110q-13 0 -13 27z" />
<glyph unicode="&#x2021;" horiz-adv-x="929" d="M102 502q0 14 19 14q5 0 53 -8q85 -11 148 -14q45 162 106 417q-162 13 -221 54q-10 7 -10 16q0 14 18 14q5 0 53 -8q90 -18 172 -20q40 164 68 319q6 29 17.5 40t33.5 11h68q13 0 22.5 -10t9.5 -22q0 -63 -65 -340q83 2 184 22q30 6 35 6q14 0 14 -14q0 -12 -17 -23.5 t-44 -19.5q-71 -21 -184 -29q-77 -275 -123 -415q89 0 164 16q30 6 34 6q15 0 15 -14q0 -11 -20 -23t-48 -20q-59 -19 -160 -23q-64 -175 -110 -291q-64 -159 -125.5 -269t-89.5 -110q-15 0 -15 21q0 23 50 162q83 239 151 491q-65 6 -120 18.5t-70 24.5q-13 9 -13 21z" />
<glyph unicode="&#x2022;" horiz-adv-x="565" d="M123 659q0 65 53.5 116.5t126.5 51.5q59 0 99 -43t40 -102q0 -74 -53 -122t-125 -48q-63 0 -102 41t-39 106z" />
<glyph unicode="&#x2026;" horiz-adv-x="1085" d="M143 88q0 34 24 58t58 24q35 0 59.5 -24t24.5 -58q0 -35 -24.5 -59.5t-59.5 -24.5q-34 0 -58 24.5t-24 59.5zM502 68q0 29 22 51t51 22q31 0 53.5 -22t22.5 -51q0 -31 -22.5 -53.5t-53.5 -22.5q-29 0 -51 22.5t-22 53.5zM807 96q0 28 19.5 48t45.5 20q29 0 49.5 -20 t20.5 -48t-20.5 -47.5t-49.5 -19.5q-26 0 -45.5 19.5t-19.5 47.5z" />
<glyph unicode="&#x202f;" horiz-adv-x="458" />
<glyph unicode="&#x2030;" horiz-adv-x="1677" d="M82 -33q0 10 8 21q73 76 160.5 183t138.5 175.5t149 203t119 163.5q124 167 201 265t180 214q33 37 99.5 95.5t91.5 58.5q16 0 16 -17q0 -6 -16 -24t-40 -42t-32 -34q-35 -41 -71 -85.5t-61.5 -76t-68.5 -89.5t-62 -84t-75.5 -103.5t-77.5 -106.5q-289 -398 -473 -596 q-48 -52 -98.5 -92.5t-71.5 -40.5q-16 0 -16 12zM258 1130q0 73 75.5 137t190.5 64q71 0 127 -46t56 -132q0 -94 -76 -154.5t-176 -60.5q-83 0 -140 50.5t-57 141.5zM377 1116q0 -64 18 -101.5t66 -37.5q52 0 89.5 62t37.5 141q0 50 -19.5 81t-58.5 31q-45 0 -89 -58.5 t-44 -117.5zM621 186q0 86 70.5 146.5t187.5 60.5q87 -2 138.5 -48t51.5 -130q0 -92 -76.5 -153.5t-175.5 -61.5q-92 0 -144 51t-52 135zM739 162q0 -123 76 -123q56 0 95.5 56t39.5 147q0 50 -19.5 81t-58.5 31q-58 0 -95.5 -59t-37.5 -133zM1159 186q0 93 72.5 153 t171.5 60q83 0 137.5 -56.5t54.5 -141.5q0 -79 -69 -140t-185 -61q-77 0 -129.5 51t-52.5 135zM1270 160q0 -50 22 -82.5t62 -32.5q57 0 94 59t37 134q0 46 -21.5 84t-56.5 38q-58 0 -97.5 -55.5t-39.5 -144.5z" />
<glyph unicode="&#x2039;" horiz-adv-x="790" d="M123 567q0 21 29 37q187 104 411 293q20 17 41 35.5t32.5 29.5t23 21t18.5 14t12 4q19 0 19 -22q0 -31 -88 -119q-174 -174 -355 -291q90 -76 185 -194q76 -92 106 -144q21 -35 21 -49q0 -18 -23 -18q-11 0 -30.5 22t-66.5 75t-102 104q-6 6 -25 23.5t-25 22.5t-21.5 19 t-23.5 20t-22.5 18t-26.5 20t-27.5 18.5t-32.5 21.5q-29 16 -29 39z" />
<glyph unicode="&#x203a;" horiz-adv-x="749" d="M82 184q0 31 88 119q176 176 354 291q-75 63 -170 190q-63 85 -100 148q-21 35 -21 49q0 18 23 18q11 0 30 -22.5t65.5 -78t99.5 -107.5q9 -8 30.5 -29.5t29 -28.5t25.5 -23t30.5 -25.5t31.5 -23t41 -26.5q29 -16 29 -39q0 -21 -29 -37q-190 -105 -412 -293 q-20 -17 -41 -35.5t-32.5 -29.5t-23 -21t-18.5 -14t-12 -4q-18 0 -18 22z" />
<glyph unicode="&#x205f;" horiz-adv-x="573" />
<glyph unicode="&#x20ac;" d="M20 555q0 9 10.5 20t24.5 19q74 40 144 43q10 115 32 188q-51 -4 -94 -16q-10 -3 -22.5 -7.5t-19.5 -6.5t-11 -2q-25 0 -25 14q0 11 16.5 24.5t33.5 20.5q53 33 141 43q56 169 145 285t238 223q85 61 178 97t168 36q33 0 53.5 -2t48.5 -14.5t52 -36.5q18 -18 30.5 -45.5 t12.5 -48.5q0 -19 -15 -19q-5 0 -15.5 15t-28.5 35t-36 30q-45 23 -96 23q-71 0 -144 -39.5t-133 -101.5t-112 -139.5t-87.5 -153t-53.5 -142.5q52 -6 123.5 -18.5t130.5 -19.5t131 -7q51 0 94.5 8.5t67.5 17.5t28 9q13 0 21 -6.5t8 -14.5q0 -9 -10 -20.5t-21 -16.5 q-33 -16 -99 -31.5t-145 -15.5q-64 0 -182 16.5t-170 20.5q-26 -84 -35 -184q36 0 138 -12.5t143 -12.5q43 0 83.5 4t64.5 8.5t28 4.5q25 0 25 -19q0 -12 -23 -24q-85 -41 -203 -41q-56 0 -144 7.5t-120 8.5q1 -139 25.5 -242.5t66.5 -160.5t91 -84t106 -27q45 0 85.5 12.5 t66.5 26.5t53 40t36.5 38t26.5 35q13 16 25 16q10 0 10 -16t-15 -47t-42 -58q-21 -21 -38.5 -35t-53 -34.5t-87 -31.5t-114.5 -11q-199 0 -318 160t-120 433q-67 -7 -111 -22q-30 -10 -41 -10q-21 0 -21 14zM780 1014q0 20 13 33.5t32 13.5q20 0 33.5 -13.5t13.5 -33.5 q0 -19 -13.5 -32t-33.5 -13q-19 0 -32 13t-13 32z" />
<glyph unicode="&#x20b4;" d="M137 555q0 15 43 32t115 27q75 11 111 11q25 24 53 48t58 48.5t44 36.5q-72 0 -237 -33q-86 -16 -88 -16q-11 0 -19 5.5t-8 12.5q0 16 52.5 36t109.5 30q147 28 256 28q122 122 179.5 208.5t57.5 178.5q0 68 -33.5 116t-99.5 48q-43 0 -97 -31.5t-97 -91.5q-5 -8 -14 -15 t-15 -7q-12 0 -12 24q0 18 29 55.5t67 65.5q95 72 213 72q102 0 168.5 -61.5t66.5 -170.5q0 -51 -15.5 -98t-37.5 -82t-63 -75t-74.5 -66.5t-89.5 -67.5q61 0 119.5 5.5t95 11.5t43.5 6q29 0 29 -17q0 -28 -91 -43q-153 -26 -268 -26q-9 -7 -47.5 -36.5t-64.5 -52t-52 -50.5 q81 0 156 7t120.5 14t55.5 7q23 0 23 -20q0 -27 -129 -49.5t-269 -22.5q-92 -129 -92 -254q0 -45 11.5 -85t35.5 -74t65 -54t95 -20q70 0 140 44t116 107q5 7 17.5 25t18.5 25.5t11 7.5q16 0 16 -17q0 -23 -18 -53q-24 -39 -55 -73t-78 -69.5t-112.5 -56t-141.5 -20.5 q-129 0 -213 73t-84 207q0 50 12.5 95t37 83.5t42.5 61t45 51.5q-53 0 -120.5 -12t-73.5 -12q-19 0 -19 18z" />
<glyph unicode="&#x20bd;" d="M-328 -700q0 4 7.5 9.5t24.5 17t30 22.5q31 25 80 76t94 112q113 154 225 453q53 140 121 364q-140 4 -195 4q-45 0 -45 23q0 21 45 33t125 12h95q43 123 59 180q-66 -2 -135.5 -11t-79.5 -9q-35 0 -35 18q0 15 27.5 25.5t81.5 21.5q76 15 165 19q163 462 226 563 q-107 -25 -269 -127q-4 -2 -16 -10.5t-21.5 -13.5t-13.5 -5q-10 0 -10 10q0 19 64 66q96 71 202 113.5t172.5 53.5t126.5 11q121 0 195 -35q89 -41 129.5 -117t40.5 -161q0 -74 -43 -155t-115 -130q-187 -129 -446 -129q-45 0 -68 2q-34 -108 -67 -190q129 0 239 11 t169 21.5t65 10.5q41 0 41 -21q0 -28 -106 -49.5t-225 -30t-210 -8.5q-41 -103 -164 -381q-55 -121 -165.5 -292.5t-213.5 -264.5q-139 -125 -192 -125q-15 0 -15 13zM-250 -289q0 24 13.5 38.5t35.5 14.5q25 0 39.5 -14t14.5 -39q0 -22 -14.5 -35.5t-39.5 -13.5 q-22 0 -35.5 13.5t-13.5 35.5zM532 670q6 0 27 -2t27 -2q48 0 84.5 3.5t85 15.5t94 41t84.5 73q43 49 63.5 112.5t20.5 122.5q0 120 -56.5 182t-160.5 62q-27 0 -70 -6q-18 -40 -44.5 -116.5t-47 -141.5t-56.5 -180t-51 -164z" />
<glyph unicode="&#x2116;" horiz-adv-x="1822" d="M-1229 -1409q0 16 15 25q261 170 472 352.5t455 445.5q623 669 989 1358q70 129 186.5 381t125.5 270q4 13 20 13q8 0 14.5 -6.5t6.5 -16.5q-26 -198 -35.5 -312t-9.5 -263q0 -224 6 -445q38 70 121 232.5t114 216.5q216 384 428 622q69 79 154 133.5t123 63.5q12 4 18 4 q13 0 13 -10q0 -9 -15 -17q-19 -10 -66.5 -45.5t-76.5 -64.5q-136 -142 -253.5 -313.5t-244.5 -407.5q-142 -263 -389 -827q-5 -11 -18 -22t-25 -11q-8 0 -16.5 5t-8.5 9q-21 173 -36 400t-15 382q-146 -282 -337.5 -553t-501.5 -622q-59 -67 -165 -175.5t-247.5 -243 t-302 -265.5t-285.5 -207q-19 -11 -47.5 -29.5t-45.5 -29t-38 -22t-36.5 -16.5t-28.5 -5q-7 0 -12 5t-5 11zM1249 33q0 22 54 37q118 36 262 36q57 0 73 -8q13 -8 13 -16q0 -11 -13 -17t-30 -6q-32 -2 -148 -14q-40 -4 -83 -12t-69 -13.5t-32 -5.5q-27 0 -27 19zM1335 338 q0 69 61 122.5t154 53.5q64 -2 105 -37.5t41 -103.5q0 -78 -60.5 -126t-140.5 -48q-75 0 -117.5 37t-42.5 102zM1432 328q0 -99 61 -99q44 0 75 46t31 118q0 90 -61 90q-44 0 -75 -48t-31 -107z" />
<glyph unicode="&#x2122;" horiz-adv-x="1568" d="M123 627q0 11 22 18q95 35 158 123q122 171 158 512q-85 0 -144 -20q-25 -8 -49 -18.5t-36 -15.5t-19 -5q-20 0 -20 14q0 12 31.5 33.5t76.5 40.5q84 32 172 32q50 0 126.5 -7t100.5 -7q26 0 78.5 6t55.5 6q20 0 20 -12q0 -25 -54.5 -42t-113.5 -17q-14 0 -40.5 1 t-37.5 1q-17 -94 -39 -168q-37 -121 -89 -221.5t-101 -153.5q-53 -58 -117.5 -87.5t-116.5 -29.5q-22 0 -22 17zM215 514q0 14 14 14q3 0 25 -3t39 -3q47 0 96 20t95 56.5t77.5 66.5t67.5 70q67 75 167 234t142 266q21 55 35 82q6 14 26 14q19 0 19 -24t-1 -84t-1 -93 q0 -236 26 -356q135 196 261 504q1 1 4 9t5.5 13.5t6.5 14t8.5 13.5t10 9t10.5 4q10 0 17 -7.5t7 -18.5t-3 -97t-3 -147q0 -84 1.5 -131.5t13.5 -121t36 -128.5q10 -22 20 -35.5t15.5 -16.5t9.5 -8t4 -14q0 -20 -53 -20q-14 0 -35.5 6.5t-31.5 13.5q-39 26 -62 56.5 t-39 87.5q-20 72 -26 198q-37 -82 -132 -221q-30 -43 -68 -82t-61 -39q-21 0 -28 21q-38 111 -49 299q-70 -125 -177 -240.5t-233 -179.5q-85 -43 -170 -43q-40 0 -63 13.5t-23 27.5z" />
<glyph unicode="&#x25fc;" horiz-adv-x="624" d="M0 0v625h625v-625h-625z" />
<glyph unicode="&#xe000;" horiz-adv-x="1894" d="M20 215q0 18 15 18q6 0 22 -13.5t40 -36.5t36 -33q141 -111 354 -111q222 0 426 151q85 62 159.5 135.5t117.5 127.5q-74 7 -154 36q-46 17 -72 35.5t-26 32.5t14 14q7 0 19 -6t31.5 -15t39.5 -15q106 -33 187 -33q55 61 125 155q207 282 325 464.5t232 387.5 q16 27 39 27h84q9 0 16.5 -5.5t7.5 -14.5t-41 -144q-23 -75 -107 -339.5t-130 -416.5q-22 -74 -44.5 -157.5t-35.5 -135.5t-37 -150t-33 -136q-5 -20 -13 -28.5t-24 -8.5h-104q-21 0 -30 11t-9 24q0 21 35 153q49 170 80 267q-93 -13 -185 -13q-54 0 -114 7q-3 -3 -42 -50.5 t-94 -105.5t-122 -115q-237 -203 -519 -203q-135 0 -233.5 40.5t-185.5 125.5q-13 13 -31.5 37t-18.5 37zM360 285q0 24 14 38.5t36 14.5q25 0 39 -14t14 -39q0 -22 -14.5 -35.5t-38.5 -13.5q-22 0 -36 13.5t-14 35.5zM1305 496q39 -4 90 -4q114 0 184 18q126 377 297 846 q-138 -248 -265 -440t-306 -420z" />
<glyph unicode="&#xe001;" horiz-adv-x="1769" d="M20 -281q0 16 31 21q3 0 24.5 3t36 5.5t42.5 9t51 15.5t53 24t57 35q158 113 279 318q133 227 250 548q61 165 128.5 408.5t88.5 378.5q-72 -19 -156 -70q-21 -13 -44 -30.5t-36 -27t-18 -9.5q-16 0 -16 12q0 8 14.5 26t25.5 27q197 164 457 164q71 0 132.5 -24.5 t103 -78t41.5 -126.5q0 -91 -88 -162t-213 -82q71 -9 160.5 -53t162.5 -121q129 -135 129 -369q0 -109 -47 -213.5t-128 -185t-199 -129.5t-252 -49q-143 0 -244 53q-41 20 -41 39q0 12 12 12q6 0 19.5 -5.5t32 -13.5t30.5 -12q59 -20 143 -20q213 0 348.5 159.5 t135.5 403.5q0 211 -114 345.5t-288 139.5q-21 -90 -52 -192t-83 -241t-131.5 -289.5t-173.5 -280.5q-70 -97 -180.5 -190t-224.5 -140q-122 -49 -228 -49q-31 0 -31 16zM180 100q0 25 13.5 39.5t35.5 14.5q25 0 39.5 -14.5t14.5 -39.5q0 -22 -14.5 -35.5t-39.5 -13.5 q-22 0 -35.5 13.5t-13.5 35.5zM1137 1130q125 0 202.5 70.5t77.5 161.5q0 76 -35 119t-108 43q-23 0 -47 -4q-86 -374 -90 -390z" />
<glyph unicode="&#xe002;" horiz-adv-x="1351" d="M410 592q0 232 125.5 460t338.5 373q211 144 445 144q46 0 106 -17.5t99 -56.5q51 -51 51 -76q0 -20 -16 -20q-5 0 -16.5 13.5t-33.5 34.5t-49 34q-64 30 -143 30q-329 0 -574 -436q-67 -120 -105 -265t-38 -271q0 -235 99 -368.5t259 -133.5q51 0 98.5 12t84.5 32.5 t61.5 37.5t49 38.5t26.5 22.5q9 6 16 6q11 0 11 -16q0 -14 -20.5 -40.5t-55.5 -53.5q-57 -44 -125.5 -70t-173.5 -26q-106 0 -194 35t-147.5 93.5t-100.5 138t-59.5 166t-18.5 179.5zM1266 1329q0 24 13.5 38.5t35.5 14.5q25 0 39 -14t14 -39q0 -22 -14.5 -35.5t-38.5 -13.5 q-22 0 -35.5 13.5t-13.5 35.5z" />
<glyph unicode="&#xe003;" horiz-adv-x="1880" d="M246 1090q0 39 85.5 132.5t172.5 151.5q259 170 565 170q58 0 105 -8q33 99 71 319q4 13 15 13q6 0 12.5 -7t7.5 -16q6 -30 6 -84q0 -28 -6.5 -106.5t-15.5 -134.5q112 -30 213 -94.5t183 -158t130.5 -224.5t48.5 -279q0 -111 -31 -222.5t-93 -211.5t-146 -177.5 t-199.5 -123t-245.5 -45.5q-62 0 -188.5 23t-165.5 24q-115 0 -221 -43q-44 -18 -87 -46t-67.5 -45.5t-34.5 -17.5q-22 0 -22 23q0 24 49 90q242 319 458 744t302 714q-59 16 -146 16q-230 0 -452 -139q-57 -36 -106 -76.5t-78 -72t-50.5 -57.5t-34.5 -40t-20 -14 q-14 0 -14 23zM528 1063q0 24 14 38.5t36 14.5q25 0 39 -14t14 -39q0 -22 -14.5 -35.5t-38.5 -13.5q-22 0 -36 13.5t-14 35.5zM635 78q74 14 168 14q34 0 145 -16.5t144 -16.5q99 0 187 42t152 113.5t110.5 163t69.5 193t23 201.5q0 104 -22 202t-66.5 188t-120.5 158 t-176 99q-35 -169 -117.5 -386.5t-174.5 -404.5t-180 -337t-142 -213z" />
<glyph unicode="&#xe004;" horiz-adv-x="1392" d="M246 489q0 182 90.5 323t255 219.5t377.5 82.5q-154 81 -154 227q0 71 43 125.5t105.5 80.5t130.5 26q107 0 184 -62q11 -10 23 -27.5t12 -27.5q0 -18 -17 -18q-7 0 -15 7t-22.5 20.5t-31.5 23.5q-29 16 -92 16q-69 0 -117.5 -48t-48.5 -136q0 -131 123 -199 q12 -7 77 -39q8 -4 11 -6t6.5 -6.5t3.5 -11.5q0 -21 -25 -21q-12 0 -24 4q-74 17 -123 17q-118 0 -223 -46t-182 -126.5t-122 -195t-45 -245.5q0 -83 25.5 -156t75 -130t128.5 -90t179 -33q74 0 159 35.5t152 93.5q64 57 140 149q3 4 8.5 10t8 9t6 6t7 4.5t6.5 1.5 q11 0 11 -12q0 -9 -6 -21q-51 -93 -121 -163t-144 -109t-145.5 -57.5t-140.5 -18.5q-251 0 -400 141.5t-149 382.5zM918 285q0 24 13.5 38.5t35.5 14.5q25 0 39 -14t14 -39q0 -22 -14.5 -35.5t-38.5 -13.5q-22 0 -35.5 13.5t-13.5 35.5z" />
<glyph unicode="&#xe005;" horiz-adv-x="1083" d="M123 -195q0 11 35 19q75 15 154.5 77.5t140.5 151.5q157 226 288 668q69 235 187 749q-61 9 -101 9q-130 0 -241 -29q-68 -18 -130 -51t-116 -82t-86.5 -118.5t-32.5 -149.5q0 -107 55 -177q4 -6 12.5 -15t13.5 -15.5t5 -10.5q0 -10 -16 -10q-10 0 -29.5 15.5t-34.5 35.5 q-63 82 -63 193q0 90 39.5 170.5t105.5 138.5t148 98t170 56q117 20 198 20q62 0 270.5 -25.5t276.5 -25.5q77 0 145.5 7.5t112 18t75.5 21t50.5 18t22.5 7.5q22 0 22 -19q0 -7 -31 -24.5t-80 -34.5t-90 -23q-14 -2 -43.5 -6.5t-41.5 -6t-34.5 -4.5t-37.5 -4t-36 -2t-42 -1 q-119 0 -260 16q-68 -334 -125 -528q68 4 134.5 16t105 22.5t43.5 10.5q24 0 24 -14q0 -15 -16 -23q-121 -50 -305 -74q-40 -133 -109 -305q-50 -125 -149.5 -301t-188.5 -270q-190 -203 -354 -203q-41 0 -41 14zM262 244q0 24 13.5 38.5t35.5 14.5q25 0 39.5 -14t14.5 -39 q0 -22 -14.5 -35.5t-39.5 -13.5q-22 0 -35.5 13.5t-13.5 35.5z" />
<glyph unicode="&#xe006;" horiz-adv-x="1654" d="M410 618q0 112 32.5 226t90.5 217t143 193t185 156t221.5 104t248.5 38q235 0 340 -131q8 -8 8 -20t-12 -12q-6 0 -30.5 16.5t-56.5 35.5t-90 35.5t-122 16.5q-138 0 -263 -58.5t-216.5 -156t-159 -221t-101.5 -256.5t-34 -260q0 -234 92 -372t246 -138q77 0 144 29 t115.5 76.5t87 112t62.5 130.5t39 137q-36 4 -92 22.5t-98 18.5q-46 0 -91 -16.5t-46 -16.5q-21 0 -21 15q0 13 41 36q48 29 127 29q37 0 118.5 -14.5t119.5 -14.5q23 0 63.5 5.5t44.5 5.5q21 0 21 -27q0 -36 -28 -111t-62 -131q-93 -149 -235.5 -241t-313.5 -92 q-126 0 -225.5 49t-163 135t-96.5 200.5t-33 249.5zM1389 1309q0 24 13.5 38.5t35.5 14.5q25 0 39 -14t14 -39q0 -22 -14.5 -35.5t-38.5 -13.5q-22 0 -35.5 13.5t-13.5 35.5z" />
<glyph unicode="&#xe007;" horiz-adv-x="1370" d="M82 53q0 15 16 15q4 0 16.5 -8t35 -15.5t49.5 -7.5q51 0 96.5 26t82.5 73.5t62.5 92.5t51.5 103q162 357 335 1151q-51 6 -169 31.5t-189 25.5q-101 0 -213 -33q-22 -6 -54.5 -21t-56.5 -26.5t-30 -11.5q-17 0 -17 14q0 12 17 23q66 56 177 81t193 25q75 0 192 -21.5 t177 -21.5q31 0 60 3t47.5 5.5t21.5 2.5q18 0 18 -19q0 -56 -38 -231q-41 -196 -101 -396q58 -4 70 -4q31 0 105 9t116 20q74 242 115 332q71 162 146.5 250t162.5 141q26 17 61 29t48 12q4 0 8 -4t4 -8q0 -6 -20.5 -21t-53.5 -42.5t-57 -59.5q-75 -100 -142 -267 q-64 -161 -105.5 -347.5t-98.5 -520.5q-17 -99 -29.5 -191t-18.5 -139t-10 -63q-9 -39 -39 -39h-106q-14 0 -24.5 8.5t-10.5 22.5q0 70 47.5 339.5t112.5 503.5q-113 -22 -209 -22q-53 0 -84 4q-21 -71 -51.5 -161t-88 -226.5t-110.5 -224.5q-56 -92 -136.5 -157.5 t-168.5 -88.5q-36 -8 -72 -8q-16 0 -48.5 6.5t-43.5 11.5q-16 6 -32.5 20.5t-16.5 24.5zM201 285q0 24 13.5 38.5t35.5 14.5q25 0 39 -14t14 -39q0 -22 -14.5 -35.5t-38.5 -13.5q-22 0 -35.5 13.5t-13.5 35.5z" />
<glyph unicode="&#xe008;" horiz-adv-x="1257" d="M20 -500q0 13 19 13q7 0 43 -4.5t70 -4.5q177 0 354 177q217 213 389 706q111 321 195 830q21 126 30 241q-61 0 -181.5 25.5t-143.5 25.5q-45 0 -86 -9.5t-58.5 -17t-46.5 -22.5q-24 -12 -37 -12q-12 0 -12 10q0 23 49 53q82 56 211 56q42 0 150 -19.5t155 -19.5 q34 0 98 8t74 8q27 0 27 -37q0 -21 -11.5 -134.5t-17.5 -147.5q-45 -238 -87 -403t-113 -382q-71 -215 -188.5 -414t-235.5 -317q-131 -131 -255.5 -191.5t-254.5 -60.5q-44 0 -90 11t-46 32zM180 -268q0 24 13.5 38.5t35.5 14.5q25 0 39.5 -14t14.5 -39q0 -22 -14.5 -35.5 t-39.5 -13.5q-22 0 -35.5 13.5t-13.5 35.5z" />
<glyph unicode="&#xe009;" horiz-adv-x="1824" d="M82 86q0 18 14 18q4 0 14 -7.5t25.5 -19.5t30.5 -20q46 -24 92 -24q81 0 146 57.5t110 138.5q82 146 150 304.5t119.5 323t85.5 292t73 293.5q-40 4 -148 23.5t-132 19.5q-69 -1 -113.5 -17.5t-85.5 -54.5q-18 -15 -36 -37.5t-28.5 -35.5t-17.5 -13q-12 0 -12 16 q0 31 43 87q94 112 262 112q37 0 135.5 -16.5t134.5 -16.5q43 0 113.5 11.5t79.5 11.5q22 0 22 -21q0 -10 -4 -30q-122 -460 -184 -619q90 7 222.5 78t276.5 186q302 240 455 463q44 63 80 123q39 62 51 62q15 0 15 -11q0 -41 -91.5 -189.5t-205.5 -279.5 q-131 -152 -300.5 -275.5t-347.5 -207.5q25 -76 46 -135t54.5 -143.5t64.5 -147t73 -130.5t83 -111.5t91.5 -72t101.5 -28.5q34 0 76 10l41 10q15 0 15 -14q0 -6 -17 -20q-20 -17 -70 -29t-102 -12q-73 0 -139.5 24t-117.5 60.5t-102 99.5t-86 119.5t-76 144t-66.5 150.5 t-61.5 159q-14 -44 -57.5 -151.5t-92.5 -204.5q-94 -186 -223 -301t-260 -115q-120 0 -192 72q-27 27 -27 41zM1593 1575q0 24 13.5 38.5t35.5 14.5q25 0 39.5 -14t14.5 -39q0 -22 -14.5 -35.5t-39.5 -13.5q-22 0 -35.5 13.5t-13.5 35.5z" />
<glyph unicode="&#xe00a;" horiz-adv-x="1327" d="M82 51q0 69 61.5 125.5t167.5 56.5q45 0 88 -18q82 171 164.5 428.5t120.5 413.5q-78 -44 -232.5 -84.5t-220.5 -40.5q-34 0 -34 16t39 23q175 36 303 82q124 46 174 86q45 129 125 252q47 72 110.5 118.5t132.5 46.5q47 0 68.5 -27.5t21.5 -70.5q0 -83 -79.5 -164.5 t-196.5 -140.5q-76 -313 -159 -541.5t-214 -439.5q104 -61 226 -100t223 -39q66 0 121.5 11.5t81.5 22.5t61.5 31.5t44.5 24.5q20 8 25 8q12 0 12 -10q0 -16 -29.5 -40t-76.5 -46.5t-116 -38.5t-139 -16q-108 0 -222 32t-265 97q-58 -72 -123 -117t-125 -45q-58 0 -98.5 28 t-40.5 76zM152 57q0 -25 16 -41t45 -16q47 0 88 37.5t70 120.5q-32 16 -74 16q-68 0 -106.5 -37.5t-38.5 -79.5zM909 1214q81 41 150 111t69 129q0 55 -45 55q-37 0 -72.5 -44.5t-60.5 -109t-41 -141.5zM1178 223q0 24 13.5 38.5t35.5 14.5q25 0 39 -14t14 -39 q0 -22 -14.5 -35.5t-38.5 -13.5q-22 0 -35.5 13.5t-13.5 35.5z" />
<glyph unicode="&#xe00b;" horiz-adv-x="2320" d="M20 88q0 9 4.5 16t10.5 7t18 -8t34.5 -21t45.5 -23q105 -45 238 -45q102 0 207.5 37.5t202 103.5t182.5 146t165 176q174 212 256 352q200 342 412 740q22 41 35 56t29 15q18 0 18 -22q0 -16 -16 -70q-10 -36 -63 -217t-87 -302.5t-83.5 -312.5t-84.5 -349 q134 138 308.5 406.5t340.5 569.5q96 173 114 199q24 35 38 35q16 0 16 -14q0 -18 -6 -39q-101 -306 -207 -838q-47 -231 -47 -381q0 -155 37 -268q10 -29 24.5 -55.5t23.5 -40.5t9 -19q0 -14 -20 -14q-18 0 -58 19.5t-69 49.5q-127 133 -127 414q0 230 92 535 q-100 -190 -219 -353.5t-350 -445.5q-31 -36 -82 -82.5t-70 -46.5q-22 0 -22 33t14 82q16 70 37 168.5t33.5 155t41.5 164t70 245.5q-169 -273 -292 -420q-61 -73 -113 -129t-133 -124t-160 -112.5t-183.5 -75t-213.5 -30.5q-127 0 -240 47q-39 16 -75 41.5t-36 44.5z M444 264q0 24 14 38.5t36 14.5q25 0 39 -14t14 -39q0 -22 -14.5 -35.5t-38.5 -13.5q-22 0 -36 13.5t-14 35.5z" />
<glyph unicode="&#xe00c;" horiz-adv-x="2013" d="M-410 -272q0 12 13 12q17 0 80 -35q76 -41 175.5 -62.5t164.5 -21.5q149 0 281.5 50t279.5 149q303 203 649 712q68 101 127 197.5t86 143t82.5 148.5t70.5 130q44 80 110 218t67 140q23 41 36 41q19 0 19 -30q0 -23 -7 -76t-27 -189.5t-34 -240.5q-5 -36 -22.5 -146.5 t-26.5 -192t-14 -177.5q178 333 342.5 592.5t329.5 441.5q70 77 151.5 129.5t159.5 56.5q27 0 27 -14q0 -16 -23 -23q-154 -44 -270 -186q-126 -155 -162 -209q-194 -288 -362.5 -592.5t-286.5 -566.5q-64 -147 -101 -147q-13 0 -19.5 11t-7.5 23.5t-1 34.5q3 105 31 394 t71 513q-183 -343 -467 -733q-184 -250 -403 -413q-58 -43 -98 -70.5t-108.5 -65.5t-130.5 -60t-147.5 -38t-175.5 -16q-140 0 -259.5 38t-188.5 107q-11 11 -11 23zM262 -2q0 24 13.5 38.5t35.5 14.5q25 0 39.5 -14t14.5 -39q0 -22 -14.5 -35.5t-39.5 -13.5 q-22 0 -35.5 13.5t-13.5 35.5z" />
<glyph unicode="&#xe00d;" horiz-adv-x="1431" d="M41 -516q0 5 3.5 8.5t12 6t15.5 4.5t21.5 5t23.5 5q76 21 136.5 54.5t117.5 94.5q103 109 190 338q78 200 172 493t172.5 519.5t151.5 367.5q-86 -31 -176 -95t-158 -132q-31 -31 -43 -31q-10 0 -10 11q0 22 51 73q92 92 174 144q129 83 201 108q115 198 188 262 q37 29 43 29q8 0 11 -2.5t3 -11.5q0 -4 -6 -15.5t-19.5 -36.5t-25.5 -51q-33 -70 -57 -153q66 14 156 14q55 0 122 -17.5t111 -45.5q77 -49 117.5 -127.5t40.5 -172.5q0 -145 -80 -258t-193 -172q-165 -86 -356 -86q-84 0 -84 25q0 7 7.5 8.5t39.5 3.5q19 1 31 2 q178 12 293 121q74 70 114.5 171t40.5 202q0 59 -14 109t-43.5 92t-82 66t-122.5 24q-55 0 -108 -13q-30 -91 -151 -505.5t-198 -624.5q-70 -191 -165 -361q-138 -247 -316 -366q-85 -56 -174.5 -79.5t-138.5 -23.5q-17 0 -28 5.5t-11 13.5zM180 -104q0 24 13.5 38.5 t35.5 14.5q25 0 39.5 -14t14.5 -39q0 -22 -15 -36t-39 -14q-22 0 -35.5 14t-13.5 36z" />
<glyph unicode="&#xe00e;" horiz-adv-x="1722" d="M410 444q0 125 36.5 257.5t100 252.5t154 227t194 185.5t224 124t239.5 45.5q177 0 291 -128t114 -349q0 -142 -40.5 -286t-117 -273t-178.5 -235.5t-234 -180.5t-275 -100q37 -204 88.5 -342t130.5 -275q44 -75 89 -133.5t66 -81.5t21 -29q0 -18 -27 -18 q-14 0 -48.5 23.5t-90 79.5t-109.5 130q-125 170 -188.5 309t-128.5 347q-134 31 -222.5 151t-88.5 299zM598 336q0 -125 50 -212t145 -87q104 0 207 54.5t187 143.5t157.5 204t123.5 235t78.5 237t28.5 211q0 79 -8 137.5t-30 113t-66.5 83.5t-110.5 29q-100 0 -200 -55 t-182 -146.5t-154 -211t-121 -246.5t-77 -255t-28 -235zM1245 -514q0 24 13.5 38.5t35.5 14.5q25 0 39.5 -14t14.5 -39q0 -22 -14.5 -35.5t-39.5 -13.5q-22 0 -35.5 13.5t-13.5 35.5z" />
<glyph unicode="&#xe00f;" horiz-adv-x="1693" d="M20 -596q0 3 7 8t22.5 15.5t28.5 21.5q96 78 174 191q72 106 144 255.5t116 260.5q63 159 253.5 678t207.5 563q-137 -32 -271 -125q-41 -29 -55 -29q-10 0 -10 10q0 11 20 35t43 39q162 112 312 152q68 134 127 198q37 40 72.5 63t48.5 23q12 0 12 -12q0 -2 -8 -15.5 t-23.5 -39.5t-28.5 -51q-26 -50 -59 -152q43 6 78 6q58 0 119.5 -13t101.5 -34q170 -83 170 -268q0 -80 -39 -150t-113 -121q-142 -96 -305 -102q54 -274 105 -397q56 -133 108.5 -210t122.5 -132q41 -32 119 -64q4 -1 11 -4t9.5 -4t6.5 -3t5 -5t1 -6q0 -15 -33 -15 q-40 3 -96 21q-149 45 -260 166q-119 126 -201.5 306t-116.5 363q-23 -84 -107.5 -306.5t-150.5 -368.5q-58 -127 -191 -324.5t-268 -314.5q-144 -121 -194 -121q-15 0 -15 12zM98 -145q0 24 13.5 38.5t35.5 14.5q25 0 39.5 -14t14.5 -39q0 -22 -15 -36t-39 -14 q-22 0 -35.5 14t-13.5 36zM961 870q65 -14 124 -14q81 0 140.5 28.5t115.5 86.5q44 46 65 107.5t21 119.5q0 116 -62 180t-153 64q-28 0 -71 -6q-69 -240 -180 -566z" />
<glyph unicode="&#xe010;" horiz-adv-x="1069" d="M10 373q0 22 13 22q17 0 26 -18q64 -156 146 -225q128 -109 258 -109q72 0 128 27.5t89 73.5t50 101t17 115q0 71 -25.5 154.5t-62.5 162.5t-74 160.5t-62.5 174.5t-25.5 178q0 65 25 126.5t70.5 112t118.5 81t161 30.5q126 0 195 -88q14 -18 23.5 -41.5t9.5 -32.5 q0 -14 -15 -14q-13 0 -20 14q-68 107 -164 107q-223 0 -223 -275q0 -75 27 -162.5t65 -167.5t76 -160.5t65 -167t27 -161.5q0 -176 -120 -292.5t-325 -116.5q-97 0 -189 37.5t-153 103.5q-76 82 -114 186q-17 43 -17 64zM242 346q0 24 13.5 38.5t35.5 14.5q25 0 39 -14 t14 -39q0 -22 -14.5 -35.5t-38.5 -13.5q-22 0 -35.5 13.5t-13.5 35.5z" />
<glyph unicode="&#xe011;" horiz-adv-x="1206" d="M20 -545q0 18 52 21q122 7 252 94q218 148 387 526q215 479 346 1358q-178 31 -248 31q-202 0 -342 -121q-59 -51 -93 -125t-34 -158q0 -25 2.5 -50t5 -40.5t2.5 -17.5q0 -19 -10 -19q-12 0 -21 15q-24 46 -24 125q0 189 133 315q81 78 187.5 117t258.5 39q58 0 276 -34 t337 -34q75 0 172.5 19t161.5 51q16 8 26 8q15 0 15 -10q0 -5 -5.5 -16.5t-9.5 -14.5q-66 -56 -180 -83.5t-217 -27.5q-121 0 -184 4q-122 -826 -410 -1382q-27 -52 -62.5 -108t-91 -126.5t-116.5 -130.5t-141 -115t-162 -85q-113 -45 -197 -45q-66 0 -66 20zM180 -207 q0 24 13.5 38.5t35.5 14.5q25 0 39.5 -14t14.5 -39q0 -22 -14.5 -35.5t-39.5 -13.5q-22 0 -35.5 13.5t-13.5 35.5z" />
<glyph unicode="&#xe012;" horiz-adv-x="1538" d="M328 203q0 62 16.5 127.5t44 138.5t106.5 286t162 455q31 88 48.5 144t37 155.5t19.5 184.5q0 92 -17 164.5t-34 110t-17 44.5q0 6 5.5 10.5t13.5 4.5q15 0 47 -51t55 -119q24 -68 35.5 -146t11.5 -131q0 -183 -74 -451q-45 -163 -92.5 -312.5t-94 -288.5t-66.5 -201 q-33 -105 -33 -156q0 -40 17.5 -66t49.5 -26q43 0 113 62t147 165q127 168 216.5 332.5t164.5 355.5q36 92 71 188t64 182.5t37 107.5q13 38 23.5 50.5t36.5 12.5h108q29 0 29 -20t-25 -93q-117 -329 -190 -585q-117 -410 -117 -590q0 -76 11 -124.5t42 -74.5 q18 -16 42.5 -20t38.5 -5.5t14 -11.5q0 -12 -26 -19t-50 -7q-79 0 -135 51q-48 43 -73.5 116.5t-25.5 149.5q0 68 21 196t47 230q-24 -56 -102 -188t-144 -226q-230 -325 -411 -325q-78 0 -123 56.5t-45 156.5zM477 1636q0 25 13.5 39.5t35.5 14.5q25 0 39.5 -14.5 t14.5 -39.5q0 -22 -14.5 -35.5t-39.5 -13.5q-22 0 -35.5 13.5t-13.5 35.5z" />
<glyph unicode="&#xe013;" horiz-adv-x="1261" d="M410 1532q0 14 20 14q45 0 140.5 -93t158.5 -214q158 -301 184 -811q103 188 236 393q355 548 666 840q110 103 200 147q26 13 35 13q10 0 10 -11q0 -8 -47 -43q-69 -54 -170 -155q-174 -171 -518 -694q-88 -134 -179.5 -287t-149 -255t-185.5 -331q-31 -57 -61 -57 q-9 0 -16.5 11t-8.5 28q-4 32 -6 126t-8 177q-9 120 -17.5 207.5t-25.5 220t-43.5 250.5t-61.5 211q-75 193 -129 270q-21 30 -24 43zM1880 1370q0 24 13.5 38.5t35.5 14.5q25 0 39 -14t14 -39q0 -22 -14.5 -35.5t-38.5 -13.5q-22 0 -35.5 13.5t-13.5 35.5z" />
<glyph unicode="&#xe014;" horiz-adv-x="1705" d="M410 1552q0 15 20 15q38 0 120.5 -98.5t137.5 -223.5q83 -187 123.5 -381t40.5 -366q81 176 157.5 305.5t231.5 367.5q-14 148 -76 351q-1 6 -12 32.5t-12 36.5q0 15 18 15q17 0 49 -35t68 -92t71.5 -144.5t55.5 -179.5q63 -283 63 -479q0 -96 -8 -172q71 132 193 334 q140 230 310 461.5t302 361.5q44 44 99.5 85t97.5 62q26 13 34 13q11 0 11 -11q0 -8 -47 -43q-108 -84 -170 -149q-185 -194 -488 -676q-44 -70 -88.5 -147.5t-77.5 -136.5t-82 -152t-74 -141.5t-82.5 -161.5t-80.5 -158q-28 -57 -62 -57q-9 0 -16.5 11t-7.5 28t12.5 151.5 t15.5 229.5q9 216 9 380q0 178 -15 281q-304 -468 -526 -1022q-9 -22 -14 -32t-14 -18.5t-21 -8.5q-19 0 -19 59q0 16 4.5 116t4.5 199q0 664 -228 1127q-26 51 -28 63zM2310 1391q0 24 13.5 38.5t35.5 14.5q25 0 39.5 -14t14.5 -39q0 -22 -15 -36t-39 -14q-22 0 -35.5 14 t-13.5 36z" />
<glyph unicode="&#xe015;" horiz-adv-x="1816" d="M82 -272q0 15 22 22q174 68 371 219q356 275 631 779q-65 252 -121 409.5t-145 280.5q-26 36 -62 67q-30 26 -30 35q0 14 24 14q42 0 93 -21.5t107.5 -65.5t113 -123t98.5 -181q30 -73 96 -260q156 235 283.5 383.5t273.5 239.5q37 22 57 22q19 0 19 -14q0 -6 -6.5 -12 t-26 -19.5t-33.5 -25.5q-2 -2 -19 -15.5t-24 -19.5t-25.5 -22.5t-33.5 -32.5t-37 -40.5t-47.5 -55.5t-54.5 -68q-171 -221 -283 -428q65 -249 148.5 -460.5t168.5 -287.5q50 -43 68 -53q45 -22 51 -31q4 -6 4 -14q0 -19 -82 -19q-27 0 -78.5 13t-82.5 32q-64 37 -126 114 t-109.5 171t-82.5 186t-57 177q-364 -581 -795 -818q-176 -96 -241 -96q-12 0 -19.5 5.5t-7.5 13.5zM324 121q0 24 13.5 38.5t35.5 14.5q25 0 39 -14t14 -39q0 -22 -14.5 -35.5t-38.5 -13.5q-22 0 -35.5 13.5t-13.5 35.5z" />
<glyph unicode="&#xe016;" horiz-adv-x="1024" d="M246 1585q0 12 26 12q91 0 184.5 -77t161.5 -187q59 -94 113.5 -224t75.5 -212q156 330 344 592q87 120 195.5 223t197.5 158q57 33 74 33q20 0 20 -15q0 -11 -20 -24q-133 -95 -234 -204t-210 -265q-240 -345 -369 -813q-25 -89 -67.5 -267t-69.5 -284q-8 -31 -37 -31 h-119q-15 0 -22 5t-7 22q0 6 29 147q69 323 131 574q-14 92 -72 266q-18 54 -42.5 114.5t-62.5 142t-88.5 157t-103.5 122.5q-28 25 -28 35zM1450 1493q0 24 13.5 38.5t35.5 14.5q25 0 39 -14t14 -39q0 -22 -14.5 -35.5t-38.5 -13.5q-22 0 -35.5 13.5t-13.5 35.5z" />
<glyph unicode="&#xe017;" horiz-adv-x="1380" d="M246 1473q0 13 14 24q38 26 94 51q154 74 361 74q123 0 310 -30.5t257 -30.5q40 0 115 9t78 9q28 0 28 -25q0 -18 -41 -73q-20 -28 -137.5 -187t-232.5 -323q-392 -556 -553 -846q209 0 426 -76q85 -29 184 -29q43 0 111 20.5t71 20.5q21 0 21 -18q0 -15 -17 -25 q-92 -61 -229 -61q-47 0 -160 23q-11 2 -56 12t-72.5 15.5t-70.5 13t-81.5 11t-73.5 3.5q-72 0 -178 -17.5t-111 -17.5q-33 0 -33 33q0 29 60 127q179 300 422.5 647t498.5 666q-97 0 -272.5 41.5t-282.5 41.5q-81 0 -160 -15.5t-127 -34.5t-89.5 -34.5t-57.5 -15.5t-16 17z M569 1350q0 24 13.5 38.5t35.5 14.5q25 0 39.5 -14t14.5 -39q0 -22 -15 -36t-39 -14q-22 0 -35.5 14t-13.5 36z" />
<glyph unicode="&#xe020;" horiz-adv-x="1695" d="M41 209q0 12 12 12q8 0 29 -24q144 -164 340 -164q269 0 539 295q-81 45 -127 102q-17 23 -17 41q0 12 12 12q3 0 12.5 -8.5t27 -25.5t32.5 -29q42 -34 90 -53q161 167 331 395t281 405.5t199 337.5q7 15 19.5 22t23.5 8t35 1q62 0 62 -27q0 -29 -84 -264 q-265 -740 -439 -1212q-11 -33 -35 -33h-147q-18 0 -18 16q0 14 14 47l67 187q-157 6 -286 59q-66 -71 -128.5 -124.5t-137 -100t-158 -71.5t-170.5 -25q-91 0 -176.5 36.5t-151.5 102.5q-18 18 -34.5 43.5t-16.5 38.5zM262 244q0 24 13.5 38.5t35.5 14.5q25 0 39.5 -14 t14.5 -39q0 -22 -14.5 -35.5t-39.5 -13.5q-22 0 -35.5 13.5t-13.5 35.5zM1047 348q57 -26 135.5 -39.5t132.5 -13.5q101 224 373 919q-96 -165 -307 -452t-334 -414z" />
<glyph unicode="&#xe021;" horiz-adv-x="1548" d="M20 -248q0 7 10.5 11.5t38.5 13t50 16.5q107 43 248 168q146 130 307 471q117 246 205 524t139 490q-174 0 -275.5 -67t-152.5 -191q-7 -10 -17 -10q-18 0 -18 26q0 47 49 118.5t139 121.5q116 63 304 63q87 0 310 -41t298 -41q153 0 262 50q10 4 26.5 13t28 15t13.5 6 q14 0 14 -10q0 -43 -106.5 -86t-247.5 -43q-90 0 -161 8.5t-156.5 24.5t-145.5 24q-38 -193 -115.5 -431.5t-151.5 -393.5q119 107 244 107q137 0 216 -84.5t79 -204.5q0 -106 -52.5 -203t-155 -161t-230.5 -64q-155 0 -254 94q-8 6 -17.5 17.5t-9.5 21.5q0 16 17 16 q12 0 28 -16q86 -70 185 -70q65 0 125 37.5t100.5 95.5t65 128.5t24.5 136.5q0 79 -39.5 136.5t-114.5 57.5t-135 -35.5t-125 -134.5q-115 -182 -174 -268q-163 -240 -385 -379q-49 -32 -132.5 -65t-129.5 -33q-15 0 -20 4t-5 16zM182 141q0 25 13.5 39.5t35.5 14.5 q25 0 39.5 -14.5t14.5 -39.5q0 -22 -14.5 -35.5t-39.5 -13.5q-22 0 -35.5 13.5t-13.5 35.5z" />
<glyph unicode="&#xe022;" horiz-adv-x="1880" d="M20 -453q0 8 13 11.5t49 12t72 21.5q141 53 254 166q270 265 471 910q142 462 213 782q-69 -16 -161 -86t-169 -188q-7 -11 -14 -11q-13 0 -13 17q0 11 23 57q41 75 134 151.5t185 110.5q122 45 256 45q53 0 110 -15t85 -34q110 -67 110 -182q0 -111 -110 -185 q-38 -27 -121 -51q101 -14 180.5 -57.5t129.5 -106.5t76 -140t26 -163q0 -105 -46 -214.5t-124 -200t-193.5 -148t-243.5 -57.5q-58 0 -86.5 2t-76 18t-97.5 49q-12 9 -27.5 26.5t-15.5 25.5q0 16 15 16q4 0 12.5 -5.5t18 -13t10.5 -8.5q51 -36 98.5 -48.5t114.5 -12.5 q61 0 126 26t126.5 78.5t110.5 124.5t78.5 172.5t29.5 212.5q0 89 -33.5 170.5t-107 143.5t-175.5 78q-36 4 -51 4q-22 0 -22 14t16 18q99 24 160 90.5t61 163.5q0 86 -65 127q-45 29 -107 29q-45 0 -63 -4q-26 -179 -90.5 -424.5t-127.5 -421.5q-40 -113 -86 -219 t-115 -230.5t-145.5 -228.5t-179 -201t-213.5 -159q-49 -27 -122 -51.5t-117 -24.5q-46 0 -46 18zM209 -84q0 24 13.5 38.5t35.5 14.5q25 0 39 -14t14 -39q0 -22 -14.5 -35.5t-38.5 -13.5q-22 0 -35.5 13.5t-13.5 35.5z" />
<glyph unicode="&#xe023;" horiz-adv-x="1200" d="M20 -90q0 18 15 18q6 0 18 -6q54 -27 105 -38t129 -11q54 0 132.5 30.5t135.5 80.5q177 155 324 452q93 188 192.5 499t134.5 529q-69 15 -145 15q-242 0 -367 -164q-27 -36 -44 -76t-23 -71t-10 -57t-9 -40t-16 -14q-23 0 -23 59q0 137 84 246q57 74 137.5 117.5t156 57 t171.5 13.5q75 0 205.5 -25t276.5 -50t260 -25q80 0 151 15.5t109.5 33.5t68 33.5t35.5 15.5q21 0 21 -18q0 -8 -25.5 -31.5t-58.5 -42.5q-58 -32 -144.5 -53t-171.5 -21q-83 0 -159.5 7t-128.5 16t-160 29q-114 -515 -287 -899q-60 -134 -142.5 -259.5t-170.5 -216.5 q-230 -241 -510 -241q-146 0 -252 71q-15 15 -15 21zM1866 1626q0 24 13.5 38.5t35.5 14.5q25 0 39 -14t14 -39q0 -22 -14.5 -35.5t-38.5 -13.5q-22 0 -35.5 13.5t-13.5 35.5z" />
<glyph unicode="&#xe024;" horiz-adv-x="1982" d="M512 1319q0 10 22 30.5t44 34.5q125 83 272.5 121.5t279.5 38.5q70 0 105 -4q10 44 17 104t12.5 126.5t7.5 84.5q0 5 4 9t8 4q6 0 14 -7t9 -16q7 -23 16 -84q14 -94 14 -237q303 -66 464 -264t161 -484q0 -149 -59 -287.5t-159.5 -242t-244.5 -166t-305 -62.5 q-50 0 -143 6.5t-146 6.5q-83 0 -180 -21.5t-104 -21.5q-6 0 -10.5 5t-4.5 11q0 10 14.5 30t43.5 57.5t51 70.5q193 300 332.5 668.5t175.5 635.5q-58 7 -113 7q-145 0 -260 -28t-227 -89q-14 -8 -40.5 -23.5t-40 -22.5t-18.5 -7q-12 0 -12 16zM858 1262q0 24 13.5 38.5 t35.5 14.5q25 0 39.5 -14t14.5 -39q0 -22 -15 -36t-39 -14q-22 0 -35.5 14t-13.5 36zM862 82q49 6 109 6q20 0 89 -3t105 -3q128 0 242 58t193.5 154.5t125.5 227t46 271.5q0 151 -46.5 279.5t-146.5 226t-242 137.5q-5 -194 -53 -404t-120 -387.5t-149.5 -321 t-152.5 -241.5z" />
<glyph unicode="&#xe025;" horiz-adv-x="1478" d="M307 573q0 109 37 204t100 166t149 125.5t182 88t200 47.5q-48 25 -78.5 70t-30.5 104q0 73 59.5 121.5t157.5 48.5q41 0 77 -16t56.5 -37.5t32 -41t11.5 -30.5q0 -18 -13 -18q-6 0 -26 20q-27 30 -49.5 41t-57.5 11q-47 0 -82 -35.5t-35 -81.5q0 -73 42.5 -118t93.5 -58 q1 0 7.5 -2t10 -3t9 -3.5t8.5 -4.5t5.5 -6t2.5 -8q0 -18 -23 -18q-11 0 -43 4t-55 4q-74 0 -150.5 -23.5t-149 -72.5t-129.5 -116.5t-91.5 -163.5t-34.5 -206q0 -217 126.5 -359.5t334.5 -142.5q137 0 274 70q32 16 70.5 43.5t64 46t33.5 19.5q14 0 14 -17t-40.5 -54 t-78.5 -62q-174 -115 -391 -115q-145 0 -261 46.5t-189 126.5t-111.5 184t-38.5 222zM1028 272q0 25 13.5 39.5t35.5 14.5q25 0 39 -14.5t14 -39.5q0 -22 -14.5 -35.5t-38.5 -13.5q-22 0 -35.5 13.5t-13.5 35.5z" />
<glyph unicode="&#xe026;" horiz-adv-x="2183" d="M41 72q0 12 12 12q10 0 32 -8t66 -16.5t107 -8.5q112 0 223 55.5t201.5 151t161.5 216.5t110 261t39 275t-34.5 241.5t-106 171t-170.5 64.5q-60 0 -112.5 -11.5t-83 -23.5t-37.5 -12q-11 0 -11 10q0 11 43 35q102 51 238 51q139 0 242 -86q190 -158 190 -510 q0 -156 -64 -313q101 136 171.5 248t147 254t95.5 176q13 24 38.5 75t40 73t26.5 22q14 0 17 -9t3 -32q0 -47 -118 -435.5t-156 -486.5q13 21 76.5 124t114 182t135.5 195t167 208q282 315 529 315q91 0 141 -47q37 -37 37 -66q0 -20 -15 -20q-8 0 -20.5 12.5t-26.5 27.5 t-41.5 27.5t-60.5 12.5q-119 0 -240 -103q-182 -157 -280.5 -400.5t-98.5 -537.5q0 -56 7.5 -109t26 -106t47 -92t73.5 -63.5t102 -24.5q23 0 52 6t30 6q21 0 21 -12q0 -13 -14 -20q-52 -27 -119 -27q-84 0 -152 34t-110.5 88t-71 126t-40 143.5t-11.5 145.5q0 82 14 187 t45 183q-95 -133 -238 -362t-230 -358.5t-116 -129.5q-18 0 -18 25q0 15 23 81.5t90 270.5t145 465q-152 -259 -292 -436t-273.5 -277.5t-256.5 -143t-261 -42.5q-64 0 -132.5 23t-68.5 49zM268 297q0 24 13.5 38.5t35.5 14.5q25 0 39.5 -14t14.5 -39q0 -22 -14.5 -35.5 t-39.5 -13.5q-22 0 -35.5 13.5t-13.5 35.5z" />
<glyph unicode="&#xe027;" horiz-adv-x="1472" d="M123 350q0 5 4.5 11t11.5 6q6 0 15 -11t22 -32t19 -29q178 -238 479 -238q108 0 201 36.5t158.5 97.5t112 141t69 167t22.5 175q0 143 -56.5 258.5t-174.5 163.5q-27 11 -84 22q-21 4 -21 21t29 20q95 10 165 62t70 141q0 60 -27.5 90.5t-76.5 30.5q-43 0 -85.5 -21 t-71 -42t-36.5 -21q-14 0 -14 12q0 17 16 33q100 100 254 100q84 0 140.5 -45.5t56.5 -130.5q0 -58 -30.5 -103.5t-77.5 -70t-89 -37t-80 -16.5q171 -44 278.5 -183.5t107.5 -310.5q0 -294 -207.5 -473.5t-544.5 -179.5q-163 0 -304.5 79t-226.5 218q-24 42 -24 59zM473 340 q0 24 13.5 38.5t35.5 14.5q25 0 39 -14t14 -39q0 -22 -14.5 -35.5t-38.5 -13.5q-22 0 -35.5 13.5t-13.5 35.5z" />
<glyph unicode="&#xe028;" horiz-adv-x="1470" d="M328 211q0 71 25.5 170t63 201.5t118 328t153.5 447.5q105 317 105 506q0 159 -54 307q-8 21 -21 46t-21.5 40.5t-8.5 21.5t5.5 10.5t13.5 4.5q33 0 86 -105q50 -96 70 -220.5t20 -233.5q0 -110 -27.5 -272t-69.5 -314q-25 -87 -100.5 -325t-121.5 -404t-46 -234 q0 -60 14 -90t54 -30q82 0 200.5 158t222 375.5t169.5 424.5q18 54 135 449q11 38 22 50.5t37 12.5h111q28 0 28 -23q0 -24 -20 -96q-9 -30 -61 -208.5t-79.5 -281t-67.5 -259t-59.5 -270.5t-19.5 -187q0 -139 51 -195q11 -12 27 -20t28 -10.5t20.5 -7.5t8.5 -13 q0 -20 -39 -20q-76 0 -130.5 52t-78.5 129t-24 167q0 163 76 457q-9 -16 -42 -89t-79 -164t-94 -169q-46 -74 -88.5 -130t-94 -107t-107.5 -78t-114 -27q-90 0 -143 56t-53 169zM551 1853q0 25 13.5 39.5t35.5 14.5q25 0 39 -14.5t14 -39.5q0 -22 -14.5 -35.5t-38.5 -13.5 q-22 0 -35.5 13.5t-13.5 35.5z" />
<glyph unicode="&#xe029;" horiz-adv-x="1466" d="M82 76q0 16 16 16q9 0 25 -15.5t45.5 -31.5t69.5 -16q72 0 132 47.5t101 120.5q46 85 87 174.5t78 192t62.5 176.5t57.5 192t46 171t45.5 181t39.5 158q-41 4 -138.5 23.5t-121.5 19.5q-69 -1 -113.5 -17.5t-85.5 -54.5q-18 -15 -36 -37.5t-28.5 -35.5t-17.5 -13 q-12 0 -12 16q0 31 43 87q94 112 262 112q37 0 135.5 -16.5t134.5 -16.5q43 0 100 11.5t66 11.5q23 0 23 -21q0 -10 -4 -30q-129 -486 -187 -629q42 1 82 13t73 29.5t70.5 51.5t65.5 63t68 81.5t66.5 90.5t72.5 105q179 264 299 381q54 53 118 91t91 38q10 0 10 -10 q0 -8 -9 -16.5t-36 -27.5t-47 -36q-130 -105 -281 -328q-12 -19 -67.5 -105t-91.5 -140.5t-86.5 -120.5t-85.5 -97q-56 -47 -82 -64.5t-80 -41.5q7 -30 29 -134t36.5 -162t45.5 -157.5t69 -191.5q27 -65 43.5 -102.5t49 -101.5t71.5 -123t86 -116q95 -112 203 -178 q10 -7 22 -14.5l20 -12.5t15 -10t10.5 -9t3.5 -7q0 -14 -26 -14q-36 0 -135.5 60.5t-186.5 144.5q-77 76 -160 181.5t-129 196.5q-55 108 -85.5 171.5t-81.5 203.5t-91 297q-11 -37 -27.5 -82t-48.5 -122t-67.5 -147.5t-86 -147t-103 -132t-118.5 -91.5t-132 -36 q-78 0 -135 34.5t-66 68.5zM1804 1483q0 24 13.5 38.5t35.5 14.5q25 0 39.5 -14t14.5 -39q0 -22 -14.5 -35.5t-39.5 -13.5q-22 0 -35.5 13.5t-13.5 35.5z" />
<glyph unicode="&#xe02a;" horiz-adv-x="1789" d="M20 260q0 16 17 16q6 0 24 -23.5t49.5 -57t75.5 -66.5t115.5 -56.5t155.5 -23.5q73 0 144 17t126.5 42t113.5 64t98 72t87 78q112 105 219.5 230t188.5 235t166.5 243.5t141 227.5t124.5 215q12 22 18 32q17 31 49 31h64q19 0 26 -3.5t7 -14.5q0 -9 -2 -17 q-17 -66 -109.5 -323t-244 -665.5t-171.5 -463.5q-19 -47 -47 -47h-121q-24 0 -24 31q0 22 24 92q22 58 75.5 192.5t150.5 376.5t186 469q-158 -267 -342 -507t-348 -394q-289 -270 -600 -270q-78 0 -150.5 21t-147 75t-126.5 137q-13 26 -13 35zM360 264q0 24 14 38.5 t36 14.5q25 0 39 -14t14 -39q0 -22 -14.5 -35.5t-38.5 -13.5q-22 0 -36 13.5t-14 35.5z" />
<glyph unicode="&#xe02b;" horiz-adv-x="2654" d="M-102 -295q0 14 14 14q6 0 17.5 -7t33.5 -19.5t45 -22.5q119 -51 277 -51q93 0 211.5 35t216.5 92q146 84 281 200t223 210q177 196 344 450q140 216 280 471q37 67 81.5 151.5t88.5 170t62 119.5q41 77 63 77q23 0 23 -24q0 -16 -15 -78q-203 -744 -289 -1198 q78 88 185.5 237.5t177.5 266.5q58 97 149 246t151 249t101 170q38 66 56 66q20 0 20 -25q0 -20 -26 -96q-35 -99 -100 -309t-113 -398q-28 -113 -42 -229.5t-14 -173.5q0 -172 45 -274q15 -37 43 -70q23 -26 23 -33q0 -16 -23 -16q-59 0 -121 59q-133 128 -133 400 q0 79 18.5 215t63.5 276q-91 -165 -188 -311q-140 -210 -383 -479q-77 -82 -98 -82q-27 0 -27 34q0 38 6 80q44 230 82.5 389.5t120.5 430.5q-134 -267 -265.5 -454t-295.5 -362q-130 -139 -244 -235t-248 -176q-95 -58 -219 -94.5t-260 -36.5q-152 0 -281 55 q-35 14 -76.5 43.5t-41.5 46.5zM410 -51q0 24 13.5 38.5t35.5 14.5q25 0 39 -14t14 -39q0 -22 -14.5 -35.5t-38.5 -13.5q-22 0 -35.5 13.5t-13.5 35.5z" />
<glyph unicode="&#xe02c;" horiz-adv-x="1865" d="M45 31q0 16 14 16q13 -4 34 -21t38 -26q111 -57 203 -57q148 0 252 65t219 223q69 95 135.5 233t132.5 324t110 322.5t109 353.5q-51 0 -137.5 13.5t-126.5 13.5q-133 0 -242 -96q-85 -77 -120 -207q-7 -23 -25 -23q-6 0 -11 6t-5 15q0 35 17 80.5t40 81.5 q22 37 53.5 69.5t78 64.5t112.5 51t143 19q56 0 134.5 -6t90.5 -6q100 0 170 31q4 4 17.5 9t19.5 5q19 0 19 -16q0 -14 -15 -64q-131 -450 -239 -694q20 -2 59 -2q124 0 229 20q126 335 273 621q26 50 46.5 68t47.5 18h55q18 0 27.5 -4.5t9.5 -20.5q0 -6 -1 -12.5t-4.5 -16 t-7 -18.5t-11 -25.5t-14.5 -30.5t-19 -40t-23 -49q-245 -515 -362 -961q-25 -95 -25 -202q0 -39 20.5 -76t61.5 -37q42 0 76 27q21 14 22 14q15 0 15 -14q0 -12 -21 -33q-25 -26 -61 -39.5t-68 -13.5q-99 0 -148.5 62t-49.5 171q0 91 38 251.5t99 303.5q-101 -16 -184 -16 q-26 0 -62 1t-37 1q-49 -145 -173 -350.5t-218 -307.5q-86 -93 -214.5 -153t-250.5 -60q-183 0 -315 103q-10 6 -20.5 20t-10.5 21zM332 217q0 24 13.5 38.5t35.5 14.5q25 0 39 -14t14 -39q0 -22 -14.5 -35.5t-38.5 -13.5q-22 0 -35.5 13.5t-13.5 35.5z" />
<glyph unicode="&#xe02d;" horiz-adv-x="1673" d="M82 -156q0 19 22 19q56 -8 86 -8q107 0 201.5 35t170.5 100t136 143.5t115 179.5q225 416 457 1176q-62 12 -172 12q-126 0 -231.5 -26.5t-213.5 -96.5q-114 -75 -169.5 -183t-55.5 -216q0 -80 14 -127q4 -12 10 -27t9.5 -24t3.5 -13q0 -14 -10 -14q-25 0 -52.5 68 t-27.5 147q0 255 235 436q108 84 247.5 116t328.5 32q44 0 302 -25.5t431 -25.5q103 0 186.5 11.5t131 27.5t80 32t50.5 27.5t25 11.5q18 0 18 -16q0 -24 -54 -60t-128 -59q-46 -14 -94 -24t-99.5 -15t-80 -7.5t-79 -4.5t-52.5 -2q-17 -57 -61.5 -212.5t-65.5 -227.5 t-65 -212.5t-78 -238t-84 -229t-103 -256.5q-15 -37 -32 -52.5t-42 -15.5h-71q-52 0 -52 33q0 20 84 221q98 227 215 571.5t197 638.5l-225 15q-59 -254 -200 -617t-275 -561q-53 -78 -103.5 -141.5t-123 -133t-146 -117t-168.5 -78t-195 -30.5q-71 0 -127 21q-16 6 -20 22z M375 211q0 24 13.5 38.5t35.5 14.5q25 0 39 -14t14 -39q0 -22 -14.5 -35.5t-38.5 -13.5q-22 0 -35.5 13.5t-13.5 35.5z" />
<glyph unicode="&#xe02e;" horiz-adv-x="1331" d="M20 -201q0 15 17 15q4 0 13 -6.5t21 -15.5t19 -13q45 -23 100 -23q189 0 388 437q49 109 138.5 329t127.5 330q137 390 223 578q-90 -32 -188.5 -97.5t-161.5 -128.5q-30 -30 -43 -30q-10 0 -10 10q0 11 15 35t36 43q96 92 174 141q47 30 112.5 62.5t110.5 47.5 q37 73 98 167.5t107 142.5q25 28 45 28q8 0 11 -2.5t3 -11.5q0 -8 -9 -26t-24 -47t-24 -48q-39 -86 -68 -180q54 10 119 10q70 0 153.5 -20.5t131.5 -55.5q143 -106 143 -288q0 -145 -79.5 -258t-192.5 -172q-165 -86 -373 -86q-84 0 -84 24q0 7 11 9.5t44 4.5h7.5t7 0.5 t8.5 0.5q180 12 293 120q74 70 114.5 171t40.5 202q0 122 -71 206.5t-199 84.5q-43 0 -92 -12q-64 -207 -167.5 -507t-162.5 -442q-173 -409 -311 -589q-40 -52 -78.5 -91t-87 -74t-105.5 -54t-120 -19q-78 0 -127 35q-54 38 -54 63zM154 -2q0 24 13.5 38.5t35.5 14.5 q25 0 39 -14t14 -39q0 -22 -14.5 -35.5t-38.5 -13.5q-22 0 -35.5 13.5t-13.5 35.5z" />
<glyph unicode="&#xe02f;" horiz-adv-x="1509" d="M543 504q0 123 37.5 252t103 245.5t159.5 220.5t202.5 179.5t237 119.5t257.5 44q110 0 183 -45.5t100 -124.5q4 -12 4 -19q0 -12 -12 -12q-14 0 -37 29q-51 58 -104 81t-118 23q-105 0 -211.5 -50t-196 -133.5t-168.5 -194t-133.5 -230.5t-86 -244t-31.5 -233 q0 -185 78.5 -276t214.5 -91q187 0 360 105q13 8 30.5 20.5t28.5 19.5t15 7q21 0 21 -19q0 -8 -25 -33q-187 -159 -434 -159q-226 0 -350.5 136t-124.5 382zM1456 1268q0 24 13.5 38.5t35.5 14.5q25 0 39.5 -14t14.5 -39q0 -22 -14.5 -35.5t-39.5 -13.5q-22 0 -35.5 13.5 t-13.5 35.5z" />
<glyph unicode="&#xe030;" horiz-adv-x="2093" d="M41 -141q0 6 6 10t12 4q3 0 50.5 -17.5t91.5 -17.5q60 0 113 20t96.5 57.5t74 72.5t64.5 84q56 81 110.5 183.5t96.5 197t88 222.5t74.5 216t67 223.5t55.5 200.5t49 188q-250 0 -408 -61q-99 -37 -175 -93.5t-122.5 -123.5t-73 -133.5t-39.5 -139.5q-4 -26 -7 -54.5 t-4.5 -46t-3.5 -32.5t-5.5 -21.5t-9.5 -6.5q-14 0 -22.5 34t-8.5 68q0 394 338 584q119 67 251.5 91.5t317.5 24.5q117 0 299 -30.5t373 -61.5t332 -31q104 0 189.5 14t135 33.5t83 39t51.5 33.5t24 14q21 0 21 -17q0 -23 -78.5 -76t-167.5 -79q-146 -41 -293 -41 q-77 -202 -184 -607q-35 -136 -55.5 -268t-20.5 -213q0 -193 76 -272q1 -1 6.5 -6t9 -8.5t7 -9t3.5 -9.5q0 -18 -31 -18q-52 0 -102 45q-47 43 -81 133.5t-34 216.5q0 235 113 649q62 227 119 383q-33 4 -80.5 11t-95 14.5t-58.5 9.5q-71 -313 -191.5 -726t-223.5 -653 q-13 -31 -32.5 -47t-53.5 -16h-62q-40 0 -43 27q0 9 6 24q84 203 174 491.5t140.5 475t115.5 444.5q-134 26 -229 33q-158 -598 -336 -995q-41 -92 -89 -183t-127 -206t-155 -183q-157 -145 -352 -145q-91 0 -155 43q-25 17 -25 33zM541 1073q0 24 13.5 38.5t35.5 14.5 q25 0 39 -14t14 -39q0 -22 -14.5 -35.5t-38.5 -13.5q-22 0 -35.5 13.5t-13.5 35.5z" />
<glyph unicode="&#xe031;" horiz-adv-x="1454" d="M20 -205q0 12 23 12q1 0 56.5 -10t131.5 -10q243 0 472 165t405 476q147 259 278 651q-26 -38 -53 -74t-72.5 -85.5t-90.5 -85t-103 -61t-113 -25.5q-82 0 -124 55t-42 147q0 73 31 169.5t62.5 187.5t31.5 151q0 78 -57 78q-55 0 -145 -72q-13 -10 -25 -10q-14 0 -14 12 q0 8 6 17q36 54 107 92.5t149 38.5q61 0 107 -47t46 -131t-27 -197.5t-54 -204.5t-27 -119q0 -16 1.5 -26.5t6.5 -23.5t17.5 -20t31.5 -7q27 0 62.5 21t70 51t78 79t76 89.5t75 98.5t65 90.5t55.5 80.5q2 3 32 47.5t46.5 68t45 63t52.5 66.5t43 43q16 13 28 13q17 0 17 -13 q0 -2 -4 -10q-32 -73 -78 -211.5t-64 -187.5q-17 -44 -73 -197t-88 -237t-82.5 -195.5t-92.5 -175.5q-227 -356 -485.5 -522t-558.5 -166q-102 0 -207 30q-10 3 -19.5 13t-9.5 18zM418 70q0 24 13.5 38.5t35.5 14.5q25 0 39 -14t14 -39q0 -22 -14.5 -36t-38.5 -14 q-22 0 -35.5 14t-13.5 36z" />
<glyph unicode="&#xe032;" horiz-adv-x="1613" d="M20 -150q0 15 17 15q2 0 26 -12q48 -31 116 -46.5t122 -15.5q279 0 502 270q120 146 192.5 281t147.5 334q-76 -43 -160 -43q-155 0 -234 92.5t-79 261.5q0 100 43.5 199.5t115 176.5t171.5 125t206 48q123 0 180 -63q48 198 68 389q-97 0 -207 18t-147 18q-45 0 -97 -11 t-59 -11q-18 0 -18 18q0 13 16 19q89 39 191 39q23 0 102.5 -13.5t124.5 -13.5q62 0 133 14q25 5 52 13.5t44.5 14t24.5 5.5q12 0 22.5 -6t10.5 -18q0 -57 -9 -136q-13 -129 -59 -350q104 74 240 74q106 0 179 -84t73 -221q0 -159 -68 -295t-193 -218.5t-278 -82.5 q-51 0 -102.5 19t-86.5 55q-90 -220 -158.5 -348.5t-170.5 -249.5q-68 -81 -136.5 -144.5t-153.5 -119.5t-184.5 -86.5t-205.5 -30.5q-193 0 -295 90q-19 19 -19 30zM412 51q0 24 13.5 38.5t35.5 14.5q25 0 39 -14t14 -39q0 -22 -14.5 -35.5t-38.5 -13.5q-22 0 -35.5 13.5 t-13.5 35.5zM854 897q0 -103 43 -159t109 -56q83 0 159 57q132 347 211 682q-50 64 -131 64q-87 0 -163 -57t-124.5 -145t-76 -190t-27.5 -196zM1360 748q56 -60 145 -60q77 0 148.5 56.5t119.5 142.5t76.5 188t28.5 195q0 98 -38 151.5t-111 53.5q-80 0 -164 -80 q-60 -245 -205 -647z" />
<glyph unicode="&#xe033;" horiz-adv-x="1724" d="M123 -215q0 10 24 22q94 42 191.5 117t181 164t159 181.5t137.5 186t103.5 161t69.5 120.5q-65 318 -123.5 487t-122.5 228q-29 26 -52.5 35.5t-57.5 9.5q-54 0 -98 -31q-18 -12 -21 -12q-14 0 -14 14q0 13 8 21q64 67 178 67q123 0 220.5 -86t148.5 -266 q43 -152 86 -309q64 106 134 205.5t155.5 201t182.5 184t191 130.5q40 20 62 20q18 0 18 -12q0 -8 -14 -19.5t-50 -36.5q-3 -2 -5.5 -3.5t-4.5 -3.5q-128 -89 -264 -246q-81 -94 -201 -261t-174 -276q82 -480 199 -647q60 -86 133 -86q47 0 78 31q8 8 16 8q11 0 11 -12 q0 -18 -19 -37q-48 -51 -145 -51q-56 0 -103.5 19.5t-88.5 73.5t-67 91t-61 131.5t-47.5 133.5t-47.5 153q-5 15 -7 22q-15 -23 -57.5 -89.5t-70.5 -109t-80.5 -113t-100.5 -125.5t-117 -121.5t-143 -123.5q-72 -53 -162 -102t-141 -49q-27 0 -27 10zM274 190q0 24 14 39 t36 15q25 0 39 -14.5t14 -39.5q0 -22 -14.5 -35.5t-38.5 -13.5q-22 0 -36 13.5t-14 35.5z" />
<glyph unicode="&#xe034;" horiz-adv-x="1470" d="M246 -895q0 12 20 12q2 0 15 -1.5t33 -3t40 -1.5q52 0 118.5 31.5t119.5 81.5q40 37 82.5 86t74 91t94 126t109.5 145q180 237 275 334q-45 -18 -88 -18q-85 0 -123.5 62.5t-38.5 166.5q0 88 32.5 226.5t92.5 291.5q-4 -6 -79 -156.5t-146 -259.5q-102 -158 -205 -245.5 t-219 -87.5q-71 0 -113.5 49t-42.5 131q0 60 26.5 163.5t58 195t94 266t97.5 278.5q46 134 71.5 215.5t50 194.5t24.5 192q0 129 -31 236q-6 22 -16 46t-16.5 38t-6.5 20t6.5 10t14.5 4q7 0 13.5 -4.5t13.5 -16t11.5 -21t13.5 -29.5t15 -31q38 -78 57 -198t19 -205 q0 -254 -131 -648q-14 -44 -42.5 -129t-43.5 -129.5t-37 -114t-34 -112t-24.5 -92t-18 -84.5t-5.5 -61q0 -78 60 -78q52 0 119 67t163 213q174 264 355 680q140 325 180 441q12 37 25 50t40 13h107q26 0 26 -23q0 -14 -28 -96q-28 -79 -105.5 -276.5t-136.5 -352.5 t-108.5 -332t-49.5 -278q0 -28 2.5 -48t10 -41.5t23.5 -32.5t40 -11q45 0 98 49q10 9 21 19.5t18 17.5t14 13t12 9t9 3q21 0 21 -19q0 -4 -1.5 -9.5t-5.5 -13.5l-7.5 -15t-11 -20t-13 -21.5t-16 -25.5t-17.5 -28q-9 -14 -78.5 -137t-140.5 -234q-100 -157 -192.5 -262 t-207.5 -186q-74 -51 -166 -86t-167 -35q-45 0 -74.5 7.5t-39 16t-9.5 17.5zM432 1610q0 24 13.5 38.5t35.5 14.5q25 0 39.5 -14t14.5 -39q0 -22 -14.5 -35.5t-39.5 -13.5q-22 0 -35.5 13.5t-13.5 35.5z" />
<glyph unicode="&#xe035;" horiz-adv-x="1251" d="M82 1313q0 11 35 53q90 107 233 184.5t266 77.5q107 0 154 -48.5t47 -145.5q0 -58 -45 -224.5t-45 -205.5q0 -105 70 -105q75 0 162 90t159.5 220.5t134.5 289.5q8 23 20.5 30t35.5 7h77q29 0 29 -23q0 -17 -50.5 -137.5t-153 -376.5t-195.5 -522q-76 -215 -76 -307 q0 -133 98 -133q29 0 54 12t41 24.5t22 12.5q12 0 12 -16q-2 -23 -46.5 -54.5t-108.5 -31.5q-215 0 -215 258q0 99 73.5 317.5t184.5 464.5q-65 -84 -146.5 -140.5t-150.5 -56.5q-89 0 -138 54t-49 145q0 84 47.5 232t47.5 198q0 105 -101 105q-105 0 -227.5 -75.5 t-212.5 -172.5q-19 -19 -31 -19t-12 19zM305 1300q0 25 13.5 39.5t35.5 14.5q25 0 39.5 -14.5t14.5 -39.5q0 -22 -14.5 -35.5t-39.5 -13.5q-22 0 -35.5 13.5t-13.5 35.5z" />
<glyph unicode="&#xe036;" horiz-adv-x="2179" d="M369 190q0 74 30.5 192.5t68.5 226t96 270t91 264.5q63 199 88.5 285.5t49.5 204t24 204.5q0 110 -31 238q-6 22 -15 47t-15 40t-6 21t6 10.5t14 4.5q27 0 70 -103q34 -87 50.5 -198.5t16.5 -190.5q0 -105 -25 -273.5t-79 -351.5q-33 -110 -110.5 -352t-112.5 -370 t-35 -189q0 -98 67 -98q51 0 114 64t161 210q80 119 154 278t173 402q99 244 168 444q12 37 25.5 50.5t40.5 13.5h106q27 0 27 -23q0 -11 -29 -96q-52 -148 -80 -230.5t-88 -267t-94 -304t-63 -249.5t-29 -196q0 -64 12 -92.5t43 -28.5q51 0 111 65t139 195q82 135 149 296 t150 401q44 125 99 289t59 177q13 37 25.5 50.5t39.5 13.5h107q27 0 27 -23q0 -11 -29 -96q-348 -949 -348 -1265q0 -132 96 -132q60 0 121 48q19 15 38 36t30 32t18 11q20 0 20 -20q0 -34 -75 -100q-87 -76 -189 -76q-104 0 -155.5 67.5t-51.5 171.5q0 96 18 194.5 t72 248.5q-11 -21 -65.5 -147t-104.5 -208q-25 -40 -42 -66t-54.5 -74t-69.5 -77.5t-75 -53t-82 -23.5q-108 0 -151.5 59t-43.5 170q0 85 34.5 225.5t96.5 296.5q-10 -17 -43.5 -86t-82.5 -159.5t-101 -174.5q-96 -153 -201.5 -243t-212.5 -90q-65 0 -111 54.5t-46 155.5z M532 1796q0 24 14 38.5t36 14.5q25 0 39 -14t14 -39q0 -22 -14.5 -35.5t-38.5 -13.5q-22 0 -36 13.5t-14 35.5z" />
<glyph unicode="&#xe037;" horiz-adv-x="2093" d="M369 195q0 84 42 225.5t120 346.5t90 241q75 224 107 365.5t32 256.5q0 116 -29 236q-6 22 -15.5 47t-15.5 40t-6 21t6.5 10.5t14.5 4.5q9 0 18 -8.5t19 -26.5t16.5 -32.5t17.5 -41.5q36 -90 55 -198t19 -195q0 -259 -106 -604q-27 -86 -72 -226t-71 -221t-47 -165 t-21 -124q0 -33 12.5 -57t38.5 -24q51 0 116.5 66.5t168.5 213.5q28 41 57 92.5t50 93t53 116t47.5 112.5t54 133.5t53.5 132.5q52 129 109.5 282.5t60.5 161.5q14 38 27 51t39 13h110q27 0 27 -23q0 -11 -29 -96q-352 -1013 -352 -1247q0 -67 10 -93t43 -26q51 0 111 64.5 t139 193.5q34 56 65 116.5t63 138.5t52 130t59 157t58 155q35 93 70 188.5t62.5 173.5t37.5 104q13 37 25.5 50.5t39.5 13.5h107q26 0 26 -23q0 -14 -28 -96q-15 -44 -97.5 -269.5t-132.5 -372t-98.5 -334.5t-48.5 -289q0 -28 2 -48t9 -41.5t23 -33t40 -11.5q44 0 98 50 q10 9 21 19.5t18 17t14 12.5t12 9t9 3q20 0 20 -18q0 -19 -62 -120q-6 -9 -9 -14q-5 -8 -77 -133t-145 -237q-117 -179 -209 -281.5t-223 -169.5q-157 -80 -309 -80q-45 0 -75 8t-40 17t-10 18q0 13 21 13q2 0 15 -2t33 -3.5t40 -1.5q122 0 237 74q57 37 106 86t79.5 90 t90.5 125.5t107 145.5q21 27 66.5 88t70.5 94t61 77t66 74q-45 -18 -88 -18q-85 0 -123.5 62.5t-38.5 166.5q0 80 25 176t86 267q-11 -21 -65.5 -147t-104.5 -208q-25 -40 -42 -66t-54.5 -74t-69.5 -77.5t-75 -53t-82 -23.5q-108 0 -151.5 59t-43.5 170q0 166 139 518 q-8 -13 -80.5 -160.5t-142.5 -255.5q-216 -333 -399 -333q-74 0 -122 56t-48 159zM473 1532q0 24 13.5 38.5t35.5 14.5q25 0 39 -14t14 -39q0 -22 -14.5 -35.5t-38.5 -13.5q-22 0 -35.5 13.5t-13.5 35.5z" />
<glyph unicode="&#xe038;" horiz-adv-x="1263" d="M369 410q0 152 40 318.5t95 291.5q118 272 235 444q67 100 188.5 229.5t157.5 129.5q15 0 15 -13q0 -5 -15 -20q-34 -34 -92 -114t-96 -144q-224 -365 -315 -930q126 150 299 150q133 0 217 -98t84 -242q0 -68 -34 -141.5t-91.5 -136t-145 -102.5t-184.5 -40 q-91 0 -161 33.5t-112 91.5t-63.5 132t-21.5 161zM541 293q0 -103 47.5 -175.5t126.5 -72.5q127 0 199.5 115t72.5 293q0 104 -48.5 167.5t-125.5 63.5q-34 0 -77.5 -17.5t-76.5 -50.5q-56 -56 -87 -145t-31 -178zM1008 1483q0 24 13.5 38.5t35.5 14.5q25 0 39 -14t14 -39 q0 -22 -14.5 -35.5t-38.5 -13.5q-22 0 -35.5 13.5t-13.5 35.5z" />
<glyph unicode="&#xe039;" horiz-adv-x="1392" d="M123 279q0 32 20 32q9 0 28 -26.5t50 -64t74.5 -75t115 -64t156.5 -26.5q139 0 268 99t214 245q14 24 45 96.5t45 114.5q-33 -2 -109 -2q-66 0 -223 19q-16 1 -24.5 13t-8.5 26q0 18 14 27t31 9q9 0 90.5 -8t124.5 -8q86 0 131 12q84 232 84 422q0 108 -33 190.5 t-106.5 133.5t-181.5 51q-105 0 -204 -36.5t-212 -125.5q-23 -18 -52 -46.5t-47 -45t-26 -16.5q-14 0 -14 12q0 22 47 76q233 239 518 239q106 0 190.5 -31t141 -84.5t94 -127.5t54 -156.5t16.5 -175.5q0 -138 -40 -280.5t-117 -270t-179 -228t-236 -159.5t-278 -59 q-139 0 -258.5 68t-186.5 188q-16 32 -16 43zM684 1210q0 25 13.5 39.5t35.5 14.5q25 0 39 -14.5t14 -39.5q0 -22 -14.5 -35.5t-38.5 -13.5q-22 0 -35.5 13.5t-13.5 35.5z" />
<glyph unicode="&#xe03a;" horiz-adv-x="2410" d="M20 -377q0 8 8.5 13.5t32 14t35.5 13.5q156 70 301 217q133 136 250 337.5t190 387.5t130 380.5t81 305t33 172.5q-34 5 -93.5 21t-131.5 16q-51 0 -87.5 -7t-84.5 -34q-16 -9 -31.5 -19t-23 -14.5t-14.5 -8t-13 -3.5q-14 0 -14 15q0 20 43 49q113 84 260 84 q42 0 124.5 -13.5t119.5 -13.5q17 0 68.5 2t64.5 2q9 0 15.5 -7.5t6.5 -19.5q0 -59 -24 -157q-79 -321 -168 -578h235q33 99 82.5 196t121 193.5t153.5 169.5t186.5 118.5t214.5 45.5q182 0 291.5 -135.5t109.5 -341.5q0 -195 -65.5 -382.5t-174.5 -328t-260 -227 t-313 -86.5q-165 0 -276 133t-111 354q0 99 29 230h-242q-53 -134 -112 -248.5t-154 -265.5q-52 -81 -153.5 -192t-245.5 -222q-88 -67 -182.5 -113t-149.5 -59q-36 -6 -43 -6q-19 0 -19 12zM180 39q0 24 13.5 38.5t35.5 14.5q25 0 39.5 -14t14.5 -39q0 -22 -14.5 -35.5 t-39.5 -13.5q-22 0 -35.5 13.5t-13.5 35.5zM1489 432q0 -49 4.5 -94.5t19.5 -98t39.5 -91t67.5 -64t100 -25.5q92 0 181 61.5t159.5 168t125.5 240t84.5 285.5t29.5 298q0 47 -5 90t-20 88.5t-38 77.5t-62 53t-90 21q-88 0 -167 -39.5t-138 -106t-108.5 -154t-82.5 -181.5 t-56 -191.5t-33.5 -182.5t-10.5 -155z" />
<glyph unicode="&#xe03b;" horiz-adv-x="1863" d="M-102 -186q0 24 13.5 38.5t35.5 14.5q25 0 39 -14t14 -39q0 -22 -14.5 -36t-38.5 -14q-22 0 -35.5 14t-13.5 36zM10 -492q0 57 299 467q198 274 525.5 580t545.5 424q-172 78 -172 258q0 107 67 186.5t176 118.5t243 39q195 0 350 -51q45 -15 45 -37q0 -6 -23 -72 q-265 -709 -460 -1362q-10 -33 -23 -46t-31 -13h-110q-37 0 -37 37q0 105 319 948q105 284 203 518q-52 19 -151 19q-84 -1 -157 -30t-121.5 -76t-76.5 -107.5t-28 -124.5q0 -82 31.5 -130.5t88.5 -84.5q36 -20 80 -27q25 -4 25 -20q0 -10 -21 -21q-143 -83 -258 -164 q-280 -198 -611.5 -504.5t-598.5 -640.5q-82 -104 -102 -104q-17 0 -17 20z" />
<glyph unicode="&#xe040;" horiz-adv-x="714" d="M92 295q0 214 110.5 523t280.5 558q38 57 82 108.5t60 51.5q12 0 12 -8q0 -4 -5 -13t-14.5 -22.5t-11.5 -17.5q-86 -136 -133 -242q-99 -224 -154 -447q-21 -83 -43.5 -211.5t-25.5 -183.5q40 59 94.5 93t112.5 34q93 0 150 -57t57 -162q0 -119 -100 -214t-230 -95 q-242 0 -242 305zM242 201q0 -170 100 -170q61 0 114.5 82t53.5 200q0 67 -25 108.5t-67 41.5q-69 0 -122.5 -82.5t-53.5 -179.5z" />
<glyph unicode="&#xe041;" horiz-adv-x="718" d="M31 219q0 118 90 210.5t221 92.5q84 0 127 -61q53 273 182 606q60 154 131 288.5t116 199.5t67 83q14 11 22 11q6 0 6 -9q0 -7 -24 -47q-61 -118 -138 -323q-97 -261 -180.5 -610.5t-83.5 -544.5q0 -39 13 -74t41 -35q12 0 26 6t15 6q6 0 6 -8q0 -11 -22.5 -25t-47.5 -14 q-54 0 -91.5 30t-70.5 103q-73 -120 -192 -120q-95 0 -154 62t-59 173zM188 176q0 -57 20.5 -98t63.5 -41q50 0 93 49.5t65.5 120.5t22.5 141q0 59 -21 90t-53 31q-77 0 -134 -93t-57 -200z" />
<glyph unicode="&#xe042;" horiz-adv-x="434" d="M-766 -1520q0 3 2 6.5t7 8t8.5 7t12.5 8.5t13 9q95 73 236 256q97 128 184.5 303t183.5 422q89 230 180.5 530t143.5 523q-56 -4 -103 -25l-24 -8q-19 0 -19 15q0 4 6 14t11 14q55 44 143 58l119 374q-68 -31 -170 -59q-48 -12 -72 -12q-9 0 -14.5 6t-5.5 14q0 12 37 23 q125 39 245 102q75 206 183 336.5t227 130.5q42 0 69 -28.5t27 -75.5q0 -53 -34.5 -110.5t-89.5 -106.5t-114.5 -88t-117.5 -66q-34 -153 -117 -445q103 0 158 17q18 6 29 6q14 0 14 -14q0 -28 -41 -43q-84 -31 -174 -31q-14 -47 -48 -169t-77 -267q-113 -382 -321.5 -802.5 t-405.5 -631.5q-89 -96 -141 -139q-37 -31 -75 -52.5t-59 -21.5q-16 0 -16 12zM528 1145q100 46 187.5 131t87.5 156q0 57 -43 57q-136 0 -232 -344z" />
<glyph unicode="&#xe043;" horiz-adv-x="792" d="M82 25q0 17 12 88q93 537 234 936q49 142 140.5 321t186.5 287q107 117 156 117q12 0 12 -11q0 -2 -2.5 -5.5t-7.5 -9t-10 -10.5t-13.5 -13t-15.5 -15q-84 -90 -135 -190q-57 -111 -102.5 -233.5t-84.5 -276t-63 -265.5t-63 -309q88 88 211 88q67 0 104 -40.5t37 -116.5 q0 -36 -17.5 -134t-17.5 -129q0 -25 10.5 -41t24.5 -16t29.5 7t21.5 7q10 0 10 -10q0 -18 -39 -39.5t-90 -21.5q-65 0 -98 45q-27 36 -27 110q0 47 18.5 135t18.5 101q0 39 -13 55.5t-40 16.5q-32 0 -75.5 -24t-80.5 -79q-13 -44 -24.5 -96t-24.5 -121.5t-20 -103.5 q-4 -29 -29 -29h-113q-20 0 -20 25z" />
<glyph unicode="&#xe044;" horiz-adv-x="440" d="M-1024 -1499q0 6 10 6q4 0 33 -2t47 -2q50 0 127.5 29.5t136.5 74.5q235 182 437 586q92 182 166 399t153 506q76 282 94 363q6 28 18.5 39.5t34.5 11.5h82q13 0 23 -10.5t10 -22.5q0 -52 -47 -233q-122 -486 -313 -899q-28 -61 -64.5 -129t-91.5 -156.5t-115 -169 t-136 -160.5t-153.5 -138t-168 -94t-179.5 -36q-64 0 -92 16q-12 8 -12 21zM236 711q0 29 20 50t49 21q31 0 52.5 -21t21.5 -50q0 -31 -21.5 -51.5t-52.5 -20.5q-29 0 -49 20.5t-20 51.5z" />
<glyph unicode="&#xe045;" horiz-adv-x="655" d="M41 14q0 2 2 21.5t2 21.5q43 228 115.5 488.5t126.5 410.5q21 59 61 147t100.5 202.5t137 209.5t147.5 130q12 6 21 6q10 0 10 -6q0 -11 -14 -21q-42 -31 -91.5 -103t-85.5 -151q-101 -215 -172 -467q-87 -306 -135 -528q73 10 162 47t160 84q119 78 209 178q14 16 33 41 t29.5 38t14.5 13q11 0 11 -16t-34.5 -68.5t-84.5 -103.5q-115 -115 -188 -160q-78 -50 -181 -90q51 -225 162 -315q3 -3 10 -7.5t9 -7t2 -6.5q0 -16 -35 -16q-79 0 -157 66.5t-140 226.5q-7 -31 -29.5 -123t-30.5 -127q-8 -29 -30 -29h-99q-18 0 -18 14z" />
<glyph unicode="&#xe046;" horiz-adv-x="727" d="M-754 -1520q0 6 25 23q95 60 182 154q294 322 471 856q76 222 107 376q62 300 96 570q6 53 45 53h72q28 0 28 -27q0 -29 -2 -47q67 84 181 84q102 0 158.5 -66t56.5 -159q0 -135 -81 -224t-182 -89q-127 0 -180 88q-36 -170 -97 -369.5t-126 -355.5q-34 -83 -89 -183.5 t-132 -216.5t-179 -228t-208 -187q-98 -68 -131 -68q-5 0 -10 5t-5 11zM236 139q19 -47 54.5 -73.5t67.5 -26.5q69 0 108.5 78t39.5 176q0 80 -27 127t-80 47q-37 0 -71.5 -23.5t-57.5 -64.5q-8 -70 -34 -240z" />
<glyph unicode="&#xe050;" horiz-adv-x="718" d="M-614 1186q0 8 3.5 10t12.5 2q5 0 28.5 -18t67.5 -48.5t88 -54.5q168 -90 333 -140t376 -60q49 85 111 171t146 175.5t172 157.5t192.5 111.5t203.5 43.5q82 0 127 -49t45 -121q0 -81 -39.5 -156.5t-107 -133.5t-154.5 -106.5t-184 -81t-194.5 -51.5t-186.5 -22 q-89 -163 -145 -373q78 78 206 78q22 0 47.5 -10t54 -32t47.5 -66t19 -103q0 -139 -99 -232t-234 -93q-103 0 -166.5 75t-63.5 211q0 109 52 275t124 284q-152 10 -301 49t-259 90t-187.5 100t-116.5 89q-18 18 -18 29zM225 160q0 -55 26.5 -93t70.5 -38q55 0 100 51.5 t65.5 116t20.5 118.5q0 75 -25 111.5t-67 36.5q-79 0 -135 -91t-56 -212zM449 864q138 9 277.5 49.5t254 104t186.5 154.5t72 190q0 57 -35 92t-104 35q-90 0 -205 -83t-203 -189q-156 -187 -243 -353z" />
<glyph unicode="&#xe051;" horiz-adv-x="931" d="M-20 -848q0 5 14.5 22t47 58t64.5 90q69 107 125.5 240t88 239t55.5 220t31.5 165t11.5 93q-88 -178 -191 -242q-73 -47 -164 -47q-33 0 -57 8t-24 22q0 11 14 11q2 0 19 -4t30 -4q75 0 129.5 79t54.5 199q0 88 -29 133t-75 45q-11 0 -30 -5t-21 -5q-13 0 -13 12 t33.5 23.5t67.5 11.5q99 0 146.5 -74t47.5 -204q55 86 82 206q2 8 7 35t8 37q5 16 28 16h68q15 0 20.5 -5t5.5 -17q0 -42 -49 -262q50 91 133 174q92 92 207 96q36 0 61 -10.5t25 -24.5t-10 -14q-4 0 -20 5t-27 5q-67 0 -118.5 -90.5t-51.5 -204.5q0 -61 20.5 -103t65.5 -42 q16 0 31 6q3 1 10.5 5t14 6.5t10.5 2.5q10 0 10 -10q0 -14 -23 -29q-36 -24 -84 -24q-89 0 -141 57q-51 54 -51 154q0 46 10 84q-2 -3 -13 -16.5t-17.5 -22.5t-18 -28.5t-20.5 -39.5t-20.5 -50.5t-21.5 -65.5q-92 -335 -245 -623q-57 -108 -139.5 -206.5t-112.5 -98.5 q-10 0 -10 12z" />
<glyph unicode="&#xe052;" horiz-adv-x="514" d="M-600 -936q0 7 8 13t19 8q82 7 127.5 12.5t105 16.5t111.5 28q264 83 438 274q94 104 138 216t44 206q0 150 -80 213q-50 39 -118 39q-29 0 -65.5 -10t-39.5 -10q-18 0 -18 14q0 9 22 25q4 3 26 16t41.5 25.5t46 35t45 46.5t31.5 57t13 69q0 34 -22 64.5t-60 30.5 q-76 0 -145 -76q-18 -23 -29 -23q-12 0 -12 19q0 15 27 47t63 57q70 47 145 47q49 0 84.5 -14.5t53.5 -38t26 -47t8 -47.5q0 -78 -55.5 -139t-145.5 -99q132 -2 222 -93t90 -224q0 -114 -57 -232t-169 -221q-201 -187 -514 -276q-171 -47 -370 -47q-35 0 -35 18z" />
<glyph unicode="&#xe053;" horiz-adv-x="620" d="M41 27q0 10 2.5 25.5t8 40t11 48t15 62.5t16.5 69q19 81 31 139.5t16 73.5q7 27 47 27h64q35 0 35 -27q0 -10 -4 -31t-13 -64.5t-14 -72.5q106 26 258.5 155.5t257.5 293.5q80 124 121 235q12 31 20 31q15 0 15 -22q0 -14 -13 -54q-57 -182 -203 -358t-329 -295 q15 -77 49 -146.5t76 -111.5q21 -21 33 -29q2 -1 6 -4l6 -4.5t4 -4.5t2 -7q0 -14 -29 -14q-83 0 -165 67q-45 35 -84.5 90t-49.5 101l-45 -203q-5 -16 -15.5 -26.5t-23.5 -10.5h-81q-25 0 -25 27z" />
<glyph unicode="&#xe054;" horiz-adv-x="741" d="M-885 -1380q0 14 23 24q12 5 41.5 16t43.5 17t44.5 21t66.5 36q121 70 233 186.5t191 240.5t136 257q127 296 192 623q20 100 35.5 197.5t25 168t9.5 72.5q7 33 51 33h51q24 0 31.5 -13t9.5 -46q36 37 78.5 54t105.5 17q89 0 151 -62t62 -161q0 -65 -20.5 -119t-52.5 -88 t-72.5 -58t-78.5 -34t-73 -10q-101 0 -155 63q-30 -123 -50 -193.5t-66 -191.5t-116 -272q-26 -58 -64 -122.5t-100.5 -150t-134 -162t-169.5 -153t-203 -129.5q-56 -29 -120.5 -51.5t-88.5 -22.5q-17 0 -17 13zM254 113q37 -68 108 -68q76 0 125.5 81t49.5 171 q0 80 -30 127t-73 47q-85 0 -137 -88q-4 -32 -20 -126.5t-23 -143.5z" />
<glyph unicode="&#xe055;" horiz-adv-x="1032" d="M-553 -1350q0 15 21 19q94 21 147 51q35 19 57 32.5t64 46t77.5 69t84 98.5t96.5 139q92 147 207.5 442t165.5 480q-67 -27 -105 -27q-82 0 -137 56.5t-55 158.5q0 91 54 167.5t136 109.5q60 24 119 24q82 0 127 -57q67 168 115 256q5 10 20.5 39t20.5 38.5t18 33 t22 37.5t24 36t32 45q14 22 36 45t29 23q17 0 17 -15q0 -4 -4 -11t-10.5 -17.5t-10.5 -16.5q-34 -67 -65 -139q-61 -142 -113 -348q61 47 164 47q74 0 122 -55.5t48 -151.5q0 -70 -29 -129.5t-73.5 -96.5t-95 -58t-95.5 -21q-98 0 -152 49q-182 -643 -489 -1032 q-83 -106 -165 -180t-202 -137q-51 -28 -110 -44t-88 -16q-25 0 -25 10zM217 162q0 -62 23 -91.5t59 -29.5q32 0 78 29q8 24 115 346q-25 49 -76 49q-47 0 -103.5 -53.5t-79.5 -137.5q-16 -56 -16 -112zM543 98q13 -21 37.5 -38t52.5 -17q52 0 96.5 48.5t68 117.5t23.5 135 q0 48 -24.5 82.5t-67.5 34.5q-17 0 -32.5 -4t-22 -6.5t-24 -13t-19.5 -11.5q-16 -53 -42.5 -158t-45.5 -170z" />
<glyph unicode="&#xe056;" horiz-adv-x="624" d="M-643 -995q0 11 22 24q16 7 43 18.5t44 19t47.5 24.5t64.5 41q169 115 297 302.5t201 395.5q96 269 143 612q-139 9 -182 37q-17 10 -17 27q0 13 10.5 19.5t24.5 6.5q9 0 38 -5t83 -10t123 -5q95 0 161 5t97 10t41 5q23 0 23 -14q0 -19 -11 -29t-35 -18q-67 -24 -186 -29 q-15 -105 -62 -281t-102 -315q-26 -64 -58 -130t-90.5 -158.5t-125 -174t-164 -167t-205.5 -146.5q-52 -30 -117.5 -54t-89.5 -24q-18 0 -18 13z" />
<glyph unicode="&#xe060;" horiz-adv-x="356" d="M-711 -1235q0 17 19 23q113 34 178 77q127 80 221 238q77 127 135.5 266.5t130.5 358.5q44 132 113.5 376.5t122.5 454.5q-59 -4 -103 -24q-1 0 -10.5 -4.5t-13.5 -4.5q-19 0 -19 15q0 11 17 24q25 20 65.5 36.5t77.5 19.5l64 213q-138 -59 -178 -70q-42 -14 -84 -14 q-9 0 -15 6t-6 14q0 12 37 23q146 40 268 106q46 159 104 302t124.5 260t142 186t145.5 69q47 0 74 -32.5t27 -90.5q0 -189 -134 -390.5t-333 -321.5q-10 -36 -68 -265h12q78 0 146 21q12 4 29 4q14 0 14 -14q0 -25 -49 -43q-73 -27 -166 -27q-51 -213 -168 -586 q-34 -108 -56 -175t-62.5 -173.5t-80.5 -189.5t-100.5 -187t-130.5 -202q-79 -110 -218 -201.5t-253 -91.5q-19 0 -19 14zM469 934q119 79 214.5 199.5t144.5 238t49 209.5q0 48 -13 72t-49 24q-81 0 -161.5 -185.5t-184.5 -557.5z" />
<glyph unicode="&#xe061;" horiz-adv-x="819" d="M-1098 -1194q0 12 11 12q8 0 35 -21t63.5 -49.5t58.5 -41.5q82 -45 157 -62.5t165 -17.5q78 0 152.5 20t135 52t120 81t104 96.5t91 110.5t77.5 111.5t67 109.5q96 162 205 448.5t145 463.5q-94 -135 -251 -135q-80 0 -124 53.5t-44 136.5q0 143 101.5 245.5t227.5 102.5 q52 0 90.5 -12t53.5 -23t32 -30q17 55 60 55h76q13 0 21.5 -10t8.5 -23q0 -47 -45 -223q-144 -587 -340 -946q-69 -127 -141 -231.5t-165 -201.5t-192 -163.5t-221.5 -106t-254.5 -39.5q-67 0 -153 19t-147 51q-76 39 -128 92t-52 76zM238 158q0 -45 18 -77t59 -32 q43 0 99 49.5t82 104.5q17 36 29.5 74t17.5 61.5t14 73.5q-21 26 -39 38.5t-49 12.5q-59 0 -113.5 -46.5t-86 -117t-31.5 -141.5z" />
<glyph unicode="&#xe062;" horiz-adv-x="817" d="M10 928q0 3 1.5 5t5.5 3.5t8 2t11.5 2.5t12.5 3q82 21 125 35q67 22 145 57q17 52 43.5 111.5t68 130.5t87 127t105 93.5t118.5 37.5q47 0 81 -29t34 -84q0 -62 -39 -124.5t-103.5 -113.5t-125 -88t-123.5 -67q-40 -122 -141 -614q34 45 91.5 77.5t110.5 32.5 q68 0 107 -38t39 -95q0 -38 -18.5 -155t-18.5 -144q0 -51 31 -51q23 0 47 18q26 21 30 21q11 0 11 -10q0 -14 -23.5 -38.5t-44.5 -33.5q-32 -16 -70 -16q-52 0 -90.5 35t-38.5 116q0 49 18.5 147t18.5 119q0 33 -14.5 46.5t-42.5 13.5q-29 0 -75.5 -31.5t-84.5 -87.5 q-13 -57 -36 -171t-29 -142q-4 -29 -29 -29h-113q-18 0 -18 20q0 39 8 86q66 344 213 879q-55 -25 -104 -39q-108 -33 -162 -35q-27 0 -27 17zM475 1079q132 59 237 160t105 186q0 33 -15 54.5t-46 21.5q-50 0 -97 -42.5t-82 -113t-59 -133.5t-43 -133z" />
<glyph unicode="&#xe063;" horiz-adv-x="655" d="M41 14q0 2 2 21.5t2 21.5q43 228 115.5 488.5t126.5 410.5q21 59 61 147t100.5 202.5t137 209.5t147.5 130q12 6 21 6q10 0 10 -6q0 -11 -14 -21q-42 -31 -91.5 -103t-85.5 -151q-101 -215 -172 -467q-87 -306 -135 -528q73 10 162 47t160 84q119 78 209 178q14 16 33 41 t29.5 38t14.5 13q11 0 11 -16t-34.5 -68.5t-84.5 -103.5q-115 -115 -188 -160q-78 -50 -181 -90q51 -225 162 -315q3 -3 10 -7.5t9 -7t2 -6.5q0 -16 -35 -16q-79 0 -157 66.5t-140 226.5q-7 -31 -29.5 -123t-30.5 -127q-8 -29 -30 -29h-99q-18 0 -18 14zM713 1268 q0 24 13.5 38.5t35.5 14.5q25 0 39 -14t14 -39q0 -22 -14.5 -35.5t-38.5 -13.5q-22 0 -35.5 13.5t-13.5 35.5z" />
<glyph unicode="&#xe064;" horiz-adv-x="729" d="M43 14q0 5 2.5 28t3.5 26q78 342 256 893q-28 -17 -92 -41q-33 -13 -59 -21q-16 -4 -27 -4q-10 0 -10 8q0 5 2.5 8.5t8 6.5t11.5 5.5t17 6.5t20 8q112 48 150 76q18 46 28 72t39 91.5t52.5 108.5t61 101.5t71.5 93.5t77.5 60.5t85.5 25.5q44 0 69.5 -28t25.5 -85 q0 -55 -34 -118t-90 -120t-123 -107t-138 -89q-95 -325 -177 -647q143 27 271 125q104 81 184 207q6 10 13 22t11.5 19t9 13.5t7.5 9.5t6 3q10 0 10 -16q0 -17 -15.5 -53.5t-41.5 -73.5q-33 -49 -82 -104t-100 -91q-81 -58 -166 -94q26 -114 102.5 -208t151.5 -109 q4 -1 11 -2t9.5 -1.5t6 -2t5 -4t1.5 -5.5q0 -8 -19 -16q-18 -6 -59 -6q-100 0 -194.5 72.5t-143.5 222.5q-6 -20 -28 -112t-38 -140q-8 -29 -28 -29h-101q-14 0 -14 14zM463 1065q127 68 230.5 186t103.5 205q0 76 -58 76q-43 0 -87.5 -51t-82.5 -135.5t-61.5 -148 t-44.5 -132.5z" />
<glyph unicode="&#xe065;" horiz-adv-x="464" d="M-281 690q0 11 23 15t89.5 14t135.5 29q189 53 283 126q3 6 28.5 58t41 83t45 83t57.5 94q66 100 133.5 164.5t120.5 64.5q38 0 60 -19.5t22 -53.5q0 -70 -56 -160q-107 -171 -321 -307q-40 -108 -66 -190.5t-51.5 -218.5t-25.5 -261q0 -73 24 -115.5t68 -42.5 q29 0 59 19q7 4 18 11.5t18 12t9 4.5q12 0 12 -12q0 -7 -13.5 -23t-33.5 -30q-51 -35 -108 -35q-87 0 -140 61t-53 197q0 110 30 256.5t91 284.5q-130 -75 -262 -101t-168 -26q-33 0 -43 2q-27 3 -27 16zM-102 932q0 24 13.5 38.5t35.5 14.5q25 0 39 -14t14 -39 q0 -22 -14.5 -35.5t-38.5 -13.5q-22 0 -35.5 13.5t-13.5 35.5zM406 954q61 38 129.5 105t111.5 131q62 90 62 141q0 25 -7 37t-28 12q-39 0 -95 -78t-100 -171.5t-73 -176.5z" />
<glyph unicode="&#xe066;" horiz-adv-x="706" d="M-600 -1522q0 3 1.5 6.5t5 6.5t5.5 4.5t7.5 5t7.5 4.5q51 32 105 82t87 92q52 67 96 145t77.5 150.5t64.5 170.5t52 174t45.5 192.5t39 195t37.5 211.5q45 265 71 520q5 42 17 58t43 16h71q9 0 17 -7.5t8 -17.5q0 -15 -4 -43q67 78 180 78q87 0 148 -62t61 -163 q0 -74 -24 -135.5t-62.5 -99t-83.5 -58t-90 -20.5q-66 0 -104 18t-70 64q-52 -525 -146 -777q-20 -55 -29 -78.5t-39 -94.5t-54.5 -116t-68.5 -117t-88.5 -125.5t-106.5 -114t-130 -107.5q-104 -72 -131 -72q-16 0 -16 14zM219 131q34 -98 123 -98q60 0 103.5 84.5 t43.5 193.5q0 78 -30.5 118t-75.5 40q-40 0 -70.5 -20.5t-62.5 -63.5q-3 -14 -31 -254z" />
<glyph unicode="&#xe067;" horiz-adv-x="716" d="M31 199q0 89 50.5 165.5t123.5 117t145 40.5q61 0 105 -18t71 -68q19 47 33 61.5t35 14.5h78q26 0 26 -20q0 -18 -49 -144q-11 -27 -66 -156.5t-106.5 -258t-114 -299t-115 -355.5t-83.5 -350q-1 -8 -12 -62t-14.5 -74.5t-12 -72.5t-11.5 -86t-6.5 -82t-3.5 -92 q0 -54 6.5 -125t6.5 -78q0 -39 -17 -39q-8 0 -21 46t-24.5 136.5t-11.5 188.5q0 144 19.5 336.5t62.5 363.5q29 114 54 207t53.5 182.5t39.5 123.5t44 128t34 97q-21 -13 -32 -19t-36 -13t-53 -7q-86 0 -142 58t-56 153zM190 158q0 -54 22.5 -88.5t57.5 -34.5q21 0 39.5 5.5 t35 18t29.5 26t26.5 37t23 42t22 50.5t20.5 54t21.5 60t22.5 61q-15 35 -44 58.5t-67 23.5q-53 0 -102.5 -48.5t-78 -121t-28.5 -143.5zM252 -1356q0 24 13.5 38.5t35.5 14.5q25 0 39 -14t14 -39q0 -22 -14.5 -35.5t-38.5 -13.5q-22 0 -35.5 13.5t-13.5 35.5z" />
<glyph unicode="&#xe068;" horiz-adv-x="444" d="M61 313q0 92 33 268.5t99 356.5q-36 12 -77.5 39.5t-41.5 52.5q0 12 10 12q6 0 14.5 -4t20 -11.5t18.5 -10.5q53 -25 78 -31q116 275 182 389q26 45 39 68t32.5 54t32.5 44.5t21 13.5q17 0 17 -18q0 -16 -43 -111q-85 -202 -158 -477q95 -26 180 -26q82 0 151 10.5 t125.5 31.5t87.5 36.5t76 41.5q3 1 10.5 6.5t14 9t10.5 3.5q11 0 11 -10q0 -11 -17.5 -32.5t-36.5 -33.5q-79 -51 -176 -83t-242 -32q-84 0 -206 23q-111 -375 -111 -635q0 -221 123 -221q31 0 68 18q10 4 16 4q8 0 8 -8q0 -16 -24 -37q-41 -32 -103 -32q-106 0 -174 81.5 t-68 249.5zM610 1104q0 24 13.5 38.5t35.5 14.5q25 0 39.5 -14t14.5 -39q0 -22 -14.5 -35.5t-39.5 -13.5q-22 0 -35.5 13.5t-13.5 35.5z" />
<glyph unicode="&#xe069;" horiz-adv-x="618" d="M23 -10q0 4 2 8t7.5 8t9.5 7t12.5 9t13.5 9q97 72 180 229q-33 116 -96 215q-3 5 -8.5 12.5t-8.5 11.5t-5.5 9.5t-2.5 9.5q0 19 31 19q45 0 90 -23q62 -33 117 -141q55 80 114 126t86 46q17 0 17 -15q0 -6 -37 -43q-88 -88 -142 -188q16 -57 52.5 -125.5t68.5 -110.5 q6 -8 13 -17t11 -13.5t7 -9.5t4.5 -8t1.5 -7q0 -20 -39 -20q-75 0 -131 43q-69 52 -106 141q-41 -64 -113.5 -129.5t-124.5 -65.5q-24 0 -24 13z" />
<glyph unicode="&#xe06a;" horiz-adv-x="780" d="M-1083 -1358q0 15 22 15q8 0 26 -4t41.5 -9.5t37.5 -7.5q68 -12 155 -12q81 0 171 21t189.5 65t203 123.5t192.5 185.5q208 246 348.5 547.5t183.5 568.5q-41 -72 -101 -108.5t-126 -36.5q-57 0 -99 37.5t-42 95.5q0 55 38 176t38 152q0 41 -35 41q-33 0 -80 -39 q-29 -21 -33 -21q-10 0 -10 14q0 8 16 29q58 68 160 68q52 0 88.5 -27t36.5 -78q0 -54 -39 -198q-31 -109 -31 -142q0 -47 41 -47q75 0 143.5 115t110.5 323q5 23 39 23h96q21 0 21 -25q0 -26 -19.5 -139.5t-42.5 -208.5q-68 -287 -174 -532t-274 -479 q-194 -268 -459.5 -415t-523.5 -147q-164 0 -283 52q-26 11 -26 24z" />
<glyph unicode="&#xe06b;" horiz-adv-x="755" d="M41 25q0 23 53 86q18 21 65.5 78t78.5 92.5t75.5 84t81.5 83.5q-73 18 -129 18q-57 0 -110 -16q-42 -11 -45 -11q-17 0 -17 15q0 11 39 30q70 37 172 37q20 0 76 -5t72 -5q36 0 75.5 5t44.5 5q21 0 21 -18q0 -29 -39 -70q-109 -119 -289 -340q108 -9 248 -69 q85 -36 137 -52q12 -3 33 -7t30 -7.5t9 -9.5q0 -19 -49 -19q-40 0 -86 11q-32 8 -107.5 30.5t-131 33.5t-111.5 11q-59 0 -114 -9l-56 -9q-11 0 -19 7t-8 20z" />
<glyph unicode="&#xe06c;" horiz-adv-x="645" d="M41 25q0 23 53 86q22 26 83 100.5t111 131t97 101.5q-17 3 -37.5 9.5t-38 10t-43.5 3.5q-44 0 -94 -12q-2 -1 -25.5 -10t-31.5 -9q-21 0 -21 19q0 11 33 30q30 16 79.5 26.5t78.5 10.5q20 0 86 -5t82 -5q26 0 72 6t53 6q22 0 22 -20q0 -23 -43 -68q-64 -68 -287 -342 q102 -8 252 -67q151 -60 275 -60q65 0 118.5 13.5t82.5 26.5t34 13q15 0 15 -10q0 -9 -7 -16.5t-28 -20.5q-97 -59 -240 -59q-83 0 -178 25.5t-187 51t-169 25.5q-59 0 -114 -9l-56 -9q-11 0 -19 7t-8 20z" />
<glyph unicode="&#xe06d;" horiz-adv-x="466" d="M102 258q0 103 36.5 245.5t66.5 220t59 142.5q123 269 197 396q83 143 167.5 259.5t114.5 116.5q11 0 11 -14q0 -9 -13 -32.5t-47.5 -79.5t-58.5 -97q-62 -106 -154 -342t-153 -438q-72 -241 -72 -424q0 -73 24 -115.5t68 -42.5q30 0 60 19q7 4 18 11.5t18 12t9 4.5 q12 0 12 -12q0 -7 -13.5 -23t-33.5 -30q-51 -35 -109 -35q-89 0 -148 61.5t-59 196.5z" />
<glyph unicode="&#xe06e;" horiz-adv-x="557" d="M-539 -1219q0 3 2 6.5t7 8t8.5 7t12.5 8.5t13 9q61 44 135.5 126.5t122.5 158.5q87 140 146 270t133 342q56 161 153.5 495t163.5 611q-54 -22 -124 -35.5t-97 -13.5q-28 0 -28 21q0 20 20 26q198 50 252 76q80 274 145 414q68 146 156.5 236.5t185.5 90.5q49 0 76 -32 t27 -66q0 -12 -15 -12q-10 0 -18 16q-17 29 -31.5 39t-38.5 10q-41 0 -81 -41.5t-71.5 -107.5t-54 -127t-38.5 -121l-70 -264q24 6 113 33q68 20 77 20q21 0 21 -20q0 -21 -35 -39q-69 -31 -192 -64q-61 -266 -181 -676q-101 -343 -268 -676t-328 -522q-65 -76 -149 -145 q-89 -74 -133 -74q-17 0 -17 12z" />
<glyph unicode="&#xe070;" horiz-adv-x="718" d="M-63 633q0 7 11.5 10.5t37 6t37.5 5.5q99 20 165 54q36 97 90.5 204.5t130 219.5t156.5 201t176 145.5t183 56.5q69 0 103 -44.5t34 -109.5q0 -117 -98 -245.5t-258 -238.5t-357 -191q-37 -103 -76 -275q89 86 195 86q31 0 59 -8.5t59.5 -30t50.5 -69t19 -115.5 q0 -126 -97 -218.5t-228 -92.5q-62 0 -109.5 26t-74 68.5t-39.5 91t-13 100.5q0 173 72 379q-43 -16 -95 -25.5t-75 -9.5q-59 0 -59 19zM225 168q0 -75 30 -111.5t77 -36.5q69 0 121.5 86.5t52.5 200.5q0 154 -90 154q-81 0 -136 -86t-55 -207zM367 768q81 36 165 83 t172 110.5t155.5 129t111 141.5t43.5 146q0 119 -101 119q-47 0 -100.5 -30.5t-100.5 -77.5t-83 -93t-62 -88q-88 -141 -200 -440z" />
<glyph unicode="&#xe071;" horiz-adv-x="708" d="M-655 -1354q0 6 7.5 13t16.5 8q91 14 105 18q105 29 198 77t164.5 102t136.5 127.5t110.5 139.5t91 152t74 151t62.5 150q23 58 75.5 242t66.5 266q-41 -53 -85.5 -77.5t-123.5 -24.5q-36 0 -70 12t-63.5 36t-47.5 66.5t-18 98.5q0 137 87.5 225t207.5 88q112 0 162 -88 l6 66q6 21 16 26.5t35 5.5h55q23 0 32 -6.5t9 -23.5q0 -71 -34 -277t-86 -391q-50 -179 -153.5 -380.5t-195.5 -326.5q-78 -107 -175 -194.5t-186 -141.5t-177 -91t-151.5 -51.5t-106.5 -14.5q-45 0 -45 18zM205 186q0 -65 22.5 -107t71.5 -42q39 0 66.5 21t56.5 65 q51 76 51 221q0 64 -25.5 93.5t-60.5 29.5q-52 0 -95.5 -46t-65 -109.5t-21.5 -125.5z" />
<glyph unicode="&#xe072;" horiz-adv-x="677" d="M59 236q0 123 89.5 204.5t211.5 81.5q81 0 121.5 -32.5t40.5 -79.5q0 -71 -75.5 -120.5t-229.5 -49.5q0 -78 46.5 -131.5t131.5 -53.5q97 0 183 86q10 10 23.5 27t22 26t13.5 9q14 0 14 -19t-16 -43q-65 -92 -172 -129q-51 -18 -115 -18q-130 0 -209.5 67.5t-79.5 174.5z M219 276q79 4 133 49t54 103q0 22 -15 36.5t-35 14.5q-43 0 -76 -37.5t-46.5 -81.5t-14.5 -84z" />
<glyph unicode="&#xe073;" horiz-adv-x="972" d="M-18 20q0 11 14 11q2 0 19 -4t30 -4q75 0 129.5 79t54.5 199q0 88 -29 133t-75 45q-11 0 -30 -5t-21 -5q-13 0 -13 12t33.5 23.5t67.5 11.5q98 0 145 -79t47 -212q64 93 119 228q3 9 8 23t8 20q7 16 31 16h45q27 0 27 -23q0 -61 -51 -243q72 106 149 176q98 93 207 96 q36 0 61 -10.5t25 -24.5t-10 -14q-4 0 -20 5t-27 5q-67 0 -118.5 -90.5t-51.5 -204.5q0 -61 20.5 -104t65.5 -43q15 0 30 6q3 1 10.5 5t14 6.5t10.5 2.5q11 0 11 -10q0 -14 -23 -29q-33 -22 -84 -22q-89 0 -141 57q-45 48 -45 156q0 60 12 106q-18 -21 -34.5 -43 t-30.5 -46.5t-24 -42.5t-22 -45t-17 -39t-16.5 -40t-13.5 -34q-11 -25 -30 -25h-58q-18 0 -18 23q0 11 23.5 111.5t37.5 154.5q-109 -190 -207 -252q-73 -47 -164 -47q-33 0 -57 8t-24 22z" />
<glyph unicode="&#xe074;" horiz-adv-x="507" d="M-307 -971q0 82 54 186t116 167q168 171 401 286q6 56 6 107q0 53 -13.5 114.5t-39.5 104.5q-35 58 -78.5 81t-77.5 23q-22 0 -22 13q0 12 29 22q42 17 100 60q40 29 59 46t37.5 49t18.5 70q0 40 -21.5 67.5t-60.5 27.5q-36 0 -64.5 -14t-68.5 -58q-18 -23 -29 -23 q-12 0 -12 19q0 16 21 46t56 54q70 47 146 47q88 0 125 -44t37 -103q0 -106 -138 -191q-58 -36 -127 -61q2 -1 34 -14.5t54 -25t44 -28.5q145 -112 145 -336q104 48 176 48q31 0 31 -13q0 -15 -21 -18q-80 -13 -188 -66q-8 -133 -68 -272.5t-146.5 -248.5t-195.5 -179 t-211 -70q-50 0 -79 37t-29 90zM-258 -971q0 -92 70 -92q35 0 70.5 17t72 51.5t58 58t53.5 62.5q79 98 132 234t62 261q-117 -60 -226 -148.5t-177 -172.5q-115 -141 -115 -271z" />
<glyph unicode="&#xe075;" horiz-adv-x="847" d="M61 184q0 106 33.5 193t59.5 119q13 16 41 16h84q22 0 22 -25q0 -4 -21 -53.5t-42 -124.5t-21 -141q0 -90 49 -90q35 0 71.5 39t68.5 119q13 32 26.5 73.5t21.5 70t17.5 66t11.5 43.5q6 23 35 23h98q21 0 21 -23q0 -3 -31 -130.5t-31 -198.5q0 -53 22.5 -93t72.5 -40 q29 0 57.5 20.5t48.5 41t27 20.5q16 0 16 -17q0 -13 -24.5 -43.5t-55.5 -50.5q-50 -31 -100 -31q-46 0 -82 15t-57 37.5t-35.5 52.5t-20.5 55t-8 51q-86 -178 -223 -178q-67 0 -109.5 50t-42.5 134z" />
<glyph unicode="&#xe076;" horiz-adv-x="851" d="M61 178q0 97 19 175t37.5 109.5t29.5 37.5q12 12 33 12h82q23 0 23 -25q0 -4 -19.5 -58.5t-39 -135t-19.5 -146.5q0 -92 55 -92q71 0 144 164q17 38 34 95t30.5 111.5t16.5 63.5q9 23 35 23h94q21 0 21 -23q0 -15 -33 -140.5t-33 -184.5q0 -48 19.5 -82.5t64.5 -34.5 q38 0 70.5 18t52 36t25.5 18q16 0 16 -17q0 -27 -65 -69.5t-148 -42.5q-38 0 -69 14.5t-48.5 35t-30.5 48.5t-18 48t-8 42q-10 -21 -15.5 -31t-22 -37.5t-33.5 -44t-40.5 -36.5t-53.5 -29.5t-64 -9.5q-54 0 -98 53.5t-44 134.5zM299 723q0 35 22.5 56.5t55.5 21.5 q27 0 46 -19.5t19 -52.5q0 -17 -4 -33q65 0 131 60q57 51 99 141q10 23 22 23t12 -21q0 -23 -21.5 -67.5t-59.5 -86.5q-57 -67 -125 -90q-52 -18 -93 -18q-45 0 -74.5 24.5t-29.5 61.5z" />
<glyph unicode="&#xe077;" horiz-adv-x="702" d="M43 27q0 31 45 237q23 107 51 221q7 27 47 27h64q35 0 35 -27q0 -12 -39 -198q111 29 236 112t214 195q59 72 95 149q3 8 10.5 15.5t11.5 7.5q5 0 9.5 -8t4.5 -15q0 -6 -6 -30q-11 -37 -43.5 -92t-77.5 -107q-146 -170 -383 -272q68 -146 154 -238q123 -132 229 -180.5 t215 -48.5q93 0 175 28q13 5 29 11.5t24.5 10t11.5 3.5q12 0 12 -8q0 -12 -26 -29q-46 -27 -113.5 -44t-122.5 -17q-127 0 -239 37q-102 34 -178.5 84t-145.5 122q-30 30 -72.5 89t-56.5 96l-27 -123q-10 -35 -36 -35h-82q-25 0 -25 27zM487 659q0 24 14 39t36 15 q25 0 39 -14.5t14 -39.5q0 -22 -14.5 -35.5t-38.5 -13.5q-22 0 -36 13.5t-14 35.5z" />
<glyph unicode="&#xe078;" horiz-adv-x="540" d="M-985 -160q0 23 14 23q7 0 17 -15q25 -48 65 -88q68 -68 136.5 -91t164.5 -23q123 0 254 68.5t247 185t217.5 267.5t176.5 320q7 17 17 21t32 4h64q43 0 43 -23q0 -22 -26.5 -141.5t-26.5 -224.5q0 -72 47 -72q9 0 22 6t17 6q10 0 10 -10q0 -16 -35 -39q-31 -20 -84 -20 q-119 0 -119 158q0 28 10.5 92t28.5 123q-11 -16 -53.5 -100t-99.5 -171q-50 -74 -103 -140t-126.5 -135.5t-149.5 -119t-171 -81.5t-192 -32q-72 0 -136.5 17t-129.5 63t-109 117q-22 36 -22 55z" />
<glyph unicode="&#xe079;" horiz-adv-x="929" d="M-1614 -592q0 108 53 195q13 22 27 22q10 0 10 -10q0 -7 -12 -43q-23 -70 -23 -156q0 -143 92.5 -232t245.5 -89q109 0 224.5 34t261.5 124t291 231q227 221 407.5 448.5t351.5 511.5q38 68 82 68h74q33 0 33 -29q0 -20 -4.5 -65.5t-12.5 -121t-12 -118.5q20 26 54 72.5 t44 58.5q127 155 166 189q17 14 41 14h66q16 0 16 -23q0 -10 -26 -116q-33 -139 -33 -223q0 -22 3 -42.5t14 -38.5t28 -18q24 0 24 -14q0 -16 -18 -27q-25 -18 -78 -18q-62 0 -96.5 44t-34.5 111q0 88 37 205q-16 -20 -79 -107.5t-144 -187.5q-46 -57 -88 -57h-39 q-14 0 -23.5 10.5t-9.5 28.5q0 25 16.5 152.5t34.5 205.5q-121 -227 -297.5 -460.5t-371.5 -434.5q-85 -88 -182 -165.5t-214 -147.5t-250 -111t-260 -41q-120 0 -210.5 52.5t-134.5 136t-44 182.5z" />
<glyph unicode="&#xe07a;" horiz-adv-x="741" d="M-498 -1417q0 4 3 8t5.5 6t9.5 6.5t9 5.5q74 47 180 183q274 360 373 1126q8 64 23 267.5t20 252.5q5 42 16.5 58t42.5 16h72q9 0 17 -7.5t8 -17.5q0 -8 -5 -43q67 78 181 78q87 0 148 -62t61 -163q0 -74 -24 -135.5t-62.5 -99t-83.5 -58t-90 -20.5q-115 0 -164 63 q-36 -364 -133 -678q-18 -59 -39.5 -117t-63 -145.5t-88.5 -163.5t-118 -159t-150 -144q-93 -72 -131 -72q-17 0 -17 15zM250 131q17 -47 42.5 -72.5t69.5 -25.5q61 0 104.5 84.5t43.5 193.5q0 78 -31 118t-76 40q-40 0 -70.5 -20.5t-62.5 -63.5q-6 -28 -11.5 -127 t-8.5 -127z" />
<glyph unicode="&#xe07b;" horiz-adv-x="624" d="M20 506q0 13 10.5 19.5t24.5 6.5q9 0 38 -5t83 -10t123 -5q95 0 161 5t97 10t41 5q23 0 23 -14q0 -19 -11 -29t-35 -18q-67 -25 -180 -29q-2 -12 -20.5 -113t-32.5 -169t-25 -105q-8 -28 -19 -41.5t-30 -13.5h-102q-31 0 -31 29q0 10 10 55q56 230 78 358q-144 9 -186 37 q-17 10 -17 27z" />
<glyph unicode="&#xe07c;" horiz-adv-x="755" d="M-942 -1391q0 9 9 14t20 5q9 0 44 -4t62 -4q145 0 287 53t262 144.5t227 216t189.5 264.5t142.5 292q104 262 176 572q-26 -44 -46.5 -71.5t-50.5 -52.5t-68 -36.5t-89 -11.5q-63 0 -103 51.5t-40 153.5q0 100 40 208.5t87 108.5h67q37 0 37 -33q0 -10 -37.5 -133.5 t-37.5 -191.5q0 -95 57 -95q42 0 89 49.5t89 147.5q11 25 24 73t24.5 98t15.5 62q8 23 38 23h86q33 0 33 -33q0 -101 -72.5 -384t-183.5 -550q-58 -140 -145 -277.5t-205.5 -264.5t-251.5 -224t-292.5 -155t-319.5 -58q-53 0 -108.5 9.5t-55.5 33.5z" />
<glyph unicode="&#xe07d;" horiz-adv-x="614" d="M-639 -543q0 13 12 13q3 0 18 -1t23 -1q39 0 86 14q110 32 226 121.5t213 206.5q218 264 290 440q-37 119 -69 162q-18 26 -51 26q-8 0 -24.5 -6t-23.5 -6q-12 0 -12 10q0 12 19 31q45 45 114 45q43 0 70 -18q45 -27 102 -140q42 62 96 110t93 48q32 0 32 -12 q0 -9 -24 -19q-23 -10 -62 -49q-52 -52 -104 -141q21 -61 57.5 -129t71.5 -103q11 -11 22 -16.5t17 -6t10 -3t4 -8.5q0 -14 -24 -23.5t-58 -9.5q-127 0 -209 164q-120 -207 -286 -398q-210 -238 -461 -307q-44 -14 -104 -14q-19 0 -41.5 5.5t-22.5 14.5z" />
<glyph unicode="&#xe07e;" horiz-adv-x="722" d="M29 53q0 10 10 10q6 0 8 -2q22 -14 41 -14q43 0 88 35q40 31 79.5 82.5t63.5 97.5q-43 118 -67 150q-20 26 -45 26q-16 0 -32 -6t-21 -6q-13 0 -13 10q0 12 19 31q45 45 114 45q43 0 70 -18q10 -6 19 -14.5t15.5 -15.5t15 -21.5t12.5 -22t14.5 -27.5t15.5 -28 q65 78 111.5 115.5t99.5 37.5q21 0 35 -10.5t14 -20.5q0 -8 -5 -12t-21 -4q-33 0 -74 -41q-71 -71 -121 -143q62 -163 127 -228q11 -11 22 -16.5t17 -6t10 -3t4 -8.5q0 -14 -24 -23.5t-58 -9.5q-68 0 -114 41.5t-97 134.5q-2 -2 -20.5 -24.5t-28 -33t-28.5 -30t-39 -35 t-43 -29.5q-34 -20 -74 -20q-51 0 -78 24q-22 18 -22 33z" />
<glyph unicode="&#xe07f;" horiz-adv-x="675" d="M-1153 -487q0 8 16 8q5 0 17 -4t36 -12.5t46 -14.5q71 -22 172 -22q78 0 199 31t237 102q92 56 185.5 130t161.5 137.5t143.5 145t114 126.5t89.5 108q-55 11 -90 46.5t-35 86.5q0 63 52 102t128 39q92 0 148 -43q5 15 13 22.5t15 9t19 1.5h57q29 0 29 -25 q0 -4 -1.5 -10.5t-6 -22.5t-8.5 -34q-43 -202 -43 -281q0 -42 11.5 -69t31.5 -27q10 0 24 4t15 4q14 0 14 -12q0 -19 -30 -34t-56 -15q-59 0 -92 24q-27 20 -40 58t-13 75q0 40 8 76q-33 -44 -113 -131q-245 -267 -459 -418q-76 -54 -143.5 -94t-156.5 -80t-190 -61 t-208 -21q-67 0 -149 19.5t-134 50.5q-14 8 -14 25zM-803 -319q0 24 13.5 38.5t35.5 14.5q25 0 39.5 -14t14.5 -39q0 -22 -15 -36t-39 -14q-22 0 -35.5 14t-13.5 36zM274 360q0 -49 27.5 -74.5t73.5 -25.5q31 0 41 2q18 107 39 180q-37 29 -68 29q-53 0 -83 -32.5t-30 -78.5 z" />
<glyph unicode="&#xe080;" horiz-adv-x="667" d="M-702 -883q0 5 3 8.5t11.5 7t15.5 5.5t22.5 6.5t24.5 7.5q132 40 265 138.5t229 220.5q51 65 96 126t84.5 124t65.5 104t60 106t46 88t46 92t38 78q-60 6 -104.5 47.5t-44.5 94.5q0 70 56.5 109.5t135.5 39.5q71 0 135 -37q8 24 18.5 30.5t28.5 6.5l56 2q16 0 22 -5.5 t6 -18.5q0 -6 -16 -78q-39 -183 -39 -273q0 -62 39 -118q5 -6 12.5 -13t12 -12t4.5 -10q0 -19 -39 -19q-52 0 -92 29q-15 11 -27 24t-19 32t-12 31.5t-7 36.5t-3 33t-1.5 34.5t-0.5 27.5q-65 -215 -209 -429.5t-293 -356.5q-147 -143 -305 -232q-85 -48 -169 -76t-126 -28 q-26 0 -26 16zM291 360q0 -49 27 -74.5t73 -25.5q31 0 41 2q21 124 39 187q-34 18 -68 18q-46 0 -79 -32t-33 -75z" />
<glyph unicode="&#xe081;" horiz-adv-x="559" d="M-59 100q0 9 5.5 17t12.5 8q10 0 16 -10.5t11 -28t10 -25.5q13 -22 35 -22q35 0 57 24q35 37 71 95t58 102t57.5 119.5t49.5 103.5q14 29 47 29h78q32 0 32 -25q0 -11 -5.5 -37t-16 -71.5t-17.5 -89.5q-20 -125 -20 -166q0 -72 47 -72q9 0 22 6t17 6q10 0 10 -10 q0 -14 -37 -39q-31 -20 -82 -20q-120 0 -120 158q0 52 43 208q-10 -20 -36 -73.5t-39.5 -80t-37.5 -66.5t-49 -72q-32 -41 -61 -59.5t-70 -18.5q-47 0 -68 37q-20 32 -20 73z" />
<glyph unicode="&#xe082;" horiz-adv-x="884" d="M-59 98q0 9 5.5 17t12.5 8q10 0 17 -10t13 -28t11 -26q13 -22 35 -22q29 0 53 24q19 19 39 44.5t35 46t35 55.5t30.5 53t30.5 60t26 54t27 57.5t23 49.5q14 29 47 29h78q33 0 33 -25q0 -8 -3 -20q-2 -19 -11 -85.5t-13 -105.5q-6 -50 -6 -92q17 22 57 77.5t64.5 88t60 76 t64.5 74.5q12 14 40 14h66q16 0 16 -23q0 -21 -20 -116q-33 -157 -33 -223q0 -22 3 -42.5t14 -38.5t28 -18q25 0 25 -14q0 -16 -19 -27q-25 -18 -77 -18q-62 0 -97 44t-35 111q0 88 37 205q-29 -36 -89.5 -122.5t-123.5 -170.5q-23 -31 -38 -45t-31 -14h-31q-14 0 -22.5 5.5 t-12 18.5t-4 22.5t-0.5 27.5q0 108 25 278q-63 -156 -164 -286q-32 -40 -61.5 -59t-71.5 -19q-47 0 -68 37q-20 32 -20 73z" />
<glyph unicode="&#xf730;" horiz-adv-x="817" d="M53 238q0 101 58.5 188t157 137.5t212.5 50.5q111 0 189 -69t78 -187q0 -56 -27.5 -118.5t-78.5 -119.5t-136 -94.5t-187 -37.5q-104 0 -185 70t-81 180zM199 203q0 -172 125 -172q75 0 140 64t99.5 153t34.5 172q0 85 -36 120t-89 35q-52 0 -98.5 -27.5t-77.5 -70 t-54 -93.5t-33.5 -98t-10.5 -83z" />
<glyph unicode="&#xf731;" horiz-adv-x="841" d="M68 -39q0 23 30 35q6 2 35.5 12.5t54 18.5t66.5 18t84 16q50 115 88.5 196.5t81.5 180.5q-51 -42 -186 -106q-123 -56 -144 -56q-31 0 -31 15q0 24 43 41q106 42 199.5 96t235.5 150q16 11 49 39t57.5 46.5t34.5 18.5q25 0 25 -14q0 -6 -5 -19t-8 -16q-4 -8 -50.5 -99.5 t-57.5 -115.5q-16 -37 -40 -90t-35 -78t-32 -77.5t-47 -125.5q71 -7 113 -27q4 -1 8 -7t4 -9q0 -29 -31 -29q-12 0 -18 2q-64 19 -219 19q-56 0 -118.5 -14t-105.5 -28.5t-51 -14.5q-30 0 -30 22z" />
<glyph unicode="&#xf732;" horiz-adv-x="749" d="M68 0q0 20 24.5 55.5t48.5 59.5q49 49 91.5 79.5t99.5 60.5t71 38q53 33 81 67.5t28 81.5q0 50 -32 75.5t-77 25.5q-74 0 -159 -54q-2 -1 -10.5 -7t-15 -9.5t-11.5 -3.5q-14 0 -14 16q0 21 36 50t80 47q72 30 156 30q98 0 160 -49q61 -48 61 -121q0 -49 -27.5 -86 t-91.5 -82q-39 -27 -111 -49t-138 -47.5t-105 -66.5q28 4 43 4q105 0 231 -99q40 -32 86 -32q17 0 40.5 5t27.5 5q14 0 14 -14q0 -19 -35.5 -32.5t-60.5 -13.5q-72 0 -160 38t-145 38q-65 0 -112 -14t-56 -14q-18 0 -18 18z" />
<glyph unicode="&#xf734;" horiz-adv-x="878" d="M31 27q0 18 18 30q140 121 307 297q56 59 146.5 171t140.5 186q31 46 45 59.5t31 13.5q8 0 13 -9.5t5 -18.5q0 -39 -168 -310q-65 -106 -152.5 -219t-144.5 -170q52 2 164.5 17t143.5 30q39 92 108 222q18 39 60 39h51q43 0 43 -23q0 -16 -8 -27q-54 -122 -123 -321 q-30 -87 -55.5 -173t-26.5 -89q-12 -39 -35 -39h-113q-26 3 -26 28q0 38 31.5 137t70.5 185q-94 -21 -235 -32t-222 -11q-69 0 -69 27z" />
<glyph unicode="&#xf735;" horiz-adv-x="931" d="M-530 -872q0 16 12 16q6 0 59.5 -8t100.5 -8q147 0 298 72t265.5 184.5t187 259t72.5 288.5q0 117 -72.5 193t-195.5 76q-18 0 -52.5 -2t-44.5 -2t-10 10q0 8 7 20t21.5 30.5t16.5 21.5q108 151 176 299q10 26 19 33t30 7q9 0 82 -7t117 -7q50 0 120.5 10t108.5 19 q62 16 68 16q22 0 26.5 -3t4.5 -17q0 -28 -68 -49q-121 -37 -358 -43q-19 -46 -76 -142.5t-98 -148.5q170 -20 258 -112.5t88 -242.5q0 -100 -38.5 -201.5t-105.5 -190t-161 -166t-201 -132.5t-230 -87t-245 -32q-51 0 -116.5 10.5t-65.5 35.5z" />
<glyph unicode="&#xf736;" horiz-adv-x="839" d="M33 330q0 144 95 310t262.5 313t365.5 231q48 21 122.5 45t96.5 24q18 0 24.5 -2.5t6.5 -11.5q0 -3 -1 -5.5t-4 -5.5t-6 -5t-9 -5t-10.5 -5.5t-13.5 -6t-15.5 -6t-18 -7t-19.5 -7.5q-239 -93 -417.5 -267.5t-262.5 -410.5q67 55 123.5 82.5t134.5 27.5q128 0 210.5 -69 t82.5 -191q0 -103 -60.5 -191.5t-158.5 -139t-207 -50.5q-163 0 -242 93.5t-79 259.5zM190 236q0 -49 12.5 -92t48.5 -76t91 -33q77 0 139.5 53.5t94.5 133t32 165.5q0 25 -6 51.5t-21.5 56.5t-49 49t-80.5 19q-64 0 -115.5 -31t-82 -80.5t-47 -105.5t-16.5 -110z" />
<glyph unicode="&#xf737;" horiz-adv-x="935" d="M-70 -682q0 63 107 258t284 445t351 442q-80 -8 -101 -8q-51 0 -97.5 14.5t-73.5 32.5t-58.5 32.5t-56.5 14.5q-36 0 -64 -14q-59 -32 -110 -95q-9 -12 -21 -19t-16 -7q-19 0 -19 22q0 42 55 104t97 78q62 25 94 25q27 0 56 -9.5t53.5 -21t78 -21t125.5 -9.5 q81 0 147.5 16t78.5 16q32 0 32 -26q0 -6 -6 -16t-11.5 -17t-16 -18t-11.5 -13q-182 -200 -284 -358q-292 -455 -430 -823q-23 -60 -88 -60q-22 0 -35.5 1t-29 4t-23 10.5t-7.5 19.5z" />
<glyph unicode="&#xf738;" horiz-adv-x="950" d="M72 307q0 73 31.5 142t79.5 122t118.5 105.5t133 88.5t138.5 73q-49 94 -49 180q0 104 81.5 169.5t197.5 65.5q24 0 50 -6.5t51 -20.5t41 -40.5t16 -61.5q0 -41 -21.5 -81t-48.5 -67.5t-69.5 -57t-65.5 -42.5t-56 -30q154 -208 154 -402q0 -83 -34 -163t-92.5 -142.5 t-145 -100.5t-183.5 -38q-140 0 -233.5 81.5t-93.5 225.5zM225 252q-3 -98 51 -156.5t132 -58.5q60 0 109.5 25.5t83 66.5t56.5 94.5t33 107.5t10 107q0 74 -32.5 182.5t-73.5 172.5q-97 -52 -169.5 -119t-114.5 -138.5t-62.5 -142t-22.5 -141.5zM629 1034q0 -73 43 -137 q89 40 147 106.5t58 139.5q0 31 -22.5 52.5t-49.5 21.5q-85 0 -130.5 -55t-45.5 -128z" />
<glyph unicode="&#xf739;" horiz-adv-x="878" d="M-356 -899q0 13 14 16q100 21 271 124t278 210q125 125 242 330.5t143 318.5q-68 -61 -135 -80.5t-140 -19.5q-116 0 -183.5 70.5t-67.5 177.5q0 68 32.5 133.5t89.5 117t143 83.5t185 32q122 0 206.5 -86.5t84.5 -246.5q0 -119 -48.5 -251t-130.5 -252.5t-178 -226 t-202 -192.5q-119 -97 -303 -185.5t-285 -88.5q-16 0 -16 16zM238 244q0 -78 35 -132.5t98 -54.5q79 0 142.5 50.5t96.5 127t33 158.5q0 73 -34.5 119.5t-102.5 46.5q-72 0 -135 -49t-98 -121.5t-35 -144.5z" />
<glyph horiz-adv-x="753" d="M-395 -899q0 11 22 16q21 4 118 12t214 40q121 34 225.5 103.5t174 154.5t108.5 178t39 178q0 86 -26 153.5t-69.5 108t-96.5 61.5t-111 21q-16 0 -37 1t-35 1q-18 0 -18 14q0 3 4 15q4 4 12.5 6t29.5 5.5t29 4.5q118 23 202.5 90.5t84.5 157.5q0 63 -34 94t-89 31 q-20 0 -42.5 -7.5t-37 -15.5t-36 -21t-27.5 -16q-21 3 -21 19q0 6 8 14.5t42 36.5q84 57 198 57q82 0 138.5 -45.5t56.5 -113.5q0 -58 -29 -107.5t-78.5 -83.5t-100.5 -57t-110 -39q166 -29 265.5 -129.5t99.5 -263.5q0 -110 -65.5 -221t-171 -198.5t-237.5 -153.5t-265 -95 q-127 -29 -289 -29q-18 0 -31.5 6.5t-13.5 16.5z" />
<glyph horiz-adv-x="1126" d="M123 143q0 25 37 78q67 101 147 156q-74 80 -74 215q0 64 29.5 128t81.5 109q-45 46 -92 118.5t-47 101.5q0 26 20 26q6 0 11 -1t10 -4t8.5 -5.5t9.5 -8t8.5 -8t9 -10t9.5 -10.5q85 -92 145 -141q59 24 180 24q68 0 132 -30q63 41 161 123q63 55 76 55q19 0 19 -19 q0 -35 -61.5 -109t-111.5 -112q66 -72 66 -190q0 -143 -109 -240q36 -54 99 -121q13 -13 33.5 -28t30.5 -25t10 -20q0 -9 -7 -16t-16 -7q-75 0 -166 76q-40 34 -82 82q-70 -33 -158 -33q-70 0 -143 27q-35 -19 -151 -131q-72 -72 -99 -72q-16 0 -16 22zM334 590 q0 -93 53 -162.5t141 -69.5q113 0 188 69.5t75 190.5q0 104 -54.5 164t-142.5 60q-104 0 -182 -69.5t-78 -182.5z" />
<glyph horiz-adv-x="460" d="M180 612q0 25 13.5 39.5t35.5 14.5q25 0 39.5 -14.5t14.5 -39.5q0 -22 -14.5 -35.5t-39.5 -13.5q-22 0 -35.5 13.5t-13.5 35.5z" />
</font>
</defs>
</svg>
